G75*
%MOIN*%
%OFA0B0*%
%FSLAX25Y25*%
%IPPOS*%
%LPD*%
%AMOC8*
5,1,8,0,0,1.08239X$1,22.5*
%
%ADD10C,0.00500*%
%ADD11C,0.00400*%
%ADD12C,0.00600*%
%ADD13C,0.00800*%
%ADD14R,0.05906X0.09843*%
%ADD15R,0.01500X0.02000*%
%ADD16C,0.00591*%
%ADD17C,0.01682*%
%ADD18R,0.02000X0.01500*%
%ADD19C,0.01000*%
%ADD20C,0.01200*%
%ADD21C,0.00700*%
D10*
X0113500Y0100000D02*
X0238500Y0100000D01*
X0238500Y0180000D01*
X0113500Y0180000D01*
X0113500Y0100000D01*
X0092999Y0129250D02*
X0093750Y0130001D01*
X0093750Y0131502D01*
X0092999Y0132253D01*
X0093750Y0133854D02*
X0093750Y0136856D01*
X0093750Y0135355D02*
X0089246Y0135355D01*
X0090747Y0133854D01*
X0089997Y0132253D02*
X0089246Y0131502D01*
X0089246Y0130001D01*
X0089997Y0129250D01*
X0092999Y0129250D01*
X0093750Y0138458D02*
X0093750Y0141460D01*
X0093750Y0139959D02*
X0089246Y0139959D01*
X0090747Y0138458D01*
X0142250Y0098503D02*
X0142250Y0095501D01*
X0143001Y0094750D01*
X0144502Y0094750D01*
X0145253Y0095501D01*
X0146854Y0097002D02*
X0149106Y0099254D01*
X0149106Y0094750D01*
X0149856Y0097002D02*
X0146854Y0097002D01*
X0145253Y0098503D02*
X0144502Y0099254D01*
X0143001Y0099254D01*
X0142250Y0098503D01*
X0170501Y0194750D02*
X0172002Y0194750D01*
X0172753Y0195501D01*
X0174354Y0195501D02*
X0175105Y0194750D01*
X0176606Y0194750D01*
X0177356Y0195501D01*
X0177356Y0196251D01*
X0176606Y0197002D01*
X0175855Y0197002D01*
X0176606Y0197002D02*
X0177356Y0197753D01*
X0177356Y0198503D01*
X0176606Y0199254D01*
X0175105Y0199254D01*
X0174354Y0198503D01*
X0172753Y0198503D02*
X0172002Y0199254D01*
X0170501Y0199254D01*
X0169750Y0198503D01*
X0169750Y0195501D01*
X0170501Y0194750D01*
X0242350Y0190054D02*
X0245353Y0190054D01*
X0243851Y0190054D02*
X0243851Y0185550D01*
X0246954Y0185550D02*
X0249956Y0185550D01*
X0251558Y0185550D02*
X0251558Y0190054D01*
X0253059Y0188553D01*
X0254560Y0190054D01*
X0254560Y0185550D01*
X0256162Y0185550D02*
X0256162Y0190054D01*
X0258414Y0190054D01*
X0259164Y0189303D01*
X0259164Y0187802D01*
X0258414Y0187051D01*
X0256162Y0187051D01*
X0260766Y0186301D02*
X0261516Y0185550D01*
X0263018Y0185550D01*
X0263768Y0186301D01*
X0263768Y0187051D01*
X0263018Y0187802D01*
X0261516Y0187802D01*
X0260766Y0188553D01*
X0260766Y0189303D01*
X0261516Y0190054D01*
X0263018Y0190054D01*
X0263768Y0189303D01*
X0265370Y0190054D02*
X0265370Y0185550D01*
X0268372Y0185550D01*
X0269974Y0185550D02*
X0269974Y0190054D01*
X0272976Y0185550D01*
X0272976Y0190054D01*
X0274577Y0189303D02*
X0274577Y0188553D01*
X0275328Y0187802D01*
X0276829Y0187802D01*
X0277580Y0187051D01*
X0277580Y0186301D01*
X0276829Y0185550D01*
X0275328Y0185550D01*
X0274577Y0186301D01*
X0274577Y0189303D02*
X0275328Y0190054D01*
X0276829Y0190054D01*
X0277580Y0189303D01*
X0279181Y0190054D02*
X0279181Y0185550D01*
X0282184Y0185550D01*
X0280683Y0187802D02*
X0279181Y0187802D01*
X0279181Y0190054D02*
X0282184Y0190054D01*
X0268372Y0190054D02*
X0265370Y0190054D01*
X0265370Y0187802D02*
X0266871Y0187802D01*
X0251700Y0176128D02*
X0251700Y0175072D01*
X0247728Y0180102D02*
X0247513Y0179998D01*
X0247300Y0179889D01*
X0247090Y0179775D01*
X0246883Y0179656D01*
X0246678Y0179533D01*
X0246476Y0179405D01*
X0246277Y0179272D01*
X0246082Y0179135D01*
X0245889Y0178994D01*
X0245700Y0178848D01*
X0245700Y0162352D01*
X0251700Y0165072D02*
X0251700Y0166128D01*
X0247822Y0161054D02*
X0247597Y0161161D01*
X0247374Y0161273D01*
X0247154Y0161390D01*
X0246937Y0161512D01*
X0246722Y0161640D01*
X0246511Y0161773D01*
X0246303Y0161910D01*
X0246099Y0162053D01*
X0245897Y0162200D01*
X0245700Y0162352D01*
X0256672Y0161100D02*
X0256902Y0161212D01*
X0257129Y0161329D01*
X0257353Y0161451D01*
X0257574Y0161579D01*
X0257791Y0161713D01*
X0258006Y0161851D01*
X0258217Y0161995D01*
X0258424Y0162144D01*
X0258628Y0162298D01*
X0258828Y0162456D01*
X0259024Y0162620D01*
X0259216Y0162788D01*
X0259404Y0162961D01*
X0259588Y0163139D01*
X0259767Y0163320D01*
X0259942Y0163507D01*
X0260112Y0163697D01*
X0260277Y0163891D01*
X0260438Y0164090D01*
X0260594Y0164292D01*
X0260745Y0164498D01*
X0260891Y0164708D01*
X0261031Y0164921D01*
X0261167Y0165137D01*
X0261297Y0165357D01*
X0261422Y0165580D01*
X0261541Y0165805D01*
X0261655Y0166034D01*
X0261763Y0166265D01*
X0261866Y0166499D01*
X0261963Y0166735D01*
X0262054Y0166974D01*
X0262139Y0167214D01*
X0262219Y0167457D01*
X0262292Y0167702D01*
X0262360Y0167948D01*
X0262421Y0168196D01*
X0262476Y0168445D01*
X0262526Y0168695D01*
X0262569Y0168947D01*
X0262606Y0169200D01*
X0262637Y0169453D01*
X0262662Y0169707D01*
X0262681Y0169962D01*
X0262693Y0170217D01*
X0262699Y0170472D01*
X0262699Y0170728D01*
X0262693Y0170983D01*
X0262681Y0171238D01*
X0262662Y0171493D01*
X0262637Y0171747D01*
X0262606Y0172000D01*
X0262569Y0172253D01*
X0262526Y0172505D01*
X0262476Y0172755D01*
X0262421Y0173004D01*
X0262360Y0173252D01*
X0262292Y0173498D01*
X0262219Y0173743D01*
X0262139Y0173986D01*
X0262054Y0174226D01*
X0261963Y0174465D01*
X0261866Y0174701D01*
X0261763Y0174935D01*
X0261655Y0175166D01*
X0261541Y0175395D01*
X0261422Y0175620D01*
X0261297Y0175843D01*
X0261167Y0176063D01*
X0261031Y0176279D01*
X0260891Y0176492D01*
X0260745Y0176702D01*
X0260594Y0176908D01*
X0260438Y0177110D01*
X0260277Y0177309D01*
X0260112Y0177503D01*
X0259942Y0177693D01*
X0259767Y0177880D01*
X0259588Y0178061D01*
X0259404Y0178239D01*
X0259216Y0178412D01*
X0259024Y0178580D01*
X0258828Y0178744D01*
X0258628Y0178902D01*
X0258424Y0179056D01*
X0258217Y0179205D01*
X0258006Y0179349D01*
X0257791Y0179487D01*
X0257574Y0179621D01*
X0257353Y0179749D01*
X0257129Y0179871D01*
X0256902Y0179988D01*
X0256672Y0180100D01*
X0248455Y0187802D02*
X0246954Y0187802D01*
X0246954Y0190054D02*
X0246954Y0185550D01*
X0246954Y0190054D02*
X0249956Y0190054D01*
X0318000Y0195500D02*
X0318000Y0340500D01*
X0090000Y0340500D01*
X0090000Y0195500D01*
X0318000Y0195500D01*
X0328001Y0282750D02*
X0329502Y0282750D01*
X0330253Y0283501D01*
X0331854Y0282750D02*
X0334856Y0282750D01*
X0333355Y0282750D02*
X0333355Y0287254D01*
X0331854Y0285753D01*
X0330253Y0286503D02*
X0329502Y0287254D01*
X0328001Y0287254D01*
X0327250Y0286503D01*
X0327250Y0283501D01*
X0328001Y0282750D01*
X0336458Y0283501D02*
X0337208Y0282750D01*
X0338710Y0282750D01*
X0339460Y0283501D01*
X0339460Y0284251D01*
X0338710Y0285002D01*
X0337959Y0285002D01*
X0338710Y0285002D02*
X0339460Y0285753D01*
X0339460Y0286503D01*
X0338710Y0287254D01*
X0337208Y0287254D01*
X0336458Y0286503D01*
X0334856Y0296750D02*
X0331854Y0296750D01*
X0333355Y0296750D02*
X0333355Y0301254D01*
X0331854Y0299753D01*
X0330253Y0300503D02*
X0329502Y0301254D01*
X0328001Y0301254D01*
X0327250Y0300503D01*
X0327250Y0297501D01*
X0328001Y0296750D01*
X0329502Y0296750D01*
X0330253Y0297501D01*
X0336458Y0299002D02*
X0339460Y0299002D01*
X0338710Y0296750D02*
X0338710Y0301254D01*
X0336458Y0299002D01*
X0272748Y0343500D02*
X0256252Y0343500D01*
X0258972Y0349500D02*
X0260028Y0349500D01*
X0254998Y0345528D02*
X0255102Y0345313D01*
X0255211Y0345100D01*
X0255325Y0344890D01*
X0255444Y0344683D01*
X0255567Y0344478D01*
X0255695Y0344276D01*
X0255828Y0344077D01*
X0255965Y0343882D01*
X0256106Y0343689D01*
X0256252Y0343500D01*
X0255000Y0354472D02*
X0255112Y0354702D01*
X0255229Y0354929D01*
X0255351Y0355153D01*
X0255479Y0355374D01*
X0255613Y0355591D01*
X0255751Y0355806D01*
X0255895Y0356017D01*
X0256044Y0356224D01*
X0256198Y0356428D01*
X0256356Y0356628D01*
X0256520Y0356824D01*
X0256688Y0357016D01*
X0256861Y0357204D01*
X0257039Y0357388D01*
X0257220Y0357567D01*
X0257407Y0357742D01*
X0257597Y0357912D01*
X0257791Y0358077D01*
X0257990Y0358238D01*
X0258192Y0358394D01*
X0258398Y0358545D01*
X0258608Y0358691D01*
X0258821Y0358831D01*
X0259037Y0358967D01*
X0259257Y0359097D01*
X0259480Y0359222D01*
X0259705Y0359341D01*
X0259934Y0359455D01*
X0260165Y0359563D01*
X0260399Y0359666D01*
X0260635Y0359763D01*
X0260874Y0359854D01*
X0261114Y0359939D01*
X0261357Y0360019D01*
X0261602Y0360092D01*
X0261848Y0360160D01*
X0262096Y0360221D01*
X0262345Y0360276D01*
X0262595Y0360326D01*
X0262847Y0360369D01*
X0263100Y0360406D01*
X0263353Y0360437D01*
X0263607Y0360462D01*
X0263862Y0360481D01*
X0264117Y0360493D01*
X0264372Y0360499D01*
X0264628Y0360499D01*
X0264883Y0360493D01*
X0265138Y0360481D01*
X0265393Y0360462D01*
X0265647Y0360437D01*
X0265900Y0360406D01*
X0266153Y0360369D01*
X0266405Y0360326D01*
X0266655Y0360276D01*
X0266904Y0360221D01*
X0267152Y0360160D01*
X0267398Y0360092D01*
X0267643Y0360019D01*
X0267886Y0359939D01*
X0268126Y0359854D01*
X0268365Y0359763D01*
X0268601Y0359666D01*
X0268835Y0359563D01*
X0269066Y0359455D01*
X0269295Y0359341D01*
X0269520Y0359222D01*
X0269743Y0359097D01*
X0269963Y0358967D01*
X0270179Y0358831D01*
X0270392Y0358691D01*
X0270602Y0358545D01*
X0270808Y0358394D01*
X0271010Y0358238D01*
X0271209Y0358077D01*
X0271403Y0357912D01*
X0271593Y0357742D01*
X0271780Y0357567D01*
X0271961Y0357388D01*
X0272139Y0357204D01*
X0272312Y0357016D01*
X0272480Y0356824D01*
X0272644Y0356628D01*
X0272802Y0356428D01*
X0272956Y0356224D01*
X0273105Y0356017D01*
X0273249Y0355806D01*
X0273387Y0355591D01*
X0273521Y0355374D01*
X0273649Y0355153D01*
X0273771Y0354929D01*
X0273888Y0354702D01*
X0274000Y0354472D01*
X0270028Y0349500D02*
X0268972Y0349500D01*
X0274046Y0345622D02*
X0273939Y0345397D01*
X0273827Y0345174D01*
X0273710Y0344954D01*
X0273588Y0344737D01*
X0273460Y0344522D01*
X0273327Y0344311D01*
X0273190Y0344103D01*
X0273047Y0343899D01*
X0272900Y0343697D01*
X0272748Y0343500D01*
X0272876Y0362250D02*
X0272876Y0366754D01*
X0274477Y0366003D02*
X0275228Y0366754D01*
X0276729Y0366754D01*
X0277480Y0366003D01*
X0276729Y0364502D02*
X0277480Y0363751D01*
X0277480Y0363001D01*
X0276729Y0362250D01*
X0275228Y0362250D01*
X0274477Y0363001D01*
X0275228Y0364502D02*
X0276729Y0364502D01*
X0275228Y0364502D02*
X0274477Y0365253D01*
X0274477Y0366003D01*
X0272876Y0362250D02*
X0269874Y0366754D01*
X0269874Y0362250D01*
X0268272Y0362250D02*
X0265270Y0362250D01*
X0265270Y0366754D01*
X0268272Y0366754D01*
X0266771Y0364502D02*
X0265270Y0364502D01*
X0263668Y0363751D02*
X0263668Y0363001D01*
X0262918Y0362250D01*
X0261416Y0362250D01*
X0260666Y0363001D01*
X0261416Y0364502D02*
X0262918Y0364502D01*
X0263668Y0363751D01*
X0263668Y0366003D02*
X0262918Y0366754D01*
X0261416Y0366754D01*
X0260666Y0366003D01*
X0260666Y0365253D01*
X0261416Y0364502D01*
X0259064Y0364502D02*
X0258314Y0363751D01*
X0256062Y0363751D01*
X0256062Y0362250D02*
X0256062Y0366754D01*
X0258314Y0366754D01*
X0259064Y0366003D01*
X0259064Y0364502D01*
X0254460Y0366754D02*
X0254460Y0362250D01*
X0251458Y0362250D02*
X0251458Y0366754D01*
X0252959Y0365253D01*
X0254460Y0366754D01*
X0249856Y0366754D02*
X0246854Y0366754D01*
X0246854Y0362250D01*
X0249856Y0362250D01*
X0248355Y0364502D02*
X0246854Y0364502D01*
X0245253Y0366754D02*
X0242250Y0366754D01*
X0243751Y0366754D02*
X0243751Y0362250D01*
X0279081Y0362250D02*
X0282084Y0362250D01*
X0283685Y0362250D02*
X0286688Y0362250D01*
X0285187Y0362250D02*
X0285187Y0366754D01*
X0283685Y0365253D01*
X0282084Y0366754D02*
X0279081Y0366754D01*
X0279081Y0362250D01*
X0279081Y0364502D02*
X0280583Y0364502D01*
X0280585Y0389750D02*
X0280585Y0395255D01*
X0278750Y0393420D01*
X0278750Y0389750D02*
X0282420Y0389750D01*
X0284275Y0389750D02*
X0287945Y0393420D01*
X0287945Y0394337D01*
X0287027Y0395255D01*
X0285192Y0395255D01*
X0284275Y0394337D01*
X0284275Y0389750D02*
X0287945Y0389750D01*
X0289799Y0391585D02*
X0291634Y0389750D01*
X0293469Y0391585D01*
X0293469Y0395255D01*
X0289799Y0395255D02*
X0289799Y0391585D01*
X0185732Y0392585D02*
X0185732Y0396255D01*
X0185732Y0392585D02*
X0183897Y0390750D01*
X0182062Y0392585D01*
X0182062Y0396255D01*
X0180207Y0395337D02*
X0180207Y0394420D01*
X0179289Y0393502D01*
X0180207Y0392585D01*
X0180207Y0391667D01*
X0179289Y0390750D01*
X0177455Y0390750D01*
X0176537Y0391667D01*
X0174692Y0391667D02*
X0174692Y0390750D01*
X0173775Y0390750D01*
X0173775Y0391667D01*
X0174692Y0391667D01*
X0171920Y0391667D02*
X0171002Y0390750D01*
X0169167Y0390750D01*
X0168250Y0391667D01*
X0170085Y0393502D02*
X0171002Y0393502D01*
X0171920Y0392585D01*
X0171920Y0391667D01*
X0171002Y0393502D02*
X0171920Y0394420D01*
X0171920Y0395337D01*
X0171002Y0396255D01*
X0169167Y0396255D01*
X0168250Y0395337D01*
X0176537Y0395337D02*
X0177455Y0396255D01*
X0179289Y0396255D01*
X0180207Y0395337D01*
X0179289Y0393502D02*
X0178372Y0393502D01*
X0128193Y0377037D02*
X0128193Y0373367D01*
X0127275Y0372450D01*
X0124523Y0372450D01*
X0124523Y0377955D01*
X0127275Y0377955D01*
X0128193Y0377037D01*
X0122668Y0377955D02*
X0118998Y0377955D01*
X0118998Y0372450D01*
X0122668Y0372450D01*
X0120833Y0375202D02*
X0118998Y0375202D01*
X0117143Y0373367D02*
X0116226Y0372450D01*
X0114391Y0372450D01*
X0113474Y0373367D01*
X0113474Y0377037D01*
X0114391Y0377955D01*
X0116226Y0377955D01*
X0117143Y0377037D01*
X0111619Y0377955D02*
X0111619Y0372450D01*
X0107949Y0377955D01*
X0107949Y0372450D01*
X0106094Y0372450D02*
X0106094Y0376120D01*
X0104259Y0377955D01*
X0102424Y0376120D01*
X0102424Y0372450D01*
X0100569Y0372450D02*
X0096899Y0372450D01*
X0096899Y0377955D01*
X0095045Y0376120D02*
X0095045Y0372450D01*
X0095045Y0375202D02*
X0091375Y0375202D01*
X0091375Y0376120D02*
X0093210Y0377955D01*
X0095045Y0376120D01*
X0091375Y0376120D02*
X0091375Y0372450D01*
X0089520Y0373367D02*
X0088602Y0372450D01*
X0085850Y0372450D01*
X0085850Y0377955D01*
X0088602Y0377955D01*
X0089520Y0377037D01*
X0089520Y0376120D01*
X0088602Y0375202D01*
X0085850Y0375202D01*
X0088602Y0375202D02*
X0089520Y0374285D01*
X0089520Y0373367D01*
X0102424Y0375202D02*
X0106094Y0375202D01*
X0048950Y0347116D02*
X0048950Y0345281D01*
X0048033Y0344364D01*
X0044363Y0348034D01*
X0048033Y0348034D01*
X0048950Y0347116D01*
X0048033Y0344364D02*
X0044363Y0344364D01*
X0043445Y0345281D01*
X0043445Y0347116D01*
X0044363Y0348034D01*
X0039950Y0348044D02*
X0039950Y0350796D01*
X0037198Y0350796D01*
X0036280Y0349879D01*
X0036280Y0348044D01*
X0038115Y0348044D02*
X0038115Y0350796D01*
X0039950Y0352651D02*
X0036280Y0352651D01*
X0036280Y0353569D01*
X0037198Y0354486D01*
X0036280Y0355403D01*
X0037198Y0356321D01*
X0039950Y0356321D01*
X0039950Y0354486D02*
X0037198Y0354486D01*
X0030950Y0354489D02*
X0030033Y0353572D01*
X0028198Y0353572D01*
X0027280Y0354489D01*
X0027280Y0357242D01*
X0028198Y0359097D02*
X0027280Y0360014D01*
X0027280Y0361849D01*
X0028198Y0362766D01*
X0030950Y0362766D01*
X0030950Y0359097D02*
X0025445Y0359097D01*
X0030950Y0357242D02*
X0030950Y0354489D01*
X0027280Y0351720D02*
X0027280Y0350803D01*
X0029115Y0348968D01*
X0030950Y0348968D02*
X0027280Y0348968D01*
X0028198Y0347113D02*
X0030950Y0347113D01*
X0030950Y0344361D01*
X0030033Y0343443D01*
X0029115Y0344361D01*
X0029115Y0347113D01*
X0028198Y0347113D02*
X0027280Y0346196D01*
X0027280Y0344361D01*
X0028198Y0341588D02*
X0029115Y0341588D01*
X0029115Y0337918D01*
X0028198Y0337918D02*
X0030033Y0337918D01*
X0030950Y0338836D01*
X0030950Y0340671D01*
X0028198Y0341588D02*
X0027280Y0340671D01*
X0027280Y0338836D01*
X0028198Y0337918D01*
X0027280Y0336064D02*
X0027280Y0333311D01*
X0028198Y0332394D01*
X0029115Y0333311D01*
X0029115Y0335146D01*
X0030033Y0336064D01*
X0030950Y0335146D01*
X0030950Y0332394D01*
X0029115Y0330539D02*
X0029115Y0326869D01*
X0028198Y0326869D02*
X0030033Y0326869D01*
X0030950Y0327786D01*
X0030950Y0329621D01*
X0029115Y0330539D02*
X0028198Y0330539D01*
X0027280Y0329621D01*
X0027280Y0327786D01*
X0028198Y0326869D01*
X0028198Y0325014D02*
X0029115Y0324097D01*
X0029115Y0321344D01*
X0030950Y0321344D02*
X0025445Y0321344D01*
X0025445Y0324097D01*
X0026363Y0325014D01*
X0028198Y0325014D01*
X0029115Y0323179D02*
X0030950Y0325014D01*
X0036280Y0325945D02*
X0036280Y0328697D01*
X0038115Y0327780D02*
X0038115Y0325945D01*
X0037198Y0325027D01*
X0036280Y0325945D01*
X0038115Y0327780D02*
X0039033Y0328697D01*
X0039950Y0327780D01*
X0039950Y0325027D01*
X0039950Y0323173D02*
X0039950Y0320420D01*
X0039033Y0319503D01*
X0037198Y0319503D01*
X0036280Y0320420D01*
X0036280Y0323173D01*
X0039950Y0317655D02*
X0039950Y0315820D01*
X0039950Y0316737D02*
X0036280Y0316737D01*
X0036280Y0315820D01*
X0036280Y0313971D02*
X0036280Y0312136D01*
X0035363Y0313054D02*
X0039033Y0313054D01*
X0039950Y0313971D01*
X0043445Y0313968D02*
X0043445Y0311216D01*
X0048950Y0311216D01*
X0047115Y0311216D02*
X0047115Y0313968D01*
X0046198Y0314885D01*
X0044363Y0314885D01*
X0043445Y0313968D01*
X0047115Y0313051D02*
X0048950Y0314885D01*
X0048033Y0316740D02*
X0048950Y0317658D01*
X0048950Y0319493D01*
X0047115Y0320410D02*
X0047115Y0316740D01*
X0046198Y0316740D02*
X0045280Y0317658D01*
X0045280Y0319493D01*
X0046198Y0320410D01*
X0047115Y0320410D01*
X0045280Y0322265D02*
X0048950Y0324100D01*
X0045280Y0325935D01*
X0048033Y0327790D02*
X0048033Y0328707D01*
X0048950Y0328707D01*
X0048950Y0327790D01*
X0048033Y0327790D01*
X0048033Y0336077D02*
X0048950Y0336994D01*
X0048950Y0338829D01*
X0048033Y0339747D01*
X0047115Y0339747D01*
X0046198Y0338829D01*
X0046198Y0337912D01*
X0046198Y0338829D02*
X0045280Y0339747D01*
X0044363Y0339747D01*
X0043445Y0338829D01*
X0043445Y0336994D01*
X0044363Y0336077D01*
X0039950Y0337912D02*
X0034445Y0337912D01*
X0034445Y0336077D02*
X0034445Y0339747D01*
X0037198Y0341602D02*
X0036280Y0342519D01*
X0036280Y0344354D01*
X0037198Y0345271D01*
X0038115Y0345271D01*
X0038115Y0341602D01*
X0037198Y0341602D02*
X0039033Y0341602D01*
X0039950Y0342519D01*
X0039950Y0344354D01*
X0039033Y0347126D02*
X0038115Y0348044D01*
X0039033Y0347126D02*
X0039950Y0348044D01*
X0048033Y0342519D02*
X0048033Y0341602D01*
X0048950Y0341602D01*
X0048950Y0342519D01*
X0048033Y0342519D01*
X0023785Y0334225D02*
X0023785Y0333308D01*
X0023785Y0334225D02*
X0022867Y0335143D01*
X0018280Y0335143D01*
X0021950Y0335143D02*
X0021950Y0332390D01*
X0021033Y0331473D01*
X0018280Y0331473D01*
X0018280Y0329625D02*
X0018280Y0327790D01*
X0017363Y0328707D02*
X0021033Y0328707D01*
X0021950Y0329625D01*
X0021950Y0325942D02*
X0021950Y0324107D01*
X0021950Y0325024D02*
X0018280Y0325024D01*
X0018280Y0324107D01*
X0018280Y0322252D02*
X0018280Y0319499D01*
X0019198Y0318582D01*
X0020115Y0319499D01*
X0020115Y0321334D01*
X0021033Y0322252D01*
X0021950Y0321334D01*
X0021950Y0318582D01*
X0018280Y0316730D02*
X0018280Y0315813D01*
X0020115Y0313978D01*
X0021950Y0313978D02*
X0018280Y0313978D01*
X0019198Y0312123D02*
X0020115Y0312123D01*
X0020115Y0308453D01*
X0019198Y0308453D02*
X0018280Y0309371D01*
X0018280Y0311206D01*
X0019198Y0312123D01*
X0021950Y0311206D02*
X0021950Y0309371D01*
X0021033Y0308453D01*
X0019198Y0308453D01*
X0018280Y0306598D02*
X0021950Y0304764D01*
X0018280Y0302929D01*
X0018280Y0300163D02*
X0021950Y0300163D01*
X0021950Y0301080D02*
X0021950Y0299245D01*
X0021950Y0297391D02*
X0019198Y0297391D01*
X0018280Y0296473D01*
X0018280Y0293721D01*
X0021950Y0293721D01*
X0021033Y0291866D02*
X0016445Y0291866D01*
X0016445Y0288196D02*
X0021033Y0288196D01*
X0021950Y0289113D01*
X0021950Y0290948D01*
X0021033Y0291866D01*
X0027280Y0292797D02*
X0027280Y0294632D01*
X0028198Y0295549D01*
X0030033Y0295549D01*
X0030950Y0294632D01*
X0030950Y0292797D01*
X0030033Y0291879D01*
X0028198Y0291879D01*
X0027280Y0292797D01*
X0028198Y0290024D02*
X0030950Y0290024D01*
X0030950Y0288189D02*
X0028198Y0288189D01*
X0027280Y0289107D01*
X0028198Y0290024D01*
X0028198Y0288189D02*
X0027280Y0287272D01*
X0027280Y0286354D01*
X0030950Y0286354D01*
X0030033Y0284500D02*
X0028198Y0284500D01*
X0027280Y0283582D01*
X0027280Y0281747D01*
X0028198Y0280830D01*
X0030033Y0280830D01*
X0030950Y0281747D01*
X0030950Y0283582D01*
X0030033Y0284500D01*
X0030950Y0278981D02*
X0030033Y0278064D01*
X0026363Y0278064D01*
X0027280Y0277147D02*
X0027280Y0278981D01*
X0027280Y0275292D02*
X0030950Y0275292D01*
X0030950Y0272539D01*
X0030033Y0271622D01*
X0027280Y0271622D01*
X0027280Y0269767D02*
X0030950Y0269767D01*
X0028198Y0269767D02*
X0028198Y0266097D01*
X0027280Y0266097D02*
X0025445Y0267932D01*
X0027280Y0269767D01*
X0027280Y0266097D02*
X0030950Y0266097D01*
X0036280Y0266094D02*
X0036280Y0267929D01*
X0037198Y0268846D01*
X0039950Y0268846D01*
X0039950Y0266094D01*
X0039033Y0265176D01*
X0038115Y0266094D01*
X0038115Y0268846D01*
X0036280Y0270701D02*
X0036280Y0272536D01*
X0035363Y0271619D02*
X0039033Y0271619D01*
X0039950Y0272536D01*
X0039033Y0274384D02*
X0037198Y0274384D01*
X0036280Y0275302D01*
X0036280Y0277137D01*
X0037198Y0278054D01*
X0038115Y0278054D01*
X0038115Y0274384D01*
X0039033Y0274384D02*
X0039950Y0275302D01*
X0039950Y0277137D01*
X0039950Y0279909D02*
X0036280Y0279909D01*
X0036280Y0281744D02*
X0036280Y0282661D01*
X0036280Y0281744D02*
X0038115Y0279909D01*
X0045280Y0280823D02*
X0045280Y0281741D01*
X0045280Y0280823D02*
X0047115Y0278988D01*
X0048950Y0278988D02*
X0045280Y0278988D01*
X0046198Y0277133D02*
X0048950Y0277133D01*
X0048950Y0274381D01*
X0048033Y0273463D01*
X0047115Y0274381D01*
X0047115Y0277133D01*
X0046198Y0277133D02*
X0045280Y0276216D01*
X0045280Y0274381D01*
X0046198Y0271609D02*
X0045280Y0270691D01*
X0045280Y0268856D01*
X0046198Y0267939D01*
X0048033Y0267939D01*
X0048950Y0268856D01*
X0048950Y0270691D01*
X0048033Y0271609D01*
X0046198Y0271609D01*
X0047115Y0266084D02*
X0048033Y0266084D01*
X0048950Y0265166D01*
X0048950Y0262414D01*
X0043445Y0262414D01*
X0043445Y0265166D01*
X0044363Y0266084D01*
X0045280Y0266084D01*
X0046198Y0265166D01*
X0046198Y0262414D01*
X0046198Y0265166D02*
X0047115Y0266084D01*
X0039950Y0262404D02*
X0039033Y0263321D01*
X0036280Y0263321D01*
X0039033Y0261487D02*
X0039950Y0262404D01*
X0039033Y0261487D02*
X0039950Y0260569D01*
X0039033Y0259652D01*
X0036280Y0259652D01*
X0036280Y0257800D02*
X0036280Y0256883D01*
X0038115Y0255048D01*
X0039950Y0255048D02*
X0036280Y0255048D01*
X0037198Y0253193D02*
X0036280Y0252275D01*
X0036280Y0250440D01*
X0037198Y0249523D01*
X0039033Y0249523D01*
X0039950Y0250440D01*
X0039950Y0252275D01*
X0038115Y0253193D02*
X0038115Y0249523D01*
X0036280Y0247668D02*
X0036280Y0244916D01*
X0037198Y0243998D01*
X0039033Y0243998D01*
X0039950Y0244916D01*
X0039950Y0247668D01*
X0034445Y0247668D01*
X0030950Y0247678D02*
X0026363Y0247678D01*
X0025445Y0248596D01*
X0028198Y0248596D02*
X0028198Y0246761D01*
X0028198Y0250444D02*
X0030033Y0250444D01*
X0030950Y0251361D01*
X0030950Y0253196D01*
X0030033Y0254114D01*
X0028198Y0254114D01*
X0027280Y0253196D01*
X0027280Y0251361D01*
X0028198Y0250444D01*
X0029115Y0255969D02*
X0027280Y0257803D01*
X0027280Y0258721D01*
X0027280Y0255969D02*
X0030950Y0255969D01*
X0037198Y0253193D02*
X0038115Y0253193D01*
X0045280Y0252285D02*
X0048950Y0252285D01*
X0047115Y0252285D02*
X0045280Y0254120D01*
X0045280Y0255038D01*
X0046198Y0250430D02*
X0047115Y0250430D01*
X0047115Y0246761D01*
X0046198Y0246761D02*
X0045280Y0247678D01*
X0045280Y0249513D01*
X0046198Y0250430D01*
X0048950Y0249513D02*
X0048950Y0247678D01*
X0048033Y0246761D01*
X0046198Y0246761D01*
X0045280Y0244912D02*
X0045280Y0243078D01*
X0044363Y0243995D02*
X0048033Y0243995D01*
X0048950Y0244912D01*
X0045280Y0241226D02*
X0045280Y0240308D01*
X0047115Y0238474D01*
X0048950Y0238474D02*
X0045280Y0238474D01*
X0046198Y0236619D02*
X0047115Y0236619D01*
X0047115Y0232949D01*
X0046198Y0232949D02*
X0045280Y0233866D01*
X0045280Y0235701D01*
X0046198Y0236619D01*
X0048950Y0235701D02*
X0048950Y0233866D01*
X0048033Y0232949D01*
X0046198Y0232949D01*
X0045280Y0231094D02*
X0048950Y0229259D01*
X0045280Y0227424D01*
X0046198Y0225569D02*
X0048950Y0225569D01*
X0046198Y0225569D02*
X0045280Y0224652D01*
X0045280Y0221899D01*
X0048950Y0221899D01*
X0048033Y0220045D02*
X0048950Y0219127D01*
X0048950Y0217292D01*
X0048033Y0216375D01*
X0046198Y0216375D01*
X0045280Y0217292D01*
X0045280Y0219127D01*
X0046198Y0220045D01*
X0048033Y0220045D01*
X0048033Y0214520D02*
X0048950Y0213602D01*
X0048950Y0211767D01*
X0048033Y0210850D01*
X0044363Y0210850D01*
X0043445Y0211767D01*
X0043445Y0213602D01*
X0044363Y0214520D01*
X0039950Y0212685D02*
X0034445Y0212685D01*
X0034445Y0210850D02*
X0034445Y0214520D01*
X0034445Y0216375D02*
X0039950Y0216375D01*
X0037198Y0216375D02*
X0036280Y0217292D01*
X0036280Y0219127D01*
X0037198Y0220045D01*
X0039950Y0220045D01*
X0039033Y0221899D02*
X0037198Y0221899D01*
X0036280Y0222817D01*
X0036280Y0224652D01*
X0037198Y0225569D01*
X0038115Y0225569D01*
X0038115Y0221899D01*
X0039033Y0221899D02*
X0039950Y0222817D01*
X0039950Y0224652D01*
X0039033Y0232949D02*
X0034445Y0232949D01*
X0030950Y0233860D02*
X0030950Y0232025D01*
X0030033Y0231107D01*
X0028198Y0231107D01*
X0027280Y0232025D01*
X0027280Y0233860D01*
X0028198Y0234777D01*
X0029115Y0234777D01*
X0029115Y0231107D01*
X0027280Y0229259D02*
X0027280Y0227424D01*
X0026363Y0228342D02*
X0030033Y0228342D01*
X0030950Y0229259D01*
X0030950Y0225569D02*
X0028198Y0225569D01*
X0027280Y0224652D01*
X0027280Y0221899D01*
X0030950Y0221899D01*
X0029115Y0220045D02*
X0029115Y0216375D01*
X0028198Y0216375D02*
X0030033Y0216375D01*
X0030950Y0217292D01*
X0030950Y0219127D01*
X0029115Y0220045D02*
X0028198Y0220045D01*
X0027280Y0219127D01*
X0027280Y0217292D01*
X0028198Y0216375D01*
X0030033Y0214520D02*
X0030950Y0213602D01*
X0030950Y0211767D01*
X0030033Y0210850D01*
X0026363Y0210850D01*
X0025445Y0211767D01*
X0025445Y0213602D01*
X0026363Y0214520D01*
X0021950Y0212685D02*
X0016445Y0212685D01*
X0016445Y0210850D02*
X0016445Y0214520D01*
X0016445Y0216375D02*
X0021950Y0216375D01*
X0019198Y0216375D02*
X0018280Y0217292D01*
X0018280Y0219127D01*
X0019198Y0220045D01*
X0021950Y0220045D01*
X0021033Y0221899D02*
X0019198Y0221899D01*
X0018280Y0222817D01*
X0018280Y0224652D01*
X0019198Y0225569D01*
X0020115Y0225569D01*
X0020115Y0221899D01*
X0021033Y0221899D02*
X0021950Y0222817D01*
X0021950Y0224652D01*
X0021033Y0232949D02*
X0017363Y0232949D01*
X0016445Y0233866D01*
X0016445Y0235701D01*
X0017363Y0236619D01*
X0021033Y0236619D01*
X0021950Y0235701D01*
X0021950Y0233866D01*
X0021033Y0232949D01*
X0021950Y0238474D02*
X0016445Y0238474D01*
X0018280Y0239391D02*
X0018280Y0241226D01*
X0019198Y0242143D01*
X0021950Y0242143D01*
X0021950Y0243998D02*
X0021950Y0245833D01*
X0021950Y0244916D02*
X0018280Y0244916D01*
X0018280Y0243998D01*
X0016445Y0244916D02*
X0015528Y0244916D01*
X0019198Y0247681D02*
X0018280Y0248599D01*
X0018280Y0250434D01*
X0019198Y0251351D01*
X0021033Y0251351D01*
X0021950Y0250434D01*
X0021950Y0248599D01*
X0021033Y0247681D01*
X0019198Y0247681D01*
X0018280Y0239391D02*
X0019198Y0238474D01*
X0027280Y0238467D02*
X0027280Y0239384D01*
X0027280Y0238467D02*
X0029115Y0236632D01*
X0030950Y0236632D02*
X0027280Y0236632D01*
X0034445Y0236619D02*
X0039033Y0236619D01*
X0039950Y0235701D01*
X0039950Y0233866D01*
X0039033Y0232949D01*
X0039950Y0238474D02*
X0036280Y0238474D01*
X0036280Y0241226D01*
X0037198Y0242143D01*
X0039950Y0242143D01*
X0021950Y0259648D02*
X0021033Y0258731D01*
X0021950Y0259648D02*
X0021950Y0261483D01*
X0021033Y0262401D01*
X0020115Y0262401D01*
X0019198Y0261483D01*
X0019198Y0259648D01*
X0018280Y0258731D01*
X0017363Y0258731D01*
X0016445Y0259648D01*
X0016445Y0261483D01*
X0017363Y0262401D01*
X0018280Y0264256D02*
X0018280Y0266090D01*
X0017363Y0265173D02*
X0021033Y0265173D01*
X0021950Y0266090D01*
X0021033Y0267939D02*
X0020115Y0268856D01*
X0020115Y0271609D01*
X0019198Y0271609D02*
X0021950Y0271609D01*
X0021950Y0268856D01*
X0021033Y0267939D01*
X0018280Y0268856D02*
X0018280Y0270691D01*
X0019198Y0271609D01*
X0018280Y0273463D02*
X0018280Y0275298D01*
X0017363Y0274381D02*
X0021033Y0274381D01*
X0021950Y0275298D01*
X0021033Y0277147D02*
X0019198Y0277147D01*
X0018280Y0278064D01*
X0018280Y0279899D01*
X0019198Y0280816D01*
X0020115Y0280816D01*
X0020115Y0277147D01*
X0021033Y0277147D02*
X0021950Y0278064D01*
X0021950Y0279899D01*
X0034445Y0290038D02*
X0034445Y0292790D01*
X0035363Y0293707D01*
X0037198Y0293707D01*
X0038115Y0292790D01*
X0038115Y0290038D01*
X0038115Y0291872D02*
X0039950Y0293707D01*
X0039033Y0295562D02*
X0039950Y0296480D01*
X0039950Y0298315D01*
X0039033Y0299232D01*
X0037198Y0299232D01*
X0036280Y0298315D01*
X0036280Y0296480D01*
X0037198Y0295562D01*
X0039033Y0295562D01*
X0039950Y0290038D02*
X0034445Y0290038D01*
X0030033Y0298321D02*
X0026363Y0298321D01*
X0027280Y0297404D02*
X0027280Y0299239D01*
X0027280Y0301087D02*
X0027280Y0302004D01*
X0030950Y0302004D01*
X0030950Y0301087D02*
X0030950Y0302922D01*
X0030950Y0306605D02*
X0027280Y0308440D01*
X0028198Y0310295D02*
X0027280Y0311212D01*
X0027280Y0313047D01*
X0028198Y0313965D01*
X0029115Y0313965D01*
X0029115Y0310295D01*
X0028198Y0310295D02*
X0030033Y0310295D01*
X0030950Y0311212D01*
X0030950Y0313047D01*
X0033528Y0316737D02*
X0034445Y0316737D01*
X0037198Y0310282D02*
X0036280Y0309364D01*
X0036280Y0307529D01*
X0037198Y0306612D01*
X0039033Y0306612D01*
X0039950Y0307529D01*
X0039950Y0309364D01*
X0039033Y0310282D01*
X0037198Y0310282D01*
X0037198Y0304757D02*
X0036280Y0303839D01*
X0036280Y0301087D01*
X0034445Y0301087D02*
X0039950Y0301087D01*
X0039950Y0303839D01*
X0039033Y0304757D01*
X0037198Y0304757D01*
X0030950Y0306605D02*
X0027280Y0304770D01*
X0025445Y0302004D02*
X0024528Y0302004D01*
X0030033Y0298321D02*
X0030950Y0299239D01*
X0018280Y0299245D02*
X0018280Y0300163D01*
X0016445Y0300163D02*
X0015528Y0300163D01*
X0015528Y0325024D02*
X0016445Y0325024D01*
X0046198Y0316740D02*
X0048033Y0316740D01*
X0046198Y0303836D02*
X0046198Y0300166D01*
X0046198Y0298311D02*
X0046198Y0294642D01*
X0045280Y0287262D02*
X0045280Y0284510D01*
X0046198Y0283592D01*
X0048033Y0283592D01*
X0048950Y0284510D01*
X0048950Y0287262D01*
X0043445Y0287262D01*
X0066689Y0260754D02*
X0065938Y0260003D01*
X0065938Y0257001D01*
X0066689Y0256250D01*
X0068190Y0256250D01*
X0068941Y0257001D01*
X0070542Y0256250D02*
X0073545Y0256250D01*
X0072043Y0256250D02*
X0072043Y0260754D01*
X0070542Y0259253D01*
X0068941Y0260003D02*
X0068190Y0260754D01*
X0066689Y0260754D01*
X0075146Y0260003D02*
X0075897Y0260754D01*
X0077398Y0260754D01*
X0078149Y0260003D01*
X0078149Y0259253D01*
X0075146Y0256250D01*
X0078149Y0256250D01*
X0269501Y0061754D02*
X0268750Y0061003D01*
X0268750Y0060253D01*
X0269501Y0059502D01*
X0271002Y0059502D01*
X0271753Y0058751D01*
X0271753Y0058001D01*
X0271002Y0057250D01*
X0269501Y0057250D01*
X0268750Y0058001D01*
X0269501Y0061754D02*
X0271002Y0061754D01*
X0271753Y0061003D01*
X0273354Y0061754D02*
X0273354Y0057250D01*
X0275606Y0057250D01*
X0276356Y0058001D01*
X0276356Y0061003D01*
X0275606Y0061754D01*
X0273354Y0061754D01*
X0277958Y0060253D02*
X0279459Y0061754D01*
X0280960Y0060253D01*
X0280960Y0057250D01*
X0280960Y0059502D02*
X0277958Y0059502D01*
X0277958Y0060253D02*
X0277958Y0057250D01*
X0298750Y0058001D02*
X0299501Y0057250D01*
X0301002Y0057250D01*
X0301753Y0058001D01*
X0301753Y0058751D01*
X0301002Y0059502D01*
X0299501Y0059502D01*
X0298750Y0060253D01*
X0298750Y0061003D01*
X0299501Y0061754D01*
X0301002Y0061754D01*
X0301753Y0061003D01*
X0303354Y0061003D02*
X0303354Y0058001D01*
X0304105Y0057250D01*
X0305606Y0057250D01*
X0306356Y0058001D01*
X0307958Y0057250D02*
X0310960Y0057250D01*
X0307958Y0057250D02*
X0307958Y0061754D01*
X0306356Y0061003D02*
X0305606Y0061754D01*
X0304105Y0061754D01*
X0303354Y0061003D01*
X0357042Y0070001D02*
X0357793Y0069250D01*
X0359294Y0069250D01*
X0360045Y0070001D01*
X0361646Y0070001D02*
X0362397Y0069250D01*
X0363898Y0069250D01*
X0364649Y0070001D01*
X0364649Y0071502D01*
X0363898Y0072253D01*
X0363147Y0072253D01*
X0361646Y0071502D01*
X0361646Y0073754D01*
X0364649Y0073754D01*
X0360045Y0073003D02*
X0359294Y0073754D01*
X0357793Y0073754D01*
X0357042Y0073003D01*
X0357042Y0070001D01*
D11*
X0349300Y0069018D02*
X0345797Y0069018D01*
X0345797Y0070769D01*
X0346381Y0071353D01*
X0347549Y0071353D01*
X0348132Y0070769D01*
X0348132Y0069018D01*
X0348132Y0070186D02*
X0349300Y0071353D01*
X0348716Y0072609D02*
X0349300Y0073193D01*
X0349300Y0074360D01*
X0348716Y0074944D01*
X0348132Y0074944D01*
X0347549Y0074360D01*
X0347549Y0073777D01*
X0347549Y0074360D02*
X0346965Y0074944D01*
X0346381Y0074944D01*
X0345797Y0074360D01*
X0345797Y0073193D01*
X0346381Y0072609D01*
X0324200Y0062126D02*
X0324200Y0059791D01*
X0324200Y0060959D02*
X0320697Y0060959D01*
X0321865Y0059791D01*
X0322449Y0058535D02*
X0323032Y0057951D01*
X0323032Y0056200D01*
X0323032Y0057368D02*
X0324200Y0058535D01*
X0322449Y0058535D02*
X0321281Y0058535D01*
X0320697Y0057951D01*
X0320697Y0056200D01*
X0324200Y0056200D01*
X0285800Y0092200D02*
X0282731Y0092200D01*
X0281196Y0093735D01*
X0282731Y0095269D01*
X0285800Y0095269D01*
X0285800Y0096804D02*
X0285800Y0099106D01*
X0285033Y0099873D01*
X0281963Y0099873D01*
X0281196Y0099106D01*
X0281196Y0096804D01*
X0285800Y0096804D01*
X0283498Y0095269D02*
X0283498Y0092200D01*
X0281963Y0101408D02*
X0285033Y0101408D01*
X0285800Y0102175D01*
X0285800Y0103710D01*
X0285033Y0104477D01*
X0281963Y0104477D02*
X0281196Y0103710D01*
X0281196Y0102175D01*
X0281963Y0101408D01*
X0274860Y0130700D02*
X0273693Y0130700D01*
X0273109Y0131284D01*
X0273109Y0132451D02*
X0274277Y0133035D01*
X0274860Y0133035D01*
X0275444Y0132451D01*
X0275444Y0131284D01*
X0274860Y0130700D01*
X0273109Y0132451D02*
X0273109Y0134203D01*
X0275444Y0134203D01*
X0271853Y0133619D02*
X0271853Y0132451D01*
X0271269Y0131868D01*
X0269518Y0131868D01*
X0270686Y0131868D02*
X0271853Y0130700D01*
X0269518Y0130700D02*
X0269518Y0134203D01*
X0271269Y0134203D01*
X0271853Y0133619D01*
X0271853Y0140700D02*
X0270686Y0141868D01*
X0271269Y0141868D02*
X0269518Y0141868D01*
X0269518Y0140700D02*
X0269518Y0144203D01*
X0271269Y0144203D01*
X0271853Y0143619D01*
X0271853Y0142451D01*
X0271269Y0141868D01*
X0273109Y0142451D02*
X0274860Y0142451D01*
X0275444Y0141868D01*
X0275444Y0141284D01*
X0274860Y0140700D01*
X0273693Y0140700D01*
X0273109Y0141284D01*
X0273109Y0142451D01*
X0274277Y0143619D01*
X0275444Y0144203D01*
X0297297Y0185018D02*
X0297297Y0186769D01*
X0297881Y0187353D01*
X0299049Y0187353D01*
X0299632Y0186769D01*
X0299632Y0185018D01*
X0299632Y0186186D02*
X0300800Y0187353D01*
X0300216Y0188609D02*
X0299632Y0188609D01*
X0299049Y0189193D01*
X0299049Y0190360D01*
X0299632Y0190944D01*
X0300216Y0190944D01*
X0300800Y0190360D01*
X0300800Y0189193D01*
X0300216Y0188609D01*
X0299049Y0189193D02*
X0298465Y0188609D01*
X0297881Y0188609D01*
X0297297Y0189193D01*
X0297297Y0190360D01*
X0297881Y0190944D01*
X0298465Y0190944D01*
X0299049Y0190360D01*
X0300800Y0185018D02*
X0297297Y0185018D01*
X0309797Y0185018D02*
X0309797Y0186769D01*
X0310381Y0187353D01*
X0311549Y0187353D01*
X0312132Y0186769D01*
X0312132Y0185018D01*
X0312132Y0186186D02*
X0313300Y0187353D01*
X0313300Y0188609D02*
X0312716Y0188609D01*
X0310381Y0190944D01*
X0309797Y0190944D01*
X0309797Y0188609D01*
X0309797Y0185018D02*
X0313300Y0185018D01*
X0290150Y0235700D02*
X0289383Y0236467D01*
X0289383Y0239537D01*
X0288616Y0238769D02*
X0290150Y0238769D01*
X0287081Y0238769D02*
X0287081Y0235700D01*
X0284779Y0235700D01*
X0284012Y0236467D01*
X0284012Y0238769D01*
X0282477Y0238002D02*
X0281710Y0238769D01*
X0280175Y0238769D01*
X0279408Y0238002D01*
X0279408Y0236467D01*
X0280175Y0235700D01*
X0281710Y0235700D01*
X0282477Y0236467D01*
X0282477Y0238002D01*
X0277873Y0237235D02*
X0276339Y0235700D01*
X0274804Y0237235D01*
X0274804Y0240304D01*
X0273269Y0238002D02*
X0270200Y0238002D01*
X0271735Y0239537D02*
X0271735Y0236467D01*
X0277873Y0237235D02*
X0277873Y0240304D01*
X0277106Y0255700D02*
X0275571Y0255700D01*
X0274804Y0256467D01*
X0275571Y0258002D02*
X0277106Y0258002D01*
X0277873Y0257235D01*
X0277873Y0256467D01*
X0277106Y0255700D01*
X0279408Y0256467D02*
X0279408Y0258002D01*
X0280175Y0258769D01*
X0281710Y0258769D01*
X0282477Y0258002D01*
X0282477Y0257235D01*
X0279408Y0257235D01*
X0279408Y0256467D02*
X0280175Y0255700D01*
X0281710Y0255700D01*
X0284012Y0255700D02*
X0284012Y0258769D01*
X0286314Y0258769D01*
X0287081Y0258002D01*
X0287081Y0255700D01*
X0288616Y0255700D02*
X0290918Y0255700D01*
X0291685Y0256467D01*
X0290918Y0257235D01*
X0289383Y0257235D01*
X0288616Y0258002D01*
X0289383Y0258769D01*
X0291685Y0258769D01*
X0293220Y0258002D02*
X0293987Y0258769D01*
X0295522Y0258769D01*
X0296289Y0258002D01*
X0296289Y0257235D01*
X0293220Y0257235D01*
X0293220Y0258002D02*
X0293220Y0256467D01*
X0293987Y0255700D01*
X0295522Y0255700D01*
X0284779Y0265700D02*
X0284779Y0268002D01*
X0284012Y0268769D01*
X0283244Y0268002D01*
X0283244Y0265700D01*
X0281710Y0265700D02*
X0281710Y0268769D01*
X0282477Y0268769D01*
X0283244Y0268002D01*
X0280175Y0265700D02*
X0278641Y0265700D01*
X0279408Y0265700D02*
X0279408Y0268769D01*
X0278641Y0268769D01*
X0277106Y0268769D02*
X0276339Y0268769D01*
X0274804Y0267235D01*
X0274804Y0268769D02*
X0274804Y0265700D01*
X0271735Y0265700D02*
X0271735Y0270304D01*
X0273269Y0270304D02*
X0270200Y0270304D01*
X0275571Y0275700D02*
X0274804Y0276467D01*
X0275571Y0275700D02*
X0277106Y0275700D01*
X0277873Y0276467D01*
X0277873Y0277235D01*
X0277106Y0278002D01*
X0275571Y0278002D01*
X0274804Y0278769D01*
X0274804Y0279537D01*
X0275571Y0280304D01*
X0277106Y0280304D01*
X0277873Y0279537D01*
X0279408Y0278002D02*
X0280175Y0278769D01*
X0281710Y0278769D01*
X0282477Y0278002D01*
X0282477Y0277235D01*
X0279408Y0277235D01*
X0279408Y0278002D02*
X0279408Y0276467D01*
X0280175Y0275700D01*
X0281710Y0275700D01*
X0284012Y0275700D02*
X0284012Y0278769D01*
X0286314Y0278769D01*
X0287081Y0278002D01*
X0287081Y0275700D01*
X0288616Y0275700D02*
X0290918Y0275700D01*
X0291685Y0276467D01*
X0290918Y0277235D01*
X0289383Y0277235D01*
X0288616Y0278002D01*
X0289383Y0278769D01*
X0291685Y0278769D01*
X0293220Y0278002D02*
X0293220Y0276467D01*
X0293987Y0275700D01*
X0295522Y0275700D01*
X0296289Y0277235D02*
X0293220Y0277235D01*
X0293220Y0278002D02*
X0293987Y0278769D01*
X0295522Y0278769D01*
X0296289Y0278002D01*
X0296289Y0277235D01*
X0290150Y0295700D02*
X0289383Y0296467D01*
X0289383Y0299537D01*
X0288616Y0298769D02*
X0290150Y0298769D01*
X0287081Y0298769D02*
X0287081Y0295700D01*
X0284779Y0295700D01*
X0284012Y0296467D01*
X0284012Y0298769D01*
X0282477Y0298002D02*
X0282477Y0296467D01*
X0281710Y0295700D01*
X0280175Y0295700D01*
X0279408Y0296467D01*
X0279408Y0298002D01*
X0280175Y0298769D01*
X0281710Y0298769D01*
X0282477Y0298002D01*
X0277873Y0297235D02*
X0276339Y0295700D01*
X0274804Y0297235D01*
X0274804Y0300304D01*
X0273269Y0298002D02*
X0270200Y0298002D01*
X0277873Y0297235D02*
X0277873Y0300304D01*
X0273269Y0278002D02*
X0270200Y0278002D01*
X0279408Y0271071D02*
X0279408Y0270304D01*
X0277106Y0260304D02*
X0275571Y0260304D01*
X0274804Y0259537D01*
X0274804Y0258769D01*
X0275571Y0258002D01*
X0273269Y0258002D02*
X0270200Y0258002D01*
X0271735Y0259537D02*
X0271735Y0256467D01*
X0277106Y0260304D02*
X0277873Y0259537D01*
X0223300Y0165150D02*
X0222533Y0164383D01*
X0219463Y0164383D01*
X0220231Y0163616D02*
X0220231Y0165150D01*
X0220231Y0162081D02*
X0223300Y0162081D01*
X0223300Y0159779D01*
X0222533Y0159012D01*
X0220231Y0159012D01*
X0220998Y0157477D02*
X0220231Y0156710D01*
X0220231Y0155175D01*
X0220998Y0154408D01*
X0222533Y0154408D01*
X0223300Y0155175D01*
X0223300Y0156710D01*
X0222533Y0157477D01*
X0220998Y0157477D01*
X0221765Y0152873D02*
X0218696Y0152873D01*
X0218696Y0149804D02*
X0221765Y0149804D01*
X0223300Y0151339D01*
X0221765Y0152873D01*
X0220998Y0148269D02*
X0220998Y0145200D01*
X0219463Y0146735D02*
X0222533Y0146735D01*
X0223300Y0130942D02*
X0223300Y0128641D01*
X0222533Y0127873D01*
X0220998Y0127873D01*
X0220231Y0128641D01*
X0220231Y0130942D01*
X0220231Y0126339D02*
X0220231Y0124804D01*
X0219463Y0125571D02*
X0222533Y0125571D01*
X0223300Y0126339D01*
X0223300Y0123269D02*
X0220998Y0123269D01*
X0220231Y0122502D01*
X0220231Y0120200D01*
X0223300Y0120200D01*
X0203300Y0120200D02*
X0200231Y0120200D01*
X0200231Y0122502D01*
X0200998Y0123269D01*
X0203300Y0123269D01*
X0202533Y0125571D02*
X0203300Y0126339D01*
X0202533Y0125571D02*
X0199463Y0125571D01*
X0200231Y0124804D02*
X0200231Y0126339D01*
X0200998Y0127873D02*
X0202533Y0127873D01*
X0203300Y0128641D01*
X0203300Y0130942D01*
X0200231Y0130942D02*
X0200231Y0128641D01*
X0200998Y0127873D01*
X0200998Y0145200D02*
X0200998Y0148269D01*
X0201765Y0149804D02*
X0203300Y0151339D01*
X0201765Y0152873D01*
X0198696Y0152873D01*
X0200998Y0154408D02*
X0202533Y0154408D01*
X0203300Y0155175D01*
X0203300Y0156710D01*
X0202533Y0157477D01*
X0200998Y0157477D01*
X0200231Y0156710D01*
X0200231Y0155175D01*
X0200998Y0154408D01*
X0201765Y0149804D02*
X0198696Y0149804D01*
X0200231Y0159012D02*
X0202533Y0159012D01*
X0203300Y0159779D01*
X0203300Y0162081D01*
X0200231Y0162081D01*
X0200231Y0163616D02*
X0200231Y0165150D01*
X0199463Y0164383D02*
X0202533Y0164383D01*
X0203300Y0165150D01*
X0143300Y0165546D02*
X0140998Y0165546D01*
X0140231Y0164779D01*
X0140231Y0162477D01*
X0143300Y0162477D01*
X0143300Y0160942D02*
X0143300Y0159408D01*
X0143300Y0160175D02*
X0140231Y0160175D01*
X0140231Y0159408D01*
X0138696Y0160175D02*
X0137929Y0160175D01*
X0138696Y0157873D02*
X0141765Y0157873D01*
X0143300Y0156339D01*
X0141765Y0154804D01*
X0138696Y0154804D01*
X0140998Y0153269D02*
X0140998Y0150200D01*
X0139463Y0151735D02*
X0142533Y0151735D01*
X0132533Y0151735D02*
X0129463Y0151735D01*
X0130998Y0150200D02*
X0130998Y0153269D01*
X0131765Y0154804D02*
X0128696Y0154804D01*
X0128696Y0157873D02*
X0131765Y0157873D01*
X0133300Y0156339D01*
X0131765Y0154804D01*
X0130231Y0159408D02*
X0130231Y0160175D01*
X0133300Y0160175D01*
X0133300Y0159408D02*
X0133300Y0160942D01*
X0133300Y0162477D02*
X0130231Y0162477D01*
X0130231Y0164779D01*
X0130998Y0165546D01*
X0133300Y0165546D01*
X0128696Y0160175D02*
X0127929Y0160175D01*
X0123300Y0142452D02*
X0119463Y0142452D01*
X0118696Y0143220D01*
X0120998Y0143220D02*
X0120998Y0141685D01*
X0120998Y0140150D02*
X0120998Y0138616D01*
X0119463Y0139383D02*
X0118696Y0140150D01*
X0119463Y0139383D02*
X0123300Y0139383D01*
X0122533Y0137081D02*
X0119463Y0137081D01*
X0118696Y0136314D01*
X0118696Y0134779D01*
X0119463Y0134012D01*
X0122533Y0134012D01*
X0123300Y0134779D01*
X0123300Y0136314D01*
X0122533Y0137081D01*
X0118696Y0132477D02*
X0123300Y0129408D01*
X0123300Y0127873D02*
X0120998Y0127873D01*
X0120231Y0127106D01*
X0120231Y0124804D01*
X0123300Y0124804D01*
X0122533Y0123269D02*
X0119463Y0123269D01*
X0118696Y0122502D01*
X0118696Y0120967D01*
X0119463Y0120200D01*
X0122533Y0120200D01*
X0123300Y0120967D01*
X0123300Y0122502D01*
X0122533Y0123269D01*
X0128696Y0124804D02*
X0131765Y0124804D01*
X0133300Y0126339D01*
X0131765Y0127873D01*
X0128696Y0127873D01*
X0130231Y0129408D02*
X0130231Y0130175D01*
X0133300Y0130175D01*
X0133300Y0129408D02*
X0133300Y0130942D01*
X0133300Y0132477D02*
X0130231Y0132477D01*
X0130231Y0134779D01*
X0130998Y0135546D01*
X0133300Y0135546D01*
X0140231Y0134779D02*
X0140231Y0132477D01*
X0143300Y0132477D01*
X0143300Y0130942D02*
X0143300Y0129408D01*
X0143300Y0130175D02*
X0140231Y0130175D01*
X0140231Y0129408D01*
X0138696Y0130175D02*
X0137929Y0130175D01*
X0138696Y0127873D02*
X0141765Y0127873D01*
X0143300Y0126339D01*
X0141765Y0124804D01*
X0138696Y0124804D01*
X0140998Y0123269D02*
X0140998Y0120200D01*
X0130998Y0120200D02*
X0130998Y0123269D01*
X0128696Y0130175D02*
X0127929Y0130175D01*
X0140231Y0134779D02*
X0140998Y0135546D01*
X0143300Y0135546D01*
X0088605Y0176200D02*
X0088605Y0180804D01*
X0085536Y0180804D02*
X0088605Y0176200D01*
X0085536Y0176200D02*
X0085536Y0180804D01*
X0084001Y0180804D02*
X0082467Y0180804D01*
X0083234Y0180804D02*
X0083234Y0176200D01*
X0082467Y0176200D02*
X0084001Y0176200D01*
X0076328Y0180037D02*
X0074794Y0178502D01*
X0074794Y0176200D01*
X0074794Y0178502D02*
X0073259Y0180037D01*
X0073259Y0180804D01*
X0071724Y0180037D02*
X0071724Y0178502D01*
X0070957Y0177735D01*
X0068655Y0177735D01*
X0070190Y0177735D02*
X0071724Y0176200D01*
X0068655Y0176200D02*
X0068655Y0180804D01*
X0070957Y0180804D01*
X0071724Y0180037D01*
X0076328Y0180037D02*
X0076328Y0180804D01*
X0067120Y0180804D02*
X0064051Y0180804D01*
X0064051Y0176200D01*
X0067120Y0176200D01*
X0065586Y0178502D02*
X0064051Y0178502D01*
X0062516Y0180804D02*
X0059447Y0180804D01*
X0057912Y0180804D02*
X0054843Y0180804D01*
X0056378Y0180804D02*
X0056378Y0176200D01*
X0053309Y0176200D02*
X0053309Y0179269D01*
X0051774Y0180804D01*
X0050239Y0179269D01*
X0050239Y0176200D01*
X0048705Y0176967D02*
X0047937Y0176200D01*
X0045635Y0176200D01*
X0045635Y0180804D01*
X0047937Y0180804D01*
X0048705Y0180037D01*
X0048705Y0179269D01*
X0047937Y0178502D01*
X0045635Y0178502D01*
X0047937Y0178502D02*
X0048705Y0177735D01*
X0048705Y0176967D01*
X0050239Y0178502D02*
X0053309Y0178502D01*
X0060982Y0176200D02*
X0060982Y0180804D01*
X0039497Y0180037D02*
X0039497Y0176967D01*
X0038729Y0176200D01*
X0036427Y0176200D01*
X0036427Y0180804D01*
X0038729Y0180804D01*
X0039497Y0180037D01*
X0034893Y0180804D02*
X0031824Y0180804D01*
X0031824Y0176200D01*
X0034893Y0176200D01*
X0033358Y0178502D02*
X0031824Y0178502D01*
X0030289Y0180037D02*
X0029522Y0180804D01*
X0027987Y0180804D01*
X0027220Y0180037D01*
X0027220Y0176967D01*
X0027987Y0176200D01*
X0029522Y0176200D01*
X0030289Y0176967D01*
X0025685Y0176200D02*
X0025685Y0180804D01*
X0022616Y0180804D02*
X0022616Y0176200D01*
X0021081Y0176200D02*
X0021081Y0179269D01*
X0019546Y0180804D01*
X0018012Y0179269D01*
X0018012Y0176200D01*
X0016477Y0176200D02*
X0013408Y0176200D01*
X0013408Y0180804D01*
X0011873Y0179269D02*
X0011873Y0176200D01*
X0011873Y0178502D02*
X0008804Y0178502D01*
X0008804Y0179269D02*
X0008804Y0176200D01*
X0007269Y0176967D02*
X0006502Y0176200D01*
X0004200Y0176200D01*
X0004200Y0180804D01*
X0006502Y0180804D01*
X0007269Y0180037D01*
X0007269Y0179269D01*
X0006502Y0178502D01*
X0004200Y0178502D01*
X0006502Y0178502D02*
X0007269Y0177735D01*
X0007269Y0176967D01*
X0008804Y0179269D02*
X0010339Y0180804D01*
X0011873Y0179269D01*
X0018012Y0178502D02*
X0021081Y0178502D01*
X0022616Y0180804D02*
X0025685Y0176200D01*
X0120200Y0238002D02*
X0123269Y0238002D01*
X0124804Y0237235D02*
X0126339Y0235700D01*
X0127873Y0237235D01*
X0127873Y0240304D01*
X0129408Y0238769D02*
X0130175Y0238769D01*
X0130175Y0235700D01*
X0129408Y0235700D02*
X0130942Y0235700D01*
X0132477Y0235700D02*
X0132477Y0238769D01*
X0134779Y0238769D01*
X0135546Y0238002D01*
X0135546Y0235700D01*
X0130175Y0240304D02*
X0130175Y0241071D01*
X0124804Y0240304D02*
X0124804Y0237235D01*
X0124804Y0265700D02*
X0124804Y0270304D01*
X0127873Y0265700D01*
X0127873Y0270304D01*
X0132477Y0270304D02*
X0129408Y0265700D01*
X0123269Y0266467D02*
X0123269Y0269537D01*
X0122502Y0270304D01*
X0120967Y0270304D01*
X0120200Y0269537D01*
X0120200Y0266467D01*
X0120967Y0265700D01*
X0122502Y0265700D01*
X0123269Y0266467D01*
X0134012Y0266467D02*
X0134779Y0265700D01*
X0136314Y0265700D01*
X0137081Y0266467D01*
X0137081Y0269537D01*
X0136314Y0270304D01*
X0134779Y0270304D01*
X0134012Y0269537D01*
X0134012Y0266467D01*
X0138616Y0265700D02*
X0138616Y0270304D01*
X0141685Y0270304D01*
X0143220Y0270304D02*
X0143220Y0265700D01*
X0143220Y0268002D02*
X0144754Y0268002D01*
X0143220Y0270304D02*
X0146289Y0270304D01*
X0140150Y0268002D02*
X0138616Y0268002D01*
X0135546Y0295700D02*
X0135546Y0298002D01*
X0134779Y0298769D01*
X0132477Y0298769D01*
X0132477Y0295700D01*
X0130942Y0295700D02*
X0129408Y0295700D01*
X0130175Y0295700D02*
X0130175Y0298769D01*
X0129408Y0298769D01*
X0130175Y0300304D02*
X0130175Y0301071D01*
X0127873Y0300304D02*
X0127873Y0297235D01*
X0126339Y0295700D01*
X0124804Y0297235D01*
X0124804Y0300304D01*
X0123269Y0298002D02*
X0120200Y0298002D01*
X0121735Y0299537D02*
X0121735Y0296467D01*
X0200624Y0378200D02*
X0200040Y0378784D01*
X0200624Y0378200D02*
X0201792Y0378200D01*
X0202376Y0378784D01*
X0202376Y0379368D01*
X0201792Y0379951D01*
X0201208Y0379951D01*
X0201792Y0379951D02*
X0202376Y0380535D01*
X0202376Y0381119D01*
X0201792Y0381703D01*
X0200624Y0381703D01*
X0200040Y0381119D01*
X0203631Y0378784D02*
X0203631Y0378200D01*
X0204215Y0378200D01*
X0204215Y0378784D01*
X0203631Y0378784D01*
X0205427Y0378784D02*
X0206011Y0378200D01*
X0207178Y0378200D01*
X0207762Y0378784D01*
X0207762Y0379368D01*
X0207178Y0379951D01*
X0206594Y0379951D01*
X0207178Y0379951D02*
X0207762Y0380535D01*
X0207762Y0381119D01*
X0207178Y0381703D01*
X0206011Y0381703D01*
X0205427Y0381119D01*
X0209018Y0381703D02*
X0209018Y0379368D01*
X0210186Y0378200D01*
X0211353Y0379368D01*
X0211353Y0381703D01*
X0212609Y0381703D02*
X0214360Y0381703D01*
X0214944Y0381119D01*
X0214944Y0379951D01*
X0214360Y0379368D01*
X0212609Y0379368D01*
X0213777Y0379368D02*
X0214944Y0378200D01*
X0212609Y0378200D02*
X0212609Y0381703D01*
X0322200Y0382635D02*
X0323368Y0383803D01*
X0323368Y0380300D01*
X0324535Y0380300D02*
X0322200Y0380300D01*
X0325791Y0380300D02*
X0328126Y0382635D01*
X0328126Y0383219D01*
X0327543Y0383803D01*
X0326375Y0383803D01*
X0325791Y0383219D01*
X0325791Y0380300D02*
X0328126Y0380300D01*
X0329382Y0381468D02*
X0329382Y0383803D01*
X0329382Y0381468D02*
X0330550Y0380300D01*
X0331717Y0381468D01*
X0331717Y0383803D01*
X0332973Y0383803D02*
X0332973Y0380300D01*
X0332973Y0381468D02*
X0334725Y0381468D01*
X0335309Y0382051D01*
X0335309Y0383219D01*
X0334725Y0383803D01*
X0332973Y0383803D01*
X0334141Y0381468D02*
X0335309Y0380300D01*
X0354200Y0378269D02*
X0355735Y0379804D01*
X0355735Y0375200D01*
X0357269Y0375200D02*
X0354200Y0375200D01*
X0358804Y0375200D02*
X0361873Y0378269D01*
X0361873Y0379037D01*
X0361106Y0379804D01*
X0359571Y0379804D01*
X0358804Y0379037D01*
X0358804Y0375200D02*
X0361873Y0375200D01*
X0368012Y0376735D02*
X0368012Y0379804D01*
X0371081Y0379804D02*
X0371081Y0376735D01*
X0369546Y0375200D01*
X0368012Y0376735D01*
X0377220Y0375967D02*
X0377987Y0375200D01*
X0379522Y0375200D01*
X0380289Y0375967D01*
X0380289Y0379037D01*
X0379522Y0379804D01*
X0377987Y0379804D01*
X0377220Y0379037D01*
X0377220Y0375967D01*
X0381824Y0375967D02*
X0381824Y0379804D01*
X0384893Y0379804D02*
X0384893Y0375967D01*
X0384126Y0375200D01*
X0382591Y0375200D01*
X0381824Y0375967D01*
X0386427Y0379804D02*
X0389497Y0379804D01*
X0387962Y0379804D02*
X0387962Y0375200D01*
X0395549Y0074944D02*
X0395549Y0072609D01*
X0393797Y0074360D01*
X0397300Y0074360D01*
X0397300Y0071353D02*
X0396132Y0070186D01*
X0396132Y0070769D02*
X0396132Y0069018D01*
X0397300Y0069018D02*
X0393797Y0069018D01*
X0393797Y0070769D01*
X0394381Y0071353D01*
X0395549Y0071353D01*
X0396132Y0070769D01*
X0373200Y0062126D02*
X0373200Y0059791D01*
X0370865Y0062126D01*
X0370281Y0062126D01*
X0369697Y0061543D01*
X0369697Y0060375D01*
X0370281Y0059791D01*
X0370281Y0058535D02*
X0371449Y0058535D01*
X0372032Y0057951D01*
X0372032Y0056200D01*
X0372032Y0057368D02*
X0373200Y0058535D01*
X0373200Y0056200D02*
X0369697Y0056200D01*
X0369697Y0057951D01*
X0370281Y0058535D01*
X0061764Y0379500D02*
X0060596Y0380668D01*
X0061180Y0380668D02*
X0059429Y0380668D01*
X0059429Y0379500D02*
X0059429Y0383003D01*
X0061180Y0383003D01*
X0061764Y0382419D01*
X0061764Y0381251D01*
X0061180Y0380668D01*
X0058173Y0380084D02*
X0058173Y0382419D01*
X0057589Y0383003D01*
X0055837Y0383003D01*
X0055837Y0379500D01*
X0057589Y0379500D01*
X0058173Y0380084D01*
X0054582Y0379500D02*
X0052246Y0379500D01*
X0052246Y0383003D01*
X0054582Y0383003D01*
X0053414Y0381251D02*
X0052246Y0381251D01*
X0050991Y0380084D02*
X0050407Y0379500D01*
X0049239Y0379500D01*
X0048655Y0380084D01*
X0048655Y0382419D01*
X0049239Y0383003D01*
X0050407Y0383003D01*
X0050991Y0382419D01*
X0047400Y0383003D02*
X0047400Y0379500D01*
X0045064Y0383003D01*
X0045064Y0379500D01*
X0043809Y0379500D02*
X0043809Y0381835D01*
X0042641Y0383003D01*
X0041473Y0381835D01*
X0041473Y0379500D01*
X0040217Y0379500D02*
X0037882Y0379500D01*
X0037882Y0383003D01*
X0036626Y0381835D02*
X0036626Y0379500D01*
X0036626Y0381251D02*
X0034291Y0381251D01*
X0034291Y0381835D02*
X0035459Y0383003D01*
X0036626Y0381835D01*
X0034291Y0381835D02*
X0034291Y0379500D01*
X0033035Y0380084D02*
X0032451Y0379500D01*
X0030700Y0379500D01*
X0030700Y0383003D01*
X0032451Y0383003D01*
X0033035Y0382419D01*
X0033035Y0381835D01*
X0032451Y0381251D01*
X0030700Y0381251D01*
X0032451Y0381251D02*
X0033035Y0380668D01*
X0033035Y0380084D01*
X0041473Y0381251D02*
X0043809Y0381251D01*
D12*
X0039000Y0376500D02*
X0053000Y0376500D01*
X0053500Y0377000D01*
X0055000Y0377000D01*
X0055060Y0376998D01*
X0055121Y0376993D01*
X0055180Y0376984D01*
X0055239Y0376971D01*
X0055298Y0376955D01*
X0055355Y0376935D01*
X0055410Y0376912D01*
X0055465Y0376885D01*
X0055517Y0376856D01*
X0055568Y0376823D01*
X0055617Y0376787D01*
X0055663Y0376749D01*
X0055707Y0376707D01*
X0055749Y0376663D01*
X0055787Y0376617D01*
X0055823Y0376568D01*
X0055856Y0376517D01*
X0055885Y0376465D01*
X0055912Y0376410D01*
X0055935Y0376355D01*
X0055955Y0376298D01*
X0055971Y0376239D01*
X0055984Y0376180D01*
X0055993Y0376121D01*
X0055998Y0376060D01*
X0056000Y0376000D01*
X0056000Y0370000D01*
X0055998Y0369940D01*
X0055993Y0369879D01*
X0055984Y0369820D01*
X0055971Y0369761D01*
X0055955Y0369702D01*
X0055935Y0369645D01*
X0055912Y0369590D01*
X0055885Y0369535D01*
X0055856Y0369483D01*
X0055823Y0369432D01*
X0055787Y0369383D01*
X0055749Y0369337D01*
X0055707Y0369293D01*
X0055663Y0369251D01*
X0055617Y0369213D01*
X0055568Y0369177D01*
X0055517Y0369144D01*
X0055465Y0369115D01*
X0055410Y0369088D01*
X0055355Y0369065D01*
X0055298Y0369045D01*
X0055239Y0369029D01*
X0055180Y0369016D01*
X0055121Y0369007D01*
X0055060Y0369002D01*
X0055000Y0369000D01*
X0053500Y0369000D01*
X0053000Y0369500D01*
X0039000Y0369500D01*
X0038500Y0369000D01*
X0037000Y0369000D01*
X0036940Y0369002D01*
X0036879Y0369007D01*
X0036820Y0369016D01*
X0036761Y0369029D01*
X0036702Y0369045D01*
X0036645Y0369065D01*
X0036590Y0369088D01*
X0036535Y0369115D01*
X0036483Y0369144D01*
X0036432Y0369177D01*
X0036383Y0369213D01*
X0036337Y0369251D01*
X0036293Y0369293D01*
X0036251Y0369337D01*
X0036213Y0369383D01*
X0036177Y0369432D01*
X0036144Y0369483D01*
X0036115Y0369535D01*
X0036088Y0369590D01*
X0036065Y0369645D01*
X0036045Y0369702D01*
X0036029Y0369761D01*
X0036016Y0369820D01*
X0036007Y0369879D01*
X0036002Y0369940D01*
X0036000Y0370000D01*
X0036000Y0376000D01*
X0036002Y0376060D01*
X0036007Y0376121D01*
X0036016Y0376180D01*
X0036029Y0376239D01*
X0036045Y0376298D01*
X0036065Y0376355D01*
X0036088Y0376410D01*
X0036115Y0376465D01*
X0036144Y0376517D01*
X0036177Y0376568D01*
X0036213Y0376617D01*
X0036251Y0376663D01*
X0036293Y0376707D01*
X0036337Y0376749D01*
X0036383Y0376787D01*
X0036432Y0376823D01*
X0036483Y0376856D01*
X0036535Y0376885D01*
X0036590Y0376912D01*
X0036645Y0376935D01*
X0036702Y0376955D01*
X0036761Y0376971D01*
X0036820Y0376984D01*
X0036879Y0376993D01*
X0036940Y0376998D01*
X0037000Y0377000D01*
X0038500Y0377000D01*
X0039000Y0376500D01*
X0049126Y0388063D02*
X0064874Y0388063D01*
X0064874Y0395937D01*
X0049126Y0395937D02*
X0049126Y0388063D01*
X0084300Y0398603D02*
X0088570Y0398603D01*
X0086435Y0400738D02*
X0086435Y0396468D01*
X0125800Y0399903D02*
X0130070Y0399903D01*
X0154300Y0398503D02*
X0158570Y0398503D01*
X0156435Y0400638D02*
X0156435Y0396368D01*
X0192800Y0398503D02*
X0197070Y0398503D01*
X0207000Y0376000D02*
X0208500Y0376000D01*
X0209000Y0375500D01*
X0223000Y0375500D01*
X0223500Y0376000D01*
X0225000Y0376000D01*
X0225060Y0375998D01*
X0225121Y0375993D01*
X0225180Y0375984D01*
X0225239Y0375971D01*
X0225298Y0375955D01*
X0225355Y0375935D01*
X0225410Y0375912D01*
X0225465Y0375885D01*
X0225517Y0375856D01*
X0225568Y0375823D01*
X0225617Y0375787D01*
X0225663Y0375749D01*
X0225707Y0375707D01*
X0225749Y0375663D01*
X0225787Y0375617D01*
X0225823Y0375568D01*
X0225856Y0375517D01*
X0225885Y0375465D01*
X0225912Y0375410D01*
X0225935Y0375355D01*
X0225955Y0375298D01*
X0225971Y0375239D01*
X0225984Y0375180D01*
X0225993Y0375121D01*
X0225998Y0375060D01*
X0226000Y0375000D01*
X0226000Y0369000D01*
X0225998Y0368940D01*
X0225993Y0368879D01*
X0225984Y0368820D01*
X0225971Y0368761D01*
X0225955Y0368702D01*
X0225935Y0368645D01*
X0225912Y0368590D01*
X0225885Y0368535D01*
X0225856Y0368483D01*
X0225823Y0368432D01*
X0225787Y0368383D01*
X0225749Y0368337D01*
X0225707Y0368293D01*
X0225663Y0368251D01*
X0225617Y0368213D01*
X0225568Y0368177D01*
X0225517Y0368144D01*
X0225465Y0368115D01*
X0225410Y0368088D01*
X0225355Y0368065D01*
X0225298Y0368045D01*
X0225239Y0368029D01*
X0225180Y0368016D01*
X0225121Y0368007D01*
X0225060Y0368002D01*
X0225000Y0368000D01*
X0223500Y0368000D01*
X0223000Y0368500D01*
X0209000Y0368500D01*
X0208500Y0368000D01*
X0207000Y0368000D01*
X0206940Y0368002D01*
X0206879Y0368007D01*
X0206820Y0368016D01*
X0206761Y0368029D01*
X0206702Y0368045D01*
X0206645Y0368065D01*
X0206590Y0368088D01*
X0206535Y0368115D01*
X0206483Y0368144D01*
X0206432Y0368177D01*
X0206383Y0368213D01*
X0206337Y0368251D01*
X0206293Y0368293D01*
X0206251Y0368337D01*
X0206213Y0368383D01*
X0206177Y0368432D01*
X0206144Y0368483D01*
X0206115Y0368535D01*
X0206088Y0368590D01*
X0206065Y0368645D01*
X0206045Y0368702D01*
X0206029Y0368761D01*
X0206016Y0368820D01*
X0206007Y0368879D01*
X0206002Y0368940D01*
X0206000Y0369000D01*
X0206000Y0375000D01*
X0206002Y0375060D01*
X0206007Y0375121D01*
X0206016Y0375180D01*
X0206029Y0375239D01*
X0206045Y0375298D01*
X0206065Y0375355D01*
X0206088Y0375410D01*
X0206115Y0375465D01*
X0206144Y0375517D01*
X0206177Y0375568D01*
X0206213Y0375617D01*
X0206251Y0375663D01*
X0206293Y0375707D01*
X0206337Y0375749D01*
X0206383Y0375787D01*
X0206432Y0375823D01*
X0206483Y0375856D01*
X0206535Y0375885D01*
X0206590Y0375912D01*
X0206645Y0375935D01*
X0206702Y0375955D01*
X0206761Y0375971D01*
X0206820Y0375984D01*
X0206879Y0375993D01*
X0206940Y0375998D01*
X0207000Y0376000D01*
X0219626Y0388063D02*
X0235374Y0388063D01*
X0235374Y0395937D01*
X0219626Y0395937D02*
X0219626Y0388063D01*
X0264300Y0399003D02*
X0268570Y0399003D01*
X0266435Y0401138D02*
X0266435Y0396868D01*
X0305300Y0399003D02*
X0309570Y0399003D01*
X0322000Y0378000D02*
X0323500Y0378000D01*
X0324000Y0377500D01*
X0338000Y0377500D01*
X0338500Y0378000D01*
X0340000Y0378000D01*
X0340060Y0377998D01*
X0340121Y0377993D01*
X0340180Y0377984D01*
X0340239Y0377971D01*
X0340298Y0377955D01*
X0340355Y0377935D01*
X0340410Y0377912D01*
X0340465Y0377885D01*
X0340517Y0377856D01*
X0340568Y0377823D01*
X0340617Y0377787D01*
X0340663Y0377749D01*
X0340707Y0377707D01*
X0340749Y0377663D01*
X0340787Y0377617D01*
X0340823Y0377568D01*
X0340856Y0377517D01*
X0340885Y0377465D01*
X0340912Y0377410D01*
X0340935Y0377355D01*
X0340955Y0377298D01*
X0340971Y0377239D01*
X0340984Y0377180D01*
X0340993Y0377121D01*
X0340998Y0377060D01*
X0341000Y0377000D01*
X0341000Y0371000D01*
X0340998Y0370940D01*
X0340993Y0370879D01*
X0340984Y0370820D01*
X0340971Y0370761D01*
X0340955Y0370702D01*
X0340935Y0370645D01*
X0340912Y0370590D01*
X0340885Y0370535D01*
X0340856Y0370483D01*
X0340823Y0370432D01*
X0340787Y0370383D01*
X0340749Y0370337D01*
X0340707Y0370293D01*
X0340663Y0370251D01*
X0340617Y0370213D01*
X0340568Y0370177D01*
X0340517Y0370144D01*
X0340465Y0370115D01*
X0340410Y0370088D01*
X0340355Y0370065D01*
X0340298Y0370045D01*
X0340239Y0370029D01*
X0340180Y0370016D01*
X0340121Y0370007D01*
X0340060Y0370002D01*
X0340000Y0370000D01*
X0338500Y0370000D01*
X0338000Y0370500D01*
X0324000Y0370500D01*
X0323500Y0370000D01*
X0322000Y0370000D01*
X0321940Y0370002D01*
X0321879Y0370007D01*
X0321820Y0370016D01*
X0321761Y0370029D01*
X0321702Y0370045D01*
X0321645Y0370065D01*
X0321590Y0370088D01*
X0321535Y0370115D01*
X0321483Y0370144D01*
X0321432Y0370177D01*
X0321383Y0370213D01*
X0321337Y0370251D01*
X0321293Y0370293D01*
X0321251Y0370337D01*
X0321213Y0370383D01*
X0321177Y0370432D01*
X0321144Y0370483D01*
X0321115Y0370535D01*
X0321088Y0370590D01*
X0321065Y0370645D01*
X0321045Y0370702D01*
X0321029Y0370761D01*
X0321016Y0370820D01*
X0321007Y0370879D01*
X0321002Y0370940D01*
X0321000Y0371000D01*
X0321000Y0377000D01*
X0321002Y0377060D01*
X0321007Y0377121D01*
X0321016Y0377180D01*
X0321029Y0377239D01*
X0321045Y0377298D01*
X0321065Y0377355D01*
X0321088Y0377410D01*
X0321115Y0377465D01*
X0321144Y0377517D01*
X0321177Y0377568D01*
X0321213Y0377617D01*
X0321251Y0377663D01*
X0321293Y0377707D01*
X0321337Y0377749D01*
X0321383Y0377787D01*
X0321432Y0377823D01*
X0321483Y0377856D01*
X0321535Y0377885D01*
X0321590Y0377912D01*
X0321645Y0377935D01*
X0321702Y0377955D01*
X0321761Y0377971D01*
X0321820Y0377984D01*
X0321879Y0377993D01*
X0321940Y0377998D01*
X0322000Y0378000D01*
X0335126Y0388063D02*
X0350874Y0388063D01*
X0350874Y0395937D01*
X0335126Y0395937D02*
X0335126Y0388063D01*
X0358401Y0331143D02*
X0376117Y0331143D01*
X0376117Y0316025D01*
X0358401Y0316025D01*
X0358401Y0331143D01*
X0350500Y0295500D02*
X0323500Y0295500D01*
X0323440Y0295498D01*
X0323379Y0295493D01*
X0323320Y0295484D01*
X0323261Y0295471D01*
X0323202Y0295455D01*
X0323145Y0295435D01*
X0323090Y0295412D01*
X0323035Y0295385D01*
X0322983Y0295356D01*
X0322932Y0295323D01*
X0322883Y0295287D01*
X0322837Y0295249D01*
X0322793Y0295207D01*
X0322751Y0295163D01*
X0322713Y0295117D01*
X0322677Y0295068D01*
X0322644Y0295017D01*
X0322615Y0294965D01*
X0322588Y0294910D01*
X0322565Y0294855D01*
X0322545Y0294798D01*
X0322529Y0294739D01*
X0322516Y0294680D01*
X0322507Y0294621D01*
X0322502Y0294560D01*
X0322500Y0294500D01*
X0322500Y0284500D01*
X0322502Y0284440D01*
X0322507Y0284379D01*
X0322516Y0284320D01*
X0322529Y0284261D01*
X0322545Y0284202D01*
X0322565Y0284145D01*
X0322588Y0284090D01*
X0322615Y0284035D01*
X0322644Y0283983D01*
X0322677Y0283932D01*
X0322713Y0283883D01*
X0322751Y0283837D01*
X0322793Y0283793D01*
X0322837Y0283751D01*
X0322883Y0283713D01*
X0322932Y0283677D01*
X0322983Y0283644D01*
X0323035Y0283615D01*
X0323090Y0283588D01*
X0323145Y0283565D01*
X0323202Y0283545D01*
X0323261Y0283529D01*
X0323320Y0283516D01*
X0323379Y0283507D01*
X0323440Y0283502D01*
X0323500Y0283500D01*
X0350500Y0283500D01*
X0350560Y0283502D01*
X0350621Y0283507D01*
X0350680Y0283516D01*
X0350739Y0283529D01*
X0350798Y0283545D01*
X0350855Y0283565D01*
X0350910Y0283588D01*
X0350965Y0283615D01*
X0351017Y0283644D01*
X0351068Y0283677D01*
X0351117Y0283713D01*
X0351163Y0283751D01*
X0351207Y0283793D01*
X0351249Y0283837D01*
X0351287Y0283883D01*
X0351323Y0283932D01*
X0351356Y0283983D01*
X0351385Y0284035D01*
X0351412Y0284090D01*
X0351435Y0284145D01*
X0351455Y0284202D01*
X0351471Y0284261D01*
X0351484Y0284320D01*
X0351493Y0284379D01*
X0351498Y0284440D01*
X0351500Y0284500D01*
X0351500Y0294500D01*
X0351498Y0294560D01*
X0351493Y0294621D01*
X0351484Y0294680D01*
X0351471Y0294739D01*
X0351455Y0294798D01*
X0351435Y0294855D01*
X0351412Y0294910D01*
X0351385Y0294965D01*
X0351356Y0295017D01*
X0351323Y0295068D01*
X0351287Y0295117D01*
X0351249Y0295163D01*
X0351207Y0295207D01*
X0351163Y0295249D01*
X0351117Y0295287D01*
X0351068Y0295323D01*
X0351017Y0295356D01*
X0350965Y0295385D01*
X0350910Y0295412D01*
X0350855Y0295435D01*
X0350798Y0295455D01*
X0350739Y0295471D01*
X0350680Y0295484D01*
X0350621Y0295493D01*
X0350560Y0295498D01*
X0350500Y0295500D01*
X0343000Y0289500D02*
X0338300Y0289500D01*
X0335800Y0289500D02*
X0331000Y0289500D01*
X0323500Y0281500D02*
X0350500Y0281500D01*
X0350560Y0281498D01*
X0350621Y0281493D01*
X0350680Y0281484D01*
X0350739Y0281471D01*
X0350798Y0281455D01*
X0350855Y0281435D01*
X0350910Y0281412D01*
X0350965Y0281385D01*
X0351017Y0281356D01*
X0351068Y0281323D01*
X0351117Y0281287D01*
X0351163Y0281249D01*
X0351207Y0281207D01*
X0351249Y0281163D01*
X0351287Y0281117D01*
X0351323Y0281068D01*
X0351356Y0281017D01*
X0351385Y0280965D01*
X0351412Y0280910D01*
X0351435Y0280855D01*
X0351455Y0280798D01*
X0351471Y0280739D01*
X0351484Y0280680D01*
X0351493Y0280621D01*
X0351498Y0280560D01*
X0351500Y0280500D01*
X0351500Y0270500D01*
X0351498Y0270440D01*
X0351493Y0270379D01*
X0351484Y0270320D01*
X0351471Y0270261D01*
X0351455Y0270202D01*
X0351435Y0270145D01*
X0351412Y0270090D01*
X0351385Y0270035D01*
X0351356Y0269983D01*
X0351323Y0269932D01*
X0351287Y0269883D01*
X0351249Y0269837D01*
X0351207Y0269793D01*
X0351163Y0269751D01*
X0351117Y0269713D01*
X0351068Y0269677D01*
X0351017Y0269644D01*
X0350965Y0269615D01*
X0350910Y0269588D01*
X0350855Y0269565D01*
X0350798Y0269545D01*
X0350739Y0269529D01*
X0350680Y0269516D01*
X0350621Y0269507D01*
X0350560Y0269502D01*
X0350500Y0269500D01*
X0323500Y0269500D01*
X0323440Y0269502D01*
X0323379Y0269507D01*
X0323320Y0269516D01*
X0323261Y0269529D01*
X0323202Y0269545D01*
X0323145Y0269565D01*
X0323090Y0269588D01*
X0323035Y0269615D01*
X0322983Y0269644D01*
X0322932Y0269677D01*
X0322883Y0269713D01*
X0322837Y0269751D01*
X0322793Y0269793D01*
X0322751Y0269837D01*
X0322713Y0269883D01*
X0322677Y0269932D01*
X0322644Y0269983D01*
X0322615Y0270035D01*
X0322588Y0270090D01*
X0322565Y0270145D01*
X0322545Y0270202D01*
X0322529Y0270261D01*
X0322516Y0270320D01*
X0322507Y0270379D01*
X0322502Y0270440D01*
X0322500Y0270500D01*
X0322500Y0280500D01*
X0322502Y0280560D01*
X0322507Y0280621D01*
X0322516Y0280680D01*
X0322529Y0280739D01*
X0322545Y0280798D01*
X0322565Y0280855D01*
X0322588Y0280910D01*
X0322615Y0280965D01*
X0322644Y0281017D01*
X0322677Y0281068D01*
X0322713Y0281117D01*
X0322751Y0281163D01*
X0322793Y0281207D01*
X0322837Y0281249D01*
X0322883Y0281287D01*
X0322932Y0281323D01*
X0322983Y0281356D01*
X0323035Y0281385D01*
X0323090Y0281412D01*
X0323145Y0281435D01*
X0323202Y0281455D01*
X0323261Y0281471D01*
X0323320Y0281484D01*
X0323379Y0281493D01*
X0323440Y0281498D01*
X0323500Y0281500D01*
X0331000Y0275500D02*
X0335800Y0275500D01*
X0338300Y0275500D02*
X0343000Y0275500D01*
X0307500Y0192000D02*
X0301500Y0192000D01*
X0301440Y0191998D01*
X0301379Y0191993D01*
X0301320Y0191984D01*
X0301261Y0191971D01*
X0301202Y0191955D01*
X0301145Y0191935D01*
X0301090Y0191912D01*
X0301035Y0191885D01*
X0300983Y0191856D01*
X0300932Y0191823D01*
X0300883Y0191787D01*
X0300837Y0191749D01*
X0300793Y0191707D01*
X0300751Y0191663D01*
X0300713Y0191617D01*
X0300677Y0191568D01*
X0300644Y0191517D01*
X0300615Y0191465D01*
X0300588Y0191410D01*
X0300565Y0191355D01*
X0300545Y0191298D01*
X0300529Y0191239D01*
X0300516Y0191180D01*
X0300507Y0191121D01*
X0300502Y0191060D01*
X0300500Y0191000D01*
X0300500Y0189500D01*
X0301000Y0189000D01*
X0301000Y0175000D01*
X0300500Y0174500D01*
X0300500Y0173000D01*
X0300502Y0172940D01*
X0300507Y0172879D01*
X0300516Y0172820D01*
X0300529Y0172761D01*
X0300545Y0172702D01*
X0300565Y0172645D01*
X0300588Y0172590D01*
X0300615Y0172535D01*
X0300644Y0172483D01*
X0300677Y0172432D01*
X0300713Y0172383D01*
X0300751Y0172337D01*
X0300793Y0172293D01*
X0300837Y0172251D01*
X0300883Y0172213D01*
X0300932Y0172177D01*
X0300983Y0172144D01*
X0301035Y0172115D01*
X0301090Y0172088D01*
X0301145Y0172065D01*
X0301202Y0172045D01*
X0301261Y0172029D01*
X0301320Y0172016D01*
X0301379Y0172007D01*
X0301440Y0172002D01*
X0301500Y0172000D01*
X0307500Y0172000D01*
X0307560Y0172002D01*
X0307621Y0172007D01*
X0307680Y0172016D01*
X0307739Y0172029D01*
X0307798Y0172045D01*
X0307855Y0172065D01*
X0307910Y0172088D01*
X0307965Y0172115D01*
X0308017Y0172144D01*
X0308068Y0172177D01*
X0308117Y0172213D01*
X0308163Y0172251D01*
X0308207Y0172293D01*
X0308249Y0172337D01*
X0308287Y0172383D01*
X0308323Y0172432D01*
X0308356Y0172483D01*
X0308385Y0172535D01*
X0308412Y0172590D01*
X0308435Y0172645D01*
X0308455Y0172702D01*
X0308471Y0172761D01*
X0308484Y0172820D01*
X0308493Y0172879D01*
X0308498Y0172940D01*
X0308500Y0173000D01*
X0308500Y0174500D01*
X0308000Y0175000D01*
X0308000Y0189000D01*
X0308500Y0189500D01*
X0308500Y0191000D01*
X0308498Y0191060D01*
X0308493Y0191121D01*
X0308484Y0191180D01*
X0308471Y0191239D01*
X0308455Y0191298D01*
X0308435Y0191355D01*
X0308412Y0191410D01*
X0308385Y0191465D01*
X0308356Y0191517D01*
X0308323Y0191568D01*
X0308287Y0191617D01*
X0308249Y0191663D01*
X0308207Y0191707D01*
X0308163Y0191749D01*
X0308117Y0191787D01*
X0308068Y0191823D01*
X0308017Y0191856D01*
X0307965Y0191885D01*
X0307910Y0191912D01*
X0307855Y0191935D01*
X0307798Y0191955D01*
X0307739Y0191971D01*
X0307680Y0191984D01*
X0307621Y0191993D01*
X0307560Y0191998D01*
X0307500Y0192000D01*
X0296000Y0191000D02*
X0296000Y0189500D01*
X0295500Y0189000D01*
X0295500Y0175000D01*
X0296000Y0174500D01*
X0296000Y0173000D01*
X0295998Y0172940D01*
X0295993Y0172879D01*
X0295984Y0172820D01*
X0295971Y0172761D01*
X0295955Y0172702D01*
X0295935Y0172645D01*
X0295912Y0172590D01*
X0295885Y0172535D01*
X0295856Y0172483D01*
X0295823Y0172432D01*
X0295787Y0172383D01*
X0295749Y0172337D01*
X0295707Y0172293D01*
X0295663Y0172251D01*
X0295617Y0172213D01*
X0295568Y0172177D01*
X0295517Y0172144D01*
X0295465Y0172115D01*
X0295410Y0172088D01*
X0295355Y0172065D01*
X0295298Y0172045D01*
X0295239Y0172029D01*
X0295180Y0172016D01*
X0295121Y0172007D01*
X0295060Y0172002D01*
X0295000Y0172000D01*
X0289000Y0172000D01*
X0288940Y0172002D01*
X0288879Y0172007D01*
X0288820Y0172016D01*
X0288761Y0172029D01*
X0288702Y0172045D01*
X0288645Y0172065D01*
X0288590Y0172088D01*
X0288535Y0172115D01*
X0288483Y0172144D01*
X0288432Y0172177D01*
X0288383Y0172213D01*
X0288337Y0172251D01*
X0288293Y0172293D01*
X0288251Y0172337D01*
X0288213Y0172383D01*
X0288177Y0172432D01*
X0288144Y0172483D01*
X0288115Y0172535D01*
X0288088Y0172590D01*
X0288065Y0172645D01*
X0288045Y0172702D01*
X0288029Y0172761D01*
X0288016Y0172820D01*
X0288007Y0172879D01*
X0288002Y0172940D01*
X0288000Y0173000D01*
X0288000Y0174500D01*
X0288500Y0175000D01*
X0288500Y0189000D01*
X0288000Y0189500D01*
X0288000Y0191000D01*
X0288002Y0191060D01*
X0288007Y0191121D01*
X0288016Y0191180D01*
X0288029Y0191239D01*
X0288045Y0191298D01*
X0288065Y0191355D01*
X0288088Y0191410D01*
X0288115Y0191465D01*
X0288144Y0191517D01*
X0288177Y0191568D01*
X0288213Y0191617D01*
X0288251Y0191663D01*
X0288293Y0191707D01*
X0288337Y0191749D01*
X0288383Y0191787D01*
X0288432Y0191823D01*
X0288483Y0191856D01*
X0288535Y0191885D01*
X0288590Y0191912D01*
X0288645Y0191935D01*
X0288702Y0191955D01*
X0288761Y0191971D01*
X0288820Y0191984D01*
X0288879Y0191993D01*
X0288940Y0191998D01*
X0289000Y0192000D01*
X0295000Y0192000D01*
X0295060Y0191998D01*
X0295121Y0191993D01*
X0295180Y0191984D01*
X0295239Y0191971D01*
X0295298Y0191955D01*
X0295355Y0191935D01*
X0295410Y0191912D01*
X0295465Y0191885D01*
X0295517Y0191856D01*
X0295568Y0191823D01*
X0295617Y0191787D01*
X0295663Y0191749D01*
X0295707Y0191707D01*
X0295749Y0191663D01*
X0295787Y0191617D01*
X0295823Y0191568D01*
X0295856Y0191517D01*
X0295885Y0191465D01*
X0295912Y0191410D01*
X0295935Y0191355D01*
X0295955Y0191298D01*
X0295971Y0191239D01*
X0295984Y0191180D01*
X0295993Y0191121D01*
X0295998Y0191060D01*
X0296000Y0191000D01*
X0275500Y0153500D02*
X0274000Y0153500D01*
X0273500Y0153000D01*
X0259500Y0153000D01*
X0259000Y0153500D01*
X0257500Y0153500D01*
X0257440Y0153498D01*
X0257379Y0153493D01*
X0257320Y0153484D01*
X0257261Y0153471D01*
X0257202Y0153455D01*
X0257145Y0153435D01*
X0257090Y0153412D01*
X0257035Y0153385D01*
X0256983Y0153356D01*
X0256932Y0153323D01*
X0256883Y0153287D01*
X0256837Y0153249D01*
X0256793Y0153207D01*
X0256751Y0153163D01*
X0256713Y0153117D01*
X0256677Y0153068D01*
X0256644Y0153017D01*
X0256615Y0152965D01*
X0256588Y0152910D01*
X0256565Y0152855D01*
X0256545Y0152798D01*
X0256529Y0152739D01*
X0256516Y0152680D01*
X0256507Y0152621D01*
X0256502Y0152560D01*
X0256500Y0152500D01*
X0256500Y0146500D01*
X0256502Y0146440D01*
X0256507Y0146379D01*
X0256516Y0146320D01*
X0256529Y0146261D01*
X0256545Y0146202D01*
X0256565Y0146145D01*
X0256588Y0146090D01*
X0256615Y0146035D01*
X0256644Y0145983D01*
X0256677Y0145932D01*
X0256713Y0145883D01*
X0256751Y0145837D01*
X0256793Y0145793D01*
X0256837Y0145751D01*
X0256883Y0145713D01*
X0256932Y0145677D01*
X0256983Y0145644D01*
X0257035Y0145615D01*
X0257090Y0145588D01*
X0257145Y0145565D01*
X0257202Y0145545D01*
X0257261Y0145529D01*
X0257320Y0145516D01*
X0257379Y0145507D01*
X0257440Y0145502D01*
X0257500Y0145500D01*
X0259000Y0145500D01*
X0259500Y0146000D01*
X0273500Y0146000D01*
X0274000Y0145500D01*
X0275500Y0145500D01*
X0275560Y0145502D01*
X0275621Y0145507D01*
X0275680Y0145516D01*
X0275739Y0145529D01*
X0275798Y0145545D01*
X0275855Y0145565D01*
X0275910Y0145588D01*
X0275965Y0145615D01*
X0276017Y0145644D01*
X0276068Y0145677D01*
X0276117Y0145713D01*
X0276163Y0145751D01*
X0276207Y0145793D01*
X0276249Y0145837D01*
X0276287Y0145883D01*
X0276323Y0145932D01*
X0276356Y0145983D01*
X0276385Y0146035D01*
X0276412Y0146090D01*
X0276435Y0146145D01*
X0276455Y0146202D01*
X0276471Y0146261D01*
X0276484Y0146320D01*
X0276493Y0146379D01*
X0276498Y0146440D01*
X0276500Y0146500D01*
X0276500Y0152500D01*
X0276498Y0152560D01*
X0276493Y0152621D01*
X0276484Y0152680D01*
X0276471Y0152739D01*
X0276455Y0152798D01*
X0276435Y0152855D01*
X0276412Y0152910D01*
X0276385Y0152965D01*
X0276356Y0153017D01*
X0276323Y0153068D01*
X0276287Y0153117D01*
X0276249Y0153163D01*
X0276207Y0153207D01*
X0276163Y0153249D01*
X0276117Y0153287D01*
X0276068Y0153323D01*
X0276017Y0153356D01*
X0275965Y0153385D01*
X0275910Y0153412D01*
X0275855Y0153435D01*
X0275798Y0153455D01*
X0275739Y0153471D01*
X0275680Y0153484D01*
X0275621Y0153493D01*
X0275560Y0153498D01*
X0275500Y0153500D01*
X0275500Y0143500D02*
X0274000Y0143500D01*
X0273500Y0143000D01*
X0259500Y0143000D01*
X0259000Y0143500D01*
X0257500Y0143500D01*
X0257440Y0143498D01*
X0257379Y0143493D01*
X0257320Y0143484D01*
X0257261Y0143471D01*
X0257202Y0143455D01*
X0257145Y0143435D01*
X0257090Y0143412D01*
X0257035Y0143385D01*
X0256983Y0143356D01*
X0256932Y0143323D01*
X0256883Y0143287D01*
X0256837Y0143249D01*
X0256793Y0143207D01*
X0256751Y0143163D01*
X0256713Y0143117D01*
X0256677Y0143068D01*
X0256644Y0143017D01*
X0256615Y0142965D01*
X0256588Y0142910D01*
X0256565Y0142855D01*
X0256545Y0142798D01*
X0256529Y0142739D01*
X0256516Y0142680D01*
X0256507Y0142621D01*
X0256502Y0142560D01*
X0256500Y0142500D01*
X0256500Y0136500D01*
X0256502Y0136440D01*
X0256507Y0136379D01*
X0256516Y0136320D01*
X0256529Y0136261D01*
X0256545Y0136202D01*
X0256565Y0136145D01*
X0256588Y0136090D01*
X0256615Y0136035D01*
X0256644Y0135983D01*
X0256677Y0135932D01*
X0256713Y0135883D01*
X0256751Y0135837D01*
X0256793Y0135793D01*
X0256837Y0135751D01*
X0256883Y0135713D01*
X0256932Y0135677D01*
X0256983Y0135644D01*
X0257035Y0135615D01*
X0257090Y0135588D01*
X0257145Y0135565D01*
X0257202Y0135545D01*
X0257261Y0135529D01*
X0257320Y0135516D01*
X0257379Y0135507D01*
X0257440Y0135502D01*
X0257500Y0135500D01*
X0259000Y0135500D01*
X0259500Y0136000D01*
X0273500Y0136000D01*
X0274000Y0135500D01*
X0275500Y0135500D01*
X0275560Y0135502D01*
X0275621Y0135507D01*
X0275680Y0135516D01*
X0275739Y0135529D01*
X0275798Y0135545D01*
X0275855Y0135565D01*
X0275910Y0135588D01*
X0275965Y0135615D01*
X0276017Y0135644D01*
X0276068Y0135677D01*
X0276117Y0135713D01*
X0276163Y0135751D01*
X0276207Y0135793D01*
X0276249Y0135837D01*
X0276287Y0135883D01*
X0276323Y0135932D01*
X0276356Y0135983D01*
X0276385Y0136035D01*
X0276412Y0136090D01*
X0276435Y0136145D01*
X0276455Y0136202D01*
X0276471Y0136261D01*
X0276484Y0136320D01*
X0276493Y0136379D01*
X0276498Y0136440D01*
X0276500Y0136500D01*
X0276500Y0142500D01*
X0276498Y0142560D01*
X0276493Y0142621D01*
X0276484Y0142680D01*
X0276471Y0142739D01*
X0276455Y0142798D01*
X0276435Y0142855D01*
X0276412Y0142910D01*
X0276385Y0142965D01*
X0276356Y0143017D01*
X0276323Y0143068D01*
X0276287Y0143117D01*
X0276249Y0143163D01*
X0276207Y0143207D01*
X0276163Y0143249D01*
X0276117Y0143287D01*
X0276068Y0143323D01*
X0276017Y0143356D01*
X0275965Y0143385D01*
X0275910Y0143412D01*
X0275855Y0143435D01*
X0275798Y0143455D01*
X0275739Y0143471D01*
X0275680Y0143484D01*
X0275621Y0143493D01*
X0275560Y0143498D01*
X0275500Y0143500D01*
X0239575Y0094417D02*
X0224457Y0094417D01*
X0224457Y0076701D01*
X0239575Y0076701D01*
X0239575Y0094417D01*
X0166500Y0092500D02*
X0166500Y0082500D01*
X0166498Y0082440D01*
X0166493Y0082379D01*
X0166484Y0082320D01*
X0166471Y0082261D01*
X0166455Y0082202D01*
X0166435Y0082145D01*
X0166412Y0082090D01*
X0166385Y0082035D01*
X0166356Y0081983D01*
X0166323Y0081932D01*
X0166287Y0081883D01*
X0166249Y0081837D01*
X0166207Y0081793D01*
X0166163Y0081751D01*
X0166117Y0081713D01*
X0166068Y0081677D01*
X0166017Y0081644D01*
X0165965Y0081615D01*
X0165910Y0081588D01*
X0165855Y0081565D01*
X0165798Y0081545D01*
X0165739Y0081529D01*
X0165680Y0081516D01*
X0165621Y0081507D01*
X0165560Y0081502D01*
X0165500Y0081500D01*
X0138500Y0081500D01*
X0138440Y0081502D01*
X0138379Y0081507D01*
X0138320Y0081516D01*
X0138261Y0081529D01*
X0138202Y0081545D01*
X0138145Y0081565D01*
X0138090Y0081588D01*
X0138035Y0081615D01*
X0137983Y0081644D01*
X0137932Y0081677D01*
X0137883Y0081713D01*
X0137837Y0081751D01*
X0137793Y0081793D01*
X0137751Y0081837D01*
X0137713Y0081883D01*
X0137677Y0081932D01*
X0137644Y0081983D01*
X0137615Y0082035D01*
X0137588Y0082090D01*
X0137565Y0082145D01*
X0137545Y0082202D01*
X0137529Y0082261D01*
X0137516Y0082320D01*
X0137507Y0082379D01*
X0137502Y0082440D01*
X0137500Y0082500D01*
X0137500Y0092500D01*
X0137502Y0092560D01*
X0137507Y0092621D01*
X0137516Y0092680D01*
X0137529Y0092739D01*
X0137545Y0092798D01*
X0137565Y0092855D01*
X0137588Y0092910D01*
X0137615Y0092965D01*
X0137644Y0093017D01*
X0137677Y0093068D01*
X0137713Y0093117D01*
X0137751Y0093163D01*
X0137793Y0093207D01*
X0137837Y0093249D01*
X0137883Y0093287D01*
X0137932Y0093323D01*
X0137983Y0093356D01*
X0138035Y0093385D01*
X0138090Y0093412D01*
X0138145Y0093435D01*
X0138202Y0093455D01*
X0138261Y0093471D01*
X0138320Y0093484D01*
X0138379Y0093493D01*
X0138440Y0093498D01*
X0138500Y0093500D01*
X0165500Y0093500D01*
X0165560Y0093498D01*
X0165621Y0093493D01*
X0165680Y0093484D01*
X0165739Y0093471D01*
X0165798Y0093455D01*
X0165855Y0093435D01*
X0165910Y0093412D01*
X0165965Y0093385D01*
X0166017Y0093356D01*
X0166068Y0093323D01*
X0166117Y0093287D01*
X0166163Y0093249D01*
X0166207Y0093207D01*
X0166249Y0093163D01*
X0166287Y0093117D01*
X0166323Y0093068D01*
X0166356Y0093017D01*
X0166385Y0092965D01*
X0166412Y0092910D01*
X0166435Y0092855D01*
X0166455Y0092798D01*
X0166471Y0092739D01*
X0166484Y0092680D01*
X0166493Y0092621D01*
X0166498Y0092560D01*
X0166500Y0092500D01*
X0158000Y0087500D02*
X0153300Y0087500D01*
X0150800Y0087500D02*
X0146000Y0087500D01*
X0107000Y0125500D02*
X0107000Y0152500D01*
X0106998Y0152560D01*
X0106993Y0152621D01*
X0106984Y0152680D01*
X0106971Y0152739D01*
X0106955Y0152798D01*
X0106935Y0152855D01*
X0106912Y0152910D01*
X0106885Y0152965D01*
X0106856Y0153017D01*
X0106823Y0153068D01*
X0106787Y0153117D01*
X0106749Y0153163D01*
X0106707Y0153207D01*
X0106663Y0153249D01*
X0106617Y0153287D01*
X0106568Y0153323D01*
X0106517Y0153356D01*
X0106465Y0153385D01*
X0106410Y0153412D01*
X0106355Y0153435D01*
X0106298Y0153455D01*
X0106239Y0153471D01*
X0106180Y0153484D01*
X0106121Y0153493D01*
X0106060Y0153498D01*
X0106000Y0153500D01*
X0096000Y0153500D01*
X0095940Y0153498D01*
X0095879Y0153493D01*
X0095820Y0153484D01*
X0095761Y0153471D01*
X0095702Y0153455D01*
X0095645Y0153435D01*
X0095590Y0153412D01*
X0095535Y0153385D01*
X0095483Y0153356D01*
X0095432Y0153323D01*
X0095383Y0153287D01*
X0095337Y0153249D01*
X0095293Y0153207D01*
X0095251Y0153163D01*
X0095213Y0153117D01*
X0095177Y0153068D01*
X0095144Y0153017D01*
X0095115Y0152965D01*
X0095088Y0152910D01*
X0095065Y0152855D01*
X0095045Y0152798D01*
X0095029Y0152739D01*
X0095016Y0152680D01*
X0095007Y0152621D01*
X0095002Y0152560D01*
X0095000Y0152500D01*
X0095000Y0125500D01*
X0095002Y0125440D01*
X0095007Y0125379D01*
X0095016Y0125320D01*
X0095029Y0125261D01*
X0095045Y0125202D01*
X0095065Y0125145D01*
X0095088Y0125090D01*
X0095115Y0125035D01*
X0095144Y0124983D01*
X0095177Y0124932D01*
X0095213Y0124883D01*
X0095251Y0124837D01*
X0095293Y0124793D01*
X0095337Y0124751D01*
X0095383Y0124713D01*
X0095432Y0124677D01*
X0095483Y0124644D01*
X0095535Y0124615D01*
X0095590Y0124588D01*
X0095645Y0124565D01*
X0095702Y0124545D01*
X0095761Y0124529D01*
X0095820Y0124516D01*
X0095879Y0124507D01*
X0095940Y0124502D01*
X0096000Y0124500D01*
X0106000Y0124500D01*
X0106060Y0124502D01*
X0106121Y0124507D01*
X0106180Y0124516D01*
X0106239Y0124529D01*
X0106298Y0124545D01*
X0106355Y0124565D01*
X0106410Y0124588D01*
X0106465Y0124615D01*
X0106517Y0124644D01*
X0106568Y0124677D01*
X0106617Y0124713D01*
X0106663Y0124751D01*
X0106707Y0124793D01*
X0106749Y0124837D01*
X0106787Y0124883D01*
X0106823Y0124932D01*
X0106856Y0124983D01*
X0106885Y0125035D01*
X0106912Y0125090D01*
X0106935Y0125145D01*
X0106955Y0125202D01*
X0106971Y0125261D01*
X0106984Y0125320D01*
X0106993Y0125379D01*
X0106998Y0125440D01*
X0107000Y0125500D01*
X0101000Y0133000D02*
X0101000Y0137800D01*
X0101000Y0140300D02*
X0101000Y0145000D01*
X0165000Y0182500D02*
X0165000Y0192500D01*
X0165002Y0192560D01*
X0165007Y0192621D01*
X0165016Y0192680D01*
X0165029Y0192739D01*
X0165045Y0192798D01*
X0165065Y0192855D01*
X0165088Y0192910D01*
X0165115Y0192965D01*
X0165144Y0193017D01*
X0165177Y0193068D01*
X0165213Y0193117D01*
X0165251Y0193163D01*
X0165293Y0193207D01*
X0165337Y0193249D01*
X0165383Y0193287D01*
X0165432Y0193323D01*
X0165483Y0193356D01*
X0165535Y0193385D01*
X0165590Y0193412D01*
X0165645Y0193435D01*
X0165702Y0193455D01*
X0165761Y0193471D01*
X0165820Y0193484D01*
X0165879Y0193493D01*
X0165940Y0193498D01*
X0166000Y0193500D01*
X0193000Y0193500D01*
X0193060Y0193498D01*
X0193121Y0193493D01*
X0193180Y0193484D01*
X0193239Y0193471D01*
X0193298Y0193455D01*
X0193355Y0193435D01*
X0193410Y0193412D01*
X0193465Y0193385D01*
X0193517Y0193356D01*
X0193568Y0193323D01*
X0193617Y0193287D01*
X0193663Y0193249D01*
X0193707Y0193207D01*
X0193749Y0193163D01*
X0193787Y0193117D01*
X0193823Y0193068D01*
X0193856Y0193017D01*
X0193885Y0192965D01*
X0193912Y0192910D01*
X0193935Y0192855D01*
X0193955Y0192798D01*
X0193971Y0192739D01*
X0193984Y0192680D01*
X0193993Y0192621D01*
X0193998Y0192560D01*
X0194000Y0192500D01*
X0194000Y0182500D01*
X0193998Y0182440D01*
X0193993Y0182379D01*
X0193984Y0182320D01*
X0193971Y0182261D01*
X0193955Y0182202D01*
X0193935Y0182145D01*
X0193912Y0182090D01*
X0193885Y0182035D01*
X0193856Y0181983D01*
X0193823Y0181932D01*
X0193787Y0181883D01*
X0193749Y0181837D01*
X0193707Y0181793D01*
X0193663Y0181751D01*
X0193617Y0181713D01*
X0193568Y0181677D01*
X0193517Y0181644D01*
X0193465Y0181615D01*
X0193410Y0181588D01*
X0193355Y0181565D01*
X0193298Y0181545D01*
X0193239Y0181529D01*
X0193180Y0181516D01*
X0193121Y0181507D01*
X0193060Y0181502D01*
X0193000Y0181500D01*
X0166000Y0181500D01*
X0165940Y0181502D01*
X0165879Y0181507D01*
X0165820Y0181516D01*
X0165761Y0181529D01*
X0165702Y0181545D01*
X0165645Y0181565D01*
X0165590Y0181588D01*
X0165535Y0181615D01*
X0165483Y0181644D01*
X0165432Y0181677D01*
X0165383Y0181713D01*
X0165337Y0181751D01*
X0165293Y0181793D01*
X0165251Y0181837D01*
X0165213Y0181883D01*
X0165177Y0181932D01*
X0165144Y0181983D01*
X0165115Y0182035D01*
X0165088Y0182090D01*
X0165065Y0182145D01*
X0165045Y0182202D01*
X0165029Y0182261D01*
X0165016Y0182320D01*
X0165007Y0182379D01*
X0165002Y0182440D01*
X0165000Y0182500D01*
X0173500Y0187500D02*
X0178300Y0187500D01*
X0180800Y0187500D02*
X0185500Y0187500D01*
X0084000Y0263000D02*
X0084000Y0273000D01*
X0083998Y0273060D01*
X0083993Y0273121D01*
X0083984Y0273180D01*
X0083971Y0273239D01*
X0083955Y0273298D01*
X0083935Y0273355D01*
X0083912Y0273410D01*
X0083885Y0273465D01*
X0083856Y0273517D01*
X0083823Y0273568D01*
X0083787Y0273617D01*
X0083749Y0273663D01*
X0083707Y0273707D01*
X0083663Y0273749D01*
X0083617Y0273787D01*
X0083568Y0273823D01*
X0083517Y0273856D01*
X0083465Y0273885D01*
X0083410Y0273912D01*
X0083355Y0273935D01*
X0083298Y0273955D01*
X0083239Y0273971D01*
X0083180Y0273984D01*
X0083121Y0273993D01*
X0083060Y0273998D01*
X0083000Y0274000D01*
X0056000Y0274000D01*
X0055940Y0273998D01*
X0055879Y0273993D01*
X0055820Y0273984D01*
X0055761Y0273971D01*
X0055702Y0273955D01*
X0055645Y0273935D01*
X0055590Y0273912D01*
X0055535Y0273885D01*
X0055483Y0273856D01*
X0055432Y0273823D01*
X0055383Y0273787D01*
X0055337Y0273749D01*
X0055293Y0273707D01*
X0055251Y0273663D01*
X0055213Y0273617D01*
X0055177Y0273568D01*
X0055144Y0273517D01*
X0055115Y0273465D01*
X0055088Y0273410D01*
X0055065Y0273355D01*
X0055045Y0273298D01*
X0055029Y0273239D01*
X0055016Y0273180D01*
X0055007Y0273121D01*
X0055002Y0273060D01*
X0055000Y0273000D01*
X0055000Y0263000D01*
X0055002Y0262940D01*
X0055007Y0262879D01*
X0055016Y0262820D01*
X0055029Y0262761D01*
X0055045Y0262702D01*
X0055065Y0262645D01*
X0055088Y0262590D01*
X0055115Y0262535D01*
X0055144Y0262483D01*
X0055177Y0262432D01*
X0055213Y0262383D01*
X0055251Y0262337D01*
X0055293Y0262293D01*
X0055337Y0262251D01*
X0055383Y0262213D01*
X0055432Y0262177D01*
X0055483Y0262144D01*
X0055535Y0262115D01*
X0055590Y0262088D01*
X0055645Y0262065D01*
X0055702Y0262045D01*
X0055761Y0262029D01*
X0055820Y0262016D01*
X0055879Y0262007D01*
X0055940Y0262002D01*
X0056000Y0262000D01*
X0083000Y0262000D01*
X0083060Y0262002D01*
X0083121Y0262007D01*
X0083180Y0262016D01*
X0083239Y0262029D01*
X0083298Y0262045D01*
X0083355Y0262065D01*
X0083410Y0262088D01*
X0083465Y0262115D01*
X0083517Y0262144D01*
X0083568Y0262177D01*
X0083617Y0262213D01*
X0083663Y0262251D01*
X0083707Y0262293D01*
X0083749Y0262337D01*
X0083787Y0262383D01*
X0083823Y0262432D01*
X0083856Y0262483D01*
X0083885Y0262535D01*
X0083912Y0262590D01*
X0083935Y0262645D01*
X0083955Y0262702D01*
X0083971Y0262761D01*
X0083984Y0262820D01*
X0083993Y0262879D01*
X0083998Y0262940D01*
X0084000Y0263000D01*
X0075500Y0268000D02*
X0070700Y0268000D01*
X0068200Y0268000D02*
X0063500Y0268000D01*
X0325500Y0075000D02*
X0325500Y0073500D01*
X0326000Y0073000D01*
X0326000Y0059000D01*
X0325500Y0058500D01*
X0325500Y0057000D01*
X0325502Y0056940D01*
X0325507Y0056879D01*
X0325516Y0056820D01*
X0325529Y0056761D01*
X0325545Y0056702D01*
X0325565Y0056645D01*
X0325588Y0056590D01*
X0325615Y0056535D01*
X0325644Y0056483D01*
X0325677Y0056432D01*
X0325713Y0056383D01*
X0325751Y0056337D01*
X0325793Y0056293D01*
X0325837Y0056251D01*
X0325883Y0056213D01*
X0325932Y0056177D01*
X0325983Y0056144D01*
X0326035Y0056115D01*
X0326090Y0056088D01*
X0326145Y0056065D01*
X0326202Y0056045D01*
X0326261Y0056029D01*
X0326320Y0056016D01*
X0326379Y0056007D01*
X0326440Y0056002D01*
X0326500Y0056000D01*
X0332500Y0056000D01*
X0332560Y0056002D01*
X0332621Y0056007D01*
X0332680Y0056016D01*
X0332739Y0056029D01*
X0332798Y0056045D01*
X0332855Y0056065D01*
X0332910Y0056088D01*
X0332965Y0056115D01*
X0333017Y0056144D01*
X0333068Y0056177D01*
X0333117Y0056213D01*
X0333163Y0056251D01*
X0333207Y0056293D01*
X0333249Y0056337D01*
X0333287Y0056383D01*
X0333323Y0056432D01*
X0333356Y0056483D01*
X0333385Y0056535D01*
X0333412Y0056590D01*
X0333435Y0056645D01*
X0333455Y0056702D01*
X0333471Y0056761D01*
X0333484Y0056820D01*
X0333493Y0056879D01*
X0333498Y0056940D01*
X0333500Y0057000D01*
X0333500Y0058500D01*
X0333000Y0059000D01*
X0333000Y0073000D01*
X0333500Y0073500D01*
X0333500Y0075000D01*
X0333498Y0075060D01*
X0333493Y0075121D01*
X0333484Y0075180D01*
X0333471Y0075239D01*
X0333455Y0075298D01*
X0333435Y0075355D01*
X0333412Y0075410D01*
X0333385Y0075465D01*
X0333356Y0075517D01*
X0333323Y0075568D01*
X0333287Y0075617D01*
X0333249Y0075663D01*
X0333207Y0075707D01*
X0333163Y0075749D01*
X0333117Y0075787D01*
X0333068Y0075823D01*
X0333017Y0075856D01*
X0332965Y0075885D01*
X0332910Y0075912D01*
X0332855Y0075935D01*
X0332798Y0075955D01*
X0332739Y0075971D01*
X0332680Y0075984D01*
X0332621Y0075993D01*
X0332560Y0075998D01*
X0332500Y0076000D01*
X0326500Y0076000D01*
X0326440Y0075998D01*
X0326379Y0075993D01*
X0326320Y0075984D01*
X0326261Y0075971D01*
X0326202Y0075955D01*
X0326145Y0075935D01*
X0326090Y0075912D01*
X0326035Y0075885D01*
X0325983Y0075856D01*
X0325932Y0075823D01*
X0325883Y0075787D01*
X0325837Y0075749D01*
X0325793Y0075707D01*
X0325751Y0075663D01*
X0325713Y0075617D01*
X0325677Y0075568D01*
X0325644Y0075517D01*
X0325615Y0075465D01*
X0325588Y0075410D01*
X0325565Y0075355D01*
X0325545Y0075298D01*
X0325529Y0075239D01*
X0325516Y0075180D01*
X0325507Y0075121D01*
X0325502Y0075060D01*
X0325500Y0075000D01*
X0336500Y0075000D02*
X0336500Y0073500D01*
X0337000Y0073000D01*
X0337000Y0059000D01*
X0336500Y0058500D01*
X0336500Y0057000D01*
X0336502Y0056940D01*
X0336507Y0056879D01*
X0336516Y0056820D01*
X0336529Y0056761D01*
X0336545Y0056702D01*
X0336565Y0056645D01*
X0336588Y0056590D01*
X0336615Y0056535D01*
X0336644Y0056483D01*
X0336677Y0056432D01*
X0336713Y0056383D01*
X0336751Y0056337D01*
X0336793Y0056293D01*
X0336837Y0056251D01*
X0336883Y0056213D01*
X0336932Y0056177D01*
X0336983Y0056144D01*
X0337035Y0056115D01*
X0337090Y0056088D01*
X0337145Y0056065D01*
X0337202Y0056045D01*
X0337261Y0056029D01*
X0337320Y0056016D01*
X0337379Y0056007D01*
X0337440Y0056002D01*
X0337500Y0056000D01*
X0343500Y0056000D01*
X0343560Y0056002D01*
X0343621Y0056007D01*
X0343680Y0056016D01*
X0343739Y0056029D01*
X0343798Y0056045D01*
X0343855Y0056065D01*
X0343910Y0056088D01*
X0343965Y0056115D01*
X0344017Y0056144D01*
X0344068Y0056177D01*
X0344117Y0056213D01*
X0344163Y0056251D01*
X0344207Y0056293D01*
X0344249Y0056337D01*
X0344287Y0056383D01*
X0344323Y0056432D01*
X0344356Y0056483D01*
X0344385Y0056535D01*
X0344412Y0056590D01*
X0344435Y0056645D01*
X0344455Y0056702D01*
X0344471Y0056761D01*
X0344484Y0056820D01*
X0344493Y0056879D01*
X0344498Y0056940D01*
X0344500Y0057000D01*
X0344500Y0058500D01*
X0344000Y0059000D01*
X0344000Y0073000D01*
X0344500Y0073500D01*
X0344500Y0075000D01*
X0344498Y0075060D01*
X0344493Y0075121D01*
X0344484Y0075180D01*
X0344471Y0075239D01*
X0344455Y0075298D01*
X0344435Y0075355D01*
X0344412Y0075410D01*
X0344385Y0075465D01*
X0344356Y0075517D01*
X0344323Y0075568D01*
X0344287Y0075617D01*
X0344249Y0075663D01*
X0344207Y0075707D01*
X0344163Y0075749D01*
X0344117Y0075787D01*
X0344068Y0075823D01*
X0344017Y0075856D01*
X0343965Y0075885D01*
X0343910Y0075912D01*
X0343855Y0075935D01*
X0343798Y0075955D01*
X0343739Y0075971D01*
X0343680Y0075984D01*
X0343621Y0075993D01*
X0343560Y0075998D01*
X0343500Y0076000D01*
X0337500Y0076000D01*
X0337440Y0075998D01*
X0337379Y0075993D01*
X0337320Y0075984D01*
X0337261Y0075971D01*
X0337202Y0075955D01*
X0337145Y0075935D01*
X0337090Y0075912D01*
X0337035Y0075885D01*
X0336983Y0075856D01*
X0336932Y0075823D01*
X0336883Y0075787D01*
X0336837Y0075749D01*
X0336793Y0075707D01*
X0336751Y0075663D01*
X0336713Y0075617D01*
X0336677Y0075568D01*
X0336644Y0075517D01*
X0336615Y0075465D01*
X0336588Y0075410D01*
X0336565Y0075355D01*
X0336545Y0075298D01*
X0336529Y0075239D01*
X0336516Y0075180D01*
X0336507Y0075121D01*
X0336502Y0075060D01*
X0336500Y0075000D01*
X0350000Y0076000D02*
X0350000Y0084000D01*
X0350002Y0084060D01*
X0350007Y0084121D01*
X0350016Y0084180D01*
X0350029Y0084239D01*
X0350045Y0084298D01*
X0350065Y0084355D01*
X0350088Y0084410D01*
X0350115Y0084465D01*
X0350144Y0084517D01*
X0350177Y0084568D01*
X0350213Y0084617D01*
X0350251Y0084663D01*
X0350293Y0084707D01*
X0350337Y0084749D01*
X0350383Y0084787D01*
X0350432Y0084823D01*
X0350483Y0084856D01*
X0350535Y0084885D01*
X0350590Y0084912D01*
X0350645Y0084935D01*
X0350702Y0084955D01*
X0350761Y0084971D01*
X0350820Y0084984D01*
X0350879Y0084993D01*
X0350940Y0084998D01*
X0351000Y0085000D01*
X0368000Y0085000D01*
X0368060Y0084998D01*
X0368121Y0084993D01*
X0368180Y0084984D01*
X0368239Y0084971D01*
X0368298Y0084955D01*
X0368355Y0084935D01*
X0368410Y0084912D01*
X0368465Y0084885D01*
X0368517Y0084856D01*
X0368568Y0084823D01*
X0368617Y0084787D01*
X0368663Y0084749D01*
X0368707Y0084707D01*
X0368749Y0084663D01*
X0368787Y0084617D01*
X0368823Y0084568D01*
X0368856Y0084517D01*
X0368885Y0084465D01*
X0368912Y0084410D01*
X0368935Y0084355D01*
X0368955Y0084298D01*
X0368971Y0084239D01*
X0368984Y0084180D01*
X0368993Y0084121D01*
X0368998Y0084060D01*
X0369000Y0084000D01*
X0369000Y0076000D01*
X0368998Y0075940D01*
X0368993Y0075879D01*
X0368984Y0075820D01*
X0368971Y0075761D01*
X0368955Y0075702D01*
X0368935Y0075645D01*
X0368912Y0075590D01*
X0368885Y0075535D01*
X0368856Y0075483D01*
X0368823Y0075432D01*
X0368787Y0075383D01*
X0368749Y0075337D01*
X0368707Y0075293D01*
X0368663Y0075251D01*
X0368617Y0075213D01*
X0368568Y0075177D01*
X0368517Y0075144D01*
X0368465Y0075115D01*
X0368410Y0075088D01*
X0368355Y0075065D01*
X0368298Y0075045D01*
X0368239Y0075029D01*
X0368180Y0075016D01*
X0368121Y0075007D01*
X0368060Y0075002D01*
X0368000Y0075000D01*
X0351000Y0075000D01*
X0350940Y0075002D01*
X0350879Y0075007D01*
X0350820Y0075016D01*
X0350761Y0075029D01*
X0350702Y0075045D01*
X0350645Y0075065D01*
X0350590Y0075088D01*
X0350535Y0075115D01*
X0350483Y0075144D01*
X0350432Y0075177D01*
X0350383Y0075213D01*
X0350337Y0075251D01*
X0350293Y0075293D01*
X0350251Y0075337D01*
X0350213Y0075383D01*
X0350177Y0075432D01*
X0350144Y0075483D01*
X0350115Y0075535D01*
X0350088Y0075590D01*
X0350065Y0075645D01*
X0350045Y0075702D01*
X0350029Y0075761D01*
X0350016Y0075820D01*
X0350007Y0075879D01*
X0350002Y0075940D01*
X0350000Y0076000D01*
X0358000Y0080000D02*
X0358500Y0080000D01*
X0360500Y0080000D02*
X0361000Y0080000D01*
X0374500Y0075000D02*
X0374500Y0073500D01*
X0375000Y0073000D01*
X0375000Y0059000D01*
X0374500Y0058500D01*
X0374500Y0057000D01*
X0374502Y0056940D01*
X0374507Y0056879D01*
X0374516Y0056820D01*
X0374529Y0056761D01*
X0374545Y0056702D01*
X0374565Y0056645D01*
X0374588Y0056590D01*
X0374615Y0056535D01*
X0374644Y0056483D01*
X0374677Y0056432D01*
X0374713Y0056383D01*
X0374751Y0056337D01*
X0374793Y0056293D01*
X0374837Y0056251D01*
X0374883Y0056213D01*
X0374932Y0056177D01*
X0374983Y0056144D01*
X0375035Y0056115D01*
X0375090Y0056088D01*
X0375145Y0056065D01*
X0375202Y0056045D01*
X0375261Y0056029D01*
X0375320Y0056016D01*
X0375379Y0056007D01*
X0375440Y0056002D01*
X0375500Y0056000D01*
X0381500Y0056000D01*
X0381560Y0056002D01*
X0381621Y0056007D01*
X0381680Y0056016D01*
X0381739Y0056029D01*
X0381798Y0056045D01*
X0381855Y0056065D01*
X0381910Y0056088D01*
X0381965Y0056115D01*
X0382017Y0056144D01*
X0382068Y0056177D01*
X0382117Y0056213D01*
X0382163Y0056251D01*
X0382207Y0056293D01*
X0382249Y0056337D01*
X0382287Y0056383D01*
X0382323Y0056432D01*
X0382356Y0056483D01*
X0382385Y0056535D01*
X0382412Y0056590D01*
X0382435Y0056645D01*
X0382455Y0056702D01*
X0382471Y0056761D01*
X0382484Y0056820D01*
X0382493Y0056879D01*
X0382498Y0056940D01*
X0382500Y0057000D01*
X0382500Y0058500D01*
X0382000Y0059000D01*
X0382000Y0073000D01*
X0382500Y0073500D01*
X0382500Y0075000D01*
X0382498Y0075060D01*
X0382493Y0075121D01*
X0382484Y0075180D01*
X0382471Y0075239D01*
X0382455Y0075298D01*
X0382435Y0075355D01*
X0382412Y0075410D01*
X0382385Y0075465D01*
X0382356Y0075517D01*
X0382323Y0075568D01*
X0382287Y0075617D01*
X0382249Y0075663D01*
X0382207Y0075707D01*
X0382163Y0075749D01*
X0382117Y0075787D01*
X0382068Y0075823D01*
X0382017Y0075856D01*
X0381965Y0075885D01*
X0381910Y0075912D01*
X0381855Y0075935D01*
X0381798Y0075955D01*
X0381739Y0075971D01*
X0381680Y0075984D01*
X0381621Y0075993D01*
X0381560Y0075998D01*
X0381500Y0076000D01*
X0375500Y0076000D01*
X0375440Y0075998D01*
X0375379Y0075993D01*
X0375320Y0075984D01*
X0375261Y0075971D01*
X0375202Y0075955D01*
X0375145Y0075935D01*
X0375090Y0075912D01*
X0375035Y0075885D01*
X0374983Y0075856D01*
X0374932Y0075823D01*
X0374883Y0075787D01*
X0374837Y0075749D01*
X0374793Y0075707D01*
X0374751Y0075663D01*
X0374713Y0075617D01*
X0374677Y0075568D01*
X0374644Y0075517D01*
X0374615Y0075465D01*
X0374588Y0075410D01*
X0374565Y0075355D01*
X0374545Y0075298D01*
X0374529Y0075239D01*
X0374516Y0075180D01*
X0374507Y0075121D01*
X0374502Y0075060D01*
X0374500Y0075000D01*
X0384500Y0075000D02*
X0384500Y0073500D01*
X0385000Y0073000D01*
X0385000Y0059000D01*
X0384500Y0058500D01*
X0384500Y0057000D01*
X0384502Y0056940D01*
X0384507Y0056879D01*
X0384516Y0056820D01*
X0384529Y0056761D01*
X0384545Y0056702D01*
X0384565Y0056645D01*
X0384588Y0056590D01*
X0384615Y0056535D01*
X0384644Y0056483D01*
X0384677Y0056432D01*
X0384713Y0056383D01*
X0384751Y0056337D01*
X0384793Y0056293D01*
X0384837Y0056251D01*
X0384883Y0056213D01*
X0384932Y0056177D01*
X0384983Y0056144D01*
X0385035Y0056115D01*
X0385090Y0056088D01*
X0385145Y0056065D01*
X0385202Y0056045D01*
X0385261Y0056029D01*
X0385320Y0056016D01*
X0385379Y0056007D01*
X0385440Y0056002D01*
X0385500Y0056000D01*
X0391500Y0056000D01*
X0391560Y0056002D01*
X0391621Y0056007D01*
X0391680Y0056016D01*
X0391739Y0056029D01*
X0391798Y0056045D01*
X0391855Y0056065D01*
X0391910Y0056088D01*
X0391965Y0056115D01*
X0392017Y0056144D01*
X0392068Y0056177D01*
X0392117Y0056213D01*
X0392163Y0056251D01*
X0392207Y0056293D01*
X0392249Y0056337D01*
X0392287Y0056383D01*
X0392323Y0056432D01*
X0392356Y0056483D01*
X0392385Y0056535D01*
X0392412Y0056590D01*
X0392435Y0056645D01*
X0392455Y0056702D01*
X0392471Y0056761D01*
X0392484Y0056820D01*
X0392493Y0056879D01*
X0392498Y0056940D01*
X0392500Y0057000D01*
X0392500Y0058500D01*
X0392000Y0059000D01*
X0392000Y0073000D01*
X0392500Y0073500D01*
X0392500Y0075000D01*
X0392498Y0075060D01*
X0392493Y0075121D01*
X0392484Y0075180D01*
X0392471Y0075239D01*
X0392455Y0075298D01*
X0392435Y0075355D01*
X0392412Y0075410D01*
X0392385Y0075465D01*
X0392356Y0075517D01*
X0392323Y0075568D01*
X0392287Y0075617D01*
X0392249Y0075663D01*
X0392207Y0075707D01*
X0392163Y0075749D01*
X0392117Y0075787D01*
X0392068Y0075823D01*
X0392017Y0075856D01*
X0391965Y0075885D01*
X0391910Y0075912D01*
X0391855Y0075935D01*
X0391798Y0075955D01*
X0391739Y0075971D01*
X0391680Y0075984D01*
X0391621Y0075993D01*
X0391560Y0075998D01*
X0391500Y0076000D01*
X0385500Y0076000D01*
X0385440Y0075998D01*
X0385379Y0075993D01*
X0385320Y0075984D01*
X0385261Y0075971D01*
X0385202Y0075955D01*
X0385145Y0075935D01*
X0385090Y0075912D01*
X0385035Y0075885D01*
X0384983Y0075856D01*
X0384932Y0075823D01*
X0384883Y0075787D01*
X0384837Y0075749D01*
X0384793Y0075707D01*
X0384751Y0075663D01*
X0384713Y0075617D01*
X0384677Y0075568D01*
X0384644Y0075517D01*
X0384615Y0075465D01*
X0384588Y0075410D01*
X0384565Y0075355D01*
X0384545Y0075298D01*
X0384529Y0075239D01*
X0384516Y0075180D01*
X0384507Y0075121D01*
X0384502Y0075060D01*
X0384500Y0075000D01*
X0378881Y0045205D02*
X0378881Y0038800D01*
X0381016Y0038800D02*
X0376745Y0038800D01*
X0374570Y0038800D02*
X0374570Y0043070D01*
X0372435Y0045205D01*
X0370300Y0043070D01*
X0370300Y0038800D01*
X0370300Y0042003D02*
X0374570Y0042003D01*
X0376745Y0043070D02*
X0378881Y0045205D01*
X0354516Y0044138D02*
X0354516Y0039868D01*
X0353448Y0038800D01*
X0351313Y0038800D01*
X0350245Y0039868D01*
X0354516Y0044138D01*
X0353448Y0045205D01*
X0351313Y0045205D01*
X0350245Y0044138D01*
X0350245Y0039868D01*
X0348070Y0038800D02*
X0348070Y0043070D01*
X0345935Y0045205D01*
X0343800Y0043070D01*
X0343800Y0038800D01*
X0343800Y0042003D02*
X0348070Y0042003D01*
D13*
X0054102Y0080941D02*
X0004496Y0080941D01*
X0004496Y0103059D01*
X0054889Y0103059D01*
X0054889Y0098728D01*
X0054102Y0085272D02*
X0054102Y0080941D01*
X0053102Y0117943D02*
X0053102Y0122274D01*
X0053102Y0117943D02*
X0003496Y0117943D01*
X0003496Y0173061D01*
X0053889Y0173061D01*
X0053889Y0168730D01*
X0289057Y0112958D02*
X0289057Y0096042D01*
X0307943Y0096042D01*
X0307943Y0112958D01*
X0289057Y0112958D01*
X0351898Y0114228D02*
X0351898Y0118559D01*
X0401504Y0118559D01*
X0401504Y0096441D01*
X0351111Y0096441D01*
X0351111Y0100772D01*
X0351111Y0128941D02*
X0401504Y0128941D01*
X0401504Y0151059D01*
X0351898Y0151059D01*
X0351898Y0146728D01*
X0351111Y0161941D02*
X0401504Y0161941D01*
X0401504Y0184059D01*
X0351898Y0184059D01*
X0351898Y0179728D01*
X0351111Y0166272D02*
X0351111Y0161941D01*
X0351111Y0133272D02*
X0351111Y0128941D01*
D14*
X0398158Y0140000D03*
X0398158Y0107500D03*
X0398158Y0173000D03*
X0006842Y0145502D03*
X0007842Y0092000D03*
D15*
X0255750Y0139500D03*
X0255750Y0149500D03*
X0277250Y0149500D03*
X0277250Y0139500D03*
X0226750Y0372000D03*
X0205250Y0372000D03*
X0320250Y0374000D03*
X0341750Y0374000D03*
X0056750Y0373000D03*
X0035250Y0373000D03*
D16*
X0257516Y0124996D02*
X0257516Y0089996D01*
X0269484Y0089996D01*
X0269484Y0124996D01*
X0257516Y0124996D01*
D17*
X0290921Y0098299D03*
D18*
X0329500Y0076750D03*
X0340500Y0076750D03*
X0340500Y0055250D03*
X0329500Y0055250D03*
X0378500Y0055250D03*
X0388500Y0055250D03*
X0388500Y0076750D03*
X0378500Y0076750D03*
X0304500Y0171250D03*
X0292000Y0171250D03*
X0292000Y0192750D03*
X0304500Y0192750D03*
D19*
X0353105Y0157704D02*
X0353105Y0153100D01*
X0353105Y0154635D02*
X0355407Y0154635D01*
X0356174Y0155402D01*
X0356174Y0156937D01*
X0355407Y0157704D01*
X0353105Y0157704D01*
X0358261Y0157704D02*
X0358261Y0153100D01*
X0361330Y0153100D02*
X0358261Y0157704D01*
X0361330Y0157704D02*
X0361330Y0153100D01*
X0363418Y0153867D02*
X0364185Y0153100D01*
X0365719Y0153100D01*
X0366487Y0153867D01*
X0366487Y0157704D01*
X0368574Y0157704D02*
X0368574Y0153100D01*
X0371643Y0153100D01*
X0373730Y0153100D02*
X0373730Y0157704D01*
X0375265Y0156169D01*
X0376800Y0157704D01*
X0376800Y0153100D01*
X0378887Y0153100D02*
X0378887Y0156169D01*
X0380421Y0157704D01*
X0381956Y0156169D01*
X0381956Y0153100D01*
X0381956Y0155402D02*
X0378887Y0155402D01*
X0384043Y0157704D02*
X0387112Y0157704D01*
X0385578Y0157704D02*
X0385578Y0153100D01*
X0389200Y0153100D02*
X0390734Y0153100D01*
X0389967Y0153100D02*
X0389967Y0157704D01*
X0389200Y0157704D02*
X0390734Y0157704D01*
X0392637Y0156937D02*
X0392637Y0153867D01*
X0393404Y0153100D01*
X0394939Y0153100D01*
X0395706Y0153867D01*
X0397794Y0153867D02*
X0398561Y0153100D01*
X0400095Y0153100D01*
X0400863Y0153867D01*
X0400863Y0154635D01*
X0400095Y0155402D01*
X0398561Y0155402D01*
X0397794Y0156169D01*
X0397794Y0156937D01*
X0398561Y0157704D01*
X0400095Y0157704D01*
X0400863Y0156937D01*
X0395706Y0156937D02*
X0394939Y0157704D01*
X0393404Y0157704D01*
X0392637Y0156937D01*
X0371643Y0157704D02*
X0368574Y0157704D01*
X0368574Y0155402D02*
X0370109Y0155402D01*
X0363418Y0153867D02*
X0363418Y0157704D01*
X0385181Y0185400D02*
X0388250Y0185400D01*
X0386715Y0185400D02*
X0386715Y0190004D01*
X0385181Y0188469D01*
X0390337Y0189237D02*
X0391104Y0190004D01*
X0392639Y0190004D01*
X0393406Y0189237D01*
X0393406Y0188469D01*
X0390337Y0185400D01*
X0393406Y0185400D01*
X0395494Y0186935D02*
X0397028Y0185400D01*
X0398563Y0186935D01*
X0398563Y0190004D01*
X0395494Y0190004D02*
X0395494Y0186935D01*
X0400976Y0197898D02*
X0400976Y0260102D01*
X0358063Y0260102D01*
X0358063Y0252228D01*
X0363114Y0261765D02*
X0365416Y0261765D01*
X0366183Y0262532D01*
X0366183Y0265601D01*
X0365416Y0266368D01*
X0363114Y0266368D01*
X0363114Y0261765D01*
X0368271Y0261765D02*
X0369805Y0261765D01*
X0369038Y0261765D02*
X0369038Y0266368D01*
X0368271Y0266368D02*
X0369805Y0266368D01*
X0371708Y0264834D02*
X0373243Y0266368D01*
X0374777Y0264834D01*
X0374777Y0261765D01*
X0376865Y0261765D02*
X0376865Y0266368D01*
X0378399Y0264834D01*
X0379934Y0266368D01*
X0379934Y0261765D01*
X0382021Y0262532D02*
X0382021Y0265601D01*
X0382788Y0266368D01*
X0384323Y0266368D01*
X0385090Y0265601D01*
X0385090Y0262532D01*
X0384323Y0261765D01*
X0382788Y0261765D01*
X0382021Y0262532D01*
X0387177Y0261765D02*
X0387177Y0266368D01*
X0390247Y0261765D01*
X0390247Y0266368D01*
X0392334Y0266368D02*
X0394636Y0266368D01*
X0395403Y0265601D01*
X0395403Y0262532D01*
X0394636Y0261765D01*
X0392334Y0261765D01*
X0392334Y0266368D01*
X0374777Y0264067D02*
X0371708Y0264067D01*
X0371708Y0264834D02*
X0371708Y0261765D01*
X0358063Y0205772D02*
X0358063Y0197898D01*
X0400976Y0197898D01*
X0400663Y0125204D02*
X0400663Y0120600D01*
X0397594Y0125204D01*
X0397594Y0120600D01*
X0395506Y0121367D02*
X0395506Y0124437D01*
X0394739Y0125204D01*
X0393204Y0125204D01*
X0392437Y0124437D01*
X0392437Y0121367D01*
X0393204Y0120600D01*
X0394739Y0120600D01*
X0395506Y0121367D01*
X0390350Y0121367D02*
X0390350Y0122135D01*
X0389583Y0122902D01*
X0388048Y0122902D01*
X0387281Y0123669D01*
X0387281Y0124437D01*
X0388048Y0125204D01*
X0389583Y0125204D01*
X0390350Y0124437D01*
X0390350Y0121367D02*
X0389583Y0120600D01*
X0388048Y0120600D01*
X0387281Y0121367D01*
X0383659Y0120600D02*
X0383659Y0125204D01*
X0382124Y0125204D02*
X0385194Y0125204D01*
X0380037Y0125204D02*
X0376968Y0125204D01*
X0376968Y0120600D01*
X0380037Y0120600D01*
X0378503Y0122902D02*
X0376968Y0122902D01*
X0374881Y0125204D02*
X0373346Y0125204D01*
X0374114Y0125204D02*
X0374114Y0121367D01*
X0373346Y0120600D01*
X0372579Y0120600D01*
X0371812Y0121367D01*
X0360500Y0083000D02*
X0360500Y0080000D01*
X0360500Y0077000D01*
X0358500Y0077000D02*
X0358500Y0080000D01*
X0358500Y0083000D01*
D20*
X0180800Y0185000D02*
X0180800Y0187500D01*
X0180800Y0190000D01*
X0178300Y0190000D02*
X0178300Y0187500D01*
X0178300Y0185000D01*
X0103500Y0140300D02*
X0101000Y0140300D01*
X0098500Y0140300D01*
X0098500Y0137800D02*
X0101000Y0137800D01*
X0103500Y0137800D01*
X0150800Y0090000D02*
X0150800Y0087500D01*
X0150800Y0085000D01*
X0153300Y0085000D02*
X0153300Y0087500D01*
X0153300Y0090000D01*
X0070700Y0265500D02*
X0070700Y0268000D01*
X0070700Y0270500D01*
X0068200Y0270500D02*
X0068200Y0268000D01*
X0068200Y0265500D01*
X0335800Y0273000D02*
X0335800Y0275500D01*
X0335800Y0278000D01*
X0338300Y0278000D02*
X0338300Y0275500D01*
X0338300Y0273000D01*
X0338300Y0287000D02*
X0338300Y0289500D01*
X0338300Y0292000D01*
X0335800Y0292000D02*
X0335800Y0289500D01*
X0335800Y0287000D01*
D21*
X0016610Y0109153D02*
X0016610Y0106951D01*
X0015509Y0105850D01*
X0014408Y0106951D01*
X0014408Y0109153D01*
X0012927Y0108602D02*
X0012927Y0108052D01*
X0012376Y0107501D01*
X0012927Y0106951D01*
X0012927Y0106400D01*
X0012376Y0105850D01*
X0011275Y0105850D01*
X0010725Y0106400D01*
X0009434Y0106400D02*
X0009434Y0105850D01*
X0008883Y0105850D01*
X0008883Y0106400D01*
X0009434Y0106400D01*
X0007402Y0106400D02*
X0006851Y0105850D01*
X0005750Y0105850D01*
X0005200Y0106400D01*
X0006301Y0107501D02*
X0006851Y0107501D01*
X0007402Y0106951D01*
X0007402Y0106400D01*
X0006851Y0107501D02*
X0007402Y0108052D01*
X0007402Y0108602D01*
X0006851Y0109153D01*
X0005750Y0109153D01*
X0005200Y0108602D01*
X0010725Y0108602D02*
X0011275Y0109153D01*
X0012376Y0109153D01*
X0012927Y0108602D01*
X0012376Y0107501D02*
X0011826Y0107501D01*
M02*
