%
M48
M72
T01C0.01378
T02C0.02953
T03C0.03000
T04C0.03200
T05C0.04000
T06C0.05600
T07C0.06000
T08C0.07874
T09C0.07900
T10C0.08000
T11C0.11811
T12C0.12850
%
T01
X212000Y87500
X224500Y100000
X249500Y100000
X277000Y130000
X299500Y82500
X257000Y205000
X364000Y302000
X364000Y325000
X374500Y342500
X339000Y339000
X339000Y329000
X322000Y392500
X209500Y392500
X109500Y392500
X34500Y392500
T02
X78000Y37000
X108000Y37000
T03
X121500Y110000
X131500Y110000
X141500Y110000
X141500Y170000
X131500Y170000
X201500Y170000
X221500Y170000
X221500Y110000
X201500Y110000
T04
X162000Y87500
X142000Y87500
X101000Y129000
X101000Y149000
X169500Y187500
X189500Y187500
X252200Y180600
X252200Y170600
X252200Y160600
X251500Y149500
X251500Y139500
X281500Y139500
X281500Y149500
X292000Y167000
X304500Y167000
X304500Y197000
X292000Y197000
X327000Y275500
X327000Y289500
X347000Y289500
X347000Y275500
X274500Y350000
X264500Y350000
X254500Y350000
X231000Y372000
X201000Y372000
X316000Y374000
X346000Y374000
X79500Y268000
X59500Y268000
X61000Y373000
X31000Y373000
X329500Y81000
X340500Y81000
X354500Y80000
X364500Y80000
X378500Y81000
X388500Y81000
X388500Y51000
X378500Y51000
X340500Y51000
X329500Y51000
T05
X350189Y211283
X362000Y211283
X362000Y223094
X350189Y223094
X350189Y234906
X350189Y246717
X362000Y246717
X362000Y234906
T06
X347000Y173000
X325300Y173000
X325300Y140000
X347000Y140000
X347000Y107500
X325300Y107500
X80700Y92000
X59000Y92000
T07
X104000Y238000
X104000Y268000
X104000Y298000
X304000Y283000
X304000Y268000
X304000Y253000
T08
X79700Y162002
X79700Y145502
X79700Y129002
X58000Y129002
X58000Y145502
X58000Y162002
T09
X279500Y50000
X312000Y50000
T10
X304000Y238000
X304000Y298000
T11
X379008Y238252
X379008Y219748
X375740Y173000
X375740Y140000
X375740Y107500
X30260Y92000
X29260Y129002
X29260Y162002
T12
X14500Y392500
X389500Y392500
M30
