  0
SECTION
  2
HEADER
  9
$ACADVER
  1
AC1009
  9
$FILLMODE
 70
1
  9
$EXTMIN
 10
24.3116
 20
-2.6124
 30
0.0000
  9
$EXTMAX
 10
102.2544
 20
101.7270
 30
0.0000
  0
ENDSEC
  0
SECTION
  2
TABLES
  0
TABLE
  2
LTYPE
 70
1
  0
LTYPE
  2
CONTINUOUS
 70
64
  3
Solid line
 72
65
 73
0
 40
0
  0
ENDTAB
  0
TABLE
  2
LAYER
 70
255
  0
LAYER
  2
31
 70
64
 62
253
  6
CONTINUOUS
  0
ENDTAB
  0
ENDSEC
  0
SECTION
  2
BLOCKS
  0
BLOCK
  8
0
  2
RECT
 70
64
 10
0.0000
 20
0.0000
 30
0.0000
  3
RECT
  0
SOLID
  8
0
 10
-0.5000
 20
-0.5000
 30
0.0000
 11
0.5000
 21
-0.5000
 31
0.0000
 12
-0.5000
 22
0.5000
 32
0.0000
 13
0.5000
 23
0.5000
 33
0.0000
  0
ENDBLK
  8
0
  0
BLOCK
  8
0
  2
PIE
 70
64
 10
0.0000
 20
0.0000
 30
0.0000
  3
PIE
  0
POLYLINE
  8
0
 66
1
 10
0.0000
 20
0.0000
 30
0.0000
 40
0.5000
 41
0.5000
 70
0
  0
VERTEX
  8
0
 10
0.0000
 20
-0.2500
 30
0.0000
 42
1.0000
  0
VERTEX
  8
0
 10
0.0000
 20
0.2500
 30
0.0000
 42
1.0000
  0
VERTEX
  8
0
 10
0.0000
 20
-0.2500
 30
0.0000
  0
SEQEND
  8
0
  0
ENDBLK
  8
0
  0
BLOCK
  8
0
  2
OCTAGONP
 70
64
 10
0.0000
 20
0.0000
 30
0.0000
  3
OCTAGONP
  0
POLYLINE
  8
0
 66
1
 10
0.0000
 20
0.0000
 30
0.0000
 40
0.5000
 41
0.5000
 70
0
  0
VERTEX
  8
0
 10
-0.2500
 20
-0.1036
 30
0.0000
  0
VERTEX
  8
0
 10
-0.2500
 20
0.1036
 30
0.0000
  0
VERTEX
  8
0
 10
-0.1036
 20
0.2500
 30
0.0000
  0
VERTEX
  8
0
 10
0.1036
 20
0.2500
 30
0.0000
  0
VERTEX
  8
0
 10
0.2500
 20
0.1036
 30
0.0000
  0
VERTEX
  8
0
 10
0.2500
 20
-0.1036
 30
0.0000
  0
VERTEX
  8
0
 10
0.1036
 20
-0.2500
 30
0.0000
  0
VERTEX
  8
0
 10
-0.1036
 20
-0.2500
 30
0.0000
  0
VERTEX
  8
0
 10
-0.2500
 20
-0.1036
 30
0.0000
  0
VERTEX
  8
0
 10
-0.2500
 20
0.1036
 30
0.0000
  0
SEQEND
  8
0
  0
ENDBLK
  8
0
  0
BLOCK
  8
0
  2
SQUAREP
 70
64
 10
0.0000
 20
0.0000
 30
0.0000
  3
SQUAREP
  0
SOLID
  8
0
 10
-0.5000
 20
-0.5000
 30
0.0000
 11
0.5000
 21
-0.5000
 31
0.0000
 12
-0.5000
 22
0.5000
 32
0.0000
 13
0.5000
 23
0.5000
 33
0.0000
  0
ENDBLK
  8
0
  0
BLOCK
  8
0
  2
ROUNDP
 70
64
 10
0.0000
 20
0.0000
 30
0.0000
  3
ROUNDP
  0
POLYLINE
  8
0
 66
1
 10
0.0000
 20
0.0000
 30
0.0000
 40
0.5000
 41
0.5000
 70
0
  0
VERTEX
  8
0
 10
0.0000
 20
-0.2500
 30
0.0000
 42
1.0000
  0
VERTEX
  8
0
 10
0.0000
 20
0.2500
 30
0.0000
 42
1.0000
  0
VERTEX
  8
0
 10
0.0000
 20
-0.2500
 30
0.0000
  0
SEQEND
  8
0
  0
ENDBLK
  8
0
  0
BLOCK
  8
0
  2
ANNULUSP
 70
64
 10
0.0000
 20
0.0000
 30
0.0000
  3
ANNULUSP
  0
POLYLINE
  8
0
 66
1
 10
0.0000
 20
0.0000
 30
0.0000
 40
0.5000
 41
0.5000
 70
0
  0
VERTEX
  8
0
 10
0.0000
 20
-0.2500
 30
0.0000
 42
1.0000
  0
VERTEX
  8
0
 10
0.0000
 20
0.2500
 30
0.0000
 42
1.0000
  0
VERTEX
  8
0
 10
0.0000
 20
-0.2500
 30
0.0000
  0
SEQEND
  8
0
  0
ENDBLK
  8
0
  0
BLOCK
  8
0
  2
THERMALP
 70
64
 10
0.0000
 20
0.0000
 30
0.0000
  3
THERMALP
  0
POLYLINE
  8
0
 66
1
 10
0.0000
 20
0.0000
 30
0.0000
 40
0.1000
 41
0.1000
 70
0
  0
VERTEX
  8
0
 10
-0.2379
 20
0.4500
 30
0.0000
  0
VERTEX
  8
0
 10
0.2379
 20
0.4500
 30
0.0000
  0
SEQEND
  8
0
  0
POLYLINE
  8
0
 66
1
 10
0.0000
 20
0.0000
 30
0.0000
 40
0.0500
 41
0.0500
 70
0
  0
VERTEX
  8
0
 10
0.2379
 20
0.4250
 30
0.0000
 42
1.0000
  0
VERTEX
  8
0
 10
0.2379
 20
0.4750
 30
0.0000
  0
SEQEND
  8
0
  0
POLYLINE
  8
0
 66
1
 10
0.0000
 20
0.0000
 30
0.0000
 40
0.0500
 41
0.0500
 70
0
  0
VERTEX
  8
0
 10
-0.2379
 20
0.4750
 30
0.0000
 42
1.0000
  0
VERTEX
  8
0
 10
-0.2379
 20
0.4250
 30
0.0000
  0
SEQEND
  8
0
  0
POLYLINE
  8
0
 66
1
 10
0.0000
 20
0.0000
 30
0.0000
 40
0.1000
 41
0.1000
 70
0
  0
VERTEX
  8
0
 10
0.4500
 20
0.2379
 30
0.0000
  0
VERTEX
  8
0
 10
0.4500
 20
-0.2379
 30
0.0000
  0
SEQEND
  8
0
  0
POLYLINE
  8
0
 66
1
 10
0.0000
 20
0.0000
 30
0.0000
 40
0.0500
 41
0.0500
 70
0
  0
VERTEX
  8
0
 10
0.4250
 20
-0.2379
 30
0.0000
 42
1.0000
  0
VERTEX
  8
0
 10
0.4750
 20
-0.2379
 30
0.0000
  0
SEQEND
  8
0
  0
POLYLINE
  8
0
 66
1
 10
0.0000
 20
0.0000
 30
0.0000
 40
0.0500
 41
0.0500
 70
0
  0
VERTEX
  8
0
 10
0.4750
 20
0.2379
 30
0.0000
 42
1.0000
  0
VERTEX
  8
0
 10
0.4250
 20
0.2379
 30
0.0000
  0
SEQEND
  8
0
  0
POLYLINE
  8
0
 66
1
 10
0.0000
 20
0.0000
 30
0.0000
 40
0.1000
 41
0.1000
 70
0
  0
VERTEX
  8
0
 10
0.2379
 20
-0.4500
 30
0.0000
  0
VERTEX
  8
0
 10
-0.2379
 20
-0.4500
 30
0.0000
  0
SEQEND
  8
0
  0
POLYLINE
  8
0
 66
1
 10
0.0000
 20
0.0000
 30
0.0000
 40
0.0500
 41
0.0500
 70
0
  0
VERTEX
  8
0
 10
-0.2379
 20
-0.4250
 30
0.0000
 42
1.0000
  0
VERTEX
  8
0
 10
-0.2379
 20
-0.4750
 30
0.0000
  0
SEQEND
  8
0
  0
POLYLINE
  8
0
 66
1
 10
0.0000
 20
0.0000
 30
0.0000
 40
0.0500
 41
0.0500
 70
0
  0
VERTEX
  8
0
 10
0.2379
 20
-0.4750
 30
0.0000
 42
1.0000
  0
VERTEX
  8
0
 10
0.2379
 20
-0.4250
 30
0.0000
  0
SEQEND
  8
0
  0
POLYLINE
  8
0
 66
1
 10
0.0000
 20
0.0000
 30
0.0000
 40
0.1000
 41
0.1000
 70
0
  0
VERTEX
  8
0
 10
-0.4500
 20
-0.2379
 30
0.0000
  0
VERTEX
  8
0
 10
-0.4500
 20
0.2379
 30
0.0000
  0
SEQEND
  8
0
  0
POLYLINE
  8
0
 66
1
 10
0.0000
 20
0.0000
 30
0.0000
 40
0.0500
 41
0.0500
 70
0
  0
VERTEX
  8
0
 10
-0.4250
 20
0.2379
 30
0.0000
 42
1.0000
  0
VERTEX
  8
0
 10
-0.4750
 20
0.2379
 30
0.0000
  0
SEQEND
  8
0
  0
POLYLINE
  8
0
 66
1
 10
0.0000
 20
0.0000
 30
0.0000
 40
0.0500
 41
0.0500
 70
0
  0
VERTEX
  8
0
 10
-0.4750
 20
-0.2379
 30
0.0000
 42
1.0000
  0
VERTEX
  8
0
 10
-0.4250
 20
-0.2379
 30
0.0000
  0
SEQEND
  8
0
  0
ENDBLK
  8
0
  0
BLOCK
  8
0
  2
OCTAGONV
 70
64
 10
0.0000
 20
0.0000
 30
0.0000
  3
OCTAGONV
  0
POLYLINE
  8
0
 66
1
 10
0.0000
 20
0.0000
 30
0.0000
 40
0.5000
 41
0.5000
 70
0
  0
VERTEX
  8
0
 10
-0.2500
 20
-0.1036
 30
0.0000
  0
VERTEX
  8
0
 10
-0.2500
 20
0.1036
 30
0.0000
  0
VERTEX
  8
0
 10
-0.1036
 20
0.2500
 30
0.0000
  0
VERTEX
  8
0
 10
0.1036
 20
0.2500
 30
0.0000
  0
VERTEX
  8
0
 10
0.2500
 20
0.1036
 30
0.0000
  0
VERTEX
  8
0
 10
0.2500
 20
-0.1036
 30
0.0000
  0
VERTEX
  8
0
 10
0.1036
 20
-0.2500
 30
0.0000
  0
VERTEX
  8
0
 10
-0.1036
 20
-0.2500
 30
0.0000
  0
VERTEX
  8
0
 10
-0.2500
 20
-0.1036
 30
0.0000
  0
VERTEX
  8
0
 10
-0.2500
 20
0.1036
 30
0.0000
  0
SEQEND
  8
0
  0
ENDBLK
  8
0
  0
BLOCK
  8
0
  2
SQUAREV
 70
64
 10
0.0000
 20
0.0000
 30
0.0000
  3
SQUAREV
  0
SOLID
  8
0
 10
-0.5000
 20
-0.5000
 30
0.0000
 11
0.5000
 21
-0.5000
 31
0.0000
 12
-0.5000
 22
0.5000
 32
0.0000
 13
0.5000
 23
0.5000
 33
0.0000
  0
ENDBLK
  8
0
  0
BLOCK
  8
0
  2
ROUNDV
 70
64
 10
0.0000
 20
0.0000
 30
0.0000
  3
ROUNDV
  0
POLYLINE
  8
0
 66
1
 10
0.0000
 20
0.0000
 30
0.0000
 40
0.5000
 41
0.5000
 70
0
  0
VERTEX
  8
0
 10
0.0000
 20
-0.2500
 30
0.0000
 42
1.0000
  0
VERTEX
  8
0
 10
0.0000
 20
0.2500
 30
0.0000
 42
1.0000
  0
VERTEX
  8
0
 10
0.0000
 20
-0.2500
 30
0.0000
  0
SEQEND
  8
0
  0
ENDBLK
  8
0
  0
BLOCK
  8
0
  2
ANNULUSV
 70
64
 10
0.0000
 20
0.0000
 30
0.0000
  3
ANNULUSV
  0
POLYLINE
  8
0
 66
1
 10
0.0000
 20
0.0000
 30
0.0000
 40
0.5000
 41
0.5000
 70
0
  0
VERTEX
  8
0
 10
0.0000
 20
-0.2500
 30
0.0000
 42
1.0000
  0
VERTEX
  8
0
 10
0.0000
 20
0.2500
 30
0.0000
 42
1.0000
  0
VERTEX
  8
0
 10
0.0000
 20
-0.2500
 30
0.0000
  0
SEQEND
  8
0
  0
ENDBLK
  8
0
  0
BLOCK
  8
0
  2
THERMALV
 70
64
 10
0.0000
 20
0.0000
 30
0.0000
  3
THERMALV
  0
POLYLINE
  8
0
 66
1
 10
0.0000
 20
0.0000
 30
0.0000
 40
0.1000
 41
0.1000
 70
0
  0
VERTEX
  8
0
 10
-0.2379
 20
0.4500
 30
0.0000
  0
VERTEX
  8
0
 10
0.2379
 20
0.4500
 30
0.0000
  0
SEQEND
  8
0
  0
POLYLINE
  8
0
 66
1
 10
0.0000
 20
0.0000
 30
0.0000
 40
0.0500
 41
0.0500
 70
0
  0
VERTEX
  8
0
 10
0.2379
 20
0.4250
 30
0.0000
 42
1.0000
  0
VERTEX
  8
0
 10
0.2379
 20
0.4750
 30
0.0000
  0
SEQEND
  8
0
  0
POLYLINE
  8
0
 66
1
 10
0.0000
 20
0.0000
 30
0.0000
 40
0.0500
 41
0.0500
 70
0
  0
VERTEX
  8
0
 10
-0.2379
 20
0.4750
 30
0.0000
 42
1.0000
  0
VERTEX
  8
0
 10
-0.2379
 20
0.4250
 30
0.0000
  0
SEQEND
  8
0
  0
POLYLINE
  8
0
 66
1
 10
0.0000
 20
0.0000
 30
0.0000
 40
0.1000
 41
0.1000
 70
0
  0
VERTEX
  8
0
 10
0.4500
 20
0.2379
 30
0.0000
  0
VERTEX
  8
0
 10
0.4500
 20
-0.2379
 30
0.0000
  0
SEQEND
  8
0
  0
POLYLINE
  8
0
 66
1
 10
0.0000
 20
0.0000
 30
0.0000
 40
0.0500
 41
0.0500
 70
0
  0
VERTEX
  8
0
 10
0.4250
 20
-0.2379
 30
0.0000
 42
1.0000
  0
VERTEX
  8
0
 10
0.4750
 20
-0.2379
 30
0.0000
  0
SEQEND
  8
0
  0
POLYLINE
  8
0
 66
1
 10
0.0000
 20
0.0000
 30
0.0000
 40
0.0500
 41
0.0500
 70
0
  0
VERTEX
  8
0
 10
0.4750
 20
0.2379
 30
0.0000
 42
1.0000
  0
VERTEX
  8
0
 10
0.4250
 20
0.2379
 30
0.0000
  0
SEQEND
  8
0
  0
POLYLINE
  8
0
 66
1
 10
0.0000
 20
0.0000
 30
0.0000
 40
0.1000
 41
0.1000
 70
0
  0
VERTEX
  8
0
 10
0.2379
 20
-0.4500
 30
0.0000
  0
VERTEX
  8
0
 10
-0.2379
 20
-0.4500
 30
0.0000
  0
SEQEND
  8
0
  0
POLYLINE
  8
0
 66
1
 10
0.0000
 20
0.0000
 30
0.0000
 40
0.0500
 41
0.0500
 70
0
  0
VERTEX
  8
0
 10
-0.2379
 20
-0.4250
 30
0.0000
 42
1.0000
  0
VERTEX
  8
0
 10
-0.2379
 20
-0.4750
 30
0.0000
  0
SEQEND
  8
0
  0
POLYLINE
  8
0
 66
1
 10
0.0000
 20
0.0000
 30
0.0000
 40
0.0500
 41
0.0500
 70
0
  0
VERTEX
  8
0
 10
0.2379
 20
-0.4750
 30
0.0000
 42
1.0000
  0
VERTEX
  8
0
 10
0.2379
 20
-0.4250
 30
0.0000
  0
SEQEND
  8
0
  0
POLYLINE
  8
0
 66
1
 10
0.0000
 20
0.0000
 30
0.0000
 40
0.1000
 41
0.1000
 70
0
  0
VERTEX
  8
0
 10
-0.4500
 20
-0.2379
 30
0.0000
  0
VERTEX
  8
0
 10
-0.4500
 20
0.2379
 30
0.0000
  0
SEQEND
  8
0
  0
POLYLINE
  8
0
 66
1
 10
0.0000
 20
0.0000
 30
0.0000
 40
0.0500
 41
0.0500
 70
0
  0
VERTEX
  8
0
 10
-0.4250
 20
0.2379
 30
0.0000
 42
1.0000
  0
VERTEX
  8
0
 10
-0.4750
 20
0.2379
 30
0.0000
  0
SEQEND
  8
0
  0
POLYLINE
  8
0
 66
1
 10
0.0000
 20
0.0000
 30
0.0000
 40
0.0500
 41
0.0500
 70
0
  0
VERTEX
  8
0
 10
-0.4750
 20
-0.2379
 30
0.0000
 42
1.0000
  0
VERTEX
  8
0
 10
-0.4250
 20
-0.2379
 30
0.0000
  0
SEQEND
  8
0
  0
ENDBLK
  8
0
  0
BLOCK
  8
0
  2
LONGP100
 70
64
 10
0.0000
 20
0.0000
 30
0.0000
  3
LONGP100
  0
POLYLINE
  8
0
 66
1
 10
0.0000
 20
0.0000
 30
0.0000
 40
1.0000
 41
1.0000
 70
0
  0
VERTEX
  8
0
 10
-0.5000
 20
0.0000
 30
0.0000
  0
VERTEX
  8
0
 10
0.5000
 20
0.0000
 30
0.0000
  0
SEQEND
  8
0
  0
POLYLINE
  8
0
 66
1
 10
0.0000
 20
0.0000
 30
0.0000
 40
0.5000
 41
0.5000
 70
0
  0
VERTEX
  8
0
 10
0.5000
 20
-0.2500
 30
0.0000
 42
1.0000
  0
VERTEX
  8
0
 10
0.5000
 20
0.2500
 30
0.0000
  0
SEQEND
  8
0
  0
POLYLINE
  8
0
 66
1
 10
0.0000
 20
0.0000
 30
0.0000
 40
0.5000
 41
0.5000
 70
0
  0
VERTEX
  8
0
 10
-0.5000
 20
0.2500
 30
0.0000
 42
1.0000
  0
VERTEX
  8
0
 10
-0.5000
 20
-0.2500
 30
0.0000
  0
SEQEND
  8
0
  0
ENDBLK
  8
0
  0
ENDSEC
  0
SECTION
  2
ENTITIES
  0
INSERT
  8
31
  2
RECT
 10
69.3048
 20
92.4243
 30
0.0000
 41
1.1000
 42
1.0000
 43
1.0000
 50
0.0000
  0
INSERT
  8
31
  2
RECT
 10
71.0048
 20
92.4243
 30
0.0000
 41
1.1000
 42
1.0000
 43
1.0000
 50
0.0000
  0
INSERT
  8
31
  2
RECT
 10
67.8507
 20
90.9828
 30
0.0000
 41
1.1000
 42
1.0000
 43
1.0000
 50
0.0000
  0
INSERT
  8
31
  2
RECT
 10
69.5507
 20
90.9828
 30
0.0000
 41
1.1000
 42
1.0000
 43
1.0000
 50
0.0000
  0
INSERT
  8
31
  2
RECT
 10
70.8923
 20
84.0867
 30
0.0000
 41
1.1000
 42
1.0000
 43
1.0000
 50
0.0000
  0
INSERT
  8
31
  2
RECT
 10
72.5923
 20
84.0867
 30
0.0000
 41
1.1000
 42
1.0000
 43
1.0000
 50
0.0000
  0
INSERT
  8
31
  2
RECT
 10
73.9712
 20
84.1557
 30
0.0000
 41
1.1000
 42
1.0000
 43
1.0000
 50
270.0000
  0
INSERT
  8
31
  2
RECT
 10
73.9712
 20
82.4557
 30
0.0000
 41
1.1000
 42
1.0000
 43
1.0000
 50
270.0000
  0
INSERT
  8
31
  2
RECT
 10
78.9804
 20
92.8053
 30
0.0000
 41
1.1000
 42
1.0000
 43
1.0000
 50
180.0000
  0
INSERT
  8
31
  2
RECT
 10
77.2804
 20
92.8053
 30
0.0000
 41
1.1000
 42
1.0000
 43
1.0000
 50
180.0000
  0
INSERT
  8
31
  2
RECT
 10
69.8618
 20
87.7760
 30
0.0000
 41
1.0000
 42
1.1000
 43
1.0000
 50
180.0000
  0
INSERT
  8
31
  2
RECT
 10
68.1618
 20
87.7760
 30
0.0000
 41
1.0000
 42
1.1000
 43
1.0000
 50
180.0000
  0
INSERT
  8
31
  2
RECT
 10
70.9286
 20
86.3473
 30
0.0000
 41
1.0000
 42
1.1000
 43
1.0000
 50
180.0000
  0
INSERT
  8
31
  2
RECT
 10
69.2286
 20
86.3473
 30
0.0000
 41
1.0000
 42
1.1000
 43
1.0000
 50
180.0000
  0
INSERT
  8
31
  2
RECT
 10
53.1813
 20
87.6300
 30
0.0000
 41
1.4500
 42
0.4500
 43
1.0000
 50
90.0000
  0
INSERT
  8
31
  2
RECT
 10
53.8313
 20
87.6300
 30
0.0000
 41
1.4500
 42
0.4500
 43
1.0000
 50
90.0000
  0
INSERT
  8
31
  2
RECT
 10
54.4813
 20
87.6300
 30
0.0000
 41
1.4500
 42
0.4500
 43
1.0000
 50
90.0000
  0
INSERT
  8
31
  2
RECT
 10
55.1313
 20
87.6300
 30
0.0000
 41
1.4500
 42
0.4500
 43
1.0000
 50
90.0000
  0
INSERT
  8
31
  2
RECT
 10
55.1313
 20
92.0300
 30
0.0000
 41
1.4500
 42
0.4500
 43
1.0000
 50
90.0000
  0
INSERT
  8
31
  2
RECT
 10
54.4813
 20
92.0300
 30
0.0000
 41
1.4500
 42
0.4500
 43
1.0000
 50
90.0000
  0
INSERT
  8
31
  2
RECT
 10
53.8313
 20
92.0300
 30
0.0000
 41
1.4500
 42
0.4500
 43
1.0000
 50
90.0000
  0
INSERT
  8
31
  2
RECT
 10
53.1813
 20
92.0300
 30
0.0000
 41
1.4500
 42
0.4500
 43
1.0000
 50
90.0000
  0
INSERT
  8
31
  2
RECT
 10
64.4525
 20
90.7025
 30
0.0000
 41
1.1000
 42
1.0000
 43
1.0000
 50
270.0000
  0
INSERT
  8
31
  2
RECT
 10
64.4525
 20
89.0025
 30
0.0000
 41
1.1000
 42
1.0000
 43
1.0000
 50
270.0000
  0
INSERT
  8
31
  2
RECT
 10
50.3238
 20
90.7025
 30
0.0000
 41
1.1000
 42
1.0000
 43
1.0000
 50
270.0000
  0
INSERT
  8
31
  2
RECT
 10
50.3238
 20
89.0025
 30
0.0000
 41
1.1000
 42
1.0000
 43
1.0000
 50
270.0000
  0
INSERT
  8
31
  2
RECT
 10
51.9113
 20
90.7025
 30
0.0000
 41
1.1000
 42
1.0000
 43
1.0000
 50
270.0000
  0
INSERT
  8
31
  2
RECT
 10
51.9113
 20
89.0025
 30
0.0000
 41
1.1000
 42
1.0000
 43
1.0000
 50
270.0000
  0
INSERT
  8
31
  2
RECT
 10
53.2838
 20
93.5038
 30
0.0000
 41
1.1000
 42
1.0000
 43
1.0000
 50
0.0000
  0
INSERT
  8
31
  2
RECT
 10
54.9838
 20
93.5038
 30
0.0000
 41
1.1000
 42
1.0000
 43
1.0000
 50
0.0000
  0
INSERT
  8
31
  2
RECT
 10
53.2838
 20
86.0425
 30
0.0000
 41
1.1000
 42
1.0000
 43
1.0000
 50
0.0000
  0
INSERT
  8
31
  2
RECT
 10
54.9838
 20
86.0425
 30
0.0000
 41
1.1000
 42
1.0000
 43
1.0000
 50
0.0000
  0
INSERT
  8
31
  2
RECT
 10
47.2512
 20
88.9000
 30
0.0000
 41
1.0000
 42
1.1000
 43
1.0000
 50
0.0000
  0
INSERT
  8
31
  2
RECT
 10
48.9513
 20
88.9000
 30
0.0000
 41
1.0000
 42
1.1000
 43
1.0000
 50
0.0000
  0
INSERT
  8
31
  2
RECT
 10
50.2675
 20
87.6300
 30
0.0000
 41
1.0000
 42
1.1000
 43
1.0000
 50
0.0000
  0
INSERT
  8
31
  2
RECT
 10
51.9675
 20
87.6300
 30
0.0000
 41
1.0000
 42
1.1000
 43
1.0000
 50
0.0000
  0
INSERT
  8
31
  2
RECT
 10
47.2512
 20
90.6463
 30
0.0000
 41
1.0000
 42
1.1000
 43
1.0000
 50
0.0000
  0
INSERT
  8
31
  2
RECT
 10
48.9513
 20
90.6463
 30
0.0000
 41
1.0000
 42
1.1000
 43
1.0000
 50
0.0000
  0
INSERT
  8
31
  2
RECT
 10
50.2675
 20
92.2338
 30
0.0000
 41
1.0000
 42
1.1000
 43
1.0000
 50
0.0000
  0
INSERT
  8
31
  2
RECT
 10
51.9675
 20
92.2338
 30
0.0000
 41
1.0000
 42
1.1000
 43
1.0000
 50
0.0000
  0
INSERT
  8
31
  2
RECT
 10
50.2675
 20
93.5038
 30
0.0000
 41
1.0000
 42
1.1000
 43
1.0000
 50
0.0000
  0
INSERT
  8
31
  2
RECT
 10
51.9675
 20
93.5038
 30
0.0000
 41
1.0000
 42
1.1000
 43
1.0000
 50
0.0000
  0
INSERT
  8
31
  2
RECT
 10
50.2675
 20
86.0425
 30
0.0000
 41
1.0000
 42
1.1000
 43
1.0000
 50
0.0000
  0
INSERT
  8
31
  2
RECT
 10
51.9675
 20
86.0425
 30
0.0000
 41
1.0000
 42
1.1000
 43
1.0000
 50
0.0000
  0
INSERT
  8
31
  2
RECT
 10
56.3000
 20
90.8050
 30
0.0000
 41
1.0000
 42
1.1000
 43
1.0000
 50
0.0000
  0
INSERT
  8
31
  2
RECT
 10
58.0000
 20
90.8050
 30
0.0000
 41
1.0000
 42
1.1000
 43
1.0000
 50
0.0000
  0
INSERT
  8
31
  2
RECT
 10
60.7450
 20
90.8050
 30
0.0000
 41
1.0000
 42
1.1000
 43
1.0000
 50
0.0000
  0
INSERT
  8
31
  2
RECT
 10
62.4450
 20
90.8050
 30
0.0000
 41
1.0000
 42
1.1000
 43
1.0000
 50
0.0000
  0
INSERT
  8
31
  2
RECT
 10
56.3000
 20
88.9000
 30
0.0000
 41
1.0000
 42
1.1000
 43
1.0000
 50
0.0000
  0
INSERT
  8
31
  2
RECT
 10
58.0000
 20
88.9000
 30
0.0000
 41
1.0000
 42
1.1000
 43
1.0000
 50
0.0000
  0
INSERT
  8
31
  2
RECT
 10
60.7450
 20
88.9000
 30
0.0000
 41
1.0000
 42
1.1000
 43
1.0000
 50
0.0000
  0
INSERT
  8
31
  2
RECT
 10
62.4450
 20
88.9000
 30
0.0000
 41
1.0000
 42
1.1000
 43
1.0000
 50
0.0000
  0
INSERT
  8
31
  2
RECT
 10
43.7587
 20
91.9313
 30
0.0000
 41
0.4000
 42
0.7000
 43
1.0000
 50
270.0000
  0
INSERT
  8
31
  2
RECT
 10
43.7587
 20
91.2812
 30
0.0000
 41
0.4000
 42
0.7000
 43
1.0000
 50
270.0000
  0
INSERT
  8
31
  2
RECT
 10
43.7587
 20
90.6313
 30
0.0000
 41
0.4000
 42
0.7000
 43
1.0000
 50
270.0000
  0
INSERT
  8
31
  2
RECT
 10
45.4588
 20
90.6313
 30
0.0000
 41
0.4000
 42
0.7000
 43
1.0000
 50
270.0000
  0
INSERT
  8
31
  2
RECT
 10
45.4588
 20
91.9313
 30
0.0000
 41
0.4000
 42
0.7000
 43
1.0000
 50
270.0000
  0
INSERT
  8
31
  2
RECT
 10
47.3638
 20
93.5038
 30
0.0000
 41
1.1000
 42
1.0000
 43
1.0000
 50
180.0000
  0
INSERT
  8
31
  2
RECT
 10
45.6638
 20
93.5038
 30
0.0000
 41
1.1000
 42
1.0000
 43
1.0000
 50
180.0000
  0
INSERT
  8
31
  2
RECT
 10
43.7587
 20
89.5350
 30
0.0000
 41
1.1000
 42
1.0000
 43
1.0000
 50
0.0000
  0
INSERT
  8
31
  2
RECT
 10
45.4588
 20
89.5350
 30
0.0000
 41
1.1000
 42
1.0000
 43
1.0000
 50
0.0000
  0
INSERT
  8
31
  2
RECT
 10
40.6400
 20
85.6688
 30
0.0000
 41
1.1000
 42
1.0000
 43
1.0000
 50
90.0000
  0
INSERT
  8
31
  2
RECT
 10
40.6400
 20
87.3688
 30
0.0000
 41
1.1000
 42
1.0000
 43
1.0000
 50
90.0000
  0
INSERT
  8
31
  2
RECT
 10
43.3950
 20
93.0275
 30
0.0000
 41
1.1000
 42
1.0000
 43
1.0000
 50
180.0000
  0
INSERT
  8
31
  2
RECT
 10
41.6950
 20
93.0275
 30
0.0000
 41
1.1000
 42
1.0000
 43
1.0000
 50
180.0000
  0
INSERT
  8
31
  2
RECT
 10
43.3950
 20
94.2975
 30
0.0000
 41
1.0000
 42
1.1000
 43
1.0000
 50
180.0000
  0
INSERT
  8
31
  2
RECT
 10
41.6950
 20
94.2975
 30
0.0000
 41
1.0000
 42
1.1000
 43
1.0000
 50
180.0000
  0
INSERT
  8
31
  2
RECT
 10
43.4413
 20
95.7263
 30
0.0000
 41
1.0000
 42
1.1000
 43
1.0000
 50
0.0000
  0
INSERT
  8
31
  2
RECT
 10
45.1412
 20
95.7263
 30
0.0000
 41
1.0000
 42
1.1000
 43
1.0000
 50
0.0000
  0
INSERT
  8
31
  2
RECT
 10
43.7587
 20
88.2650
 30
0.0000
 41
1.0000
 42
1.1000
 43
1.0000
 50
0.0000
  0
INSERT
  8
31
  2
RECT
 10
45.4588
 20
88.2650
 30
0.0000
 41
1.0000
 42
1.1000
 43
1.0000
 50
0.0000
  0
INSERT
  8
31
  2
RECT
 10
40.5838
 20
90.6463
 30
0.0000
 41
1.0000
 42
1.1000
 43
1.0000
 50
0.0000
  0
INSERT
  8
31
  2
RECT
 10
42.2838
 20
90.6463
 30
0.0000
 41
1.0000
 42
1.1000
 43
1.0000
 50
0.0000
  0
INSERT
  8
31
  2
RECT
 10
67.8761
 20
76.6255
 30
0.0000
 41
1.1000
 42
1.0000
 43
1.0000
 50
0.0000
  0
INSERT
  8
31
  2
RECT
 10
69.5761
 20
76.6255
 30
0.0000
 41
1.1000
 42
1.0000
 43
1.0000
 50
0.0000
  0
INSERT
  8
31
  2
RECT
 10
74.2823
 20
78.2692
 30
0.0000
 41
1.1000
 42
1.0000
 43
1.0000
 50
270.0000
  0
INSERT
  8
31
  2
RECT
 10
74.2823
 20
76.5692
 30
0.0000
 41
1.1000
 42
1.0000
 43
1.0000
 50
270.0000
  0
INSERT
  8
31
  2
RECT
 10
70.8923
 20
82.6579
 30
0.0000
 41
1.1000
 42
1.0000
 43
1.0000
 50
0.0000
  0
INSERT
  8
31
  2
RECT
 10
72.5923
 20
82.6579
 30
0.0000
 41
1.1000
 42
1.0000
 43
1.0000
 50
0.0000
  0
INSERT
  8
31
  2
RECT
 10
70.4160
 20
74.7204
 30
0.0000
 41
1.0000
 42
1.1000
 43
1.0000
 50
0.0000
  0
INSERT
  8
31
  2
RECT
 10
72.1161
 20
74.7204
 30
0.0000
 41
1.0000
 42
1.1000
 43
1.0000
 50
0.0000
  0
INSERT
  8
31
  2
RECT
 10
69.0436
 20
81.0142
 30
0.0000
 41
1.0000
 42
1.1000
 43
1.0000
 50
90.0000
  0
INSERT
  8
31
  2
RECT
 10
69.0436
 20
82.7142
 30
0.0000
 41
1.0000
 42
1.1000
 43
1.0000
 50
90.0000
  0
INSERT
  8
31
  2
RECT
 10
70.8923
 20
60.7505
 30
0.0000
 41
1.1000
 42
1.0000
 43
1.0000
 50
0.0000
  0
INSERT
  8
31
  2
RECT
 10
72.5923
 20
60.7505
 30
0.0000
 41
1.1000
 42
1.0000
 43
1.0000
 50
0.0000
  0
INSERT
  8
31
  2
RECT
 10
53.1813
 20
64.2938
 30
0.0000
 41
1.4500
 42
0.4500
 43
1.0000
 50
90.0000
  0
INSERT
  8
31
  2
RECT
 10
53.8313
 20
64.2938
 30
0.0000
 41
1.4500
 42
0.4500
 43
1.0000
 50
90.0000
  0
INSERT
  8
31
  2
RECT
 10
54.4813
 20
64.2938
 30
0.0000
 41
1.4500
 42
0.4500
 43
1.0000
 50
90.0000
  0
INSERT
  8
31
  2
RECT
 10
55.1313
 20
64.2938
 30
0.0000
 41
1.4500
 42
0.4500
 43
1.0000
 50
90.0000
  0
INSERT
  8
31
  2
RECT
 10
55.1313
 20
68.6938
 30
0.0000
 41
1.4500
 42
0.4500
 43
1.0000
 50
90.0000
  0
INSERT
  8
31
  2
RECT
 10
54.4813
 20
68.6938
 30
0.0000
 41
1.4500
 42
0.4500
 43
1.0000
 50
90.0000
  0
INSERT
  8
31
  2
RECT
 10
53.8313
 20
68.6938
 30
0.0000
 41
1.4500
 42
0.4500
 43
1.0000
 50
90.0000
  0
INSERT
  8
31
  2
RECT
 10
53.1813
 20
68.6938
 30
0.0000
 41
1.4500
 42
0.4500
 43
1.0000
 50
90.0000
  0
INSERT
  8
31
  2
RECT
 10
64.4525
 20
67.3663
 30
0.0000
 41
1.1000
 42
1.0000
 43
1.0000
 50
270.0000
  0
INSERT
  8
31
  2
RECT
 10
64.4525
 20
65.6663
 30
0.0000
 41
1.1000
 42
1.0000
 43
1.0000
 50
270.0000
  0
INSERT
  8
31
  2
RECT
 10
50.3238
 20
67.3663
 30
0.0000
 41
1.1000
 42
1.0000
 43
1.0000
 50
270.0000
  0
INSERT
  8
31
  2
RECT
 10
50.3238
 20
65.6663
 30
0.0000
 41
1.1000
 42
1.0000
 43
1.0000
 50
270.0000
  0
INSERT
  8
31
  2
RECT
 10
51.9113
 20
67.3663
 30
0.0000
 41
1.1000
 42
1.0000
 43
1.0000
 50
270.0000
  0
INSERT
  8
31
  2
RECT
 10
51.9113
 20
65.6663
 30
0.0000
 41
1.1000
 42
1.0000
 43
1.0000
 50
270.0000
  0
INSERT
  8
31
  2
RECT
 10
53.2838
 20
70.3263
 30
0.0000
 41
1.1000
 42
1.0000
 43
1.0000
 50
0.0000
  0
INSERT
  8
31
  2
RECT
 10
54.9838
 20
70.3263
 30
0.0000
 41
1.1000
 42
1.0000
 43
1.0000
 50
0.0000
  0
INSERT
  8
31
  2
RECT
 10
53.2838
 20
62.7063
 30
0.0000
 41
1.1000
 42
1.0000
 43
1.0000
 50
0.0000
  0
INSERT
  8
31
  2
RECT
 10
54.9838
 20
62.7063
 30
0.0000
 41
1.1000
 42
1.0000
 43
1.0000
 50
0.0000
  0
INSERT
  8
31
  2
RECT
 10
46.9338
 20
65.7225
 30
0.0000
 41
1.0000
 42
1.1000
 43
1.0000
 50
0.0000
  0
INSERT
  8
31
  2
RECT
 10
48.6337
 20
65.7225
 30
0.0000
 41
1.0000
 42
1.1000
 43
1.0000
 50
0.0000
  0
INSERT
  8
31
  2
RECT
 10
50.2675
 20
64.1350
 30
0.0000
 41
1.0000
 42
1.1000
 43
1.0000
 50
0.0000
  0
INSERT
  8
31
  2
RECT
 10
51.9675
 20
64.1350
 30
0.0000
 41
1.0000
 42
1.1000
 43
1.0000
 50
0.0000
  0
INSERT
  8
31
  2
RECT
 10
46.9338
 20
67.3100
 30
0.0000
 41
1.0000
 42
1.1000
 43
1.0000
 50
0.0000
  0
INSERT
  8
31
  2
RECT
 10
48.6337
 20
67.3100
 30
0.0000
 41
1.0000
 42
1.1000
 43
1.0000
 50
0.0000
  0
INSERT
  8
31
  2
RECT
 10
50.2675
 20
68.8975
 30
0.0000
 41
1.0000
 42
1.1000
 43
1.0000
 50
0.0000
  0
INSERT
  8
31
  2
RECT
 10
51.9675
 20
68.8975
 30
0.0000
 41
1.0000
 42
1.1000
 43
1.0000
 50
0.0000
  0
INSERT
  8
31
  2
RECT
 10
50.2675
 20
70.3263
 30
0.0000
 41
1.0000
 42
1.1000
 43
1.0000
 50
0.0000
  0
INSERT
  8
31
  2
RECT
 10
51.9675
 20
70.3263
 30
0.0000
 41
1.0000
 42
1.1000
 43
1.0000
 50
0.0000
  0
INSERT
  8
31
  2
RECT
 10
50.2675
 20
62.7063
 30
0.0000
 41
1.0000
 42
1.1000
 43
1.0000
 50
0.0000
  0
INSERT
  8
31
  2
RECT
 10
51.9675
 20
62.7063
 30
0.0000
 41
1.0000
 42
1.1000
 43
1.0000
 50
0.0000
  0
INSERT
  8
31
  2
RECT
 10
56.3000
 20
67.4688
 30
0.0000
 41
1.0000
 42
1.1000
 43
1.0000
 50
0.0000
  0
INSERT
  8
31
  2
RECT
 10
58.0000
 20
67.4688
 30
0.0000
 41
1.0000
 42
1.1000
 43
1.0000
 50
0.0000
  0
INSERT
  8
31
  2
RECT
 10
60.7450
 20
67.4688
 30
0.0000
 41
1.0000
 42
1.1000
 43
1.0000
 50
0.0000
  0
INSERT
  8
31
  2
RECT
 10
62.4450
 20
67.4688
 30
0.0000
 41
1.0000
 42
1.1000
 43
1.0000
 50
0.0000
  0
INSERT
  8
31
  2
RECT
 10
56.3000
 20
65.5637
 30
0.0000
 41
1.0000
 42
1.1000
 43
1.0000
 50
0.0000
  0
INSERT
  8
31
  2
RECT
 10
58.0000
 20
65.5637
 30
0.0000
 41
1.0000
 42
1.1000
 43
1.0000
 50
0.0000
  0
INSERT
  8
31
  2
RECT
 10
60.7450
 20
65.5637
 30
0.0000
 41
1.0000
 42
1.1000
 43
1.0000
 50
0.0000
  0
INSERT
  8
31
  2
RECT
 10
62.4450
 20
65.5637
 30
0.0000
 41
1.0000
 42
1.1000
 43
1.0000
 50
0.0000
  0
INSERT
  8
31
  2
RECT
 10
43.7587
 20
68.5950
 30
0.0000
 41
0.4000
 42
0.7000
 43
1.0000
 50
270.0000
  0
INSERT
  8
31
  2
RECT
 10
43.7587
 20
67.9450
 30
0.0000
 41
0.4000
 42
0.7000
 43
1.0000
 50
270.0000
  0
INSERT
  8
31
  2
RECT
 10
43.7587
 20
67.2950
 30
0.0000
 41
0.4000
 42
0.7000
 43
1.0000
 50
270.0000
  0
INSERT
  8
31
  2
RECT
 10
45.4588
 20
67.2950
 30
0.0000
 41
0.4000
 42
0.7000
 43
1.0000
 50
270.0000
  0
INSERT
  8
31
  2
RECT
 10
45.4588
 20
68.5950
 30
0.0000
 41
0.4000
 42
0.7000
 43
1.0000
 50
270.0000
  0
INSERT
  8
31
  2
RECT
 10
47.3638
 20
70.1675
 30
0.0000
 41
1.1000
 42
1.0000
 43
1.0000
 50
180.0000
  0
INSERT
  8
31
  2
RECT
 10
45.6638
 20
70.1675
 30
0.0000
 41
1.1000
 42
1.0000
 43
1.0000
 50
180.0000
  0
INSERT
  8
31
  2
RECT
 10
43.7587
 20
66.1988
 30
0.0000
 41
1.1000
 42
1.0000
 43
1.0000
 50
0.0000
  0
INSERT
  8
31
  2
RECT
 10
45.4588
 20
66.1988
 30
0.0000
 41
1.1000
 42
1.0000
 43
1.0000
 50
0.0000
  0
INSERT
  8
31
  2
RECT
 10
40.6400
 20
62.3325
 30
0.0000
 41
1.1000
 42
1.0000
 43
1.0000
 50
90.0000
  0
INSERT
  8
31
  2
RECT
 10
40.6400
 20
64.0325
 30
0.0000
 41
1.1000
 42
1.0000
 43
1.0000
 50
90.0000
  0
INSERT
  8
31
  2
RECT
 10
43.3950
 20
69.6912
 30
0.0000
 41
1.1000
 42
1.0000
 43
1.0000
 50
180.0000
  0
INSERT
  8
31
  2
RECT
 10
41.6950
 20
69.6912
 30
0.0000
 41
1.1000
 42
1.0000
 43
1.0000
 50
180.0000
  0
INSERT
  8
31
  2
RECT
 10
43.3950
 20
70.9613
 30
0.0000
 41
1.0000
 42
1.1000
 43
1.0000
 50
180.0000
  0
INSERT
  8
31
  2
RECT
 10
41.6950
 20
70.9613
 30
0.0000
 41
1.0000
 42
1.1000
 43
1.0000
 50
180.0000
  0
INSERT
  8
31
  2
RECT
 10
43.4413
 20
72.3900
 30
0.0000
 41
1.0000
 42
1.1000
 43
1.0000
 50
0.0000
  0
INSERT
  8
31
  2
RECT
 10
45.1412
 20
72.3900
 30
0.0000
 41
1.0000
 42
1.1000
 43
1.0000
 50
0.0000
  0
INSERT
  8
31
  2
RECT
 10
43.7587
 20
64.9288
 30
0.0000
 41
1.0000
 42
1.1000
 43
1.0000
 50
0.0000
  0
INSERT
  8
31
  2
RECT
 10
45.4588
 20
64.9288
 30
0.0000
 41
1.0000
 42
1.1000
 43
1.0000
 50
0.0000
  0
INSERT
  8
31
  2
RECT
 10
40.5838
 20
67.3100
 30
0.0000
 41
1.0000
 42
1.1000
 43
1.0000
 50
0.0000
  0
INSERT
  8
31
  2
RECT
 10
42.2838
 20
67.3100
 30
0.0000
 41
1.0000
 42
1.1000
 43
1.0000
 50
0.0000
  0
INSERT
  8
31
  2
RECT
 10
67.8761
 20
53.2892
 30
0.0000
 41
1.1000
 42
1.0000
 43
1.0000
 50
0.0000
  0
INSERT
  8
31
  2
RECT
 10
69.5761
 20
53.2892
 30
0.0000
 41
1.1000
 42
1.0000
 43
1.0000
 50
0.0000
  0
INSERT
  8
31
  2
RECT
 10
74.2823
 20
54.9330
 30
0.0000
 41
1.1000
 42
1.0000
 43
1.0000
 50
270.0000
  0
INSERT
  8
31
  2
RECT
 10
74.2823
 20
53.2330
 30
0.0000
 41
1.1000
 42
1.0000
 43
1.0000
 50
270.0000
  0
INSERT
  8
31
  2
RECT
 10
70.8923
 20
59.3217
 30
0.0000
 41
1.1000
 42
1.0000
 43
1.0000
 50
0.0000
  0
INSERT
  8
31
  2
RECT
 10
72.5923
 20
59.3217
 30
0.0000
 41
1.1000
 42
1.0000
 43
1.0000
 50
0.0000
  0
INSERT
  8
31
  2
RECT
 10
70.4160
 20
51.3842
 30
0.0000
 41
1.0000
 42
1.1000
 43
1.0000
 50
0.0000
  0
INSERT
  8
31
  2
RECT
 10
72.1161
 20
51.3842
 30
0.0000
 41
1.0000
 42
1.1000
 43
1.0000
 50
0.0000
  0
INSERT
  8
31
  2
RECT
 10
69.0436
 20
57.6780
 30
0.0000
 41
1.0000
 42
1.1000
 43
1.0000
 50
90.0000
  0
INSERT
  8
31
  2
RECT
 10
69.0436
 20
59.3780
 30
0.0000
 41
1.0000
 42
1.1000
 43
1.0000
 50
90.0000
  0
INSERT
  8
31
  2
RECT
 10
69.3048
 20
69.0880
 30
0.0000
 41
1.1000
 42
1.0000
 43
1.0000
 50
0.0000
  0
INSERT
  8
31
  2
RECT
 10
71.0048
 20
69.0880
 30
0.0000
 41
1.1000
 42
1.0000
 43
1.0000
 50
0.0000
  0
INSERT
  8
31
  2
RECT
 10
67.8507
 20
67.6466
 30
0.0000
 41
1.1000
 42
1.0000
 43
1.0000
 50
0.0000
  0
INSERT
  8
31
  2
RECT
 10
69.5507
 20
67.6466
 30
0.0000
 41
1.1000
 42
1.0000
 43
1.0000
 50
0.0000
  0
INSERT
  8
31
  2
RECT
 10
73.9712
 20
61.1242
 30
0.0000
 41
1.1000
 42
1.0000
 43
1.0000
 50
270.0000
  0
INSERT
  8
31
  2
RECT
 10
73.9712
 20
59.4242
 30
0.0000
 41
1.1000
 42
1.0000
 43
1.0000
 50
270.0000
  0
INSERT
  8
31
  2
RECT
 10
78.9804
 20
69.4690
 30
0.0000
 41
1.1000
 42
1.0000
 43
1.0000
 50
180.0000
  0
INSERT
  8
31
  2
RECT
 10
77.2804
 20
69.4690
 30
0.0000
 41
1.1000
 42
1.0000
 43
1.0000
 50
180.0000
  0
INSERT
  8
31
  2
RECT
 10
69.8618
 20
64.4398
 30
0.0000
 41
1.0000
 42
1.1000
 43
1.0000
 50
180.0000
  0
INSERT
  8
31
  2
RECT
 10
68.1618
 20
64.4398
 30
0.0000
 41
1.0000
 42
1.1000
 43
1.0000
 50
180.0000
  0
INSERT
  8
31
  2
RECT
 10
70.9286
 20
63.0047
 30
0.0000
 41
1.0000
 42
1.1000
 43
1.0000
 50
180.0000
  0
INSERT
  8
31
  2
RECT
 10
69.2286
 20
63.0047
 30
0.0000
 41
1.0000
 42
1.1000
 43
1.0000
 50
180.0000
  0
INSERT
  8
31
  2
RECT
 10
70.8923
 20
37.4142
 30
0.0000
 41
1.1000
 42
1.0000
 43
1.0000
 50
0.0000
  0
INSERT
  8
31
  2
RECT
 10
72.5923
 20
37.4142
 30
0.0000
 41
1.1000
 42
1.0000
 43
1.0000
 50
0.0000
  0
INSERT
  8
31
  2
RECT
 10
53.1813
 20
40.9575
 30
0.0000
 41
1.4500
 42
0.4500
 43
1.0000
 50
90.0000
  0
INSERT
  8
31
  2
RECT
 10
53.8313
 20
40.9575
 30
0.0000
 41
1.4500
 42
0.4500
 43
1.0000
 50
90.0000
  0
INSERT
  8
31
  2
RECT
 10
54.4813
 20
40.9575
 30
0.0000
 41
1.4500
 42
0.4500
 43
1.0000
 50
90.0000
  0
INSERT
  8
31
  2
RECT
 10
55.1313
 20
40.9575
 30
0.0000
 41
1.4500
 42
0.4500
 43
1.0000
 50
90.0000
  0
INSERT
  8
31
  2
RECT
 10
55.1313
 20
45.3575
 30
0.0000
 41
1.4500
 42
0.4500
 43
1.0000
 50
90.0000
  0
INSERT
  8
31
  2
RECT
 10
54.4813
 20
45.3575
 30
0.0000
 41
1.4500
 42
0.4500
 43
1.0000
 50
90.0000
  0
INSERT
  8
31
  2
RECT
 10
53.8313
 20
45.3575
 30
0.0000
 41
1.4500
 42
0.4500
 43
1.0000
 50
90.0000
  0
INSERT
  8
31
  2
RECT
 10
53.1813
 20
45.3575
 30
0.0000
 41
1.4500
 42
0.4500
 43
1.0000
 50
90.0000
  0
INSERT
  8
31
  2
RECT
 10
64.4525
 20
44.0300
 30
0.0000
 41
1.1000
 42
1.0000
 43
1.0000
 50
270.0000
  0
INSERT
  8
31
  2
RECT
 10
64.4525
 20
42.3300
 30
0.0000
 41
1.1000
 42
1.0000
 43
1.0000
 50
270.0000
  0
INSERT
  8
31
  2
RECT
 10
50.3238
 20
44.0300
 30
0.0000
 41
1.1000
 42
1.0000
 43
1.0000
 50
270.0000
  0
INSERT
  8
31
  2
RECT
 10
50.3238
 20
42.3300
 30
0.0000
 41
1.1000
 42
1.0000
 43
1.0000
 50
270.0000
  0
INSERT
  8
31
  2
RECT
 10
51.9113
 20
44.0300
 30
0.0000
 41
1.1000
 42
1.0000
 43
1.0000
 50
270.0000
  0
INSERT
  8
31
  2
RECT
 10
51.9113
 20
42.3300
 30
0.0000
 41
1.1000
 42
1.0000
 43
1.0000
 50
270.0000
  0
INSERT
  8
31
  2
RECT
 10
53.2838
 20
46.9900
 30
0.0000
 41
1.1000
 42
1.0000
 43
1.0000
 50
0.0000
  0
INSERT
  8
31
  2
RECT
 10
54.9838
 20
46.9900
 30
0.0000
 41
1.1000
 42
1.0000
 43
1.0000
 50
0.0000
  0
INSERT
  8
31
  2
RECT
 10
53.2838
 20
39.3700
 30
0.0000
 41
1.1000
 42
1.0000
 43
1.0000
 50
0.0000
  0
INSERT
  8
31
  2
RECT
 10
54.9838
 20
39.3700
 30
0.0000
 41
1.1000
 42
1.0000
 43
1.0000
 50
0.0000
  0
INSERT
  8
31
  2
RECT
 10
46.9338
 20
42.3863
 30
0.0000
 41
1.0000
 42
1.1000
 43
1.0000
 50
0.0000
  0
INSERT
  8
31
  2
RECT
 10
48.6337
 20
42.3863
 30
0.0000
 41
1.0000
 42
1.1000
 43
1.0000
 50
0.0000
  0
INSERT
  8
31
  2
RECT
 10
50.2675
 20
40.9575
 30
0.0000
 41
1.0000
 42
1.1000
 43
1.0000
 50
0.0000
  0
INSERT
  8
31
  2
RECT
 10
51.9675
 20
40.9575
 30
0.0000
 41
1.0000
 42
1.1000
 43
1.0000
 50
0.0000
  0
INSERT
  8
31
  2
RECT
 10
46.9338
 20
43.9738
 30
0.0000
 41
1.0000
 42
1.1000
 43
1.0000
 50
0.0000
  0
INSERT
  8
31
  2
RECT
 10
48.6337
 20
43.9738
 30
0.0000
 41
1.0000
 42
1.1000
 43
1.0000
 50
0.0000
  0
INSERT
  8
31
  2
RECT
 10
50.2675
 20
45.4025
 30
0.0000
 41
1.0000
 42
1.1000
 43
1.0000
 50
0.0000
  0
INSERT
  8
31
  2
RECT
 10
51.9675
 20
45.4025
 30
0.0000
 41
1.0000
 42
1.1000
 43
1.0000
 50
0.0000
  0
INSERT
  8
31
  2
RECT
 10
50.2675
 20
46.9900
 30
0.0000
 41
1.0000
 42
1.1000
 43
1.0000
 50
0.0000
  0
INSERT
  8
31
  2
RECT
 10
51.9675
 20
46.9900
 30
0.0000
 41
1.0000
 42
1.1000
 43
1.0000
 50
0.0000
  0
INSERT
  8
31
  2
RECT
 10
50.2675
 20
39.3700
 30
0.0000
 41
1.0000
 42
1.1000
 43
1.0000
 50
0.0000
  0
INSERT
  8
31
  2
RECT
 10
51.9675
 20
39.3700
 30
0.0000
 41
1.0000
 42
1.1000
 43
1.0000
 50
0.0000
  0
INSERT
  8
31
  2
RECT
 10
56.3000
 20
44.1325
 30
0.0000
 41
1.0000
 42
1.1000
 43
1.0000
 50
0.0000
  0
INSERT
  8
31
  2
RECT
 10
58.0000
 20
44.1325
 30
0.0000
 41
1.0000
 42
1.1000
 43
1.0000
 50
0.0000
  0
INSERT
  8
31
  2
RECT
 10
60.7450
 20
44.1325
 30
0.0000
 41
1.0000
 42
1.1000
 43
1.0000
 50
0.0000
  0
INSERT
  8
31
  2
RECT
 10
62.4450
 20
44.1325
 30
0.0000
 41
1.0000
 42
1.1000
 43
1.0000
 50
0.0000
  0
INSERT
  8
31
  2
RECT
 10
56.3000
 20
42.2275
 30
0.0000
 41
1.0000
 42
1.1000
 43
1.0000
 50
0.0000
  0
INSERT
  8
31
  2
RECT
 10
58.0000
 20
42.2275
 30
0.0000
 41
1.0000
 42
1.1000
 43
1.0000
 50
0.0000
  0
INSERT
  8
31
  2
RECT
 10
60.7450
 20
42.2275
 30
0.0000
 41
1.0000
 42
1.1000
 43
1.0000
 50
0.0000
  0
INSERT
  8
31
  2
RECT
 10
62.4450
 20
42.2275
 30
0.0000
 41
1.0000
 42
1.1000
 43
1.0000
 50
0.0000
  0
INSERT
  8
31
  2
RECT
 10
43.7587
 20
45.2587
 30
0.0000
 41
0.4000
 42
0.7000
 43
1.0000
 50
270.0000
  0
INSERT
  8
31
  2
RECT
 10
43.7587
 20
44.6088
 30
0.0000
 41
0.4000
 42
0.7000
 43
1.0000
 50
270.0000
  0
INSERT
  8
31
  2
RECT
 10
43.7587
 20
43.9588
 30
0.0000
 41
0.4000
 42
0.7000
 43
1.0000
 50
270.0000
  0
INSERT
  8
31
  2
RECT
 10
45.4588
 20
43.9588
 30
0.0000
 41
0.4000
 42
0.7000
 43
1.0000
 50
270.0000
  0
INSERT
  8
31
  2
RECT
 10
45.4588
 20
45.2587
 30
0.0000
 41
0.4000
 42
0.7000
 43
1.0000
 50
270.0000
  0
INSERT
  8
31
  2
RECT
 10
47.3638
 20
46.9900
 30
0.0000
 41
1.1000
 42
1.0000
 43
1.0000
 50
180.0000
  0
INSERT
  8
31
  2
RECT
 10
45.6638
 20
46.9900
 30
0.0000
 41
1.1000
 42
1.0000
 43
1.0000
 50
180.0000
  0
INSERT
  8
31
  2
RECT
 10
43.7587
 20
42.8625
 30
0.0000
 41
1.1000
 42
1.0000
 43
1.0000
 50
0.0000
  0
INSERT
  8
31
  2
RECT
 10
45.4588
 20
42.8625
 30
0.0000
 41
1.1000
 42
1.0000
 43
1.0000
 50
0.0000
  0
INSERT
  8
31
  2
RECT
 10
40.6400
 20
38.9963
 30
0.0000
 41
1.1000
 42
1.0000
 43
1.0000
 50
90.0000
  0
INSERT
  8
31
  2
RECT
 10
40.6400
 20
40.6962
 30
0.0000
 41
1.1000
 42
1.0000
 43
1.0000
 50
90.0000
  0
INSERT
  8
31
  2
RECT
 10
43.3950
 20
46.3550
 30
0.0000
 41
1.1000
 42
1.0000
 43
1.0000
 50
180.0000
  0
INSERT
  8
31
  2
RECT
 10
41.6950
 20
46.3550
 30
0.0000
 41
1.1000
 42
1.0000
 43
1.0000
 50
180.0000
  0
INSERT
  8
31
  2
RECT
 10
43.3950
 20
47.6250
 30
0.0000
 41
1.0000
 42
1.1000
 43
1.0000
 50
180.0000
  0
INSERT
  8
31
  2
RECT
 10
41.6950
 20
47.6250
 30
0.0000
 41
1.0000
 42
1.1000
 43
1.0000
 50
180.0000
  0
INSERT
  8
31
  2
RECT
 10
43.4413
 20
49.0538
 30
0.0000
 41
1.0000
 42
1.1000
 43
1.0000
 50
0.0000
  0
INSERT
  8
31
  2
RECT
 10
45.1412
 20
49.0538
 30
0.0000
 41
1.0000
 42
1.1000
 43
1.0000
 50
0.0000
  0
INSERT
  8
31
  2
RECT
 10
43.7587
 20
41.5925
 30
0.0000
 41
1.0000
 42
1.1000
 43
1.0000
 50
0.0000
  0
INSERT
  8
31
  2
RECT
 10
45.4588
 20
41.5925
 30
0.0000
 41
1.0000
 42
1.1000
 43
1.0000
 50
0.0000
  0
INSERT
  8
31
  2
RECT
 10
40.5838
 20
43.9738
 30
0.0000
 41
1.0000
 42
1.1000
 43
1.0000
 50
0.0000
  0
INSERT
  8
31
  2
RECT
 10
42.2838
 20
43.9738
 30
0.0000
 41
1.0000
 42
1.1000
 43
1.0000
 50
0.0000
  0
INSERT
  8
31
  2
RECT
 10
67.8761
 20
29.9530
 30
0.0000
 41
1.1000
 42
1.0000
 43
1.0000
 50
0.0000
  0
INSERT
  8
31
  2
RECT
 10
69.5761
 20
29.9530
 30
0.0000
 41
1.1000
 42
1.0000
 43
1.0000
 50
0.0000
  0
INSERT
  8
31
  2
RECT
 10
74.2823
 20
31.5967
 30
0.0000
 41
1.1000
 42
1.0000
 43
1.0000
 50
270.0000
  0
INSERT
  8
31
  2
RECT
 10
74.2823
 20
29.8967
 30
0.0000
 41
1.1000
 42
1.0000
 43
1.0000
 50
270.0000
  0
INSERT
  8
31
  2
RECT
 10
70.8923
 20
35.9855
 30
0.0000
 41
1.1000
 42
1.0000
 43
1.0000
 50
0.0000
  0
INSERT
  8
31
  2
RECT
 10
72.5923
 20
35.9855
 30
0.0000
 41
1.1000
 42
1.0000
 43
1.0000
 50
0.0000
  0
INSERT
  8
31
  2
RECT
 10
70.4160
 20
28.0480
 30
0.0000
 41
1.0000
 42
1.1000
 43
1.0000
 50
0.0000
  0
INSERT
  8
31
  2
RECT
 10
72.1161
 20
28.0480
 30
0.0000
 41
1.0000
 42
1.1000
 43
1.0000
 50
0.0000
  0
INSERT
  8
31
  2
RECT
 10
69.0436
 20
34.1829
 30
0.0000
 41
1.0000
 42
1.1000
 43
1.0000
 50
90.0000
  0
INSERT
  8
31
  2
RECT
 10
69.0436
 20
35.8830
 30
0.0000
 41
1.0000
 42
1.1000
 43
1.0000
 50
90.0000
  0
INSERT
  8
31
  2
RECT
 10
69.3048
 20
45.9042
 30
0.0000
 41
1.1000
 42
1.0000
 43
1.0000
 50
0.0000
  0
INSERT
  8
31
  2
RECT
 10
71.0048
 20
45.9042
 30
0.0000
 41
1.1000
 42
1.0000
 43
1.0000
 50
0.0000
  0
INSERT
  8
31
  2
RECT
 10
67.8507
 20
44.3103
 30
0.0000
 41
1.1000
 42
1.0000
 43
1.0000
 50
0.0000
  0
INSERT
  8
31
  2
RECT
 10
69.5507
 20
44.3103
 30
0.0000
 41
1.1000
 42
1.0000
 43
1.0000
 50
0.0000
  0
INSERT
  8
31
  2
RECT
 10
74.1236
 20
37.7880
 30
0.0000
 41
1.1000
 42
1.0000
 43
1.0000
 50
270.0000
  0
INSERT
  8
31
  2
RECT
 10
74.1236
 20
36.0879
 30
0.0000
 41
1.1000
 42
1.0000
 43
1.0000
 50
270.0000
  0
INSERT
  8
31
  2
RECT
 10
78.9804
 20
46.2852
 30
0.0000
 41
1.1000
 42
1.0000
 43
1.0000
 50
180.0000
  0
INSERT
  8
31
  2
RECT
 10
77.2804
 20
46.2852
 30
0.0000
 41
1.1000
 42
1.0000
 43
1.0000
 50
180.0000
  0
INSERT
  8
31
  2
RECT
 10
69.8618
 20
41.1035
 30
0.0000
 41
1.0000
 42
1.1000
 43
1.0000
 50
180.0000
  0
INSERT
  8
31
  2
RECT
 10
68.1618
 20
41.1035
 30
0.0000
 41
1.0000
 42
1.1000
 43
1.0000
 50
180.0000
  0
INSERT
  8
31
  2
RECT
 10
70.9286
 20
39.6684
 30
0.0000
 41
1.0000
 42
1.1000
 43
1.0000
 50
180.0000
  0
INSERT
  8
31
  2
RECT
 10
69.2286
 20
39.6684
 30
0.0000
 41
1.0000
 42
1.1000
 43
1.0000
 50
180.0000
  0
INSERT
  8
31
  2
RECT
 10
50.3809
 20
20.6938
 30
0.0000
 41
1.1000
 42
1.0000
 43
1.0000
 50
270.0000
  0
INSERT
  8
31
  2
RECT
 10
50.3809
 20
18.9938
 30
0.0000
 41
1.1000
 42
1.0000
 43
1.0000
 50
270.0000
  0
INSERT
  8
31
  2
RECT
 10
51.9684
 20
20.6938
 30
0.0000
 41
1.1000
 42
1.0000
 43
1.0000
 50
270.0000
  0
INSERT
  8
31
  2
RECT
 10
51.9684
 20
18.9938
 30
0.0000
 41
1.1000
 42
1.0000
 43
1.0000
 50
270.0000
  0
INSERT
  8
31
  2
RECT
 10
64.4525
 20
20.6938
 30
0.0000
 41
1.1000
 42
1.0000
 43
1.0000
 50
270.0000
  0
INSERT
  8
31
  2
RECT
 10
64.4525
 20
18.9938
 30
0.0000
 41
1.1000
 42
1.0000
 43
1.0000
 50
270.0000
  0
INSERT
  8
31
  2
RECT
 10
53.3409
 20
23.6474
 30
0.0000
 41
1.1000
 42
1.0000
 43
1.0000
 50
0.0000
  0
INSERT
  8
31
  2
RECT
 10
55.0409
 20
23.6474
 30
0.0000
 41
1.1000
 42
1.0000
 43
1.0000
 50
0.0000
  0
INSERT
  8
31
  2
RECT
 10
53.3409
 20
16.0274
 30
0.0000
 41
1.1000
 42
1.0000
 43
1.0000
 50
0.0000
  0
INSERT
  8
31
  2
RECT
 10
55.0409
 20
16.0274
 30
0.0000
 41
1.1000
 42
1.0000
 43
1.0000
 50
0.0000
  0
INSERT
  8
31
  2
RECT
 10
46.9909
 20
19.0500
 30
0.0000
 41
1.0000
 42
1.1000
 43
1.0000
 50
0.0000
  0
INSERT
  8
31
  2
RECT
 10
48.6909
 20
19.0500
 30
0.0000
 41
1.0000
 42
1.1000
 43
1.0000
 50
0.0000
  0
INSERT
  8
31
  2
RECT
 10
50.3247
 20
17.6149
 30
0.0000
 41
1.0000
 42
1.1000
 43
1.0000
 50
0.0000
  0
INSERT
  8
31
  2
RECT
 10
52.0247
 20
17.6149
 30
0.0000
 41
1.0000
 42
1.1000
 43
1.0000
 50
0.0000
  0
INSERT
  8
31
  2
RECT
 10
46.9909
 20
20.6439
 30
0.0000
 41
1.0000
 42
1.1000
 43
1.0000
 50
0.0000
  0
INSERT
  8
31
  2
RECT
 10
48.6909
 20
20.6439
 30
0.0000
 41
1.0000
 42
1.1000
 43
1.0000
 50
0.0000
  0
INSERT
  8
31
  2
RECT
 10
50.3247
 20
22.2187
 30
0.0000
 41
1.0000
 42
1.1000
 43
1.0000
 50
0.0000
  0
INSERT
  8
31
  2
RECT
 10
52.0247
 20
22.2187
 30
0.0000
 41
1.0000
 42
1.1000
 43
1.0000
 50
0.0000
  0
INSERT
  8
31
  2
RECT
 10
50.3247
 20
23.6474
 30
0.0000
 41
1.0000
 42
1.1000
 43
1.0000
 50
0.0000
  0
INSERT
  8
31
  2
RECT
 10
52.0247
 20
23.6474
 30
0.0000
 41
1.0000
 42
1.1000
 43
1.0000
 50
0.0000
  0
INSERT
  8
31
  2
RECT
 10
50.3247
 20
16.0274
 30
0.0000
 41
1.0000
 42
1.1000
 43
1.0000
 50
0.0000
  0
INSERT
  8
31
  2
RECT
 10
52.0247
 20
16.0274
 30
0.0000
 41
1.0000
 42
1.1000
 43
1.0000
 50
0.0000
  0
INSERT
  8
31
  2
RECT
 10
56.3572
 20
20.7899
 30
0.0000
 41
1.0000
 42
1.1000
 43
1.0000
 50
0.0000
  0
INSERT
  8
31
  2
RECT
 10
58.0572
 20
20.7899
 30
0.0000
 41
1.0000
 42
1.1000
 43
1.0000
 50
0.0000
  0
INSERT
  8
31
  2
RECT
 10
60.7958
 20
20.7899
 30
0.0000
 41
1.0000
 42
1.1000
 43
1.0000
 50
0.0000
  0
INSERT
  8
31
  2
RECT
 10
62.4958
 20
20.7899
 30
0.0000
 41
1.0000
 42
1.1000
 43
1.0000
 50
0.0000
  0
INSERT
  8
31
  2
RECT
 10
56.3572
 20
18.8849
 30
0.0000
 41
1.0000
 42
1.1000
 43
1.0000
 50
0.0000
  0
INSERT
  8
31
  2
RECT
 10
58.0572
 20
18.8849
 30
0.0000
 41
1.0000
 42
1.1000
 43
1.0000
 50
0.0000
  0
INSERT
  8
31
  2
RECT
 10
60.7958
 20
18.8849
 30
0.0000
 41
1.0000
 42
1.1000
 43
1.0000
 50
0.0000
  0
INSERT
  8
31
  2
RECT
 10
62.4958
 20
18.8849
 30
0.0000
 41
1.0000
 42
1.1000
 43
1.0000
 50
0.0000
  0
INSERT
  8
31
  2
RECT
 10
40.5448
 20
15.8124
 30
0.0000
 41
1.1000
 42
1.0000
 43
1.0000
 50
90.0000
  0
INSERT
  8
31
  2
RECT
 10
40.5448
 20
17.5124
 30
0.0000
 41
1.1000
 42
1.0000
 43
1.0000
 50
90.0000
  0
INSERT
  8
31
  2
RECT
 10
74.1236
 20
8.2541
 30
0.0000
 41
1.1000
 42
1.0000
 43
1.0000
 50
270.0000
  0
INSERT
  8
31
  2
RECT
 10
74.1236
 20
6.5541
 30
0.0000
 41
1.1000
 42
1.0000
 43
1.0000
 50
270.0000
  0
INSERT
  8
31
  2
RECT
 10
67.7173
 20
6.6104
 30
0.0000
 41
1.1000
 42
1.0000
 43
1.0000
 50
0.0000
  0
INSERT
  8
31
  2
RECT
 10
69.4173
 20
6.6104
 30
0.0000
 41
1.1000
 42
1.0000
 43
1.0000
 50
0.0000
  0
INSERT
  8
31
  2
RECT
 10
70.7336
 20
12.6429
 30
0.0000
 41
1.1000
 42
1.0000
 43
1.0000
 50
0.0000
  0
INSERT
  8
31
  2
RECT
 10
72.4335
 20
12.6429
 30
0.0000
 41
1.1000
 42
1.0000
 43
1.0000
 50
0.0000
  0
INSERT
  8
31
  2
RECT
 10
70.7336
 20
14.2304
 30
0.0000
 41
1.1000
 42
1.0000
 43
1.0000
 50
0.0000
  0
INSERT
  8
31
  2
RECT
 10
72.4335
 20
14.2304
 30
0.0000
 41
1.1000
 42
1.0000
 43
1.0000
 50
0.0000
  0
INSERT
  8
31
  2
RECT
 10
68.8848
 20
10.8404
 30
0.0000
 41
1.0000
 42
1.1000
 43
1.0000
 50
90.0000
  0
INSERT
  8
31
  2
RECT
 10
68.8848
 20
12.5404
 30
0.0000
 41
1.0000
 42
1.1000
 43
1.0000
 50
90.0000
  0
INSERT
  8
31
  2
RECT
 10
70.2573
 20
4.7054
 30
0.0000
 41
1.0000
 42
1.1000
 43
1.0000
 50
0.0000
  0
INSERT
  8
31
  2
RECT
 10
71.9573
 20
4.7054
 30
0.0000
 41
1.0000
 42
1.1000
 43
1.0000
 50
0.0000
  0
INSERT
  8
31
  2
RECT
 10
69.2985
 20
22.4155
 30
0.0000
 41
1.1000
 42
1.0000
 43
1.0000
 50
0.0000
  0
INSERT
  8
31
  2
RECT
 10
70.9985
 20
22.4155
 30
0.0000
 41
1.1000
 42
1.0000
 43
1.0000
 50
0.0000
  0
INSERT
  8
31
  2
RECT
 10
67.8507
 20
20.9741
 30
0.0000
 41
1.1000
 42
1.0000
 43
1.0000
 50
0.0000
  0
INSERT
  8
31
  2
RECT
 10
69.5507
 20
20.9741
 30
0.0000
 41
1.1000
 42
1.0000
 43
1.0000
 50
0.0000
  0
INSERT
  8
31
  2
RECT
 10
73.9648
 20
14.6041
 30
0.0000
 41
1.1000
 42
1.0000
 43
1.0000
 50
270.0000
  0
INSERT
  8
31
  2
RECT
 10
73.9648
 20
12.9041
 30
0.0000
 41
1.1000
 42
1.0000
 43
1.0000
 50
270.0000
  0
INSERT
  8
31
  2
RECT
 10
78.9804
 20
22.7965
 30
0.0000
 41
1.1000
 42
1.0000
 43
1.0000
 50
180.0000
  0
INSERT
  8
31
  2
RECT
 10
77.2804
 20
22.7965
 30
0.0000
 41
1.1000
 42
1.0000
 43
1.0000
 50
180.0000
  0
INSERT
  8
31
  2
RECT
 10
53.1813
 20
17.6212
 30
0.0000
 41
1.4500
 42
0.4500
 43
1.0000
 50
90.0000
  0
INSERT
  8
31
  2
RECT
 10
53.8313
 20
17.6212
 30
0.0000
 41
1.4500
 42
0.4500
 43
1.0000
 50
90.0000
  0
INSERT
  8
31
  2
RECT
 10
54.4813
 20
17.6212
 30
0.0000
 41
1.4500
 42
0.4500
 43
1.0000
 50
90.0000
  0
INSERT
  8
31
  2
RECT
 10
55.1313
 20
17.6212
 30
0.0000
 41
1.4500
 42
0.4500
 43
1.0000
 50
90.0000
  0
INSERT
  8
31
  2
RECT
 10
55.1313
 20
22.0213
 30
0.0000
 41
1.4500
 42
0.4500
 43
1.0000
 50
90.0000
  0
INSERT
  8
31
  2
RECT
 10
54.4813
 20
22.0213
 30
0.0000
 41
1.4500
 42
0.4500
 43
1.0000
 50
90.0000
  0
INSERT
  8
31
  2
RECT
 10
53.8313
 20
22.0213
 30
0.0000
 41
1.4500
 42
0.4500
 43
1.0000
 50
90.0000
  0
INSERT
  8
31
  2
RECT
 10
53.1813
 20
22.0213
 30
0.0000
 41
1.4500
 42
0.4500
 43
1.0000
 50
90.0000
  0
INSERT
  8
31
  2
RECT
 10
43.7587
 20
21.9225
 30
0.0000
 41
0.4000
 42
0.7000
 43
1.0000
 50
270.0000
  0
INSERT
  8
31
  2
RECT
 10
43.7587
 20
21.2725
 30
0.0000
 41
0.4000
 42
0.7000
 43
1.0000
 50
270.0000
  0
INSERT
  8
31
  2
RECT
 10
43.7587
 20
20.6225
 30
0.0000
 41
0.4000
 42
0.7000
 43
1.0000
 50
270.0000
  0
INSERT
  8
31
  2
RECT
 10
45.4588
 20
20.6225
 30
0.0000
 41
0.4000
 42
0.7000
 43
1.0000
 50
270.0000
  0
INSERT
  8
31
  2
RECT
 10
45.4588
 20
21.9225
 30
0.0000
 41
0.4000
 42
0.7000
 43
1.0000
 50
270.0000
  0
INSERT
  8
31
  2
RECT
 10
70.9286
 20
16.4846
 30
0.0000
 41
1.0000
 42
1.1000
 43
1.0000
 50
180.0000
  0
INSERT
  8
31
  2
RECT
 10
69.2286
 20
16.4846
 30
0.0000
 41
1.0000
 42
1.1000
 43
1.0000
 50
180.0000
  0
INSERT
  8
31
  2
RECT
 10
69.8618
 20
17.9197
 30
0.0000
 41
1.0000
 42
1.1000
 43
1.0000
 50
180.0000
  0
INSERT
  8
31
  2
RECT
 10
68.1618
 20
17.9197
 30
0.0000
 41
1.0000
 42
1.1000
 43
1.0000
 50
180.0000
  0
INSERT
  8
31
  2
RECT
 10
70.7673
 20
6.6329
 30
0.0000
 41
0.4500
 42
1.4500
 43
1.0000
 50
0.0000
  0
INSERT
  8
31
  2
RECT
 10
71.4173
 20
6.6329
 30
0.0000
 41
0.4500
 42
1.4500
 43
1.0000
 50
0.0000
  0
INSERT
  8
31
  2
RECT
 10
72.0673
 20
6.6329
 30
0.0000
 41
0.4500
 42
1.4500
 43
1.0000
 50
0.0000
  0
INSERT
  8
31
  2
RECT
 10
72.7173
 20
6.6329
 30
0.0000
 41
0.4500
 42
1.4500
 43
1.0000
 50
0.0000
  0
INSERT
  8
31
  2
RECT
 10
72.7173
 20
11.0328
 30
0.0000
 41
0.4500
 42
1.4500
 43
1.0000
 50
0.0000
  0
INSERT
  8
31
  2
RECT
 10
72.0673
 20
11.0328
 30
0.0000
 41
0.4500
 42
1.4500
 43
1.0000
 50
0.0000
  0
INSERT
  8
31
  2
RECT
 10
71.4173
 20
11.0328
 30
0.0000
 41
0.4500
 42
1.4500
 43
1.0000
 50
0.0000
  0
INSERT
  8
31
  2
RECT
 10
70.7673
 20
11.0328
 30
0.0000
 41
0.4500
 42
1.4500
 43
1.0000
 50
0.0000
  0
INSERT
  8
31
  2
RECT
 10
47.4209
 20
23.5077
 30
0.0000
 41
1.1000
 42
1.0000
 43
1.0000
 50
180.0000
  0
INSERT
  8
31
  2
RECT
 10
45.7209
 20
23.5077
 30
0.0000
 41
1.1000
 42
1.0000
 43
1.0000
 50
180.0000
  0
INSERT
  8
31
  2
RECT
 10
43.6635
 20
19.5326
 30
0.0000
 41
1.1000
 42
1.0000
 43
1.0000
 50
0.0000
  0
INSERT
  8
31
  2
RECT
 10
45.3635
 20
19.5326
 30
0.0000
 41
1.1000
 42
1.0000
 43
1.0000
 50
0.0000
  0
INSERT
  8
31
  2
RECT
 10
43.4522
 20
23.0251
 30
0.0000
 41
1.1000
 42
1.0000
 43
1.0000
 50
180.0000
  0
INSERT
  8
31
  2
RECT
 10
41.7522
 20
23.0251
 30
0.0000
 41
1.1000
 42
1.0000
 43
1.0000
 50
180.0000
  0
INSERT
  8
31
  2
RECT
 10
43.4522
 20
24.4475
 30
0.0000
 41
1.0000
 42
1.1000
 43
1.0000
 50
180.0000
  0
INSERT
  8
31
  2
RECT
 10
41.7522
 20
24.4475
 30
0.0000
 41
1.0000
 42
1.1000
 43
1.0000
 50
180.0000
  0
INSERT
  8
31
  2
RECT
 10
43.4984
 20
25.8763
 30
0.0000
 41
1.0000
 42
1.1000
 43
1.0000
 50
0.0000
  0
INSERT
  8
31
  2
RECT
 10
45.1984
 20
25.8763
 30
0.0000
 41
1.0000
 42
1.1000
 43
1.0000
 50
0.0000
  0
INSERT
  8
31
  2
RECT
 10
43.6635
 20
18.2626
 30
0.0000
 41
1.0000
 42
1.1000
 43
1.0000
 50
0.0000
  0
INSERT
  8
31
  2
RECT
 10
45.3635
 20
18.2626
 30
0.0000
 41
1.0000
 42
1.1000
 43
1.0000
 50
0.0000
  0
INSERT
  8
31
  2
RECT
 10
40.4885
 20
20.6439
 30
0.0000
 41
1.0000
 42
1.1000
 43
1.0000
 50
0.0000
  0
INSERT
  8
31
  2
RECT
 10
42.1885
 20
20.6439
 30
0.0000
 41
1.0000
 42
1.1000
 43
1.0000
 50
0.0000
  0
INSERT
  8
31
  2
RECT
 10
70.9261
 20
76.6480
 30
0.0000
 41
0.4500
 42
1.4500
 43
1.0000
 50
0.0000
  0
INSERT
  8
31
  2
RECT
 10
71.5761
 20
76.6480
 30
0.0000
 41
0.4500
 42
1.4500
 43
1.0000
 50
0.0000
  0
INSERT
  8
31
  2
RECT
 10
72.2261
 20
76.6480
 30
0.0000
 41
0.4500
 42
1.4500
 43
1.0000
 50
0.0000
  0
INSERT
  8
31
  2
RECT
 10
72.8761
 20
76.6480
 30
0.0000
 41
0.4500
 42
1.4500
 43
1.0000
 50
0.0000
  0
INSERT
  8
31
  2
RECT
 10
72.8761
 20
81.0480
 30
0.0000
 41
0.4500
 42
1.4500
 43
1.0000
 50
0.0000
  0
INSERT
  8
31
  2
RECT
 10
72.2261
 20
81.0480
 30
0.0000
 41
0.4500
 42
1.4500
 43
1.0000
 50
0.0000
  0
INSERT
  8
31
  2
RECT
 10
71.5761
 20
81.0480
 30
0.0000
 41
0.4500
 42
1.4500
 43
1.0000
 50
0.0000
  0
INSERT
  8
31
  2
RECT
 10
70.9261
 20
81.0480
 30
0.0000
 41
0.4500
 42
1.4500
 43
1.0000
 50
0.0000
  0
INSERT
  8
31
  2
RECT
 10
70.9261
 20
53.3117
 30
0.0000
 41
0.4500
 42
1.4500
 43
1.0000
 50
0.0000
  0
INSERT
  8
31
  2
RECT
 10
71.5761
 20
53.3117
 30
0.0000
 41
0.4500
 42
1.4500
 43
1.0000
 50
0.0000
  0
INSERT
  8
31
  2
RECT
 10
72.2261
 20
53.3117
 30
0.0000
 41
0.4500
 42
1.4500
 43
1.0000
 50
0.0000
  0
INSERT
  8
31
  2
RECT
 10
72.8761
 20
53.3117
 30
0.0000
 41
0.4500
 42
1.4500
 43
1.0000
 50
0.0000
  0
INSERT
  8
31
  2
RECT
 10
72.8761
 20
57.7117
 30
0.0000
 41
0.4500
 42
1.4500
 43
1.0000
 50
0.0000
  0
INSERT
  8
31
  2
RECT
 10
72.2261
 20
57.7117
 30
0.0000
 41
0.4500
 42
1.4500
 43
1.0000
 50
0.0000
  0
INSERT
  8
31
  2
RECT
 10
71.5761
 20
57.7117
 30
0.0000
 41
0.4500
 42
1.4500
 43
1.0000
 50
0.0000
  0
INSERT
  8
31
  2
RECT
 10
70.9261
 20
57.7117
 30
0.0000
 41
0.4500
 42
1.4500
 43
1.0000
 50
0.0000
  0
INSERT
  8
31
  2
RECT
 10
70.9261
 20
29.9755
 30
0.0000
 41
0.4500
 42
1.4500
 43
1.0000
 50
0.0000
  0
INSERT
  8
31
  2
RECT
 10
71.5761
 20
29.9755
 30
0.0000
 41
0.4500
 42
1.4500
 43
1.0000
 50
0.0000
  0
INSERT
  8
31
  2
RECT
 10
72.2261
 20
29.9755
 30
0.0000
 41
0.4500
 42
1.4500
 43
1.0000
 50
0.0000
  0
INSERT
  8
31
  2
RECT
 10
72.8761
 20
29.9755
 30
0.0000
 41
0.4500
 42
1.4500
 43
1.0000
 50
0.0000
  0
INSERT
  8
31
  2
RECT
 10
72.8761
 20
34.3755
 30
0.0000
 41
0.4500
 42
1.4500
 43
1.0000
 50
0.0000
  0
INSERT
  8
31
  2
RECT
 10
72.2261
 20
34.3755
 30
0.0000
 41
0.4500
 42
1.4500
 43
1.0000
 50
0.0000
  0
INSERT
  8
31
  2
RECT
 10
71.5761
 20
34.3755
 30
0.0000
 41
0.4500
 42
1.4500
 43
1.0000
 50
0.0000
  0
INSERT
  8
31
  2
RECT
 10
70.9261
 20
34.3755
 30
0.0000
 41
0.4500
 42
1.4500
 43
1.0000
 50
0.0000
  0
INSERT
  8
31
  2
RECT
 10
71.2712
 20
91.0564
 30
0.0000
 41
1.2000
 42
0.3000
 43
1.0000
 50
180.0000
  0
INSERT
  8
31
  2
RECT
 10
71.2712
 20
90.5564
 30
0.0000
 41
1.2000
 42
0.3000
 43
1.0000
 50
180.0000
  0
INSERT
  8
31
  2
RECT
 10
71.2712
 20
90.0564
 30
0.0000
 41
1.2000
 42
0.3000
 43
1.0000
 50
180.0000
  0
INSERT
  8
31
  2
RECT
 10
71.2712
 20
89.5564
 30
0.0000
 41
1.2000
 42
0.3000
 43
1.0000
 50
180.0000
  0
INSERT
  8
31
  2
RECT
 10
71.2712
 20
89.0564
 30
0.0000
 41
1.2000
 42
0.3000
 43
1.0000
 50
180.0000
  0
INSERT
  8
31
  2
RECT
 10
71.2712
 20
88.5564
 30
0.0000
 41
1.2000
 42
0.3000
 43
1.0000
 50
180.0000
  0
INSERT
  8
31
  2
RECT
 10
71.2712
 20
88.0564
 30
0.0000
 41
1.2000
 42
0.3000
 43
1.0000
 50
180.0000
  0
INSERT
  8
31
  2
RECT
 10
71.2712
 20
87.5564
 30
0.0000
 41
1.2000
 42
0.3000
 43
1.0000
 50
180.0000
  0
INSERT
  8
31
  2
RECT
 10
72.6212
 20
86.2064
 30
0.0000
 41
1.2000
 42
0.3000
 43
1.0000
 50
90.0000
  0
INSERT
  8
31
  2
RECT
 10
73.1212
 20
86.2064
 30
0.0000
 41
1.2000
 42
0.3000
 43
1.0000
 50
90.0000
  0
INSERT
  8
31
  2
RECT
 10
73.6212
 20
86.2064
 30
0.0000
 41
1.2000
 42
0.3000
 43
1.0000
 50
90.0000
  0
INSERT
  8
31
  2
RECT
 10
74.1212
 20
86.2064
 30
0.0000
 41
1.2000
 42
0.3000
 43
1.0000
 50
90.0000
  0
INSERT
  8
31
  2
RECT
 10
74.6212
 20
86.2064
 30
0.0000
 41
1.2000
 42
0.3000
 43
1.0000
 50
90.0000
  0
INSERT
  8
31
  2
RECT
 10
75.1212
 20
86.2064
 30
0.0000
 41
1.2000
 42
0.3000
 43
1.0000
 50
90.0000
  0
INSERT
  8
31
  2
RECT
 10
75.6212
 20
86.2064
 30
0.0000
 41
1.2000
 42
0.3000
 43
1.0000
 50
90.0000
  0
INSERT
  8
31
  2
RECT
 10
76.1212
 20
86.2064
 30
0.0000
 41
1.2000
 42
0.3000
 43
1.0000
 50
90.0000
  0
INSERT
  8
31
  2
RECT
 10
77.4712
 20
87.5564
 30
0.0000
 41
1.2000
 42
0.3000
 43
1.0000
 50
180.0000
  0
INSERT
  8
31
  2
RECT
 10
77.4712
 20
88.0564
 30
0.0000
 41
1.2000
 42
0.3000
 43
1.0000
 50
180.0000
  0
INSERT
  8
31
  2
RECT
 10
77.4712
 20
88.5564
 30
0.0000
 41
1.2000
 42
0.3000
 43
1.0000
 50
180.0000
  0
INSERT
  8
31
  2
RECT
 10
77.4712
 20
89.0564
 30
0.0000
 41
1.2000
 42
0.3000
 43
1.0000
 50
180.0000
  0
INSERT
  8
31
  2
RECT
 10
77.4712
 20
89.5564
 30
0.0000
 41
1.2000
 42
0.3000
 43
1.0000
 50
180.0000
  0
INSERT
  8
31
  2
RECT
 10
77.4712
 20
90.0564
 30
0.0000
 41
1.2000
 42
0.3000
 43
1.0000
 50
180.0000
  0
INSERT
  8
31
  2
RECT
 10
77.4712
 20
90.5564
 30
0.0000
 41
1.2000
 42
0.3000
 43
1.0000
 50
180.0000
  0
INSERT
  8
31
  2
RECT
 10
77.4712
 20
91.0564
 30
0.0000
 41
1.2000
 42
0.3000
 43
1.0000
 50
180.0000
  0
INSERT
  8
31
  2
RECT
 10
76.1212
 20
92.4064
 30
0.0000
 41
1.2000
 42
0.3000
 43
1.0000
 50
90.0000
  0
INSERT
  8
31
  2
RECT
 10
75.6212
 20
92.4064
 30
0.0000
 41
1.2000
 42
0.3000
 43
1.0000
 50
90.0000
  0
INSERT
  8
31
  2
RECT
 10
75.1212
 20
92.4064
 30
0.0000
 41
1.2000
 42
0.3000
 43
1.0000
 50
90.0000
  0
INSERT
  8
31
  2
RECT
 10
74.6212
 20
92.4064
 30
0.0000
 41
1.2000
 42
0.3000
 43
1.0000
 50
90.0000
  0
INSERT
  8
31
  2
RECT
 10
74.1212
 20
92.4064
 30
0.0000
 41
1.2000
 42
0.3000
 43
1.0000
 50
90.0000
  0
INSERT
  8
31
  2
RECT
 10
73.6212
 20
92.4064
 30
0.0000
 41
1.2000
 42
0.3000
 43
1.0000
 50
90.0000
  0
INSERT
  8
31
  2
RECT
 10
73.1212
 20
92.4064
 30
0.0000
 41
1.2000
 42
0.3000
 43
1.0000
 50
90.0000
  0
INSERT
  8
31
  2
RECT
 10
72.6212
 20
92.4064
 30
0.0000
 41
1.2000
 42
0.3000
 43
1.0000
 50
90.0000
  0
INSERT
  8
31
  2
RECT
 10
71.2712
 20
67.7392
 30
0.0000
 41
1.2000
 42
0.3000
 43
1.0000
 50
180.0000
  0
INSERT
  8
31
  2
RECT
 10
71.2712
 20
67.2392
 30
0.0000
 41
1.2000
 42
0.3000
 43
1.0000
 50
180.0000
  0
INSERT
  8
31
  2
RECT
 10
71.2712
 20
66.7392
 30
0.0000
 41
1.2000
 42
0.3000
 43
1.0000
 50
180.0000
  0
INSERT
  8
31
  2
RECT
 10
71.2712
 20
66.2392
 30
0.0000
 41
1.2000
 42
0.3000
 43
1.0000
 50
180.0000
  0
INSERT
  8
31
  2
RECT
 10
71.2712
 20
65.7392
 30
0.0000
 41
1.2000
 42
0.3000
 43
1.0000
 50
180.0000
  0
INSERT
  8
31
  2
RECT
 10
71.2712
 20
65.2392
 30
0.0000
 41
1.2000
 42
0.3000
 43
1.0000
 50
180.0000
  0
INSERT
  8
31
  2
RECT
 10
71.2712
 20
64.7392
 30
0.0000
 41
1.2000
 42
0.3000
 43
1.0000
 50
180.0000
  0
INSERT
  8
31
  2
RECT
 10
71.2712
 20
64.2392
 30
0.0000
 41
1.2000
 42
0.3000
 43
1.0000
 50
180.0000
  0
INSERT
  8
31
  2
RECT
 10
72.6212
 20
62.8892
 30
0.0000
 41
1.2000
 42
0.3000
 43
1.0000
 50
90.0000
  0
INSERT
  8
31
  2
RECT
 10
73.1212
 20
62.8892
 30
0.0000
 41
1.2000
 42
0.3000
 43
1.0000
 50
90.0000
  0
INSERT
  8
31
  2
RECT
 10
73.6212
 20
62.8892
 30
0.0000
 41
1.2000
 42
0.3000
 43
1.0000
 50
90.0000
  0
INSERT
  8
31
  2
RECT
 10
74.1212
 20
62.8892
 30
0.0000
 41
1.2000
 42
0.3000
 43
1.0000
 50
90.0000
  0
INSERT
  8
31
  2
RECT
 10
74.6212
 20
62.8892
 30
0.0000
 41
1.2000
 42
0.3000
 43
1.0000
 50
90.0000
  0
INSERT
  8
31
  2
RECT
 10
75.1212
 20
62.8892
 30
0.0000
 41
1.2000
 42
0.3000
 43
1.0000
 50
90.0000
  0
INSERT
  8
31
  2
RECT
 10
75.6212
 20
62.8892
 30
0.0000
 41
1.2000
 42
0.3000
 43
1.0000
 50
90.0000
  0
INSERT
  8
31
  2
RECT
 10
76.1212
 20
62.8892
 30
0.0000
 41
1.2000
 42
0.3000
 43
1.0000
 50
90.0000
  0
INSERT
  8
31
  2
RECT
 10
77.4712
 20
64.2392
 30
0.0000
 41
1.2000
 42
0.3000
 43
1.0000
 50
180.0000
  0
INSERT
  8
31
  2
RECT
 10
77.4712
 20
64.7392
 30
0.0000
 41
1.2000
 42
0.3000
 43
1.0000
 50
180.0000
  0
INSERT
  8
31
  2
RECT
 10
77.4712
 20
65.2392
 30
0.0000
 41
1.2000
 42
0.3000
 43
1.0000
 50
180.0000
  0
INSERT
  8
31
  2
RECT
 10
77.4712
 20
65.7392
 30
0.0000
 41
1.2000
 42
0.3000
 43
1.0000
 50
180.0000
  0
INSERT
  8
31
  2
RECT
 10
77.4712
 20
66.2392
 30
0.0000
 41
1.2000
 42
0.3000
 43
1.0000
 50
180.0000
  0
INSERT
  8
31
  2
RECT
 10
77.4712
 20
66.7392
 30
0.0000
 41
1.2000
 42
0.3000
 43
1.0000
 50
180.0000
  0
INSERT
  8
31
  2
RECT
 10
77.4712
 20
67.2392
 30
0.0000
 41
1.2000
 42
0.3000
 43
1.0000
 50
180.0000
  0
INSERT
  8
31
  2
RECT
 10
77.4712
 20
67.7392
 30
0.0000
 41
1.2000
 42
0.3000
 43
1.0000
 50
180.0000
  0
INSERT
  8
31
  2
RECT
 10
76.1212
 20
69.0892
 30
0.0000
 41
1.2000
 42
0.3000
 43
1.0000
 50
90.0000
  0
INSERT
  8
31
  2
RECT
 10
75.6212
 20
69.0892
 30
0.0000
 41
1.2000
 42
0.3000
 43
1.0000
 50
90.0000
  0
INSERT
  8
31
  2
RECT
 10
75.1212
 20
69.0892
 30
0.0000
 41
1.2000
 42
0.3000
 43
1.0000
 50
90.0000
  0
INSERT
  8
31
  2
RECT
 10
74.6212
 20
69.0892
 30
0.0000
 41
1.2000
 42
0.3000
 43
1.0000
 50
90.0000
  0
INSERT
  8
31
  2
RECT
 10
74.1212
 20
69.0892
 30
0.0000
 41
1.2000
 42
0.3000
 43
1.0000
 50
90.0000
  0
INSERT
  8
31
  2
RECT
 10
73.6212
 20
69.0892
 30
0.0000
 41
1.2000
 42
0.3000
 43
1.0000
 50
90.0000
  0
INSERT
  8
31
  2
RECT
 10
73.1212
 20
69.0892
 30
0.0000
 41
1.2000
 42
0.3000
 43
1.0000
 50
90.0000
  0
INSERT
  8
31
  2
RECT
 10
72.6212
 20
69.0892
 30
0.0000
 41
1.2000
 42
0.3000
 43
1.0000
 50
90.0000
  0
INSERT
  8
31
  2
RECT
 10
71.2712
 20
44.4220
 30
0.0000
 41
1.2000
 42
0.3000
 43
1.0000
 50
180.0000
  0
INSERT
  8
31
  2
RECT
 10
71.2712
 20
43.9220
 30
0.0000
 41
1.2000
 42
0.3000
 43
1.0000
 50
180.0000
  0
INSERT
  8
31
  2
RECT
 10
71.2712
 20
43.4220
 30
0.0000
 41
1.2000
 42
0.3000
 43
1.0000
 50
180.0000
  0
INSERT
  8
31
  2
RECT
 10
71.2712
 20
42.9220
 30
0.0000
 41
1.2000
 42
0.3000
 43
1.0000
 50
180.0000
  0
INSERT
  8
31
  2
RECT
 10
71.2712
 20
42.4220
 30
0.0000
 41
1.2000
 42
0.3000
 43
1.0000
 50
180.0000
  0
INSERT
  8
31
  2
RECT
 10
71.2712
 20
41.9220
 30
0.0000
 41
1.2000
 42
0.3000
 43
1.0000
 50
180.0000
  0
INSERT
  8
31
  2
RECT
 10
71.2712
 20
41.4220
 30
0.0000
 41
1.2000
 42
0.3000
 43
1.0000
 50
180.0000
  0
INSERT
  8
31
  2
RECT
 10
71.2712
 20
40.9220
 30
0.0000
 41
1.2000
 42
0.3000
 43
1.0000
 50
180.0000
  0
INSERT
  8
31
  2
RECT
 10
72.6212
 20
39.5720
 30
0.0000
 41
1.2000
 42
0.3000
 43
1.0000
 50
90.0000
  0
INSERT
  8
31
  2
RECT
 10
73.1212
 20
39.5720
 30
0.0000
 41
1.2000
 42
0.3000
 43
1.0000
 50
90.0000
  0
INSERT
  8
31
  2
RECT
 10
73.6212
 20
39.5720
 30
0.0000
 41
1.2000
 42
0.3000
 43
1.0000
 50
90.0000
  0
INSERT
  8
31
  2
RECT
 10
74.1212
 20
39.5720
 30
0.0000
 41
1.2000
 42
0.3000
 43
1.0000
 50
90.0000
  0
INSERT
  8
31
  2
RECT
 10
74.6212
 20
39.5720
 30
0.0000
 41
1.2000
 42
0.3000
 43
1.0000
 50
90.0000
  0
INSERT
  8
31
  2
RECT
 10
75.1212
 20
39.5720
 30
0.0000
 41
1.2000
 42
0.3000
 43
1.0000
 50
90.0000
  0
INSERT
  8
31
  2
RECT
 10
75.6212
 20
39.5720
 30
0.0000
 41
1.2000
 42
0.3000
 43
1.0000
 50
90.0000
  0
INSERT
  8
31
  2
RECT
 10
76.1212
 20
39.5720
 30
0.0000
 41
1.2000
 42
0.3000
 43
1.0000
 50
90.0000
  0
INSERT
  8
31
  2
RECT
 10
77.4712
 20
40.9220
 30
0.0000
 41
1.2000
 42
0.3000
 43
1.0000
 50
180.0000
  0
INSERT
  8
31
  2
RECT
 10
77.4712
 20
41.4220
 30
0.0000
 41
1.2000
 42
0.3000
 43
1.0000
 50
180.0000
  0
INSERT
  8
31
  2
RECT
 10
77.4712
 20
41.9220
 30
0.0000
 41
1.2000
 42
0.3000
 43
1.0000
 50
180.0000
  0
INSERT
  8
31
  2
RECT
 10
77.4712
 20
42.4220
 30
0.0000
 41
1.2000
 42
0.3000
 43
1.0000
 50
180.0000
  0
INSERT
  8
31
  2
RECT
 10
77.4712
 20
42.9220
 30
0.0000
 41
1.2000
 42
0.3000
 43
1.0000
 50
180.0000
  0
INSERT
  8
31
  2
RECT
 10
77.4712
 20
43.4220
 30
0.0000
 41
1.2000
 42
0.3000
 43
1.0000
 50
180.0000
  0
INSERT
  8
31
  2
RECT
 10
77.4712
 20
43.9220
 30
0.0000
 41
1.2000
 42
0.3000
 43
1.0000
 50
180.0000
  0
INSERT
  8
31
  2
RECT
 10
77.4712
 20
44.4220
 30
0.0000
 41
1.2000
 42
0.3000
 43
1.0000
 50
180.0000
  0
INSERT
  8
31
  2
RECT
 10
76.1212
 20
45.7720
 30
0.0000
 41
1.2000
 42
0.3000
 43
1.0000
 50
90.0000
  0
INSERT
  8
31
  2
RECT
 10
75.6212
 20
45.7720
 30
0.0000
 41
1.2000
 42
0.3000
 43
1.0000
 50
90.0000
  0
INSERT
  8
31
  2
RECT
 10
75.1212
 20
45.7720
 30
0.0000
 41
1.2000
 42
0.3000
 43
1.0000
 50
90.0000
  0
INSERT
  8
31
  2
RECT
 10
74.6212
 20
45.7720
 30
0.0000
 41
1.2000
 42
0.3000
 43
1.0000
 50
90.0000
  0
INSERT
  8
31
  2
RECT
 10
74.1212
 20
45.7720
 30
0.0000
 41
1.2000
 42
0.3000
 43
1.0000
 50
90.0000
  0
INSERT
  8
31
  2
RECT
 10
73.6212
 20
45.7720
 30
0.0000
 41
1.2000
 42
0.3000
 43
1.0000
 50
90.0000
  0
INSERT
  8
31
  2
RECT
 10
73.1212
 20
45.7720
 30
0.0000
 41
1.2000
 42
0.3000
 43
1.0000
 50
90.0000
  0
INSERT
  8
31
  2
RECT
 10
72.6212
 20
45.7720
 30
0.0000
 41
1.2000
 42
0.3000
 43
1.0000
 50
90.0000
  0
INSERT
  8
31
  2
RECT
 10
71.2712
 20
21.1048
 30
0.0000
 41
1.2000
 42
0.3000
 43
1.0000
 50
180.0000
  0
INSERT
  8
31
  2
RECT
 10
71.2712
 20
20.6048
 30
0.0000
 41
1.2000
 42
0.3000
 43
1.0000
 50
180.0000
  0
INSERT
  8
31
  2
RECT
 10
71.2712
 20
20.1048
 30
0.0000
 41
1.2000
 42
0.3000
 43
1.0000
 50
180.0000
  0
INSERT
  8
31
  2
RECT
 10
71.2712
 20
19.6048
 30
0.0000
 41
1.2000
 42
0.3000
 43
1.0000
 50
180.0000
  0
INSERT
  8
31
  2
RECT
 10
71.2712
 20
19.1048
 30
0.0000
 41
1.2000
 42
0.3000
 43
1.0000
 50
180.0000
  0
INSERT
  8
31
  2
RECT
 10
71.2712
 20
18.6048
 30
0.0000
 41
1.2000
 42
0.3000
 43
1.0000
 50
180.0000
  0
INSERT
  8
31
  2
RECT
 10
71.2712
 20
18.1048
 30
0.0000
 41
1.2000
 42
0.3000
 43
1.0000
 50
180.0000
  0
INSERT
  8
31
  2
RECT
 10
71.2712
 20
17.6048
 30
0.0000
 41
1.2000
 42
0.3000
 43
1.0000
 50
180.0000
  0
INSERT
  8
31
  2
RECT
 10
72.6212
 20
16.2548
 30
0.0000
 41
1.2000
 42
0.3000
 43
1.0000
 50
90.0000
  0
INSERT
  8
31
  2
RECT
 10
73.1212
 20
16.2548
 30
0.0000
 41
1.2000
 42
0.3000
 43
1.0000
 50
90.0000
  0
INSERT
  8
31
  2
RECT
 10
73.6212
 20
16.2548
 30
0.0000
 41
1.2000
 42
0.3000
 43
1.0000
 50
90.0000
  0
INSERT
  8
31
  2
RECT
 10
74.1212
 20
16.2548
 30
0.0000
 41
1.2000
 42
0.3000
 43
1.0000
 50
90.0000
  0
INSERT
  8
31
  2
RECT
 10
74.6212
 20
16.2548
 30
0.0000
 41
1.2000
 42
0.3000
 43
1.0000
 50
90.0000
  0
INSERT
  8
31
  2
RECT
 10
75.1212
 20
16.2548
 30
0.0000
 41
1.2000
 42
0.3000
 43
1.0000
 50
90.0000
  0
INSERT
  8
31
  2
RECT
 10
75.6212
 20
16.2548
 30
0.0000
 41
1.2000
 42
0.3000
 43
1.0000
 50
90.0000
  0
INSERT
  8
31
  2
RECT
 10
76.1212
 20
16.2548
 30
0.0000
 41
1.2000
 42
0.3000
 43
1.0000
 50
90.0000
  0
INSERT
  8
31
  2
RECT
 10
77.4712
 20
17.6048
 30
0.0000
 41
1.2000
 42
0.3000
 43
1.0000
 50
180.0000
  0
INSERT
  8
31
  2
RECT
 10
77.4712
 20
18.1048
 30
0.0000
 41
1.2000
 42
0.3000
 43
1.0000
 50
180.0000
  0
INSERT
  8
31
  2
RECT
 10
77.4712
 20
18.6048
 30
0.0000
 41
1.2000
 42
0.3000
 43
1.0000
 50
180.0000
  0
INSERT
  8
31
  2
RECT
 10
77.4712
 20
19.1048
 30
0.0000
 41
1.2000
 42
0.3000
 43
1.0000
 50
180.0000
  0
INSERT
  8
31
  2
RECT
 10
77.4712
 20
19.6048
 30
0.0000
 41
1.2000
 42
0.3000
 43
1.0000
 50
180.0000
  0
INSERT
  8
31
  2
RECT
 10
77.4712
 20
20.1048
 30
0.0000
 41
1.2000
 42
0.3000
 43
1.0000
 50
180.0000
  0
INSERT
  8
31
  2
RECT
 10
77.4712
 20
20.6048
 30
0.0000
 41
1.2000
 42
0.3000
 43
1.0000
 50
180.0000
  0
INSERT
  8
31
  2
RECT
 10
77.4712
 20
21.1048
 30
0.0000
 41
1.2000
 42
0.3000
 43
1.0000
 50
180.0000
  0
INSERT
  8
31
  2
RECT
 10
76.1212
 20
22.4548
 30
0.0000
 41
1.2000
 42
0.3000
 43
1.0000
 50
90.0000
  0
INSERT
  8
31
  2
RECT
 10
75.6212
 20
22.4548
 30
0.0000
 41
1.2000
 42
0.3000
 43
1.0000
 50
90.0000
  0
INSERT
  8
31
  2
RECT
 10
75.1212
 20
22.4548
 30
0.0000
 41
1.2000
 42
0.3000
 43
1.0000
 50
90.0000
  0
INSERT
  8
31
  2
RECT
 10
74.6212
 20
22.4548
 30
0.0000
 41
1.2000
 42
0.3000
 43
1.0000
 50
90.0000
  0
INSERT
  8
31
  2
RECT
 10
74.1212
 20
22.4548
 30
0.0000
 41
1.2000
 42
0.3000
 43
1.0000
 50
90.0000
  0
INSERT
  8
31
  2
RECT
 10
73.6212
 20
22.4548
 30
0.0000
 41
1.2000
 42
0.3000
 43
1.0000
 50
90.0000
  0
INSERT
  8
31
  2
RECT
 10
73.1212
 20
22.4548
 30
0.0000
 41
1.2000
 42
0.3000
 43
1.0000
 50
90.0000
  0
INSERT
  8
31
  2
RECT
 10
72.6212
 20
22.4548
 30
0.0000
 41
1.2000
 42
0.3000
 43
1.0000
 50
90.0000
  0
ENDSEC
  0
EOF
