G75*
%MOIN*%
%OFA0B0*%
%FSLAX25Y25*%
%IPPOS*%
%LPD*%
%AMOC8*
5,1,8,0,0,1.08239X$1,22.5*
%
%ADD10C,0.06000*%
%ADD11C,0.05937*%
%ADD12C,0.07795*%
%ADD13C,0.02584*%
%ADD14C,0.00600*%
D10*
X0248600Y0073475D03*
X0248600Y0083475D03*
X0248600Y0165325D03*
X0248600Y0175325D03*
X0248600Y0256600D03*
X0248600Y0266600D03*
X0248600Y0348500D03*
X0248600Y0358500D03*
D11*
X0071100Y0318575D03*
X0061100Y0318575D03*
X0026500Y0310400D03*
X0026500Y0300400D03*
X0026500Y0286400D03*
X0026500Y0276400D03*
X0026500Y0262400D03*
X0026500Y0252400D03*
X0026500Y0238400D03*
X0026500Y0228400D03*
X0026500Y0214400D03*
X0026500Y0204400D03*
X0026500Y0190400D03*
X0026500Y0180400D03*
X0026500Y0166400D03*
X0026500Y0156400D03*
X0026500Y0142400D03*
X0026500Y0132400D03*
X0026500Y0118400D03*
X0026500Y0108400D03*
X0061100Y0134802D03*
X0071100Y0134802D03*
X0071100Y0226700D03*
X0061100Y0226700D03*
X0026500Y0348400D03*
X0026500Y0358400D03*
X0061100Y0042950D03*
X0071100Y0042950D03*
X0248500Y0043600D03*
X0248500Y0033600D03*
X0248500Y0023600D03*
D12*
X0264700Y0209757D03*
X0264700Y0219600D03*
D13*
X0235300Y0256200D03*
X0225700Y0270000D03*
X0216100Y0266400D03*
X0211900Y0281400D03*
X0201700Y0264600D03*
X0196900Y0271800D03*
X0192700Y0271800D03*
X0188500Y0271800D03*
X0186100Y0261000D03*
X0189100Y0256200D03*
X0196900Y0256200D03*
X0179800Y0247125D03*
X0173500Y0248400D03*
X0169300Y0261600D03*
X0176500Y0262800D03*
X0168100Y0274200D03*
X0173500Y0280200D03*
X0178550Y0294625D03*
X0174800Y0302125D03*
X0168550Y0302125D03*
X0180425Y0318375D03*
X0176675Y0322750D03*
X0180425Y0339000D03*
X0173500Y0340200D03*
X0169300Y0354000D03*
X0177100Y0354600D03*
X0186100Y0352800D03*
X0189100Y0348000D03*
X0196900Y0348000D03*
X0201700Y0356400D03*
X0197500Y0363600D03*
X0192700Y0363600D03*
X0188500Y0363600D03*
X0186700Y0372000D03*
X0190900Y0372000D03*
X0195100Y0372000D03*
X0199300Y0372000D03*
X0211900Y0373200D03*
X0214300Y0358800D03*
X0223300Y0362400D03*
X0234100Y0348600D03*
X0196300Y0328800D03*
X0189800Y0312125D03*
X0190900Y0280200D03*
X0195100Y0280200D03*
X0199300Y0280200D03*
X0186700Y0280200D03*
X0192925Y0234000D03*
X0189800Y0220250D03*
X0180425Y0226500D03*
X0176675Y0230875D03*
X0174800Y0210250D03*
X0167925Y0210250D03*
X0177925Y0202750D03*
X0174100Y0188400D03*
X0168100Y0182400D03*
X0169300Y0169800D03*
X0176500Y0171000D03*
X0186100Y0169200D03*
X0189100Y0164400D03*
X0196900Y0164400D03*
X0201700Y0172200D03*
X0196900Y0180000D03*
X0192700Y0180000D03*
X0189100Y0180000D03*
X0190900Y0188400D03*
X0195100Y0188400D03*
X0199300Y0188400D03*
X0186700Y0188400D03*
X0179800Y0155250D03*
X0173500Y0156600D03*
X0176675Y0139000D03*
X0180425Y0134625D03*
X0189800Y0128375D03*
X0192925Y0142125D03*
X0174800Y0118375D03*
X0167925Y0118375D03*
X0177925Y0110875D03*
X0174100Y0096000D03*
X0168100Y0090600D03*
X0169300Y0078600D03*
X0177100Y0079200D03*
X0186100Y0077400D03*
X0189100Y0072600D03*
X0196900Y0072600D03*
X0201700Y0081000D03*
X0196900Y0088200D03*
X0192700Y0088200D03*
X0189100Y0088200D03*
X0190900Y0096600D03*
X0195100Y0096600D03*
X0199300Y0096600D03*
X0186700Y0096600D03*
X0179800Y0063975D03*
X0173500Y0064800D03*
X0176050Y0047100D03*
X0179800Y0042725D03*
X0189175Y0037100D03*
X0192300Y0050850D03*
X0174175Y0026475D03*
X0167925Y0026475D03*
X0177300Y0018975D03*
X0216100Y0082800D03*
X0225700Y0086400D03*
X0235300Y0072600D03*
X0211900Y0097800D03*
X0235300Y0163200D03*
X0225700Y0178200D03*
X0216100Y0174000D03*
X0211900Y0190200D03*
X0115475Y0177950D03*
X0115475Y0170450D03*
X0087975Y0192950D03*
X0080475Y0184825D03*
X0076725Y0179825D03*
X0086100Y0167325D03*
X0065475Y0182950D03*
X0065475Y0195450D03*
X0079225Y0201075D03*
X0086100Y0259200D03*
X0076725Y0271700D03*
X0080475Y0276700D03*
X0087350Y0284200D03*
X0079225Y0292950D03*
X0065475Y0287325D03*
X0065475Y0274825D03*
X0115475Y0269825D03*
X0115475Y0262325D03*
X0086725Y0350450D03*
X0076725Y0363575D03*
X0080475Y0368575D03*
X0087350Y0376075D03*
X0079225Y0384825D03*
X0065475Y0379200D03*
X0064850Y0366700D03*
X0115475Y0361700D03*
X0115475Y0354200D03*
X0168100Y0366000D03*
X0174100Y0372000D03*
X0079300Y0109800D03*
X0087700Y0100200D03*
X0080500Y0093000D03*
X0076300Y0088200D03*
X0085900Y0075000D03*
X0065500Y0091200D03*
X0065500Y0104400D03*
X0115300Y0086400D03*
X0115300Y0078000D03*
D14*
X0005400Y0008500D02*
X0005400Y0399900D01*
X0296800Y0399900D01*
X0296800Y0008500D01*
X0005400Y0008500D01*
X0005400Y0008988D02*
X0296800Y0008988D01*
X0296800Y0009587D02*
X0005400Y0009587D01*
X0005400Y0010185D02*
X0296800Y0010185D01*
X0296800Y0010784D02*
X0005400Y0010784D01*
X0005400Y0011382D02*
X0296800Y0011382D01*
X0296800Y0011981D02*
X0005400Y0011981D01*
X0005400Y0012579D02*
X0296800Y0012579D01*
X0296800Y0013178D02*
X0005400Y0013178D01*
X0005400Y0013776D02*
X0296800Y0013776D01*
X0296800Y0014375D02*
X0005400Y0014375D01*
X0005400Y0014973D02*
X0296800Y0014973D01*
X0296800Y0015572D02*
X0005400Y0015572D01*
X0005400Y0016170D02*
X0296800Y0016170D01*
X0296800Y0016769D02*
X0005400Y0016769D01*
X0005400Y0017367D02*
X0175808Y0017367D01*
X0176392Y0016783D02*
X0178208Y0016783D01*
X0179492Y0018067D01*
X0179492Y0019883D01*
X0178208Y0021167D01*
X0176392Y0021167D01*
X0175108Y0019883D01*
X0175108Y0018067D01*
X0176392Y0016783D01*
X0175209Y0017966D02*
X0005400Y0017966D01*
X0005400Y0018564D02*
X0175108Y0018564D01*
X0175108Y0019163D02*
X0005400Y0019163D01*
X0005400Y0019761D02*
X0175108Y0019761D01*
X0175585Y0020360D02*
X0005400Y0020360D01*
X0005400Y0020958D02*
X0176183Y0020958D01*
X0178417Y0020958D02*
X0245671Y0020958D01*
X0245220Y0021409D02*
X0246309Y0020320D01*
X0247730Y0019731D01*
X0249269Y0019731D01*
X0250691Y0020320D01*
X0251780Y0021409D01*
X0252368Y0022830D01*
X0252368Y0024369D01*
X0251780Y0025791D01*
X0250691Y0026880D01*
X0249269Y0027468D01*
X0247730Y0027468D01*
X0246309Y0026880D01*
X0245220Y0025791D01*
X0244631Y0024369D01*
X0244631Y0022830D01*
X0245220Y0021409D01*
X0245159Y0021557D02*
X0005400Y0021557D01*
X0005400Y0022155D02*
X0244911Y0022155D01*
X0244663Y0022754D02*
X0005400Y0022754D01*
X0005400Y0023352D02*
X0244631Y0023352D01*
X0244631Y0023951D02*
X0005400Y0023951D01*
X0005400Y0024549D02*
X0166750Y0024549D01*
X0167017Y0024283D02*
X0168833Y0024283D01*
X0170117Y0025567D01*
X0170117Y0027383D01*
X0168833Y0028667D01*
X0167017Y0028667D01*
X0165733Y0027383D01*
X0165733Y0025567D01*
X0167017Y0024283D01*
X0166152Y0025148D02*
X0005400Y0025148D01*
X0005400Y0025746D02*
X0165733Y0025746D01*
X0165733Y0026345D02*
X0005400Y0026345D01*
X0005400Y0026943D02*
X0165733Y0026943D01*
X0165892Y0027542D02*
X0005400Y0027542D01*
X0005400Y0028140D02*
X0166490Y0028140D01*
X0169360Y0028140D02*
X0296800Y0028140D01*
X0296800Y0027542D02*
X0169958Y0027542D01*
X0170117Y0026943D02*
X0246463Y0026943D01*
X0245774Y0026345D02*
X0170117Y0026345D01*
X0170117Y0025746D02*
X0245202Y0025746D01*
X0244954Y0025148D02*
X0169698Y0025148D01*
X0169100Y0024549D02*
X0244706Y0024549D01*
X0246269Y0020360D02*
X0179015Y0020360D01*
X0179492Y0019761D02*
X0247659Y0019761D01*
X0249341Y0019761D02*
X0296800Y0019761D01*
X0296800Y0019163D02*
X0179492Y0019163D01*
X0179492Y0018564D02*
X0296800Y0018564D01*
X0296800Y0017966D02*
X0179391Y0017966D01*
X0178792Y0017367D02*
X0296800Y0017367D01*
X0296800Y0020360D02*
X0250731Y0020360D01*
X0251329Y0020958D02*
X0296800Y0020958D01*
X0296800Y0021557D02*
X0251841Y0021557D01*
X0252089Y0022155D02*
X0296800Y0022155D01*
X0296800Y0022754D02*
X0252337Y0022754D01*
X0252368Y0023352D02*
X0296800Y0023352D01*
X0296800Y0023951D02*
X0252368Y0023951D01*
X0252294Y0024549D02*
X0296800Y0024549D01*
X0296800Y0025148D02*
X0252046Y0025148D01*
X0251798Y0025746D02*
X0296800Y0025746D01*
X0296800Y0026345D02*
X0251226Y0026345D01*
X0250537Y0026943D02*
X0296800Y0026943D01*
X0296800Y0028739D02*
X0005400Y0028739D01*
X0005400Y0029337D02*
X0296800Y0029337D01*
X0296800Y0029936D02*
X0249763Y0029936D01*
X0249269Y0029731D02*
X0250691Y0030320D01*
X0251780Y0031409D01*
X0252368Y0032830D01*
X0252368Y0034369D01*
X0251780Y0035791D01*
X0250691Y0036880D01*
X0249269Y0037468D01*
X0247730Y0037468D01*
X0246309Y0036880D01*
X0245220Y0035791D01*
X0244631Y0034369D01*
X0244631Y0032830D01*
X0245220Y0031409D01*
X0246309Y0030320D01*
X0247730Y0029731D01*
X0249269Y0029731D01*
X0250905Y0030534D02*
X0296800Y0030534D01*
X0296800Y0031133D02*
X0251504Y0031133D01*
X0251913Y0031732D02*
X0296800Y0031732D01*
X0296800Y0032330D02*
X0252161Y0032330D01*
X0252368Y0032929D02*
X0296800Y0032929D01*
X0296800Y0033527D02*
X0252368Y0033527D01*
X0252368Y0034126D02*
X0296800Y0034126D01*
X0296800Y0034724D02*
X0252222Y0034724D01*
X0251974Y0035323D02*
X0296800Y0035323D01*
X0296800Y0035921D02*
X0251650Y0035921D01*
X0251051Y0036520D02*
X0296800Y0036520D01*
X0296800Y0037118D02*
X0250115Y0037118D01*
X0249269Y0039731D02*
X0250691Y0040320D01*
X0251780Y0041409D01*
X0252368Y0042830D01*
X0252368Y0044369D01*
X0251780Y0045791D01*
X0250691Y0046880D01*
X0249269Y0047468D01*
X0247730Y0047468D01*
X0246309Y0046880D01*
X0245220Y0045791D01*
X0244631Y0044369D01*
X0244631Y0042830D01*
X0245220Y0041409D01*
X0246309Y0040320D01*
X0247730Y0039731D01*
X0249269Y0039731D01*
X0250185Y0040111D02*
X0296800Y0040111D01*
X0296800Y0040709D02*
X0251080Y0040709D01*
X0251679Y0041308D02*
X0296800Y0041308D01*
X0296800Y0041906D02*
X0251986Y0041906D01*
X0252234Y0042505D02*
X0296800Y0042505D01*
X0296800Y0043103D02*
X0252368Y0043103D01*
X0252368Y0043702D02*
X0296800Y0043702D01*
X0296800Y0044300D02*
X0252368Y0044300D01*
X0252149Y0044899D02*
X0296800Y0044899D01*
X0296800Y0045497D02*
X0251901Y0045497D01*
X0251475Y0046096D02*
X0296800Y0046096D01*
X0296800Y0046694D02*
X0250877Y0046694D01*
X0249694Y0047293D02*
X0296800Y0047293D01*
X0296800Y0047891D02*
X0178242Y0047891D01*
X0178242Y0048008D02*
X0176958Y0049292D01*
X0175142Y0049292D01*
X0173858Y0048008D01*
X0173858Y0046192D01*
X0175142Y0044908D01*
X0176958Y0044908D01*
X0178242Y0046192D01*
X0178242Y0048008D01*
X0177760Y0048490D02*
X0296800Y0048490D01*
X0296800Y0049088D02*
X0193638Y0049088D01*
X0193208Y0048658D02*
X0194492Y0049942D01*
X0194492Y0051758D01*
X0193208Y0053042D01*
X0191392Y0053042D01*
X0190108Y0051758D01*
X0190108Y0049942D01*
X0191392Y0048658D01*
X0193208Y0048658D01*
X0194237Y0049687D02*
X0296800Y0049687D01*
X0296800Y0050285D02*
X0194492Y0050285D01*
X0194492Y0050884D02*
X0296800Y0050884D01*
X0296800Y0051482D02*
X0194492Y0051482D01*
X0194169Y0052081D02*
X0296800Y0052081D01*
X0296800Y0052679D02*
X0193571Y0052679D01*
X0191029Y0052679D02*
X0005400Y0052679D01*
X0005400Y0052081D02*
X0190431Y0052081D01*
X0190108Y0051482D02*
X0005400Y0051482D01*
X0005400Y0050884D02*
X0190108Y0050884D01*
X0190108Y0050285D02*
X0005400Y0050285D01*
X0005400Y0049687D02*
X0190363Y0049687D01*
X0190962Y0049088D02*
X0177162Y0049088D01*
X0178242Y0047293D02*
X0247306Y0047293D01*
X0246123Y0046694D02*
X0178242Y0046694D01*
X0178146Y0046096D02*
X0245525Y0046096D01*
X0245099Y0045497D02*
X0177547Y0045497D01*
X0178275Y0044300D02*
X0074728Y0044300D01*
X0074968Y0043719D02*
X0074380Y0045141D01*
X0073291Y0046230D01*
X0071869Y0046818D01*
X0070330Y0046818D01*
X0068909Y0046230D01*
X0067820Y0045141D01*
X0067231Y0043719D01*
X0067231Y0042180D01*
X0067820Y0040759D01*
X0068909Y0039670D01*
X0070330Y0039081D01*
X0071869Y0039081D01*
X0073291Y0039670D01*
X0074380Y0040759D01*
X0074968Y0042180D01*
X0074968Y0043719D01*
X0074968Y0043702D02*
X0177677Y0043702D01*
X0177608Y0043633D02*
X0177608Y0041817D01*
X0178892Y0040533D01*
X0180708Y0040533D01*
X0181992Y0041817D01*
X0181992Y0043633D01*
X0180708Y0044917D01*
X0178892Y0044917D01*
X0177608Y0043633D01*
X0177608Y0043103D02*
X0074968Y0043103D01*
X0074968Y0042505D02*
X0177608Y0042505D01*
X0177608Y0041906D02*
X0074855Y0041906D01*
X0074607Y0041308D02*
X0178117Y0041308D01*
X0178716Y0040709D02*
X0074330Y0040709D01*
X0073732Y0040111D02*
X0246815Y0040111D01*
X0245920Y0040709D02*
X0180884Y0040709D01*
X0181483Y0041308D02*
X0245321Y0041308D01*
X0245014Y0041906D02*
X0181992Y0041906D01*
X0181992Y0042505D02*
X0244766Y0042505D01*
X0244631Y0043103D02*
X0181992Y0043103D01*
X0181923Y0043702D02*
X0244631Y0043702D01*
X0244631Y0044300D02*
X0181325Y0044300D01*
X0180726Y0044899D02*
X0244851Y0044899D01*
X0246885Y0037118D02*
X0191367Y0037118D01*
X0191367Y0036520D02*
X0245949Y0036520D01*
X0245350Y0035921D02*
X0191096Y0035921D01*
X0191367Y0036192D02*
X0190083Y0034908D01*
X0188267Y0034908D01*
X0186983Y0036192D01*
X0186983Y0038008D01*
X0188267Y0039292D01*
X0190083Y0039292D01*
X0191367Y0038008D01*
X0191367Y0036192D01*
X0190498Y0035323D02*
X0245026Y0035323D01*
X0244778Y0034724D02*
X0005400Y0034724D01*
X0005400Y0034126D02*
X0244631Y0034126D01*
X0244631Y0033527D02*
X0005400Y0033527D01*
X0005400Y0032929D02*
X0244631Y0032929D01*
X0244839Y0032330D02*
X0005400Y0032330D01*
X0005400Y0031732D02*
X0245087Y0031732D01*
X0245496Y0031133D02*
X0005400Y0031133D01*
X0005400Y0030534D02*
X0246095Y0030534D01*
X0247237Y0029936D02*
X0005400Y0029936D01*
X0005400Y0035323D02*
X0187852Y0035323D01*
X0187254Y0035921D02*
X0005400Y0035921D01*
X0005400Y0036520D02*
X0186983Y0036520D01*
X0186983Y0037118D02*
X0005400Y0037118D01*
X0005400Y0037717D02*
X0186983Y0037717D01*
X0187290Y0038315D02*
X0005400Y0038315D01*
X0005400Y0038914D02*
X0187889Y0038914D01*
X0190461Y0038914D02*
X0296800Y0038914D01*
X0296800Y0039512D02*
X0072909Y0039512D01*
X0069291Y0039512D02*
X0062909Y0039512D01*
X0063291Y0039670D02*
X0064380Y0040759D01*
X0064968Y0042180D01*
X0064968Y0043719D01*
X0064380Y0045141D01*
X0063291Y0046230D01*
X0061869Y0046818D01*
X0060330Y0046818D01*
X0058909Y0046230D01*
X0057820Y0045141D01*
X0057231Y0043719D01*
X0057231Y0042180D01*
X0057820Y0040759D01*
X0058909Y0039670D01*
X0060330Y0039081D01*
X0061869Y0039081D01*
X0063291Y0039670D01*
X0063732Y0040111D02*
X0068468Y0040111D01*
X0067870Y0040709D02*
X0064330Y0040709D01*
X0064607Y0041308D02*
X0067593Y0041308D01*
X0067345Y0041906D02*
X0064855Y0041906D01*
X0064968Y0042505D02*
X0067231Y0042505D01*
X0067231Y0043103D02*
X0064968Y0043103D01*
X0064968Y0043702D02*
X0067231Y0043702D01*
X0067472Y0044300D02*
X0064728Y0044300D01*
X0064480Y0044899D02*
X0067720Y0044899D01*
X0068176Y0045497D02*
X0064024Y0045497D01*
X0063425Y0046096D02*
X0068775Y0046096D01*
X0070031Y0046694D02*
X0062169Y0046694D01*
X0060031Y0046694D02*
X0005400Y0046694D01*
X0005400Y0046096D02*
X0058775Y0046096D01*
X0058176Y0045497D02*
X0005400Y0045497D01*
X0005400Y0044899D02*
X0057720Y0044899D01*
X0057472Y0044300D02*
X0005400Y0044300D01*
X0005400Y0043702D02*
X0057231Y0043702D01*
X0057231Y0043103D02*
X0005400Y0043103D01*
X0005400Y0042505D02*
X0057231Y0042505D01*
X0057345Y0041906D02*
X0005400Y0041906D01*
X0005400Y0041308D02*
X0057593Y0041308D01*
X0057870Y0040709D02*
X0005400Y0040709D01*
X0005400Y0040111D02*
X0058468Y0040111D01*
X0059291Y0039512D02*
X0005400Y0039512D01*
X0005400Y0047293D02*
X0173858Y0047293D01*
X0173858Y0047891D02*
X0005400Y0047891D01*
X0005400Y0048490D02*
X0174340Y0048490D01*
X0174938Y0049088D02*
X0005400Y0049088D01*
X0005400Y0053278D02*
X0296800Y0053278D01*
X0296800Y0053876D02*
X0005400Y0053876D01*
X0005400Y0054475D02*
X0296800Y0054475D01*
X0296800Y0055073D02*
X0005400Y0055073D01*
X0005400Y0055672D02*
X0296800Y0055672D01*
X0296800Y0056270D02*
X0005400Y0056270D01*
X0005400Y0056869D02*
X0296800Y0056869D01*
X0296800Y0057468D02*
X0005400Y0057468D01*
X0005400Y0058066D02*
X0296800Y0058066D01*
X0296800Y0058665D02*
X0005400Y0058665D01*
X0005400Y0059263D02*
X0296800Y0059263D01*
X0296800Y0059862D02*
X0005400Y0059862D01*
X0005400Y0060460D02*
X0296800Y0060460D01*
X0296800Y0061059D02*
X0005400Y0061059D01*
X0005400Y0061657D02*
X0296800Y0061657D01*
X0296800Y0062256D02*
X0181181Y0062256D01*
X0180708Y0061783D02*
X0181992Y0063067D01*
X0181992Y0064883D01*
X0180708Y0066167D01*
X0178892Y0066167D01*
X0177608Y0064883D01*
X0177608Y0063067D01*
X0178892Y0061783D01*
X0180708Y0061783D01*
X0181779Y0062854D02*
X0296800Y0062854D01*
X0296800Y0063453D02*
X0181992Y0063453D01*
X0181992Y0064051D02*
X0296800Y0064051D01*
X0296800Y0064650D02*
X0181992Y0064650D01*
X0181627Y0065248D02*
X0296800Y0065248D01*
X0296800Y0065847D02*
X0181028Y0065847D01*
X0178572Y0065847D02*
X0175553Y0065847D01*
X0175692Y0065708D02*
X0174408Y0066992D01*
X0172592Y0066992D01*
X0171308Y0065708D01*
X0171308Y0063892D01*
X0172592Y0062608D01*
X0174408Y0062608D01*
X0175692Y0063892D01*
X0175692Y0065708D01*
X0175692Y0065248D02*
X0177973Y0065248D01*
X0177608Y0064650D02*
X0175692Y0064650D01*
X0175692Y0064051D02*
X0177608Y0064051D01*
X0177608Y0063453D02*
X0175253Y0063453D01*
X0174654Y0062854D02*
X0177821Y0062854D01*
X0178419Y0062256D02*
X0005400Y0062256D01*
X0005400Y0062854D02*
X0172346Y0062854D01*
X0171747Y0063453D02*
X0005400Y0063453D01*
X0005400Y0064051D02*
X0171308Y0064051D01*
X0171308Y0064650D02*
X0005400Y0064650D01*
X0005400Y0065248D02*
X0171308Y0065248D01*
X0171447Y0065847D02*
X0005400Y0065847D01*
X0005400Y0066445D02*
X0172045Y0066445D01*
X0174955Y0066445D02*
X0296800Y0066445D01*
X0296800Y0067044D02*
X0005400Y0067044D01*
X0005400Y0067642D02*
X0296800Y0067642D01*
X0296800Y0068241D02*
X0005400Y0068241D01*
X0005400Y0068839D02*
X0023329Y0068839D01*
X0024688Y0068475D02*
X0021960Y0069206D01*
X0019515Y0070618D01*
X0017518Y0072615D01*
X0016106Y0075060D01*
X0015375Y0077788D01*
X0015375Y0080612D01*
X0016106Y0083340D01*
X0017518Y0085785D01*
X0019515Y0087782D01*
X0021960Y0089194D01*
X0024688Y0089925D01*
X0027512Y0089925D01*
X0030240Y0089194D01*
X0032685Y0087782D01*
X0034682Y0085785D01*
X0036094Y0083340D01*
X0036825Y0080612D01*
X0036825Y0077788D01*
X0036094Y0075060D01*
X0034682Y0072615D01*
X0032685Y0070618D01*
X0030240Y0069206D01*
X0027512Y0068475D01*
X0024688Y0068475D01*
X0021559Y0069438D02*
X0005400Y0069438D01*
X0005400Y0070036D02*
X0020522Y0070036D01*
X0019498Y0070635D02*
X0005400Y0070635D01*
X0005400Y0071233D02*
X0018899Y0071233D01*
X0018301Y0071832D02*
X0005400Y0071832D01*
X0005400Y0072430D02*
X0017702Y0072430D01*
X0017279Y0073029D02*
X0005400Y0073029D01*
X0005400Y0073627D02*
X0016933Y0073627D01*
X0016588Y0074226D02*
X0005400Y0074226D01*
X0005400Y0074824D02*
X0016242Y0074824D01*
X0016009Y0075423D02*
X0005400Y0075423D01*
X0005400Y0076021D02*
X0015848Y0076021D01*
X0015688Y0076620D02*
X0005400Y0076620D01*
X0005400Y0077218D02*
X0015528Y0077218D01*
X0015375Y0077817D02*
X0005400Y0077817D01*
X0005400Y0078415D02*
X0015375Y0078415D01*
X0015375Y0079014D02*
X0005400Y0079014D01*
X0005400Y0079612D02*
X0015375Y0079612D01*
X0015375Y0080211D02*
X0005400Y0080211D01*
X0005400Y0080809D02*
X0015428Y0080809D01*
X0015588Y0081408D02*
X0005400Y0081408D01*
X0005400Y0082006D02*
X0015749Y0082006D01*
X0015909Y0082605D02*
X0005400Y0082605D01*
X0005400Y0083203D02*
X0016069Y0083203D01*
X0016373Y0083802D02*
X0005400Y0083802D01*
X0005400Y0084401D02*
X0016718Y0084401D01*
X0017064Y0084999D02*
X0005400Y0084999D01*
X0005400Y0085598D02*
X0017409Y0085598D01*
X0017929Y0086196D02*
X0005400Y0086196D01*
X0005400Y0086795D02*
X0018527Y0086795D01*
X0019126Y0087393D02*
X0005400Y0087393D01*
X0005400Y0087992D02*
X0019877Y0087992D01*
X0020914Y0088590D02*
X0005400Y0088590D01*
X0005400Y0089189D02*
X0021951Y0089189D01*
X0024173Y0089787D02*
X0005400Y0089787D01*
X0005400Y0090386D02*
X0063308Y0090386D01*
X0063308Y0090292D02*
X0064592Y0089008D01*
X0066408Y0089008D01*
X0067692Y0090292D01*
X0067692Y0092108D01*
X0066408Y0093392D01*
X0064592Y0093392D01*
X0063308Y0092108D01*
X0063308Y0090292D01*
X0063308Y0090984D02*
X0005400Y0090984D01*
X0005400Y0091583D02*
X0063308Y0091583D01*
X0063381Y0092181D02*
X0005400Y0092181D01*
X0005400Y0092780D02*
X0063980Y0092780D01*
X0064578Y0093378D02*
X0005400Y0093378D01*
X0005400Y0093977D02*
X0173023Y0093977D01*
X0173192Y0093808D02*
X0175008Y0093808D01*
X0176292Y0095092D01*
X0176292Y0096908D01*
X0175008Y0098192D01*
X0173192Y0098192D01*
X0171908Y0096908D01*
X0171908Y0095092D01*
X0173192Y0093808D01*
X0172425Y0094575D02*
X0005400Y0094575D01*
X0005400Y0095174D02*
X0171908Y0095174D01*
X0171908Y0095772D02*
X0005400Y0095772D01*
X0005400Y0096371D02*
X0171908Y0096371D01*
X0171969Y0096969D02*
X0005400Y0096969D01*
X0005400Y0097568D02*
X0172568Y0097568D01*
X0173166Y0098166D02*
X0088766Y0098166D01*
X0088608Y0098008D02*
X0089892Y0099292D01*
X0089892Y0101108D01*
X0088608Y0102392D01*
X0086792Y0102392D01*
X0085508Y0101108D01*
X0085508Y0099292D01*
X0086792Y0098008D01*
X0088608Y0098008D01*
X0089365Y0098765D02*
X0189965Y0098765D01*
X0189992Y0098792D02*
X0188708Y0097508D01*
X0188708Y0095692D01*
X0189992Y0094408D01*
X0191808Y0094408D01*
X0193092Y0095692D01*
X0193092Y0097508D01*
X0191808Y0098792D01*
X0189992Y0098792D01*
X0189366Y0098166D02*
X0175034Y0098166D01*
X0175632Y0097568D02*
X0188768Y0097568D01*
X0188708Y0096969D02*
X0176231Y0096969D01*
X0176292Y0096371D02*
X0188708Y0096371D01*
X0188708Y0095772D02*
X0176292Y0095772D01*
X0176292Y0095174D02*
X0189226Y0095174D01*
X0189825Y0094575D02*
X0175775Y0094575D01*
X0175177Y0093977D02*
X0296800Y0093977D01*
X0296800Y0094575D02*
X0200375Y0094575D01*
X0200208Y0094408D02*
X0201492Y0095692D01*
X0201492Y0097508D01*
X0200208Y0098792D01*
X0198392Y0098792D01*
X0197108Y0097508D01*
X0197108Y0095692D01*
X0198392Y0094408D01*
X0200208Y0094408D01*
X0200974Y0095174D02*
X0296800Y0095174D01*
X0296800Y0095772D02*
X0212972Y0095772D01*
X0212808Y0095608D02*
X0214092Y0096892D01*
X0214092Y0098708D01*
X0212808Y0099992D01*
X0210992Y0099992D01*
X0209708Y0098708D01*
X0209708Y0096892D01*
X0210992Y0095608D01*
X0212808Y0095608D01*
X0213571Y0096371D02*
X0296800Y0096371D01*
X0296800Y0096969D02*
X0214092Y0096969D01*
X0214092Y0097568D02*
X0296800Y0097568D01*
X0296800Y0098166D02*
X0214092Y0098166D01*
X0214035Y0098765D02*
X0296800Y0098765D01*
X0296800Y0099363D02*
X0213437Y0099363D01*
X0212838Y0099962D02*
X0296800Y0099962D01*
X0296800Y0100560D02*
X0089892Y0100560D01*
X0089892Y0099962D02*
X0210962Y0099962D01*
X0210363Y0099363D02*
X0089892Y0099363D01*
X0089841Y0101159D02*
X0296800Y0101159D01*
X0296800Y0101757D02*
X0089243Y0101757D01*
X0088644Y0102356D02*
X0296800Y0102356D01*
X0296800Y0102954D02*
X0067155Y0102954D01*
X0067692Y0103492D02*
X0066408Y0102208D01*
X0064592Y0102208D01*
X0063308Y0103492D01*
X0063308Y0105308D01*
X0064592Y0106592D01*
X0066408Y0106592D01*
X0067692Y0105308D01*
X0067692Y0103492D01*
X0067692Y0103553D02*
X0296800Y0103553D01*
X0296800Y0104151D02*
X0067692Y0104151D01*
X0067692Y0104750D02*
X0296800Y0104750D01*
X0296800Y0105348D02*
X0067652Y0105348D01*
X0067053Y0105947D02*
X0296800Y0105947D01*
X0296800Y0106545D02*
X0066455Y0106545D01*
X0064545Y0106545D02*
X0029919Y0106545D01*
X0029780Y0106209D02*
X0030368Y0107630D01*
X0030368Y0109169D01*
X0029780Y0110591D01*
X0028691Y0111680D01*
X0027269Y0112268D01*
X0025730Y0112268D01*
X0024309Y0111680D01*
X0023220Y0110591D01*
X0022631Y0109169D01*
X0022631Y0107630D01*
X0023220Y0106209D01*
X0024309Y0105120D01*
X0025730Y0104531D01*
X0027269Y0104531D01*
X0028691Y0105120D01*
X0029780Y0106209D01*
X0029518Y0105947D02*
X0063947Y0105947D01*
X0063348Y0105348D02*
X0028919Y0105348D01*
X0027797Y0104750D02*
X0063308Y0104750D01*
X0063308Y0104151D02*
X0005400Y0104151D01*
X0005400Y0103553D02*
X0063308Y0103553D01*
X0063845Y0102954D02*
X0005400Y0102954D01*
X0005400Y0102356D02*
X0064444Y0102356D01*
X0066556Y0102356D02*
X0086756Y0102356D01*
X0086157Y0101757D02*
X0005400Y0101757D01*
X0005400Y0101159D02*
X0085559Y0101159D01*
X0085508Y0100560D02*
X0005400Y0100560D01*
X0005400Y0099962D02*
X0085508Y0099962D01*
X0085508Y0099363D02*
X0005400Y0099363D01*
X0005400Y0098765D02*
X0086035Y0098765D01*
X0086634Y0098166D02*
X0005400Y0098166D01*
X0005400Y0104750D02*
X0025203Y0104750D01*
X0024081Y0105348D02*
X0005400Y0105348D01*
X0005400Y0105947D02*
X0023482Y0105947D01*
X0023081Y0106545D02*
X0005400Y0106545D01*
X0005400Y0107144D02*
X0022833Y0107144D01*
X0022631Y0107742D02*
X0005400Y0107742D01*
X0005400Y0108341D02*
X0022631Y0108341D01*
X0022631Y0108939D02*
X0005400Y0108939D01*
X0005400Y0109538D02*
X0022784Y0109538D01*
X0023032Y0110137D02*
X0005400Y0110137D01*
X0005400Y0110735D02*
X0023364Y0110735D01*
X0023963Y0111334D02*
X0005400Y0111334D01*
X0005400Y0111932D02*
X0024918Y0111932D01*
X0025730Y0114531D02*
X0027269Y0114531D01*
X0028691Y0115120D01*
X0029780Y0116209D01*
X0030368Y0117630D01*
X0030368Y0119169D01*
X0029780Y0120591D01*
X0028691Y0121680D01*
X0027269Y0122268D01*
X0025730Y0122268D01*
X0024309Y0121680D01*
X0023220Y0120591D01*
X0022631Y0119169D01*
X0022631Y0117630D01*
X0023220Y0116209D01*
X0024309Y0115120D01*
X0025730Y0114531D01*
X0024781Y0114925D02*
X0005400Y0114925D01*
X0005400Y0115523D02*
X0023906Y0115523D01*
X0023307Y0116122D02*
X0005400Y0116122D01*
X0005400Y0116720D02*
X0023009Y0116720D01*
X0022761Y0117319D02*
X0005400Y0117319D01*
X0005400Y0117917D02*
X0022631Y0117917D01*
X0022631Y0118516D02*
X0005400Y0118516D01*
X0005400Y0119114D02*
X0022631Y0119114D01*
X0022856Y0119713D02*
X0005400Y0119713D01*
X0005400Y0120311D02*
X0023104Y0120311D01*
X0023539Y0120910D02*
X0005400Y0120910D01*
X0005400Y0121508D02*
X0024137Y0121508D01*
X0025340Y0122107D02*
X0005400Y0122107D01*
X0005400Y0122705D02*
X0296800Y0122705D01*
X0296800Y0122107D02*
X0027660Y0122107D01*
X0028863Y0121508D02*
X0296800Y0121508D01*
X0296800Y0120910D02*
X0029461Y0120910D01*
X0029896Y0120311D02*
X0166761Y0120311D01*
X0167017Y0120567D02*
X0165733Y0119283D01*
X0165733Y0117467D01*
X0167017Y0116183D01*
X0168833Y0116183D01*
X0170117Y0117467D01*
X0170117Y0119283D01*
X0168833Y0120567D01*
X0167017Y0120567D01*
X0166163Y0119713D02*
X0030144Y0119713D01*
X0030368Y0119114D02*
X0165733Y0119114D01*
X0165733Y0118516D02*
X0030368Y0118516D01*
X0030368Y0117917D02*
X0165733Y0117917D01*
X0165881Y0117319D02*
X0030239Y0117319D01*
X0029991Y0116720D02*
X0166480Y0116720D01*
X0169370Y0116720D02*
X0296800Y0116720D01*
X0296800Y0116122D02*
X0029693Y0116122D01*
X0029094Y0115523D02*
X0296800Y0115523D01*
X0296800Y0114925D02*
X0028219Y0114925D01*
X0028082Y0111932D02*
X0175882Y0111932D01*
X0175733Y0111783D02*
X0175733Y0109967D01*
X0177017Y0108683D01*
X0178833Y0108683D01*
X0180117Y0109967D01*
X0180117Y0111783D01*
X0178833Y0113067D01*
X0177017Y0113067D01*
X0175733Y0111783D01*
X0175733Y0111334D02*
X0029037Y0111334D01*
X0029636Y0110735D02*
X0175733Y0110735D01*
X0175733Y0110137D02*
X0029968Y0110137D01*
X0030216Y0109538D02*
X0176162Y0109538D01*
X0176760Y0108939D02*
X0030368Y0108939D01*
X0030368Y0108341D02*
X0296800Y0108341D01*
X0296800Y0108939D02*
X0179090Y0108939D01*
X0179688Y0109538D02*
X0296800Y0109538D01*
X0296800Y0110137D02*
X0180117Y0110137D01*
X0180117Y0110735D02*
X0296800Y0110735D01*
X0296800Y0111334D02*
X0180117Y0111334D01*
X0179968Y0111932D02*
X0296800Y0111932D01*
X0296800Y0112531D02*
X0179370Y0112531D01*
X0176480Y0112531D02*
X0005400Y0112531D01*
X0005400Y0113129D02*
X0296800Y0113129D01*
X0296800Y0113728D02*
X0005400Y0113728D01*
X0005400Y0114326D02*
X0296800Y0114326D01*
X0296800Y0117319D02*
X0169969Y0117319D01*
X0170117Y0117917D02*
X0296800Y0117917D01*
X0296800Y0118516D02*
X0170117Y0118516D01*
X0170117Y0119114D02*
X0296800Y0119114D01*
X0296800Y0119713D02*
X0169687Y0119713D01*
X0169089Y0120311D02*
X0296800Y0120311D01*
X0296800Y0123304D02*
X0005400Y0123304D01*
X0005400Y0123902D02*
X0296800Y0123902D01*
X0296800Y0124501D02*
X0005400Y0124501D01*
X0005400Y0125099D02*
X0296800Y0125099D01*
X0296800Y0125698D02*
X0005400Y0125698D01*
X0005400Y0126296D02*
X0188779Y0126296D01*
X0188892Y0126183D02*
X0190708Y0126183D01*
X0191992Y0127467D01*
X0191992Y0129283D01*
X0190708Y0130567D01*
X0188892Y0130567D01*
X0187608Y0129283D01*
X0187608Y0127467D01*
X0188892Y0126183D01*
X0188180Y0126895D02*
X0005400Y0126895D01*
X0005400Y0127493D02*
X0187608Y0127493D01*
X0187608Y0128092D02*
X0005400Y0128092D01*
X0005400Y0128690D02*
X0025347Y0128690D01*
X0025730Y0128531D02*
X0027269Y0128531D01*
X0028691Y0129120D01*
X0029780Y0130209D01*
X0030368Y0131630D01*
X0030368Y0133169D01*
X0029780Y0134591D01*
X0028691Y0135680D01*
X0027269Y0136268D01*
X0025730Y0136268D01*
X0024309Y0135680D01*
X0023220Y0134591D01*
X0022631Y0133169D01*
X0022631Y0131630D01*
X0023220Y0130209D01*
X0024309Y0129120D01*
X0025730Y0128531D01*
X0024140Y0129289D02*
X0005400Y0129289D01*
X0005400Y0129887D02*
X0023542Y0129887D01*
X0023106Y0130486D02*
X0005400Y0130486D01*
X0005400Y0131084D02*
X0022858Y0131084D01*
X0022631Y0131683D02*
X0005400Y0131683D01*
X0005400Y0132281D02*
X0022631Y0132281D01*
X0022631Y0132880D02*
X0005400Y0132880D01*
X0005400Y0133478D02*
X0022759Y0133478D01*
X0023007Y0134077D02*
X0005400Y0134077D01*
X0005400Y0134675D02*
X0023305Y0134675D01*
X0023903Y0135274D02*
X0005400Y0135274D01*
X0005400Y0135872D02*
X0024774Y0135872D01*
X0025730Y0138531D02*
X0027269Y0138531D01*
X0028691Y0139120D01*
X0029780Y0140209D01*
X0030368Y0141630D01*
X0030368Y0143169D01*
X0029780Y0144591D01*
X0028691Y0145680D01*
X0027269Y0146268D01*
X0025730Y0146268D01*
X0024309Y0145680D01*
X0023220Y0144591D01*
X0022631Y0143169D01*
X0022631Y0141630D01*
X0023220Y0140209D01*
X0024309Y0139120D01*
X0025730Y0138531D01*
X0024925Y0138865D02*
X0005400Y0138865D01*
X0005400Y0138267D02*
X0059354Y0138267D01*
X0058909Y0138082D02*
X0057820Y0136994D01*
X0057231Y0135572D01*
X0057231Y0134033D01*
X0057820Y0132611D01*
X0058909Y0131523D01*
X0060330Y0130934D01*
X0061869Y0130934D01*
X0063291Y0131523D01*
X0064380Y0132611D01*
X0064968Y0134033D01*
X0064968Y0135572D01*
X0064380Y0136994D01*
X0063291Y0138082D01*
X0061869Y0138671D01*
X0060330Y0138671D01*
X0058909Y0138082D01*
X0058495Y0137668D02*
X0005400Y0137668D01*
X0005400Y0137070D02*
X0057896Y0137070D01*
X0057604Y0136471D02*
X0005400Y0136471D01*
X0005400Y0139464D02*
X0023966Y0139464D01*
X0023367Y0140062D02*
X0005400Y0140062D01*
X0005400Y0140661D02*
X0023033Y0140661D01*
X0022785Y0141259D02*
X0005400Y0141259D01*
X0005400Y0141858D02*
X0022631Y0141858D01*
X0022631Y0142456D02*
X0005400Y0142456D01*
X0005400Y0143055D02*
X0022631Y0143055D01*
X0022832Y0143653D02*
X0005400Y0143653D01*
X0005400Y0144252D02*
X0023080Y0144252D01*
X0023479Y0144850D02*
X0005400Y0144850D01*
X0005400Y0145449D02*
X0024078Y0145449D01*
X0025196Y0146047D02*
X0005400Y0146047D01*
X0005400Y0146646D02*
X0296800Y0146646D01*
X0296800Y0147244D02*
X0005400Y0147244D01*
X0005400Y0147843D02*
X0296800Y0147843D01*
X0296800Y0148441D02*
X0005400Y0148441D01*
X0005400Y0149040D02*
X0296800Y0149040D01*
X0296800Y0149638D02*
X0005400Y0149638D01*
X0005400Y0150237D02*
X0296800Y0150237D01*
X0296800Y0150835D02*
X0005400Y0150835D01*
X0005400Y0151434D02*
X0296800Y0151434D01*
X0296800Y0152032D02*
X0005400Y0152032D01*
X0005400Y0152631D02*
X0025491Y0152631D01*
X0025730Y0152531D02*
X0027269Y0152531D01*
X0028691Y0153120D01*
X0029780Y0154209D01*
X0030368Y0155630D01*
X0030368Y0157169D01*
X0029780Y0158591D01*
X0028691Y0159680D01*
X0027269Y0160268D01*
X0025730Y0160268D01*
X0024309Y0159680D01*
X0023220Y0158591D01*
X0022631Y0157169D01*
X0022631Y0155630D01*
X0023220Y0154209D01*
X0024309Y0153120D01*
X0025730Y0152531D01*
X0024200Y0153229D02*
X0005400Y0153229D01*
X0005400Y0153828D02*
X0023601Y0153828D01*
X0023130Y0154426D02*
X0005400Y0154426D01*
X0005400Y0155025D02*
X0022882Y0155025D01*
X0022634Y0155623D02*
X0005400Y0155623D01*
X0005400Y0156222D02*
X0022631Y0156222D01*
X0022631Y0156820D02*
X0005400Y0156820D01*
X0005400Y0157419D02*
X0022735Y0157419D01*
X0022983Y0158017D02*
X0005400Y0158017D01*
X0005400Y0158616D02*
X0023245Y0158616D01*
X0023844Y0159214D02*
X0005400Y0159214D01*
X0005400Y0159813D02*
X0024631Y0159813D01*
X0025730Y0162531D02*
X0027269Y0162531D01*
X0028691Y0163120D01*
X0029780Y0164209D01*
X0030368Y0165630D01*
X0030368Y0167169D01*
X0029780Y0168591D01*
X0028691Y0169680D01*
X0027269Y0170268D01*
X0025730Y0170268D01*
X0024309Y0169680D01*
X0023220Y0168591D01*
X0022631Y0167169D01*
X0022631Y0165630D01*
X0023220Y0164209D01*
X0024309Y0163120D01*
X0025730Y0162531D01*
X0025069Y0162805D02*
X0005400Y0162805D01*
X0005400Y0162207D02*
X0233193Y0162207D01*
X0233108Y0162292D02*
X0234392Y0161008D01*
X0236208Y0161008D01*
X0237492Y0162292D01*
X0237492Y0164108D01*
X0236208Y0165392D01*
X0234392Y0165392D01*
X0233108Y0164108D01*
X0233108Y0162292D01*
X0233108Y0162805D02*
X0198406Y0162805D01*
X0197808Y0162208D02*
X0199092Y0163492D01*
X0199092Y0165308D01*
X0197808Y0166592D01*
X0195992Y0166592D01*
X0194708Y0165308D01*
X0194708Y0163492D01*
X0195992Y0162208D01*
X0197808Y0162208D01*
X0199004Y0163404D02*
X0233108Y0163404D01*
X0233108Y0164003D02*
X0199092Y0164003D01*
X0199092Y0164601D02*
X0233601Y0164601D01*
X0234199Y0165200D02*
X0199092Y0165200D01*
X0198602Y0165798D02*
X0244700Y0165798D01*
X0244700Y0166101D02*
X0244700Y0164549D01*
X0245294Y0163116D01*
X0246391Y0162019D01*
X0247824Y0161425D01*
X0249376Y0161425D01*
X0250809Y0162019D01*
X0251906Y0163116D01*
X0252500Y0164549D01*
X0252500Y0166101D01*
X0251906Y0167534D01*
X0250809Y0168631D01*
X0249376Y0169225D01*
X0247824Y0169225D01*
X0246391Y0168631D01*
X0245294Y0167534D01*
X0244700Y0166101D01*
X0244823Y0166397D02*
X0198004Y0166397D01*
X0195796Y0166397D02*
X0190204Y0166397D01*
X0190008Y0166592D02*
X0188192Y0166592D01*
X0186908Y0165308D01*
X0186908Y0163492D01*
X0188192Y0162208D01*
X0190008Y0162208D01*
X0191292Y0163492D01*
X0191292Y0165308D01*
X0190008Y0166592D01*
X0190802Y0165798D02*
X0195198Y0165798D01*
X0194708Y0165200D02*
X0191292Y0165200D01*
X0191292Y0164601D02*
X0194708Y0164601D01*
X0194708Y0164003D02*
X0191292Y0164003D01*
X0191204Y0163404D02*
X0194796Y0163404D01*
X0195394Y0162805D02*
X0190606Y0162805D01*
X0187594Y0162805D02*
X0027931Y0162805D01*
X0028975Y0163404D02*
X0186996Y0163404D01*
X0186908Y0164003D02*
X0029573Y0164003D01*
X0029942Y0164601D02*
X0186908Y0164601D01*
X0186908Y0165200D02*
X0087075Y0165200D01*
X0087008Y0165133D02*
X0088292Y0166417D01*
X0088292Y0168233D01*
X0087008Y0169517D01*
X0085192Y0169517D01*
X0083908Y0168233D01*
X0083908Y0166417D01*
X0085192Y0165133D01*
X0087008Y0165133D01*
X0087673Y0165798D02*
X0187398Y0165798D01*
X0187996Y0166397D02*
X0088272Y0166397D01*
X0088292Y0166995D02*
X0245070Y0166995D01*
X0245353Y0167594D02*
X0088292Y0167594D01*
X0088292Y0168192D02*
X0167808Y0168192D01*
X0168392Y0167608D02*
X0170208Y0167608D01*
X0171492Y0168892D01*
X0171492Y0170708D01*
X0170208Y0171992D01*
X0168392Y0171992D01*
X0167108Y0170708D01*
X0167108Y0168892D01*
X0168392Y0167608D01*
X0167209Y0168791D02*
X0087735Y0168791D01*
X0087136Y0169389D02*
X0167108Y0169389D01*
X0167108Y0169988D02*
X0027948Y0169988D01*
X0028982Y0169389D02*
X0085064Y0169389D01*
X0084465Y0168791D02*
X0029580Y0168791D01*
X0029945Y0168192D02*
X0083908Y0168192D01*
X0083908Y0167594D02*
X0030193Y0167594D01*
X0030368Y0166995D02*
X0083908Y0166995D01*
X0083928Y0166397D02*
X0030368Y0166397D01*
X0030368Y0165798D02*
X0084527Y0165798D01*
X0085125Y0165200D02*
X0030190Y0165200D01*
X0028369Y0159813D02*
X0296800Y0159813D01*
X0296800Y0160411D02*
X0005400Y0160411D01*
X0005400Y0161010D02*
X0234390Y0161010D01*
X0233791Y0161608D02*
X0005400Y0161608D01*
X0005400Y0163404D02*
X0024025Y0163404D01*
X0023427Y0164003D02*
X0005400Y0164003D01*
X0005400Y0164601D02*
X0023058Y0164601D01*
X0022810Y0165200D02*
X0005400Y0165200D01*
X0005400Y0165798D02*
X0022631Y0165798D01*
X0022631Y0166397D02*
X0005400Y0166397D01*
X0005400Y0166995D02*
X0022631Y0166995D01*
X0022807Y0167594D02*
X0005400Y0167594D01*
X0005400Y0168192D02*
X0023055Y0168192D01*
X0023420Y0168791D02*
X0005400Y0168791D01*
X0005400Y0169389D02*
X0024018Y0169389D01*
X0025052Y0169988D02*
X0005400Y0169988D01*
X0005400Y0170586D02*
X0167108Y0170586D01*
X0167585Y0171185D02*
X0005400Y0171185D01*
X0005400Y0171783D02*
X0168183Y0171783D01*
X0170417Y0171783D02*
X0174308Y0171783D01*
X0174308Y0171908D02*
X0174308Y0170092D01*
X0175592Y0168808D01*
X0177408Y0168808D01*
X0178692Y0170092D01*
X0178692Y0171908D01*
X0177408Y0173192D01*
X0175592Y0173192D01*
X0174308Y0171908D01*
X0174782Y0172382D02*
X0005400Y0172382D01*
X0005400Y0172980D02*
X0175380Y0172980D01*
X0174308Y0171185D02*
X0171015Y0171185D01*
X0171492Y0170586D02*
X0174308Y0170586D01*
X0174412Y0169988D02*
X0171492Y0169988D01*
X0171492Y0169389D02*
X0175011Y0169389D01*
X0177989Y0169389D02*
X0296800Y0169389D01*
X0296800Y0168791D02*
X0250424Y0168791D01*
X0251248Y0168192D02*
X0296800Y0168192D01*
X0296800Y0167594D02*
X0251847Y0167594D01*
X0252130Y0166995D02*
X0296800Y0166995D01*
X0296800Y0166397D02*
X0252377Y0166397D01*
X0252500Y0165798D02*
X0296800Y0165798D01*
X0296800Y0165200D02*
X0252500Y0165200D01*
X0252500Y0164601D02*
X0296800Y0164601D01*
X0296800Y0164003D02*
X0252274Y0164003D01*
X0252026Y0163404D02*
X0296800Y0163404D01*
X0296800Y0162805D02*
X0251596Y0162805D01*
X0250997Y0162207D02*
X0296800Y0162207D01*
X0296800Y0161608D02*
X0249819Y0161608D01*
X0247381Y0161608D02*
X0236809Y0161608D01*
X0236210Y0161010D02*
X0296800Y0161010D01*
X0296800Y0159214D02*
X0029156Y0159214D01*
X0029755Y0158616D02*
X0172416Y0158616D01*
X0172592Y0158792D02*
X0171308Y0157508D01*
X0171308Y0155692D01*
X0172592Y0154408D01*
X0174408Y0154408D01*
X0175692Y0155692D01*
X0175692Y0157508D01*
X0174408Y0158792D01*
X0172592Y0158792D01*
X0171817Y0158017D02*
X0030017Y0158017D01*
X0030265Y0157419D02*
X0171308Y0157419D01*
X0171308Y0156820D02*
X0030368Y0156820D01*
X0030368Y0156222D02*
X0171308Y0156222D01*
X0171376Y0155623D02*
X0030366Y0155623D01*
X0030118Y0155025D02*
X0171975Y0155025D01*
X0172574Y0154426D02*
X0029870Y0154426D01*
X0029399Y0153828D02*
X0178122Y0153828D01*
X0177608Y0154342D02*
X0178892Y0153058D01*
X0180708Y0153058D01*
X0181992Y0154342D01*
X0181992Y0156158D01*
X0180708Y0157442D01*
X0178892Y0157442D01*
X0177608Y0156158D01*
X0177608Y0154342D01*
X0177608Y0154426D02*
X0174426Y0154426D01*
X0175025Y0155025D02*
X0177608Y0155025D01*
X0177608Y0155623D02*
X0175623Y0155623D01*
X0175692Y0156222D02*
X0177672Y0156222D01*
X0178270Y0156820D02*
X0175692Y0156820D01*
X0175692Y0157419D02*
X0178869Y0157419D01*
X0180731Y0157419D02*
X0296800Y0157419D01*
X0296800Y0158017D02*
X0175183Y0158017D01*
X0174584Y0158616D02*
X0296800Y0158616D01*
X0296800Y0156820D02*
X0181330Y0156820D01*
X0181928Y0156222D02*
X0296800Y0156222D01*
X0296800Y0155623D02*
X0181992Y0155623D01*
X0181992Y0155025D02*
X0296800Y0155025D01*
X0296800Y0154426D02*
X0181992Y0154426D01*
X0181478Y0153828D02*
X0296800Y0153828D01*
X0296800Y0153229D02*
X0180879Y0153229D01*
X0178721Y0153229D02*
X0028800Y0153229D01*
X0027509Y0152631D02*
X0296800Y0152631D01*
X0296800Y0146047D02*
X0027804Y0146047D01*
X0028922Y0145449D02*
X0296800Y0145449D01*
X0296800Y0144850D02*
X0029521Y0144850D01*
X0029920Y0144252D02*
X0191952Y0144252D01*
X0192017Y0144317D02*
X0190733Y0143033D01*
X0190733Y0141217D01*
X0192017Y0139933D01*
X0193833Y0139933D01*
X0195117Y0141217D01*
X0195117Y0143033D01*
X0193833Y0144317D01*
X0192017Y0144317D01*
X0191353Y0143653D02*
X0030168Y0143653D01*
X0030368Y0143055D02*
X0190754Y0143055D01*
X0190733Y0142456D02*
X0030368Y0142456D01*
X0030368Y0141858D02*
X0190733Y0141858D01*
X0190733Y0141259D02*
X0030215Y0141259D01*
X0029967Y0140661D02*
X0175235Y0140661D01*
X0175767Y0141192D02*
X0174483Y0139908D01*
X0174483Y0138092D01*
X0175767Y0136808D01*
X0177583Y0136808D01*
X0178867Y0138092D01*
X0178867Y0139908D01*
X0177583Y0141192D01*
X0175767Y0141192D01*
X0174637Y0140062D02*
X0029633Y0140062D01*
X0029034Y0139464D02*
X0174483Y0139464D01*
X0174483Y0138865D02*
X0028075Y0138865D01*
X0028226Y0135872D02*
X0057356Y0135872D01*
X0057231Y0135274D02*
X0029097Y0135274D01*
X0029695Y0134675D02*
X0057231Y0134675D01*
X0057231Y0134077D02*
X0029993Y0134077D01*
X0030241Y0133478D02*
X0057461Y0133478D01*
X0057709Y0132880D02*
X0030368Y0132880D01*
X0030368Y0132281D02*
X0058150Y0132281D01*
X0058749Y0131683D02*
X0030368Y0131683D01*
X0030142Y0131084D02*
X0059967Y0131084D01*
X0062233Y0131084D02*
X0069967Y0131084D01*
X0070330Y0130934D02*
X0071869Y0130934D01*
X0073291Y0131523D01*
X0074380Y0132611D01*
X0074968Y0134033D01*
X0074968Y0135572D01*
X0074380Y0136994D01*
X0073291Y0138082D01*
X0071869Y0138671D01*
X0070330Y0138671D01*
X0068909Y0138082D01*
X0067820Y0136994D01*
X0067231Y0135572D01*
X0067231Y0134033D01*
X0067820Y0132611D01*
X0068909Y0131523D01*
X0070330Y0130934D01*
X0068749Y0131683D02*
X0063451Y0131683D01*
X0064050Y0132281D02*
X0068150Y0132281D01*
X0067709Y0132880D02*
X0064491Y0132880D01*
X0064739Y0133478D02*
X0067461Y0133478D01*
X0067231Y0134077D02*
X0064968Y0134077D01*
X0064968Y0134675D02*
X0067231Y0134675D01*
X0067231Y0135274D02*
X0064968Y0135274D01*
X0064844Y0135872D02*
X0067356Y0135872D01*
X0067604Y0136471D02*
X0064596Y0136471D01*
X0064304Y0137070D02*
X0067896Y0137070D01*
X0068495Y0137668D02*
X0063705Y0137668D01*
X0062846Y0138267D02*
X0069354Y0138267D01*
X0072846Y0138267D02*
X0174483Y0138267D01*
X0174907Y0137668D02*
X0073705Y0137668D01*
X0074304Y0137070D02*
X0175505Y0137070D01*
X0177845Y0137070D02*
X0296800Y0137070D01*
X0296800Y0137668D02*
X0178443Y0137668D01*
X0178867Y0138267D02*
X0296800Y0138267D01*
X0296800Y0138865D02*
X0178867Y0138865D01*
X0178867Y0139464D02*
X0296800Y0139464D01*
X0296800Y0140062D02*
X0193962Y0140062D01*
X0194561Y0140661D02*
X0296800Y0140661D01*
X0296800Y0141259D02*
X0195117Y0141259D01*
X0195117Y0141858D02*
X0296800Y0141858D01*
X0296800Y0142456D02*
X0195117Y0142456D01*
X0195095Y0143055D02*
X0296800Y0143055D01*
X0296800Y0143653D02*
X0194497Y0143653D01*
X0193898Y0144252D02*
X0296800Y0144252D01*
X0296800Y0136471D02*
X0181679Y0136471D01*
X0181333Y0136817D02*
X0182617Y0135533D01*
X0182617Y0133717D01*
X0181333Y0132433D01*
X0179517Y0132433D01*
X0178233Y0133717D01*
X0178233Y0135533D01*
X0179517Y0136817D01*
X0181333Y0136817D01*
X0182278Y0135872D02*
X0296800Y0135872D01*
X0296800Y0135274D02*
X0182617Y0135274D01*
X0182617Y0134675D02*
X0296800Y0134675D01*
X0296800Y0134077D02*
X0182617Y0134077D01*
X0182379Y0133478D02*
X0296800Y0133478D01*
X0296800Y0132880D02*
X0181780Y0132880D01*
X0179070Y0132880D02*
X0074491Y0132880D01*
X0074739Y0133478D02*
X0178471Y0133478D01*
X0178233Y0134077D02*
X0074968Y0134077D01*
X0074968Y0134675D02*
X0178233Y0134675D01*
X0178233Y0135274D02*
X0074968Y0135274D01*
X0074844Y0135872D02*
X0178572Y0135872D01*
X0179171Y0136471D02*
X0074596Y0136471D01*
X0074050Y0132281D02*
X0296800Y0132281D01*
X0296800Y0131683D02*
X0073451Y0131683D01*
X0072233Y0131084D02*
X0296800Y0131084D01*
X0296800Y0130486D02*
X0190789Y0130486D01*
X0191388Y0129887D02*
X0296800Y0129887D01*
X0296800Y0129289D02*
X0191986Y0129289D01*
X0191992Y0128690D02*
X0296800Y0128690D01*
X0296800Y0128092D02*
X0191992Y0128092D01*
X0191992Y0127493D02*
X0296800Y0127493D01*
X0296800Y0126895D02*
X0191420Y0126895D01*
X0190821Y0126296D02*
X0296800Y0126296D01*
X0296800Y0107742D02*
X0030368Y0107742D01*
X0030167Y0107144D02*
X0296800Y0107144D01*
X0296800Y0093378D02*
X0066422Y0093378D01*
X0067020Y0092780D02*
X0167180Y0092780D01*
X0167192Y0092792D02*
X0165908Y0091508D01*
X0165908Y0089692D01*
X0167192Y0088408D01*
X0169008Y0088408D01*
X0170292Y0089692D01*
X0170292Y0091508D01*
X0169008Y0092792D01*
X0167192Y0092792D01*
X0166581Y0092181D02*
X0067619Y0092181D01*
X0067692Y0091583D02*
X0165983Y0091583D01*
X0165908Y0090984D02*
X0067692Y0090984D01*
X0067692Y0090386D02*
X0075385Y0090386D01*
X0075392Y0090392D02*
X0074108Y0089108D01*
X0074108Y0087292D01*
X0075392Y0086008D01*
X0077208Y0086008D01*
X0078492Y0087292D01*
X0078492Y0089108D01*
X0077208Y0090392D01*
X0075392Y0090392D01*
X0074787Y0089787D02*
X0067187Y0089787D01*
X0066589Y0089189D02*
X0074188Y0089189D01*
X0074108Y0088590D02*
X0031286Y0088590D01*
X0032323Y0087992D02*
X0074108Y0087992D01*
X0074108Y0087393D02*
X0033074Y0087393D01*
X0033673Y0086795D02*
X0074605Y0086795D01*
X0075204Y0086196D02*
X0034271Y0086196D01*
X0034791Y0085598D02*
X0113108Y0085598D01*
X0113108Y0085492D02*
X0114392Y0084208D01*
X0116208Y0084208D01*
X0117492Y0085492D01*
X0117492Y0087308D01*
X0116208Y0088592D01*
X0114392Y0088592D01*
X0113108Y0087308D01*
X0113108Y0085492D01*
X0113601Y0084999D02*
X0035136Y0084999D01*
X0035482Y0084401D02*
X0114199Y0084401D01*
X0113108Y0086196D02*
X0077396Y0086196D01*
X0077995Y0086795D02*
X0113108Y0086795D01*
X0113193Y0087393D02*
X0078492Y0087393D01*
X0078492Y0087992D02*
X0113791Y0087992D01*
X0114390Y0088590D02*
X0078492Y0088590D01*
X0078412Y0089189D02*
X0166411Y0089189D01*
X0165908Y0089787D02*
X0077813Y0089787D01*
X0077214Y0090386D02*
X0165908Y0090386D01*
X0167010Y0088590D02*
X0116210Y0088590D01*
X0116809Y0087992D02*
X0186908Y0087992D01*
X0186908Y0088590D02*
X0169190Y0088590D01*
X0169789Y0089189D02*
X0186988Y0089189D01*
X0186908Y0089108D02*
X0186908Y0087292D01*
X0188192Y0086008D01*
X0190008Y0086008D01*
X0191292Y0087292D01*
X0191292Y0089108D01*
X0190008Y0090392D01*
X0188192Y0090392D01*
X0186908Y0089108D01*
X0187587Y0089787D02*
X0170292Y0089787D01*
X0170292Y0090386D02*
X0188185Y0090386D01*
X0190014Y0090386D02*
X0296800Y0090386D01*
X0296800Y0090984D02*
X0170292Y0090984D01*
X0170217Y0091583D02*
X0296800Y0091583D01*
X0296800Y0092181D02*
X0169619Y0092181D01*
X0169020Y0092780D02*
X0296800Y0092780D01*
X0296800Y0089787D02*
X0278027Y0089787D01*
X0277512Y0089925D02*
X0274688Y0089925D01*
X0271960Y0089194D01*
X0269515Y0087782D01*
X0267518Y0085785D01*
X0266106Y0083340D01*
X0265375Y0080612D01*
X0265375Y0077788D01*
X0266106Y0075060D01*
X0267518Y0072615D01*
X0269515Y0070618D01*
X0271960Y0069206D01*
X0274688Y0068475D01*
X0277512Y0068475D01*
X0280240Y0069206D01*
X0282685Y0070618D01*
X0284682Y0072615D01*
X0286094Y0075060D01*
X0286825Y0077788D01*
X0286825Y0080612D01*
X0286094Y0083340D01*
X0284682Y0085785D01*
X0282685Y0087782D01*
X0280240Y0089194D01*
X0277512Y0089925D01*
X0280249Y0089189D02*
X0296800Y0089189D01*
X0296800Y0088590D02*
X0281286Y0088590D01*
X0282323Y0087992D02*
X0296800Y0087992D01*
X0296800Y0087393D02*
X0283074Y0087393D01*
X0283673Y0086795D02*
X0296800Y0086795D01*
X0296800Y0086196D02*
X0284271Y0086196D01*
X0284791Y0085598D02*
X0296800Y0085598D01*
X0296800Y0084999D02*
X0285136Y0084999D01*
X0285482Y0084401D02*
X0296800Y0084401D01*
X0296800Y0083802D02*
X0285827Y0083802D01*
X0286131Y0083203D02*
X0296800Y0083203D01*
X0296800Y0082605D02*
X0286291Y0082605D01*
X0286451Y0082006D02*
X0296800Y0082006D01*
X0296800Y0081408D02*
X0286612Y0081408D01*
X0286772Y0080809D02*
X0296800Y0080809D01*
X0296800Y0080211D02*
X0286825Y0080211D01*
X0286825Y0079612D02*
X0296800Y0079612D01*
X0296800Y0079014D02*
X0286825Y0079014D01*
X0286825Y0078415D02*
X0296800Y0078415D01*
X0296800Y0077817D02*
X0286825Y0077817D01*
X0286672Y0077218D02*
X0296800Y0077218D01*
X0296800Y0076620D02*
X0286512Y0076620D01*
X0286352Y0076021D02*
X0296800Y0076021D01*
X0296800Y0075423D02*
X0286191Y0075423D01*
X0285958Y0074824D02*
X0296800Y0074824D01*
X0296800Y0074226D02*
X0285612Y0074226D01*
X0285267Y0073627D02*
X0296800Y0073627D01*
X0296800Y0073029D02*
X0284921Y0073029D01*
X0284498Y0072430D02*
X0296800Y0072430D01*
X0296800Y0071832D02*
X0283899Y0071832D01*
X0283301Y0071233D02*
X0296800Y0071233D01*
X0296800Y0070635D02*
X0282702Y0070635D01*
X0281678Y0070036D02*
X0296800Y0070036D01*
X0296800Y0069438D02*
X0280641Y0069438D01*
X0278871Y0068839D02*
X0296800Y0068839D01*
X0296800Y0038315D02*
X0191060Y0038315D01*
X0191367Y0037717D02*
X0296800Y0037717D01*
X0273329Y0068839D02*
X0028871Y0068839D01*
X0030641Y0069438D02*
X0271559Y0069438D01*
X0270522Y0070036D02*
X0250489Y0070036D01*
X0250809Y0070169D02*
X0251906Y0071266D01*
X0252500Y0072699D01*
X0252500Y0074251D01*
X0251906Y0075684D01*
X0250809Y0076781D01*
X0249376Y0077375D01*
X0247824Y0077375D01*
X0246391Y0076781D01*
X0245294Y0075684D01*
X0244700Y0074251D01*
X0244700Y0072699D01*
X0245294Y0071266D01*
X0246391Y0070169D01*
X0247824Y0069575D01*
X0249376Y0069575D01*
X0250809Y0070169D01*
X0251275Y0070635D02*
X0269498Y0070635D01*
X0268899Y0071233D02*
X0251874Y0071233D01*
X0252141Y0071832D02*
X0268301Y0071832D01*
X0267702Y0072430D02*
X0252389Y0072430D01*
X0252500Y0073029D02*
X0267279Y0073029D01*
X0266933Y0073627D02*
X0252500Y0073627D01*
X0252500Y0074226D02*
X0266588Y0074226D01*
X0266242Y0074824D02*
X0252262Y0074824D01*
X0252014Y0075423D02*
X0266009Y0075423D01*
X0265848Y0076021D02*
X0251569Y0076021D01*
X0250971Y0076620D02*
X0265688Y0076620D01*
X0265528Y0077218D02*
X0249754Y0077218D01*
X0247446Y0077218D02*
X0178219Y0077218D01*
X0178008Y0077008D02*
X0179292Y0078292D01*
X0179292Y0080108D01*
X0178008Y0081392D01*
X0176192Y0081392D01*
X0174908Y0080108D01*
X0174908Y0078292D01*
X0176192Y0077008D01*
X0178008Y0077008D01*
X0178817Y0077817D02*
X0265375Y0077817D01*
X0265375Y0078415D02*
X0179292Y0078415D01*
X0179292Y0079014D02*
X0200586Y0079014D01*
X0200792Y0078808D02*
X0202608Y0078808D01*
X0203892Y0080092D01*
X0203892Y0081908D01*
X0202608Y0083192D01*
X0200792Y0083192D01*
X0199508Y0081908D01*
X0199508Y0080092D01*
X0200792Y0078808D01*
X0199987Y0079612D02*
X0179292Y0079612D01*
X0179189Y0080211D02*
X0199508Y0080211D01*
X0199508Y0080809D02*
X0178591Y0080809D01*
X0175609Y0080809D02*
X0036772Y0080809D01*
X0036825Y0080211D02*
X0167811Y0080211D01*
X0168392Y0080792D02*
X0167108Y0079508D01*
X0167108Y0077692D01*
X0168392Y0076408D01*
X0170208Y0076408D01*
X0171492Y0077692D01*
X0171492Y0079508D01*
X0170208Y0080792D01*
X0168392Y0080792D01*
X0167212Y0079612D02*
X0036825Y0079612D01*
X0036825Y0079014D02*
X0167108Y0079014D01*
X0167108Y0078415D02*
X0036825Y0078415D01*
X0036825Y0077817D02*
X0167108Y0077817D01*
X0167581Y0077218D02*
X0036672Y0077218D01*
X0036512Y0076620D02*
X0084420Y0076620D01*
X0084992Y0077192D02*
X0083708Y0075908D01*
X0083708Y0074092D01*
X0084992Y0072808D01*
X0086808Y0072808D01*
X0088092Y0074092D01*
X0088092Y0075908D01*
X0086808Y0077192D01*
X0084992Y0077192D01*
X0083821Y0076021D02*
X0036352Y0076021D01*
X0036191Y0075423D02*
X0083708Y0075423D01*
X0083708Y0074824D02*
X0035958Y0074824D01*
X0035612Y0074226D02*
X0083708Y0074226D01*
X0084173Y0073627D02*
X0035267Y0073627D01*
X0034921Y0073029D02*
X0084771Y0073029D01*
X0087029Y0073029D02*
X0186908Y0073029D01*
X0186908Y0073508D02*
X0186908Y0071692D01*
X0188192Y0070408D01*
X0190008Y0070408D01*
X0191292Y0071692D01*
X0191292Y0073508D01*
X0190008Y0074792D01*
X0188192Y0074792D01*
X0186908Y0073508D01*
X0187027Y0073627D02*
X0087627Y0073627D01*
X0088092Y0074226D02*
X0187626Y0074226D01*
X0186908Y0072430D02*
X0034498Y0072430D01*
X0033899Y0071832D02*
X0186908Y0071832D01*
X0187367Y0071233D02*
X0033301Y0071233D01*
X0032702Y0070635D02*
X0187965Y0070635D01*
X0190235Y0070635D02*
X0195765Y0070635D01*
X0195992Y0070408D02*
X0197808Y0070408D01*
X0199092Y0071692D01*
X0199092Y0073508D01*
X0197808Y0074792D01*
X0195992Y0074792D01*
X0194708Y0073508D01*
X0194708Y0071692D01*
X0195992Y0070408D01*
X0195167Y0071233D02*
X0190833Y0071233D01*
X0191292Y0071832D02*
X0194708Y0071832D01*
X0194708Y0072430D02*
X0191292Y0072430D01*
X0191292Y0073029D02*
X0194708Y0073029D01*
X0194827Y0073627D02*
X0191173Y0073627D01*
X0190574Y0074226D02*
X0195426Y0074226D01*
X0198374Y0074226D02*
X0233826Y0074226D01*
X0234392Y0074792D02*
X0233108Y0073508D01*
X0233108Y0071692D01*
X0234392Y0070408D01*
X0236208Y0070408D01*
X0237492Y0071692D01*
X0237492Y0073508D01*
X0236208Y0074792D01*
X0234392Y0074792D01*
X0233227Y0073627D02*
X0198973Y0073627D01*
X0199092Y0073029D02*
X0233108Y0073029D01*
X0233108Y0072430D02*
X0199092Y0072430D01*
X0199092Y0071832D02*
X0233108Y0071832D01*
X0233567Y0071233D02*
X0198633Y0071233D01*
X0198035Y0070635D02*
X0234165Y0070635D01*
X0236435Y0070635D02*
X0245925Y0070635D01*
X0245326Y0071233D02*
X0237033Y0071233D01*
X0237492Y0071832D02*
X0245059Y0071832D01*
X0244811Y0072430D02*
X0237492Y0072430D01*
X0237492Y0073029D02*
X0244700Y0073029D01*
X0244700Y0073627D02*
X0237373Y0073627D01*
X0236774Y0074226D02*
X0244700Y0074226D01*
X0244938Y0074824D02*
X0088092Y0074824D01*
X0088092Y0075423D02*
X0245186Y0075423D01*
X0245631Y0076021D02*
X0087979Y0076021D01*
X0087380Y0076620D02*
X0168180Y0076620D01*
X0170420Y0076620D02*
X0246229Y0076620D01*
X0247734Y0079612D02*
X0203413Y0079612D01*
X0203892Y0080211D02*
X0246349Y0080211D01*
X0246391Y0080169D02*
X0247824Y0079575D01*
X0249376Y0079575D01*
X0250809Y0080169D01*
X0251906Y0081266D01*
X0252500Y0082699D01*
X0252500Y0084251D01*
X0251906Y0085684D01*
X0250809Y0086781D01*
X0249376Y0087375D01*
X0247824Y0087375D01*
X0246391Y0086781D01*
X0245294Y0085684D01*
X0244700Y0084251D01*
X0244700Y0082699D01*
X0245294Y0081266D01*
X0246391Y0080169D01*
X0245750Y0080809D02*
X0217210Y0080809D01*
X0217008Y0080608D02*
X0218292Y0081892D01*
X0218292Y0083708D01*
X0217008Y0084992D01*
X0215192Y0084992D01*
X0213908Y0083708D01*
X0213908Y0081892D01*
X0215192Y0080608D01*
X0217008Y0080608D01*
X0217808Y0081408D02*
X0245235Y0081408D01*
X0244987Y0082006D02*
X0218292Y0082006D01*
X0218292Y0082605D02*
X0244739Y0082605D01*
X0244700Y0083203D02*
X0218292Y0083203D01*
X0218198Y0083802D02*
X0244700Y0083802D01*
X0244762Y0084401D02*
X0226801Y0084401D01*
X0226608Y0084208D02*
X0227892Y0085492D01*
X0227892Y0087308D01*
X0226608Y0088592D01*
X0224792Y0088592D01*
X0223508Y0087308D01*
X0223508Y0085492D01*
X0224792Y0084208D01*
X0226608Y0084208D01*
X0227399Y0084999D02*
X0245010Y0084999D01*
X0245258Y0085598D02*
X0227892Y0085598D01*
X0227892Y0086196D02*
X0245806Y0086196D01*
X0246423Y0086795D02*
X0227892Y0086795D01*
X0227807Y0087393D02*
X0269126Y0087393D01*
X0268527Y0086795D02*
X0250777Y0086795D01*
X0251394Y0086196D02*
X0267929Y0086196D01*
X0267409Y0085598D02*
X0251942Y0085598D01*
X0252190Y0084999D02*
X0267064Y0084999D01*
X0266718Y0084401D02*
X0252438Y0084401D01*
X0252500Y0083802D02*
X0266373Y0083802D01*
X0266069Y0083203D02*
X0252500Y0083203D01*
X0252461Y0082605D02*
X0265909Y0082605D01*
X0265749Y0082006D02*
X0252213Y0082006D01*
X0251965Y0081408D02*
X0265588Y0081408D01*
X0265428Y0080809D02*
X0251450Y0080809D01*
X0250851Y0080211D02*
X0265375Y0080211D01*
X0265375Y0079612D02*
X0249466Y0079612D01*
X0246711Y0070036D02*
X0031678Y0070036D01*
X0036612Y0081408D02*
X0199508Y0081408D01*
X0199606Y0082006D02*
X0036451Y0082006D01*
X0036291Y0082605D02*
X0200205Y0082605D01*
X0203195Y0082605D02*
X0213908Y0082605D01*
X0213908Y0083203D02*
X0036131Y0083203D01*
X0035827Y0083802D02*
X0214002Y0083802D01*
X0214600Y0084401D02*
X0116401Y0084401D01*
X0116999Y0084999D02*
X0224001Y0084999D01*
X0223508Y0085598D02*
X0117492Y0085598D01*
X0117492Y0086196D02*
X0188004Y0086196D01*
X0187405Y0086795D02*
X0117492Y0086795D01*
X0117407Y0087393D02*
X0186908Y0087393D01*
X0190196Y0086196D02*
X0223508Y0086196D01*
X0223508Y0086795D02*
X0190795Y0086795D01*
X0191292Y0087393D02*
X0223593Y0087393D01*
X0224191Y0087992D02*
X0191292Y0087992D01*
X0191292Y0088590D02*
X0224790Y0088590D01*
X0226610Y0088590D02*
X0270914Y0088590D01*
X0269877Y0087992D02*
X0227209Y0087992D01*
X0224599Y0084401D02*
X0217600Y0084401D01*
X0214392Y0081408D02*
X0203892Y0081408D01*
X0203892Y0080809D02*
X0214990Y0080809D01*
X0213908Y0082006D02*
X0203794Y0082006D01*
X0202814Y0079014D02*
X0265375Y0079014D01*
X0271951Y0089189D02*
X0191212Y0089189D01*
X0190613Y0089787D02*
X0274173Y0089787D01*
X0246203Y0162207D02*
X0237407Y0162207D01*
X0237492Y0162805D02*
X0245604Y0162805D01*
X0245174Y0163404D02*
X0237492Y0163404D01*
X0237492Y0164003D02*
X0244926Y0164003D01*
X0244700Y0164601D02*
X0236999Y0164601D01*
X0236401Y0165200D02*
X0244700Y0165200D01*
X0245952Y0168192D02*
X0170792Y0168192D01*
X0171391Y0168791D02*
X0246776Y0168791D01*
X0247824Y0171425D02*
X0249376Y0171425D01*
X0250809Y0172019D01*
X0251906Y0173116D01*
X0252500Y0174549D01*
X0252500Y0176101D01*
X0251906Y0177534D01*
X0250809Y0178631D01*
X0249376Y0179225D01*
X0247824Y0179225D01*
X0246391Y0178631D01*
X0245294Y0177534D01*
X0244700Y0176101D01*
X0244700Y0174549D01*
X0245294Y0173116D01*
X0246391Y0172019D01*
X0247824Y0171425D01*
X0246960Y0171783D02*
X0203892Y0171783D01*
X0203892Y0171292D02*
X0202608Y0170008D01*
X0200792Y0170008D01*
X0199508Y0171292D01*
X0199508Y0173108D01*
X0200792Y0174392D01*
X0202608Y0174392D01*
X0203892Y0173108D01*
X0203892Y0171292D01*
X0203785Y0171185D02*
X0296800Y0171185D01*
X0296800Y0171783D02*
X0250240Y0171783D01*
X0251172Y0172382D02*
X0296800Y0172382D01*
X0296800Y0172980D02*
X0251771Y0172980D01*
X0252098Y0173579D02*
X0296800Y0173579D01*
X0296800Y0174177D02*
X0252346Y0174177D01*
X0252500Y0174776D02*
X0296800Y0174776D01*
X0296800Y0175374D02*
X0252500Y0175374D01*
X0252500Y0175973D02*
X0296800Y0175973D01*
X0296800Y0176571D02*
X0252305Y0176571D01*
X0252057Y0177170D02*
X0296800Y0177170D01*
X0296800Y0177768D02*
X0251672Y0177768D01*
X0251074Y0178367D02*
X0296800Y0178367D01*
X0296800Y0178965D02*
X0250003Y0178965D01*
X0247197Y0178965D02*
X0227892Y0178965D01*
X0227892Y0179108D02*
X0226608Y0180392D01*
X0224792Y0180392D01*
X0223508Y0179108D01*
X0223508Y0177292D01*
X0224792Y0176008D01*
X0226608Y0176008D01*
X0227892Y0177292D01*
X0227892Y0179108D01*
X0227436Y0179564D02*
X0296800Y0179564D01*
X0296800Y0180162D02*
X0226838Y0180162D01*
X0227892Y0178367D02*
X0246126Y0178367D01*
X0245528Y0177768D02*
X0227892Y0177768D01*
X0227770Y0177170D02*
X0245143Y0177170D01*
X0244895Y0176571D02*
X0227171Y0176571D01*
X0224229Y0176571D02*
X0117196Y0176571D01*
X0117667Y0177042D02*
X0116383Y0175758D01*
X0114567Y0175758D01*
X0113283Y0177042D01*
X0113283Y0178858D01*
X0114567Y0180142D01*
X0116383Y0180142D01*
X0117667Y0178858D01*
X0117667Y0177042D01*
X0117667Y0177170D02*
X0223630Y0177170D01*
X0223508Y0177768D02*
X0117667Y0177768D01*
X0117667Y0178367D02*
X0187633Y0178367D01*
X0188192Y0177808D02*
X0190008Y0177808D01*
X0191292Y0179092D01*
X0191292Y0180908D01*
X0190008Y0182192D01*
X0188192Y0182192D01*
X0186908Y0180908D01*
X0186908Y0179092D01*
X0188192Y0177808D01*
X0187035Y0178965D02*
X0117560Y0178965D01*
X0116961Y0179564D02*
X0186908Y0179564D01*
X0186908Y0180162D02*
X0078917Y0180162D01*
X0078917Y0180733D02*
X0077633Y0182017D01*
X0075817Y0182017D01*
X0074533Y0180733D01*
X0074533Y0178917D01*
X0075817Y0177633D01*
X0077633Y0177633D01*
X0078917Y0178917D01*
X0078917Y0180733D01*
X0078889Y0180761D02*
X0166639Y0180761D01*
X0167192Y0180208D02*
X0169008Y0180208D01*
X0170292Y0181492D01*
X0170292Y0183308D01*
X0169008Y0184592D01*
X0167192Y0184592D01*
X0165908Y0183308D01*
X0165908Y0181492D01*
X0167192Y0180208D01*
X0166041Y0181359D02*
X0078291Y0181359D01*
X0077692Y0181958D02*
X0165908Y0181958D01*
X0165908Y0182556D02*
X0067667Y0182556D01*
X0067667Y0182042D02*
X0066383Y0180758D01*
X0064567Y0180758D01*
X0063283Y0182042D01*
X0063283Y0183858D01*
X0064567Y0185142D01*
X0066383Y0185142D01*
X0067667Y0183858D01*
X0067667Y0182042D01*
X0067583Y0181958D02*
X0075758Y0181958D01*
X0075159Y0181359D02*
X0066984Y0181359D01*
X0066386Y0180761D02*
X0074561Y0180761D01*
X0074533Y0180162D02*
X0030368Y0180162D01*
X0030368Y0179630D02*
X0029780Y0178209D01*
X0028691Y0177120D01*
X0027269Y0176531D01*
X0025730Y0176531D01*
X0024309Y0177120D01*
X0023220Y0178209D01*
X0022631Y0179630D01*
X0022631Y0181169D01*
X0023220Y0182591D01*
X0024309Y0183680D01*
X0025730Y0184268D01*
X0027269Y0184268D01*
X0028691Y0183680D01*
X0029780Y0182591D01*
X0030368Y0181169D01*
X0030368Y0179630D01*
X0030341Y0179564D02*
X0074533Y0179564D01*
X0074533Y0178965D02*
X0030093Y0178965D01*
X0029845Y0178367D02*
X0075083Y0178367D01*
X0075682Y0177768D02*
X0029339Y0177768D01*
X0028741Y0177170D02*
X0113283Y0177170D01*
X0113283Y0177768D02*
X0077768Y0177768D01*
X0078367Y0178367D02*
X0113283Y0178367D01*
X0113390Y0178965D02*
X0078917Y0178965D01*
X0078917Y0179564D02*
X0113989Y0179564D01*
X0113754Y0176571D02*
X0027365Y0176571D01*
X0025634Y0176571D02*
X0005400Y0176571D01*
X0005400Y0175973D02*
X0114352Y0175973D01*
X0116598Y0175973D02*
X0214973Y0175973D01*
X0215192Y0176192D02*
X0213908Y0174908D01*
X0213908Y0173092D01*
X0215192Y0171808D01*
X0217008Y0171808D01*
X0218292Y0173092D01*
X0218292Y0174908D01*
X0217008Y0176192D01*
X0215192Y0176192D01*
X0214374Y0175374D02*
X0005400Y0175374D01*
X0005400Y0174776D02*
X0213908Y0174776D01*
X0213908Y0174177D02*
X0202823Y0174177D01*
X0203421Y0173579D02*
X0213908Y0173579D01*
X0214020Y0172980D02*
X0203892Y0172980D01*
X0203892Y0172382D02*
X0214618Y0172382D01*
X0217582Y0172382D02*
X0246028Y0172382D01*
X0245429Y0172980D02*
X0218180Y0172980D01*
X0218292Y0173579D02*
X0245102Y0173579D01*
X0244854Y0174177D02*
X0218292Y0174177D01*
X0218292Y0174776D02*
X0244700Y0174776D01*
X0244700Y0175374D02*
X0217826Y0175374D01*
X0217227Y0175973D02*
X0244700Y0175973D01*
X0224562Y0180162D02*
X0191292Y0180162D01*
X0191292Y0179564D02*
X0223964Y0179564D01*
X0223508Y0178965D02*
X0191165Y0178965D01*
X0190567Y0178367D02*
X0223508Y0178367D01*
X0213342Y0188541D02*
X0296800Y0188541D01*
X0296800Y0187943D02*
X0201492Y0187943D01*
X0201492Y0187492D02*
X0200208Y0186208D01*
X0198392Y0186208D01*
X0197108Y0187492D01*
X0197108Y0189308D01*
X0198392Y0190592D01*
X0200208Y0190592D01*
X0201492Y0189308D01*
X0201492Y0187492D01*
X0201345Y0187344D02*
X0296800Y0187344D01*
X0296800Y0186746D02*
X0200746Y0186746D01*
X0201492Y0188541D02*
X0210458Y0188541D01*
X0210992Y0188008D02*
X0212808Y0188008D01*
X0214092Y0189292D01*
X0214092Y0191108D01*
X0212808Y0192392D01*
X0210992Y0192392D01*
X0209708Y0191108D01*
X0209708Y0189292D01*
X0210992Y0188008D01*
X0209860Y0189140D02*
X0201492Y0189140D01*
X0201062Y0189739D02*
X0209708Y0189739D01*
X0209708Y0190337D02*
X0200463Y0190337D01*
X0198137Y0190337D02*
X0192063Y0190337D01*
X0191808Y0190592D02*
X0189992Y0190592D01*
X0188708Y0189308D01*
X0188708Y0187492D01*
X0189992Y0186208D01*
X0191808Y0186208D01*
X0193092Y0187492D01*
X0193092Y0189308D01*
X0191808Y0190592D01*
X0192662Y0189739D02*
X0197538Y0189739D01*
X0197108Y0189140D02*
X0193092Y0189140D01*
X0193092Y0188541D02*
X0197108Y0188541D01*
X0197108Y0187943D02*
X0193092Y0187943D01*
X0192945Y0187344D02*
X0197255Y0187344D01*
X0197854Y0186746D02*
X0192346Y0186746D01*
X0189454Y0186746D02*
X0175546Y0186746D01*
X0175008Y0186208D02*
X0176292Y0187492D01*
X0176292Y0189308D01*
X0175008Y0190592D01*
X0173192Y0190592D01*
X0171908Y0189308D01*
X0171908Y0187492D01*
X0173192Y0186208D01*
X0175008Y0186208D01*
X0176145Y0187344D02*
X0188855Y0187344D01*
X0188708Y0187943D02*
X0176292Y0187943D01*
X0176292Y0188541D02*
X0188708Y0188541D01*
X0188708Y0189140D02*
X0176292Y0189140D01*
X0175862Y0189739D02*
X0189138Y0189739D01*
X0189737Y0190337D02*
X0175263Y0190337D01*
X0172937Y0190337D02*
X0030368Y0190337D01*
X0030368Y0189739D02*
X0172338Y0189739D01*
X0171908Y0189140D02*
X0030165Y0189140D01*
X0030368Y0189630D02*
X0029780Y0188209D01*
X0028691Y0187120D01*
X0027269Y0186531D01*
X0025730Y0186531D01*
X0024309Y0187120D01*
X0023220Y0188209D01*
X0022631Y0189630D01*
X0022631Y0191169D01*
X0023220Y0192591D01*
X0024309Y0193680D01*
X0025730Y0194268D01*
X0027269Y0194268D01*
X0028691Y0193680D01*
X0029780Y0192591D01*
X0030368Y0191169D01*
X0030368Y0189630D01*
X0029917Y0188541D02*
X0171908Y0188541D01*
X0171908Y0187943D02*
X0029514Y0187943D01*
X0028915Y0187344D02*
X0172055Y0187344D01*
X0172654Y0186746D02*
X0027787Y0186746D01*
X0025213Y0186746D02*
X0005400Y0186746D01*
X0005400Y0187344D02*
X0024085Y0187344D01*
X0023486Y0187943D02*
X0005400Y0187943D01*
X0005400Y0188541D02*
X0023083Y0188541D01*
X0022835Y0189140D02*
X0005400Y0189140D01*
X0005400Y0189739D02*
X0022631Y0189739D01*
X0022631Y0190337D02*
X0005400Y0190337D01*
X0005400Y0190936D02*
X0022631Y0190936D01*
X0022783Y0191534D02*
X0005400Y0191534D01*
X0005400Y0192133D02*
X0023030Y0192133D01*
X0023360Y0192731D02*
X0005400Y0192731D01*
X0005400Y0193330D02*
X0023959Y0193330D01*
X0024909Y0193928D02*
X0005400Y0193928D01*
X0005400Y0194527D02*
X0063298Y0194527D01*
X0063283Y0194542D02*
X0064567Y0193258D01*
X0066383Y0193258D01*
X0067667Y0194542D01*
X0067667Y0196358D01*
X0066383Y0197642D01*
X0064567Y0197642D01*
X0063283Y0196358D01*
X0063283Y0194542D01*
X0063283Y0195125D02*
X0005400Y0195125D01*
X0005400Y0195724D02*
X0063283Y0195724D01*
X0063283Y0196322D02*
X0005400Y0196322D01*
X0005400Y0196921D02*
X0063846Y0196921D01*
X0064444Y0197519D02*
X0005400Y0197519D01*
X0005400Y0198118D02*
X0296800Y0198118D01*
X0296800Y0198716D02*
X0005400Y0198716D01*
X0005400Y0199315D02*
X0296800Y0199315D01*
X0296800Y0199913D02*
X0005400Y0199913D01*
X0005400Y0200512D02*
X0296800Y0200512D01*
X0296800Y0201110D02*
X0179385Y0201110D01*
X0178833Y0200558D02*
X0180117Y0201842D01*
X0180117Y0203658D01*
X0178833Y0204942D01*
X0177017Y0204942D01*
X0175733Y0203658D01*
X0175733Y0201842D01*
X0177017Y0200558D01*
X0178833Y0200558D01*
X0179984Y0201709D02*
X0296800Y0201709D01*
X0296800Y0202307D02*
X0180117Y0202307D01*
X0180117Y0202906D02*
X0296800Y0202906D01*
X0296800Y0203504D02*
X0180117Y0203504D01*
X0179672Y0204103D02*
X0296800Y0204103D01*
X0296800Y0204701D02*
X0179074Y0204701D01*
X0176776Y0204701D02*
X0030368Y0204701D01*
X0030368Y0205169D02*
X0029780Y0206591D01*
X0028691Y0207680D01*
X0027269Y0208268D01*
X0025730Y0208268D01*
X0024309Y0207680D01*
X0023220Y0206591D01*
X0022631Y0205169D01*
X0022631Y0203630D01*
X0023220Y0202209D01*
X0024309Y0201120D01*
X0025730Y0200531D01*
X0027269Y0200531D01*
X0028691Y0201120D01*
X0029780Y0202209D01*
X0030368Y0203630D01*
X0030368Y0205169D01*
X0030315Y0205300D02*
X0262925Y0205300D01*
X0263746Y0204960D02*
X0261982Y0205690D01*
X0260633Y0207040D01*
X0260225Y0208025D01*
X0259253Y0207623D01*
X0256446Y0207623D01*
X0253853Y0208697D01*
X0251868Y0210682D01*
X0250794Y0213275D01*
X0250794Y0216082D01*
X0251868Y0218676D01*
X0253853Y0220660D01*
X0256446Y0221735D01*
X0259253Y0221735D01*
X0259848Y0221488D01*
X0259883Y0221595D01*
X0260255Y0222324D01*
X0260735Y0222986D01*
X0261314Y0223565D01*
X0261976Y0224045D01*
X0262705Y0224417D01*
X0263483Y0224670D01*
X0264291Y0224798D01*
X0264400Y0224798D01*
X0264400Y0219900D01*
X0265000Y0219900D01*
X0265000Y0224798D01*
X0265109Y0224798D01*
X0265917Y0224670D01*
X0266695Y0224417D01*
X0267424Y0224045D01*
X0268086Y0223565D01*
X0268665Y0222986D01*
X0269145Y0222324D01*
X0269517Y0221595D01*
X0269770Y0220817D01*
X0269898Y0220009D01*
X0269898Y0219900D01*
X0265000Y0219900D01*
X0265000Y0219300D01*
X0269898Y0219300D01*
X0269898Y0219191D01*
X0269770Y0218383D01*
X0269517Y0217605D01*
X0269145Y0216876D01*
X0268665Y0216214D01*
X0268086Y0215635D01*
X0267424Y0215155D01*
X0266695Y0214783D01*
X0265917Y0214530D01*
X0265770Y0214507D01*
X0267418Y0213825D01*
X0268767Y0212475D01*
X0269498Y0210712D01*
X0269498Y0208803D01*
X0268767Y0207040D01*
X0267418Y0205690D01*
X0265654Y0204960D01*
X0263746Y0204960D01*
X0261774Y0205898D02*
X0030067Y0205898D01*
X0029819Y0206497D02*
X0261176Y0206497D01*
X0260610Y0207095D02*
X0029276Y0207095D01*
X0028657Y0207694D02*
X0256275Y0207694D01*
X0254830Y0208292D02*
X0169067Y0208292D01*
X0168833Y0208058D02*
X0170117Y0209342D01*
X0170117Y0211158D01*
X0168833Y0212442D01*
X0167017Y0212442D01*
X0165733Y0211158D01*
X0165733Y0209342D01*
X0167017Y0208058D01*
X0168833Y0208058D01*
X0169666Y0208891D02*
X0253659Y0208891D01*
X0253060Y0209489D02*
X0170117Y0209489D01*
X0170117Y0210088D02*
X0252462Y0210088D01*
X0251866Y0210686D02*
X0170117Y0210686D01*
X0169990Y0211285D02*
X0251618Y0211285D01*
X0251370Y0211883D02*
X0169392Y0211883D01*
X0166458Y0211883D02*
X0029454Y0211883D01*
X0029780Y0212209D02*
X0030368Y0213630D01*
X0030368Y0215169D01*
X0029780Y0216591D01*
X0028691Y0217680D01*
X0027269Y0218268D01*
X0025730Y0218268D01*
X0024309Y0217680D01*
X0023220Y0216591D01*
X0022631Y0215169D01*
X0022631Y0213630D01*
X0023220Y0212209D01*
X0024309Y0211120D01*
X0025730Y0210531D01*
X0027269Y0210531D01*
X0028691Y0211120D01*
X0029780Y0212209D01*
X0029893Y0212482D02*
X0251122Y0212482D01*
X0250874Y0213080D02*
X0030141Y0213080D01*
X0030368Y0213679D02*
X0250794Y0213679D01*
X0250794Y0214277D02*
X0030368Y0214277D01*
X0030368Y0214876D02*
X0250794Y0214876D01*
X0250794Y0215474D02*
X0030242Y0215474D01*
X0029994Y0216073D02*
X0250794Y0216073D01*
X0251038Y0216672D02*
X0029699Y0216672D01*
X0029101Y0217270D02*
X0251286Y0217270D01*
X0251534Y0217869D02*
X0028235Y0217869D01*
X0024765Y0217869D02*
X0005400Y0217869D01*
X0005400Y0218467D02*
X0188483Y0218467D01*
X0188892Y0218058D02*
X0190708Y0218058D01*
X0191992Y0219342D01*
X0191992Y0221158D01*
X0190708Y0222442D01*
X0188892Y0222442D01*
X0187608Y0221158D01*
X0187608Y0219342D01*
X0188892Y0218058D01*
X0187884Y0219066D02*
X0005400Y0219066D01*
X0005400Y0219664D02*
X0187608Y0219664D01*
X0187608Y0220263D02*
X0005400Y0220263D01*
X0005400Y0220861D02*
X0187608Y0220861D01*
X0187909Y0221460D02*
X0005400Y0221460D01*
X0005400Y0222058D02*
X0188508Y0222058D01*
X0191092Y0222058D02*
X0260119Y0222058D01*
X0260496Y0222657D02*
X0005400Y0222657D01*
X0005400Y0223255D02*
X0059308Y0223255D01*
X0058909Y0223420D02*
X0060330Y0222831D01*
X0061869Y0222831D01*
X0063291Y0223420D01*
X0064380Y0224509D01*
X0064968Y0225930D01*
X0064968Y0227469D01*
X0064380Y0228891D01*
X0063291Y0229980D01*
X0061869Y0230568D01*
X0060330Y0230568D01*
X0058909Y0229980D01*
X0057820Y0228891D01*
X0057231Y0227469D01*
X0057231Y0225930D01*
X0057820Y0224509D01*
X0058909Y0223420D01*
X0058475Y0223854D02*
X0005400Y0223854D01*
X0005400Y0224452D02*
X0057877Y0224452D01*
X0057596Y0225051D02*
X0028523Y0225051D01*
X0028691Y0225120D02*
X0029780Y0226209D01*
X0030368Y0227630D01*
X0030368Y0229169D01*
X0029780Y0230591D01*
X0028691Y0231680D01*
X0027269Y0232268D01*
X0025730Y0232268D01*
X0024309Y0231680D01*
X0023220Y0230591D01*
X0022631Y0229169D01*
X0022631Y0227630D01*
X0023220Y0226209D01*
X0024309Y0225120D01*
X0025730Y0224531D01*
X0027269Y0224531D01*
X0028691Y0225120D01*
X0029220Y0225649D02*
X0057348Y0225649D01*
X0057231Y0226248D02*
X0029796Y0226248D01*
X0030044Y0226846D02*
X0057231Y0226846D01*
X0057231Y0227445D02*
X0030292Y0227445D01*
X0030368Y0228043D02*
X0057469Y0228043D01*
X0057717Y0228642D02*
X0030368Y0228642D01*
X0030339Y0229240D02*
X0058169Y0229240D01*
X0058768Y0229839D02*
X0030091Y0229839D01*
X0029843Y0230437D02*
X0060014Y0230437D01*
X0062186Y0230437D02*
X0070014Y0230437D01*
X0070330Y0230568D02*
X0068909Y0229980D01*
X0067820Y0228891D01*
X0067231Y0227469D01*
X0067231Y0225930D01*
X0067820Y0224509D01*
X0068909Y0223420D01*
X0070330Y0222831D01*
X0071869Y0222831D01*
X0073291Y0223420D01*
X0074380Y0224509D01*
X0074968Y0225930D01*
X0074968Y0227469D01*
X0074380Y0228891D01*
X0073291Y0229980D01*
X0071869Y0230568D01*
X0070330Y0230568D01*
X0068768Y0229839D02*
X0063432Y0229839D01*
X0064031Y0229240D02*
X0068169Y0229240D01*
X0067717Y0228642D02*
X0064483Y0228642D01*
X0064731Y0228043D02*
X0067469Y0228043D01*
X0067231Y0227445D02*
X0064968Y0227445D01*
X0064968Y0226846D02*
X0067231Y0226846D01*
X0067231Y0226248D02*
X0064968Y0226248D01*
X0064852Y0225649D02*
X0067348Y0225649D01*
X0067596Y0225051D02*
X0064604Y0225051D01*
X0064323Y0224452D02*
X0067877Y0224452D01*
X0068475Y0223854D02*
X0063725Y0223854D01*
X0062892Y0223255D02*
X0069308Y0223255D01*
X0072186Y0230437D02*
X0174483Y0230437D01*
X0174483Y0229967D02*
X0175767Y0228683D01*
X0177583Y0228683D01*
X0178867Y0229967D01*
X0178867Y0231783D01*
X0177583Y0233067D01*
X0175767Y0233067D01*
X0174483Y0231783D01*
X0174483Y0229967D01*
X0174611Y0229839D02*
X0073432Y0229839D01*
X0074031Y0229240D02*
X0175210Y0229240D01*
X0174483Y0231036D02*
X0029335Y0231036D01*
X0028737Y0231634D02*
X0174483Y0231634D01*
X0174933Y0232233D02*
X0027356Y0232233D01*
X0025644Y0232233D02*
X0005400Y0232233D01*
X0005400Y0232831D02*
X0175531Y0232831D01*
X0177819Y0232831D02*
X0190994Y0232831D01*
X0190733Y0233092D02*
X0192017Y0231808D01*
X0193833Y0231808D01*
X0195117Y0233092D01*
X0195117Y0234908D01*
X0193833Y0236192D01*
X0192017Y0236192D01*
X0190733Y0234908D01*
X0190733Y0233092D01*
X0190733Y0233430D02*
X0005400Y0233430D01*
X0005400Y0234028D02*
X0190733Y0234028D01*
X0190733Y0234627D02*
X0027500Y0234627D01*
X0027269Y0234531D02*
X0028691Y0235120D01*
X0029780Y0236209D01*
X0030368Y0237630D01*
X0030368Y0239169D01*
X0029780Y0240591D01*
X0028691Y0241680D01*
X0027269Y0242268D01*
X0025730Y0242268D01*
X0024309Y0241680D01*
X0023220Y0240591D01*
X0022631Y0239169D01*
X0022631Y0237630D01*
X0023220Y0236209D01*
X0024309Y0235120D01*
X0025730Y0234531D01*
X0027269Y0234531D01*
X0028796Y0235225D02*
X0191050Y0235225D01*
X0191649Y0235824D02*
X0029395Y0235824D01*
X0029868Y0236422D02*
X0296800Y0236422D01*
X0296800Y0235824D02*
X0194201Y0235824D01*
X0194800Y0235225D02*
X0296800Y0235225D01*
X0296800Y0234627D02*
X0195117Y0234627D01*
X0195117Y0234028D02*
X0296800Y0234028D01*
X0296800Y0233430D02*
X0195117Y0233430D01*
X0194856Y0232831D02*
X0296800Y0232831D01*
X0296800Y0232233D02*
X0194258Y0232233D01*
X0191592Y0232233D02*
X0178417Y0232233D01*
X0178867Y0231634D02*
X0296800Y0231634D01*
X0296800Y0231036D02*
X0178867Y0231036D01*
X0178867Y0230437D02*
X0296800Y0230437D01*
X0296800Y0229839D02*
X0178739Y0229839D01*
X0178140Y0229240D02*
X0296800Y0229240D01*
X0296800Y0228642D02*
X0181383Y0228642D01*
X0181333Y0228692D02*
X0179517Y0228692D01*
X0178233Y0227408D01*
X0178233Y0225592D01*
X0179517Y0224308D01*
X0181333Y0224308D01*
X0182617Y0225592D01*
X0182617Y0227408D01*
X0181333Y0228692D01*
X0181982Y0228043D02*
X0296800Y0228043D01*
X0296800Y0227445D02*
X0182580Y0227445D01*
X0182617Y0226846D02*
X0296800Y0226846D01*
X0296800Y0226248D02*
X0182617Y0226248D01*
X0182617Y0225649D02*
X0296800Y0225649D01*
X0296800Y0225051D02*
X0182076Y0225051D01*
X0181477Y0224452D02*
X0262814Y0224452D01*
X0261712Y0223854D02*
X0073725Y0223854D01*
X0074323Y0224452D02*
X0179373Y0224452D01*
X0178774Y0225051D02*
X0074604Y0225051D01*
X0074852Y0225649D02*
X0178233Y0225649D01*
X0178233Y0226248D02*
X0074968Y0226248D01*
X0074968Y0226846D02*
X0178233Y0226846D01*
X0178270Y0227445D02*
X0074968Y0227445D01*
X0074731Y0228043D02*
X0178868Y0228043D01*
X0179467Y0228642D02*
X0074483Y0228642D01*
X0072892Y0223255D02*
X0261005Y0223255D01*
X0264400Y0223255D02*
X0265000Y0223255D01*
X0265000Y0222657D02*
X0264400Y0222657D01*
X0264400Y0222058D02*
X0265000Y0222058D01*
X0265000Y0221460D02*
X0264400Y0221460D01*
X0264400Y0220861D02*
X0265000Y0220861D01*
X0265000Y0220263D02*
X0264400Y0220263D01*
X0265000Y0219664D02*
X0296800Y0219664D01*
X0296800Y0219066D02*
X0269878Y0219066D01*
X0269783Y0218467D02*
X0296800Y0218467D01*
X0296800Y0217869D02*
X0269603Y0217869D01*
X0269346Y0217270D02*
X0296800Y0217270D01*
X0296800Y0216672D02*
X0268997Y0216672D01*
X0268524Y0216073D02*
X0296800Y0216073D01*
X0296800Y0215474D02*
X0267864Y0215474D01*
X0266877Y0214876D02*
X0296800Y0214876D01*
X0296800Y0214277D02*
X0266325Y0214277D01*
X0267563Y0213679D02*
X0296800Y0213679D01*
X0296800Y0213080D02*
X0268162Y0213080D01*
X0268760Y0212482D02*
X0296800Y0212482D01*
X0296800Y0211883D02*
X0269012Y0211883D01*
X0269260Y0211285D02*
X0296800Y0211285D01*
X0296800Y0210686D02*
X0269498Y0210686D01*
X0269498Y0210088D02*
X0296800Y0210088D01*
X0296800Y0209489D02*
X0269498Y0209489D01*
X0269498Y0208891D02*
X0296800Y0208891D01*
X0296800Y0208292D02*
X0269286Y0208292D01*
X0269038Y0207694D02*
X0296800Y0207694D01*
X0296800Y0207095D02*
X0268790Y0207095D01*
X0268224Y0206497D02*
X0296800Y0206497D01*
X0296800Y0205898D02*
X0267626Y0205898D01*
X0266475Y0205300D02*
X0296800Y0205300D01*
X0296800Y0197519D02*
X0066506Y0197519D01*
X0067104Y0196921D02*
X0296800Y0196921D01*
X0296800Y0196322D02*
X0067667Y0196322D01*
X0067667Y0195724D02*
X0296800Y0195724D01*
X0296800Y0195125D02*
X0088900Y0195125D01*
X0088883Y0195142D02*
X0087067Y0195142D01*
X0085783Y0193858D01*
X0085783Y0192042D01*
X0087067Y0190758D01*
X0088883Y0190758D01*
X0090167Y0192042D01*
X0090167Y0193858D01*
X0088883Y0195142D01*
X0089499Y0194527D02*
X0296800Y0194527D01*
X0296800Y0193928D02*
X0090097Y0193928D01*
X0090167Y0193330D02*
X0296800Y0193330D01*
X0296800Y0192731D02*
X0090167Y0192731D01*
X0090167Y0192133D02*
X0210732Y0192133D01*
X0210134Y0191534D02*
X0089659Y0191534D01*
X0089061Y0190936D02*
X0209708Y0190936D01*
X0213068Y0192133D02*
X0296800Y0192133D01*
X0296800Y0191534D02*
X0213666Y0191534D01*
X0214092Y0190936D02*
X0296800Y0190936D01*
X0296800Y0190337D02*
X0214092Y0190337D01*
X0214092Y0189739D02*
X0296800Y0189739D01*
X0296800Y0189140D02*
X0213940Y0189140D01*
X0200577Y0174177D02*
X0005400Y0174177D01*
X0005400Y0173579D02*
X0199979Y0173579D01*
X0199508Y0172980D02*
X0177620Y0172980D01*
X0178218Y0172382D02*
X0199508Y0172382D01*
X0199508Y0171783D02*
X0178692Y0171783D01*
X0178692Y0171185D02*
X0199615Y0171185D01*
X0200214Y0170586D02*
X0178692Y0170586D01*
X0178588Y0169988D02*
X0296800Y0169988D01*
X0296800Y0170586D02*
X0203186Y0170586D01*
X0191292Y0180761D02*
X0296800Y0180761D01*
X0296800Y0181359D02*
X0190841Y0181359D01*
X0190242Y0181958D02*
X0296800Y0181958D01*
X0296800Y0182556D02*
X0170292Y0182556D01*
X0170292Y0181958D02*
X0187958Y0181958D01*
X0187359Y0181359D02*
X0170159Y0181359D01*
X0169561Y0180761D02*
X0186908Y0180761D01*
X0170292Y0183155D02*
X0296800Y0183155D01*
X0296800Y0183753D02*
X0169847Y0183753D01*
X0169248Y0184352D02*
X0296800Y0184352D01*
X0296800Y0184950D02*
X0066575Y0184950D01*
X0067173Y0184352D02*
X0166952Y0184352D01*
X0166353Y0183753D02*
X0067667Y0183753D01*
X0067667Y0183155D02*
X0165908Y0183155D01*
X0176465Y0201110D02*
X0028667Y0201110D01*
X0029280Y0201709D02*
X0175866Y0201709D01*
X0175733Y0202307D02*
X0029820Y0202307D01*
X0030068Y0202906D02*
X0175733Y0202906D01*
X0175733Y0203504D02*
X0030316Y0203504D01*
X0030368Y0204103D02*
X0176178Y0204103D01*
X0166782Y0208292D02*
X0005400Y0208292D01*
X0005400Y0207694D02*
X0024343Y0207694D01*
X0023724Y0207095D02*
X0005400Y0207095D01*
X0005400Y0206497D02*
X0023181Y0206497D01*
X0022933Y0205898D02*
X0005400Y0205898D01*
X0005400Y0205300D02*
X0022685Y0205300D01*
X0022631Y0204701D02*
X0005400Y0204701D01*
X0005400Y0204103D02*
X0022631Y0204103D01*
X0022684Y0203504D02*
X0005400Y0203504D01*
X0005400Y0202906D02*
X0022932Y0202906D01*
X0023180Y0202307D02*
X0005400Y0202307D01*
X0005400Y0201709D02*
X0023720Y0201709D01*
X0024333Y0201110D02*
X0005400Y0201110D01*
X0005400Y0208891D02*
X0166184Y0208891D01*
X0165733Y0209489D02*
X0005400Y0209489D01*
X0005400Y0210088D02*
X0165733Y0210088D01*
X0165733Y0210686D02*
X0027643Y0210686D01*
X0028856Y0211285D02*
X0165860Y0211285D01*
X0172592Y0246208D02*
X0174408Y0246208D01*
X0175692Y0247492D01*
X0175692Y0249308D01*
X0174408Y0250592D01*
X0172592Y0250592D01*
X0171308Y0249308D01*
X0171308Y0247492D01*
X0172592Y0246208D01*
X0172203Y0246597D02*
X0005400Y0246597D01*
X0005400Y0245999D02*
X0177826Y0245999D01*
X0177608Y0246217D02*
X0178892Y0244933D01*
X0180708Y0244933D01*
X0181992Y0246217D01*
X0181992Y0248033D01*
X0180708Y0249317D01*
X0178892Y0249317D01*
X0177608Y0248033D01*
X0177608Y0246217D01*
X0177608Y0246597D02*
X0174797Y0246597D01*
X0175396Y0247196D02*
X0177608Y0247196D01*
X0177608Y0247794D02*
X0175692Y0247794D01*
X0175692Y0248393D02*
X0177967Y0248393D01*
X0178566Y0248991D02*
X0175692Y0248991D01*
X0175410Y0249590D02*
X0296800Y0249590D01*
X0296800Y0250188D02*
X0174812Y0250188D01*
X0172188Y0250188D02*
X0029759Y0250188D01*
X0029780Y0250209D02*
X0030368Y0251630D01*
X0030368Y0253169D01*
X0029780Y0254591D01*
X0028691Y0255680D01*
X0027269Y0256268D01*
X0025730Y0256268D01*
X0024309Y0255680D01*
X0023220Y0254591D01*
X0022631Y0253169D01*
X0022631Y0251630D01*
X0023220Y0250209D01*
X0024309Y0249120D01*
X0025730Y0248531D01*
X0027269Y0248531D01*
X0028691Y0249120D01*
X0029780Y0250209D01*
X0030019Y0250787D02*
X0296800Y0250787D01*
X0296800Y0251385D02*
X0030267Y0251385D01*
X0030368Y0251984D02*
X0296800Y0251984D01*
X0296800Y0252582D02*
X0030368Y0252582D01*
X0030364Y0253181D02*
X0246664Y0253181D01*
X0246391Y0253294D02*
X0247824Y0252700D01*
X0249376Y0252700D01*
X0250809Y0253294D01*
X0251906Y0254391D01*
X0252500Y0255824D01*
X0252500Y0257376D01*
X0251906Y0258809D01*
X0250809Y0259906D01*
X0249376Y0260500D01*
X0247824Y0260500D01*
X0246391Y0259906D01*
X0245294Y0258809D01*
X0244700Y0257376D01*
X0244700Y0255824D01*
X0245294Y0254391D01*
X0246391Y0253294D01*
X0245905Y0253779D02*
X0030116Y0253779D01*
X0029868Y0254378D02*
X0187822Y0254378D01*
X0188192Y0254008D02*
X0190008Y0254008D01*
X0191292Y0255292D01*
X0191292Y0257108D01*
X0190008Y0258392D01*
X0188192Y0258392D01*
X0186908Y0257108D01*
X0186908Y0255292D01*
X0188192Y0254008D01*
X0187224Y0254976D02*
X0029395Y0254976D01*
X0028796Y0255575D02*
X0186908Y0255575D01*
X0186908Y0256173D02*
X0027499Y0256173D01*
X0025501Y0256173D02*
X0005400Y0256173D01*
X0005400Y0255575D02*
X0024204Y0255575D01*
X0023605Y0254976D02*
X0005400Y0254976D01*
X0005400Y0254378D02*
X0023132Y0254378D01*
X0022884Y0253779D02*
X0005400Y0253779D01*
X0005400Y0253181D02*
X0022636Y0253181D01*
X0022631Y0252582D02*
X0005400Y0252582D01*
X0005400Y0251984D02*
X0022631Y0251984D01*
X0022733Y0251385D02*
X0005400Y0251385D01*
X0005400Y0250787D02*
X0022981Y0250787D01*
X0023241Y0250188D02*
X0005400Y0250188D01*
X0005400Y0249590D02*
X0023839Y0249590D01*
X0024621Y0248991D02*
X0005400Y0248991D01*
X0005400Y0248393D02*
X0171308Y0248393D01*
X0171308Y0248991D02*
X0028379Y0248991D01*
X0029161Y0249590D02*
X0171590Y0249590D01*
X0171308Y0247794D02*
X0005400Y0247794D01*
X0005400Y0247196D02*
X0171604Y0247196D01*
X0178425Y0245400D02*
X0005400Y0245400D01*
X0005400Y0244802D02*
X0296800Y0244802D01*
X0296800Y0245400D02*
X0181175Y0245400D01*
X0181774Y0245999D02*
X0296800Y0245999D01*
X0296800Y0246597D02*
X0181992Y0246597D01*
X0181992Y0247196D02*
X0296800Y0247196D01*
X0296800Y0247794D02*
X0181992Y0247794D01*
X0181633Y0248393D02*
X0296800Y0248393D01*
X0296800Y0248991D02*
X0181034Y0248991D01*
X0186908Y0256772D02*
X0005400Y0256772D01*
X0005400Y0257370D02*
X0084830Y0257370D01*
X0085192Y0257008D02*
X0087008Y0257008D01*
X0088292Y0258292D01*
X0088292Y0260108D01*
X0087008Y0261392D01*
X0085192Y0261392D01*
X0083908Y0260108D01*
X0083908Y0258292D01*
X0085192Y0257008D01*
X0084231Y0257969D02*
X0005400Y0257969D01*
X0005400Y0258567D02*
X0025644Y0258567D01*
X0025730Y0258531D02*
X0027269Y0258531D01*
X0028691Y0259120D01*
X0029780Y0260209D01*
X0030368Y0261630D01*
X0030368Y0263169D01*
X0029780Y0264591D01*
X0028691Y0265680D01*
X0027269Y0266268D01*
X0025730Y0266268D01*
X0024309Y0265680D01*
X0023220Y0264591D01*
X0022631Y0263169D01*
X0022631Y0261630D01*
X0023220Y0260209D01*
X0024309Y0259120D01*
X0025730Y0258531D01*
X0024263Y0259166D02*
X0005400Y0259166D01*
X0005400Y0259764D02*
X0023665Y0259764D01*
X0023157Y0260363D02*
X0005400Y0260363D01*
X0005400Y0260961D02*
X0022909Y0260961D01*
X0022661Y0261560D02*
X0005400Y0261560D01*
X0005400Y0262158D02*
X0022631Y0262158D01*
X0022631Y0262757D02*
X0005400Y0262757D01*
X0005400Y0263355D02*
X0022709Y0263355D01*
X0022956Y0263954D02*
X0005400Y0263954D01*
X0005400Y0264552D02*
X0023204Y0264552D01*
X0023780Y0265151D02*
X0005400Y0265151D01*
X0005400Y0265749D02*
X0024477Y0265749D01*
X0028523Y0265749D02*
X0199749Y0265749D01*
X0199508Y0265508D02*
X0200792Y0266792D01*
X0202608Y0266792D01*
X0203892Y0265508D01*
X0203892Y0263692D01*
X0202608Y0262408D01*
X0200792Y0262408D01*
X0199508Y0263692D01*
X0199508Y0265508D01*
X0199508Y0265151D02*
X0029220Y0265151D01*
X0029796Y0264552D02*
X0175152Y0264552D01*
X0175592Y0264992D02*
X0174308Y0263708D01*
X0174308Y0261892D01*
X0175592Y0260608D01*
X0177408Y0260608D01*
X0178692Y0261892D01*
X0178692Y0263708D01*
X0177408Y0264992D01*
X0175592Y0264992D01*
X0174554Y0263954D02*
X0030044Y0263954D01*
X0030291Y0263355D02*
X0167955Y0263355D01*
X0168392Y0263792D02*
X0167108Y0262508D01*
X0167108Y0260692D01*
X0168392Y0259408D01*
X0170208Y0259408D01*
X0171492Y0260692D01*
X0171492Y0262508D01*
X0170208Y0263792D01*
X0168392Y0263792D01*
X0167357Y0262757D02*
X0030368Y0262757D01*
X0030368Y0262158D02*
X0167108Y0262158D01*
X0167108Y0261560D02*
X0030339Y0261560D01*
X0030091Y0260961D02*
X0084761Y0260961D01*
X0084163Y0260363D02*
X0029843Y0260363D01*
X0029335Y0259764D02*
X0083908Y0259764D01*
X0083908Y0259166D02*
X0028737Y0259166D01*
X0027356Y0258567D02*
X0083908Y0258567D01*
X0087370Y0257370D02*
X0187170Y0257370D01*
X0187769Y0257969D02*
X0087969Y0257969D01*
X0088292Y0258567D02*
X0245194Y0258567D01*
X0244946Y0257969D02*
X0236631Y0257969D01*
X0236208Y0258392D02*
X0234392Y0258392D01*
X0233108Y0257108D01*
X0233108Y0255292D01*
X0234392Y0254008D01*
X0236208Y0254008D01*
X0237492Y0255292D01*
X0237492Y0257108D01*
X0236208Y0258392D01*
X0237230Y0257370D02*
X0244700Y0257370D01*
X0244700Y0256772D02*
X0237492Y0256772D01*
X0237492Y0256173D02*
X0244700Y0256173D01*
X0244803Y0255575D02*
X0237492Y0255575D01*
X0237176Y0254976D02*
X0245051Y0254976D01*
X0245307Y0254378D02*
X0236578Y0254378D01*
X0234022Y0254378D02*
X0198178Y0254378D01*
X0197808Y0254008D02*
X0199092Y0255292D01*
X0199092Y0257108D01*
X0197808Y0258392D01*
X0195992Y0258392D01*
X0194708Y0257108D01*
X0194708Y0255292D01*
X0195992Y0254008D01*
X0197808Y0254008D01*
X0198776Y0254976D02*
X0233424Y0254976D01*
X0233108Y0255575D02*
X0199092Y0255575D01*
X0199092Y0256173D02*
X0233108Y0256173D01*
X0233108Y0256772D02*
X0199092Y0256772D01*
X0198830Y0257370D02*
X0233370Y0257370D01*
X0233969Y0257969D02*
X0198231Y0257969D01*
X0195569Y0257969D02*
X0190431Y0257969D01*
X0191030Y0257370D02*
X0194970Y0257370D01*
X0194708Y0256772D02*
X0191292Y0256772D01*
X0191292Y0256173D02*
X0194708Y0256173D01*
X0194708Y0255575D02*
X0191292Y0255575D01*
X0190976Y0254976D02*
X0195024Y0254976D01*
X0195622Y0254378D02*
X0190378Y0254378D01*
X0199844Y0263355D02*
X0178692Y0263355D01*
X0178692Y0262757D02*
X0200443Y0262757D01*
X0199508Y0263954D02*
X0178446Y0263954D01*
X0177848Y0264552D02*
X0199508Y0264552D01*
X0200348Y0266348D02*
X0005400Y0266348D01*
X0005400Y0266946D02*
X0213908Y0266946D01*
X0213908Y0267308D02*
X0213908Y0265492D01*
X0215192Y0264208D01*
X0217008Y0264208D01*
X0218292Y0265492D01*
X0218292Y0267308D01*
X0217008Y0268592D01*
X0215192Y0268592D01*
X0213908Y0267308D01*
X0214145Y0267545D02*
X0005400Y0267545D01*
X0005400Y0268143D02*
X0114056Y0268143D01*
X0114567Y0267633D02*
X0113283Y0268917D01*
X0113283Y0270733D01*
X0114567Y0272017D01*
X0116383Y0272017D01*
X0117667Y0270733D01*
X0117667Y0268917D01*
X0116383Y0267633D01*
X0114567Y0267633D01*
X0113458Y0268742D02*
X0005400Y0268742D01*
X0005400Y0269341D02*
X0113283Y0269341D01*
X0113283Y0269939D02*
X0078064Y0269939D01*
X0077633Y0269508D02*
X0078917Y0270792D01*
X0078917Y0272608D01*
X0077633Y0273892D01*
X0075817Y0273892D01*
X0074533Y0272608D01*
X0074533Y0270792D01*
X0075817Y0269508D01*
X0077633Y0269508D01*
X0078663Y0270538D02*
X0113283Y0270538D01*
X0113686Y0271136D02*
X0078917Y0271136D01*
X0078917Y0271735D02*
X0114284Y0271735D01*
X0116666Y0271735D02*
X0186308Y0271735D01*
X0186308Y0272333D02*
X0169333Y0272333D01*
X0169008Y0272008D02*
X0170292Y0273292D01*
X0170292Y0275108D01*
X0169008Y0276392D01*
X0167192Y0276392D01*
X0165908Y0275108D01*
X0165908Y0273292D01*
X0167192Y0272008D01*
X0169008Y0272008D01*
X0169932Y0272932D02*
X0186531Y0272932D01*
X0186308Y0272708D02*
X0186308Y0270892D01*
X0187592Y0269608D01*
X0189408Y0269608D01*
X0190692Y0270892D01*
X0190692Y0272708D01*
X0189408Y0273992D01*
X0187592Y0273992D01*
X0186308Y0272708D01*
X0187130Y0273530D02*
X0170292Y0273530D01*
X0170292Y0274129D02*
X0296800Y0274129D01*
X0296800Y0274727D02*
X0170292Y0274727D01*
X0170074Y0275326D02*
X0296800Y0275326D01*
X0296800Y0275924D02*
X0169476Y0275924D01*
X0166724Y0275924D02*
X0067476Y0275924D01*
X0067667Y0275733D02*
X0066383Y0277017D01*
X0064567Y0277017D01*
X0063283Y0275733D01*
X0063283Y0273917D01*
X0064567Y0272633D01*
X0066383Y0272633D01*
X0067667Y0273917D01*
X0067667Y0275733D01*
X0067667Y0275326D02*
X0166125Y0275326D01*
X0165908Y0274727D02*
X0067667Y0274727D01*
X0067667Y0274129D02*
X0165908Y0274129D01*
X0165908Y0273530D02*
X0077995Y0273530D01*
X0078594Y0272932D02*
X0166268Y0272932D01*
X0166867Y0272333D02*
X0078917Y0272333D01*
X0075455Y0273530D02*
X0067280Y0273530D01*
X0066682Y0272932D02*
X0074856Y0272932D01*
X0074533Y0272333D02*
X0005400Y0272333D01*
X0005400Y0271735D02*
X0074533Y0271735D01*
X0074533Y0271136D02*
X0005400Y0271136D01*
X0005400Y0270538D02*
X0074787Y0270538D01*
X0075386Y0269939D02*
X0005400Y0269939D01*
X0005400Y0272932D02*
X0024765Y0272932D01*
X0024309Y0273120D02*
X0025730Y0272531D01*
X0027269Y0272531D01*
X0028691Y0273120D01*
X0029780Y0274209D01*
X0030368Y0275630D01*
X0030368Y0277169D01*
X0029780Y0278591D01*
X0028691Y0279680D01*
X0027269Y0280268D01*
X0025730Y0280268D01*
X0024309Y0279680D01*
X0023220Y0278591D01*
X0022631Y0277169D01*
X0022631Y0275630D01*
X0023220Y0274209D01*
X0024309Y0273120D01*
X0023899Y0273530D02*
X0005400Y0273530D01*
X0005400Y0274129D02*
X0023300Y0274129D01*
X0023006Y0274727D02*
X0005400Y0274727D01*
X0005400Y0275326D02*
X0022758Y0275326D01*
X0022631Y0275924D02*
X0005400Y0275924D01*
X0005400Y0276523D02*
X0022631Y0276523D01*
X0022631Y0277121D02*
X0005400Y0277121D01*
X0005400Y0277720D02*
X0022859Y0277720D01*
X0023107Y0278318D02*
X0005400Y0278318D01*
X0005400Y0278917D02*
X0023546Y0278917D01*
X0024144Y0279515D02*
X0005400Y0279515D01*
X0005400Y0280114D02*
X0025357Y0280114D01*
X0027643Y0280114D02*
X0171308Y0280114D01*
X0171308Y0280712D02*
X0005400Y0280712D01*
X0005400Y0281311D02*
X0171511Y0281311D01*
X0171308Y0281108D02*
X0171308Y0279292D01*
X0172592Y0278008D01*
X0174408Y0278008D01*
X0175692Y0279292D01*
X0175692Y0281108D01*
X0174408Y0282392D01*
X0172592Y0282392D01*
X0171308Y0281108D01*
X0172109Y0281909D02*
X0005400Y0281909D01*
X0005400Y0282508D02*
X0085942Y0282508D01*
X0086442Y0282008D02*
X0088258Y0282008D01*
X0089542Y0283292D01*
X0089542Y0285108D01*
X0088258Y0286392D01*
X0086442Y0286392D01*
X0085158Y0285108D01*
X0085158Y0283292D01*
X0086442Y0282008D01*
X0085344Y0283106D02*
X0028657Y0283106D01*
X0028691Y0283120D02*
X0029780Y0284209D01*
X0030368Y0285630D01*
X0030368Y0287169D01*
X0029780Y0288591D01*
X0028691Y0289680D01*
X0027269Y0290268D01*
X0025730Y0290268D01*
X0024309Y0289680D01*
X0023220Y0288591D01*
X0022631Y0287169D01*
X0022631Y0285630D01*
X0023220Y0284209D01*
X0024309Y0283120D01*
X0025730Y0282531D01*
X0027269Y0282531D01*
X0028691Y0283120D01*
X0029276Y0283705D02*
X0085158Y0283705D01*
X0085158Y0284303D02*
X0029819Y0284303D01*
X0030067Y0284902D02*
X0085158Y0284902D01*
X0085550Y0285500D02*
X0066750Y0285500D01*
X0066383Y0285133D02*
X0067667Y0286417D01*
X0067667Y0288233D01*
X0066383Y0289517D01*
X0064567Y0289517D01*
X0063283Y0288233D01*
X0063283Y0286417D01*
X0064567Y0285133D01*
X0066383Y0285133D01*
X0067349Y0286099D02*
X0086149Y0286099D01*
X0088551Y0286099D02*
X0296800Y0286099D01*
X0296800Y0286697D02*
X0067667Y0286697D01*
X0067667Y0287296D02*
X0296800Y0287296D01*
X0296800Y0287894D02*
X0067667Y0287894D01*
X0067407Y0288493D02*
X0296800Y0288493D01*
X0296800Y0289091D02*
X0066809Y0289091D01*
X0064141Y0289091D02*
X0029279Y0289091D01*
X0029820Y0288493D02*
X0063543Y0288493D01*
X0063283Y0287894D02*
X0030068Y0287894D01*
X0030316Y0287296D02*
X0063283Y0287296D01*
X0063283Y0286697D02*
X0030368Y0286697D01*
X0030368Y0286099D02*
X0063601Y0286099D01*
X0064200Y0285500D02*
X0030315Y0285500D01*
X0028666Y0289690D02*
X0296800Y0289690D01*
X0296800Y0290288D02*
X0005400Y0290288D01*
X0005400Y0289690D02*
X0024334Y0289690D01*
X0023720Y0289091D02*
X0005400Y0289091D01*
X0005400Y0288493D02*
X0023180Y0288493D01*
X0022932Y0287894D02*
X0005400Y0287894D01*
X0005400Y0287296D02*
X0022684Y0287296D01*
X0022631Y0286697D02*
X0005400Y0286697D01*
X0005400Y0286099D02*
X0022631Y0286099D01*
X0022685Y0285500D02*
X0005400Y0285500D01*
X0005400Y0284902D02*
X0022933Y0284902D01*
X0023181Y0284303D02*
X0005400Y0284303D01*
X0005400Y0283705D02*
X0023724Y0283705D01*
X0024343Y0283106D02*
X0005400Y0283106D01*
X0005400Y0290887D02*
X0296800Y0290887D01*
X0296800Y0291485D02*
X0005400Y0291485D01*
X0005400Y0292084D02*
X0296800Y0292084D01*
X0296800Y0292682D02*
X0179708Y0292682D01*
X0179458Y0292433D02*
X0180742Y0293717D01*
X0180742Y0295533D01*
X0179458Y0296817D01*
X0177642Y0296817D01*
X0176358Y0295533D01*
X0176358Y0293717D01*
X0177642Y0292433D01*
X0179458Y0292433D01*
X0180306Y0293281D02*
X0296800Y0293281D01*
X0296800Y0293879D02*
X0180742Y0293879D01*
X0180742Y0294478D02*
X0296800Y0294478D01*
X0296800Y0295077D02*
X0180742Y0295077D01*
X0180600Y0295675D02*
X0296800Y0295675D01*
X0296800Y0296274D02*
X0180002Y0296274D01*
X0177098Y0296274D02*
X0005400Y0296274D01*
X0005400Y0296872D02*
X0024908Y0296872D01*
X0024309Y0297120D02*
X0025730Y0296531D01*
X0027269Y0296531D01*
X0028691Y0297120D01*
X0029780Y0298209D01*
X0030368Y0299630D01*
X0030368Y0301169D01*
X0029780Y0302591D01*
X0028691Y0303680D01*
X0027269Y0304268D01*
X0025730Y0304268D01*
X0024309Y0303680D01*
X0023220Y0302591D01*
X0022631Y0301169D01*
X0022631Y0299630D01*
X0023220Y0298209D01*
X0024309Y0297120D01*
X0023959Y0297471D02*
X0005400Y0297471D01*
X0005400Y0298069D02*
X0023360Y0298069D01*
X0023030Y0298668D02*
X0005400Y0298668D01*
X0005400Y0299266D02*
X0022782Y0299266D01*
X0022631Y0299865D02*
X0005400Y0299865D01*
X0005400Y0300463D02*
X0022631Y0300463D01*
X0022631Y0301062D02*
X0005400Y0301062D01*
X0005400Y0301660D02*
X0022835Y0301660D01*
X0023083Y0302259D02*
X0005400Y0302259D01*
X0005400Y0302857D02*
X0023486Y0302857D01*
X0024085Y0303456D02*
X0005400Y0303456D01*
X0005400Y0304054D02*
X0025213Y0304054D01*
X0025730Y0306531D02*
X0027269Y0306531D01*
X0028691Y0307120D01*
X0029780Y0308209D01*
X0030368Y0309630D01*
X0030368Y0311169D01*
X0029780Y0312591D01*
X0028691Y0313680D01*
X0027269Y0314268D01*
X0025730Y0314268D01*
X0024309Y0313680D01*
X0023220Y0312591D01*
X0022631Y0311169D01*
X0022631Y0309630D01*
X0023220Y0308209D01*
X0024309Y0307120D01*
X0025730Y0306531D01*
X0024487Y0307047D02*
X0005400Y0307047D01*
X0005400Y0307645D02*
X0023784Y0307645D01*
X0023206Y0308244D02*
X0005400Y0308244D01*
X0005400Y0308842D02*
X0022958Y0308842D01*
X0022710Y0309441D02*
X0005400Y0309441D01*
X0005400Y0310039D02*
X0022631Y0310039D01*
X0022631Y0310638D02*
X0005400Y0310638D01*
X0005400Y0311236D02*
X0022659Y0311236D01*
X0022907Y0311835D02*
X0005400Y0311835D01*
X0005400Y0312433D02*
X0023155Y0312433D01*
X0023661Y0313032D02*
X0005400Y0313032D01*
X0005400Y0313630D02*
X0024259Y0313630D01*
X0025635Y0314229D02*
X0005400Y0314229D01*
X0005400Y0314827D02*
X0060039Y0314827D01*
X0060330Y0314706D02*
X0061869Y0314706D01*
X0063291Y0315295D01*
X0064380Y0316384D01*
X0064968Y0317805D01*
X0064968Y0319344D01*
X0064380Y0320766D01*
X0063291Y0321855D01*
X0061869Y0322443D01*
X0060330Y0322443D01*
X0058909Y0321855D01*
X0057820Y0320766D01*
X0057231Y0319344D01*
X0057231Y0317805D01*
X0057820Y0316384D01*
X0058909Y0315295D01*
X0060330Y0314706D01*
X0058778Y0315426D02*
X0005400Y0315426D01*
X0005400Y0316024D02*
X0058180Y0316024D01*
X0057721Y0316623D02*
X0005400Y0316623D01*
X0005400Y0317221D02*
X0057473Y0317221D01*
X0057231Y0317820D02*
X0005400Y0317820D01*
X0005400Y0318418D02*
X0057231Y0318418D01*
X0057231Y0319017D02*
X0029535Y0319017D01*
X0030240Y0319206D02*
X0032685Y0320618D01*
X0034682Y0322615D01*
X0036094Y0325060D01*
X0036825Y0327788D01*
X0036825Y0330612D01*
X0036094Y0333340D01*
X0034682Y0335785D01*
X0032685Y0337782D01*
X0030240Y0339194D01*
X0027512Y0339925D01*
X0024688Y0339925D01*
X0021960Y0339194D01*
X0019515Y0337782D01*
X0017518Y0335785D01*
X0016106Y0333340D01*
X0015375Y0330612D01*
X0015375Y0327788D01*
X0016106Y0325060D01*
X0017518Y0322615D01*
X0019515Y0320618D01*
X0021960Y0319206D01*
X0024688Y0318475D01*
X0027512Y0318475D01*
X0030240Y0319206D01*
X0030949Y0319615D02*
X0057344Y0319615D01*
X0057592Y0320214D02*
X0031986Y0320214D01*
X0032880Y0320812D02*
X0057867Y0320812D01*
X0058465Y0321411D02*
X0033478Y0321411D01*
X0034077Y0322010D02*
X0059283Y0322010D01*
X0062917Y0322010D02*
X0069283Y0322010D01*
X0068909Y0321855D02*
X0067820Y0320766D01*
X0067231Y0319344D01*
X0067231Y0317805D01*
X0067820Y0316384D01*
X0068909Y0315295D01*
X0070330Y0314706D01*
X0071869Y0314706D01*
X0073291Y0315295D01*
X0074380Y0316384D01*
X0074968Y0317805D01*
X0074968Y0319344D01*
X0074380Y0320766D01*
X0073291Y0321855D01*
X0071869Y0322443D01*
X0070330Y0322443D01*
X0068909Y0321855D01*
X0068465Y0321411D02*
X0063735Y0321411D01*
X0064333Y0320812D02*
X0067867Y0320812D01*
X0067592Y0320214D02*
X0064608Y0320214D01*
X0064856Y0319615D02*
X0067344Y0319615D01*
X0067231Y0319017D02*
X0064968Y0319017D01*
X0064968Y0318418D02*
X0067231Y0318418D01*
X0067231Y0317820D02*
X0064968Y0317820D01*
X0064727Y0317221D02*
X0067473Y0317221D01*
X0067721Y0316623D02*
X0064479Y0316623D01*
X0064020Y0316024D02*
X0068180Y0316024D01*
X0068778Y0315426D02*
X0063422Y0315426D01*
X0062161Y0314827D02*
X0070039Y0314827D01*
X0072161Y0314827D02*
X0296800Y0314827D01*
X0296800Y0314229D02*
X0190796Y0314229D01*
X0190708Y0314317D02*
X0188892Y0314317D01*
X0187608Y0313033D01*
X0187608Y0311217D01*
X0188892Y0309933D01*
X0190708Y0309933D01*
X0191992Y0311217D01*
X0191992Y0313033D01*
X0190708Y0314317D01*
X0191395Y0313630D02*
X0296800Y0313630D01*
X0296800Y0313032D02*
X0191992Y0313032D01*
X0191992Y0312433D02*
X0296800Y0312433D01*
X0296800Y0311835D02*
X0191992Y0311835D01*
X0191992Y0311236D02*
X0296800Y0311236D01*
X0296800Y0310638D02*
X0191413Y0310638D01*
X0190814Y0310039D02*
X0296800Y0310039D01*
X0296800Y0309441D02*
X0030290Y0309441D01*
X0030368Y0310039D02*
X0188786Y0310039D01*
X0188187Y0310638D02*
X0030368Y0310638D01*
X0030341Y0311236D02*
X0187608Y0311236D01*
X0187608Y0311835D02*
X0030093Y0311835D01*
X0029845Y0312433D02*
X0187608Y0312433D01*
X0187608Y0313032D02*
X0029339Y0313032D01*
X0028741Y0313630D02*
X0188205Y0313630D01*
X0188804Y0314229D02*
X0027365Y0314229D01*
X0030042Y0308842D02*
X0296800Y0308842D01*
X0296800Y0308244D02*
X0029794Y0308244D01*
X0029216Y0307645D02*
X0296800Y0307645D01*
X0296800Y0307047D02*
X0028513Y0307047D01*
X0027787Y0304054D02*
X0167379Y0304054D01*
X0167642Y0304317D02*
X0166358Y0303033D01*
X0166358Y0301217D01*
X0167642Y0299933D01*
X0169458Y0299933D01*
X0170742Y0301217D01*
X0170742Y0303033D01*
X0169458Y0304317D01*
X0167642Y0304317D01*
X0166781Y0303456D02*
X0028915Y0303456D01*
X0029514Y0302857D02*
X0166358Y0302857D01*
X0166358Y0302259D02*
X0029917Y0302259D01*
X0030165Y0301660D02*
X0166358Y0301660D01*
X0166513Y0301062D02*
X0030368Y0301062D01*
X0030368Y0300463D02*
X0167112Y0300463D01*
X0169988Y0300463D02*
X0296800Y0300463D01*
X0296800Y0299865D02*
X0030368Y0299865D01*
X0030218Y0299266D02*
X0296800Y0299266D01*
X0296800Y0298668D02*
X0029970Y0298668D01*
X0029640Y0298069D02*
X0296800Y0298069D01*
X0296800Y0297471D02*
X0029041Y0297471D01*
X0028092Y0296872D02*
X0296800Y0296872D01*
X0296800Y0301062D02*
X0170587Y0301062D01*
X0170742Y0301660D02*
X0296800Y0301660D01*
X0296800Y0302259D02*
X0170742Y0302259D01*
X0170742Y0302857D02*
X0296800Y0302857D01*
X0296800Y0303456D02*
X0170319Y0303456D01*
X0169721Y0304054D02*
X0296800Y0304054D01*
X0296800Y0304653D02*
X0005400Y0304653D01*
X0005400Y0305251D02*
X0296800Y0305251D01*
X0296800Y0305850D02*
X0005400Y0305850D01*
X0005400Y0306448D02*
X0296800Y0306448D01*
X0296800Y0315426D02*
X0073422Y0315426D01*
X0074020Y0316024D02*
X0296800Y0316024D01*
X0296800Y0316623D02*
X0181773Y0316623D01*
X0181333Y0316183D02*
X0182617Y0317467D01*
X0182617Y0319283D01*
X0181333Y0320567D01*
X0179517Y0320567D01*
X0178233Y0319283D01*
X0178233Y0317467D01*
X0179517Y0316183D01*
X0181333Y0316183D01*
X0182372Y0317221D02*
X0296800Y0317221D01*
X0296800Y0317820D02*
X0182617Y0317820D01*
X0182617Y0318418D02*
X0296800Y0318418D01*
X0296800Y0319017D02*
X0279535Y0319017D01*
X0280240Y0319206D02*
X0282685Y0320618D01*
X0284682Y0322615D01*
X0286094Y0325060D01*
X0286825Y0327788D01*
X0286825Y0330612D01*
X0286094Y0333340D01*
X0284682Y0335785D01*
X0282685Y0337782D01*
X0280240Y0339194D01*
X0277512Y0339925D01*
X0274688Y0339925D01*
X0271960Y0339194D01*
X0269515Y0337782D01*
X0267518Y0335785D01*
X0266106Y0333340D01*
X0265375Y0330612D01*
X0265375Y0327788D01*
X0266106Y0325060D01*
X0267518Y0322615D01*
X0269515Y0320618D01*
X0271960Y0319206D01*
X0274688Y0318475D01*
X0277512Y0318475D01*
X0280240Y0319206D01*
X0280949Y0319615D02*
X0296800Y0319615D01*
X0296800Y0320214D02*
X0281986Y0320214D01*
X0282880Y0320812D02*
X0296800Y0320812D01*
X0296800Y0321411D02*
X0283478Y0321411D01*
X0284077Y0322010D02*
X0296800Y0322010D01*
X0296800Y0322608D02*
X0284675Y0322608D01*
X0285024Y0323207D02*
X0296800Y0323207D01*
X0296800Y0323805D02*
X0285369Y0323805D01*
X0285715Y0324404D02*
X0296800Y0324404D01*
X0296800Y0325002D02*
X0286060Y0325002D01*
X0286239Y0325601D02*
X0296800Y0325601D01*
X0296800Y0326199D02*
X0286399Y0326199D01*
X0286560Y0326798D02*
X0296800Y0326798D01*
X0296800Y0327396D02*
X0286720Y0327396D01*
X0286825Y0327995D02*
X0296800Y0327995D01*
X0296800Y0328593D02*
X0286825Y0328593D01*
X0286825Y0329192D02*
X0296800Y0329192D01*
X0296800Y0329790D02*
X0286825Y0329790D01*
X0286825Y0330389D02*
X0296800Y0330389D01*
X0296800Y0330987D02*
X0286724Y0330987D01*
X0286564Y0331586D02*
X0296800Y0331586D01*
X0296800Y0332184D02*
X0286404Y0332184D01*
X0286243Y0332783D02*
X0296800Y0332783D01*
X0296800Y0333381D02*
X0286070Y0333381D01*
X0285725Y0333980D02*
X0296800Y0333980D01*
X0296800Y0334578D02*
X0285379Y0334578D01*
X0285033Y0335177D02*
X0296800Y0335177D01*
X0296800Y0335775D02*
X0284688Y0335775D01*
X0284094Y0336374D02*
X0296800Y0336374D01*
X0296800Y0336972D02*
X0283495Y0336972D01*
X0282897Y0337571D02*
X0296800Y0337571D01*
X0296800Y0338169D02*
X0282015Y0338169D01*
X0280978Y0338768D02*
X0296800Y0338768D01*
X0296800Y0339366D02*
X0279597Y0339366D01*
X0272603Y0339366D02*
X0182617Y0339366D01*
X0182617Y0339908D02*
X0181333Y0341192D01*
X0179517Y0341192D01*
X0178233Y0339908D01*
X0178233Y0338092D01*
X0179517Y0336808D01*
X0181333Y0336808D01*
X0182617Y0338092D01*
X0182617Y0339908D01*
X0182560Y0339965D02*
X0296800Y0339965D01*
X0296800Y0340563D02*
X0181962Y0340563D01*
X0181363Y0341162D02*
X0296800Y0341162D01*
X0296800Y0341760D02*
X0175040Y0341760D01*
X0175638Y0341162D02*
X0179487Y0341162D01*
X0178888Y0340563D02*
X0175692Y0340563D01*
X0175692Y0341108D02*
X0175692Y0339292D01*
X0174408Y0338008D01*
X0172592Y0338008D01*
X0171308Y0339292D01*
X0171308Y0341108D01*
X0172592Y0342392D01*
X0174408Y0342392D01*
X0175692Y0341108D01*
X0175692Y0339965D02*
X0178290Y0339965D01*
X0178233Y0339366D02*
X0175692Y0339366D01*
X0175168Y0338768D02*
X0178233Y0338768D01*
X0178233Y0338169D02*
X0174569Y0338169D01*
X0172431Y0338169D02*
X0032015Y0338169D01*
X0032897Y0337571D02*
X0178754Y0337571D01*
X0179353Y0336972D02*
X0033495Y0336972D01*
X0034094Y0336374D02*
X0268106Y0336374D01*
X0267512Y0335775D02*
X0034688Y0335775D01*
X0035033Y0335177D02*
X0267167Y0335177D01*
X0266821Y0334578D02*
X0035379Y0334578D01*
X0035725Y0333980D02*
X0266475Y0333980D01*
X0266130Y0333381D02*
X0036070Y0333381D01*
X0036243Y0332783D02*
X0265957Y0332783D01*
X0265796Y0332184D02*
X0036404Y0332184D01*
X0036564Y0331586D02*
X0265636Y0331586D01*
X0265476Y0330987D02*
X0197213Y0330987D01*
X0197208Y0330992D02*
X0195392Y0330992D01*
X0194108Y0329708D01*
X0194108Y0327892D01*
X0195392Y0326608D01*
X0197208Y0326608D01*
X0198492Y0327892D01*
X0198492Y0329708D01*
X0197208Y0330992D01*
X0197811Y0330389D02*
X0265375Y0330389D01*
X0265375Y0329790D02*
X0198410Y0329790D01*
X0198492Y0329192D02*
X0265375Y0329192D01*
X0265375Y0328593D02*
X0198492Y0328593D01*
X0198492Y0327995D02*
X0265375Y0327995D01*
X0265480Y0327396D02*
X0197996Y0327396D01*
X0197398Y0326798D02*
X0265640Y0326798D01*
X0265801Y0326199D02*
X0036399Y0326199D01*
X0036239Y0325601D02*
X0265961Y0325601D01*
X0266140Y0325002D02*
X0036060Y0325002D01*
X0035715Y0324404D02*
X0175228Y0324404D01*
X0175767Y0324942D02*
X0174483Y0323658D01*
X0174483Y0321842D01*
X0175767Y0320558D01*
X0177583Y0320558D01*
X0178867Y0321842D01*
X0178867Y0323658D01*
X0177583Y0324942D01*
X0175767Y0324942D01*
X0174630Y0323805D02*
X0035369Y0323805D01*
X0035024Y0323207D02*
X0174483Y0323207D01*
X0174483Y0322608D02*
X0034675Y0322608D01*
X0036560Y0326798D02*
X0195202Y0326798D01*
X0194604Y0327396D02*
X0036720Y0327396D01*
X0036825Y0327995D02*
X0194108Y0327995D01*
X0194108Y0328593D02*
X0036825Y0328593D01*
X0036825Y0329192D02*
X0194108Y0329192D01*
X0194190Y0329790D02*
X0036825Y0329790D01*
X0036825Y0330389D02*
X0194789Y0330389D01*
X0195387Y0330987D02*
X0036724Y0330987D01*
X0030978Y0338768D02*
X0171832Y0338768D01*
X0171308Y0339366D02*
X0029597Y0339366D01*
X0027269Y0344531D02*
X0025730Y0344531D01*
X0024309Y0345120D01*
X0023220Y0346209D01*
X0022631Y0347630D01*
X0022631Y0349169D01*
X0023220Y0350591D01*
X0024309Y0351680D01*
X0025730Y0352268D01*
X0027269Y0352268D01*
X0028691Y0351680D01*
X0029780Y0350591D01*
X0030368Y0349169D01*
X0030368Y0347630D01*
X0029780Y0346209D01*
X0028691Y0345120D01*
X0027269Y0344531D01*
X0027804Y0344753D02*
X0247455Y0344753D01*
X0247824Y0344600D02*
X0249376Y0344600D01*
X0250809Y0345194D01*
X0251906Y0346291D01*
X0252500Y0347724D01*
X0252500Y0349276D01*
X0251906Y0350709D01*
X0250809Y0351806D01*
X0249376Y0352400D01*
X0247824Y0352400D01*
X0246391Y0351806D01*
X0245294Y0350709D01*
X0244700Y0349276D01*
X0244700Y0347724D01*
X0245294Y0346291D01*
X0246391Y0345194D01*
X0247824Y0344600D01*
X0246233Y0345351D02*
X0028922Y0345351D01*
X0029521Y0345950D02*
X0188050Y0345950D01*
X0188192Y0345808D02*
X0190008Y0345808D01*
X0191292Y0347092D01*
X0191292Y0348908D01*
X0190008Y0350192D01*
X0188192Y0350192D01*
X0186908Y0348908D01*
X0186908Y0347092D01*
X0188192Y0345808D01*
X0187451Y0346548D02*
X0029920Y0346548D01*
X0030168Y0347147D02*
X0186908Y0347147D01*
X0186908Y0347745D02*
X0030368Y0347745D01*
X0030368Y0348344D02*
X0085731Y0348344D01*
X0085817Y0348258D02*
X0087633Y0348258D01*
X0088917Y0349542D01*
X0088917Y0351358D01*
X0087633Y0352642D01*
X0085817Y0352642D01*
X0084533Y0351358D01*
X0084533Y0349542D01*
X0085817Y0348258D01*
X0085132Y0348943D02*
X0030368Y0348943D01*
X0030215Y0349541D02*
X0084534Y0349541D01*
X0084533Y0350140D02*
X0029967Y0350140D01*
X0029633Y0350738D02*
X0084533Y0350738D01*
X0084533Y0351337D02*
X0029034Y0351337D01*
X0028074Y0351935D02*
X0085110Y0351935D01*
X0085708Y0352534D02*
X0005400Y0352534D01*
X0005400Y0353132D02*
X0167108Y0353132D01*
X0167108Y0353092D02*
X0168392Y0351808D01*
X0170208Y0351808D01*
X0171492Y0353092D01*
X0171492Y0354908D01*
X0170208Y0356192D01*
X0168392Y0356192D01*
X0167108Y0354908D01*
X0167108Y0353092D01*
X0167108Y0353731D02*
X0005400Y0353731D01*
X0005400Y0354329D02*
X0167108Y0354329D01*
X0167127Y0354928D02*
X0028226Y0354928D01*
X0028691Y0355120D02*
X0029780Y0356209D01*
X0030368Y0357630D01*
X0030368Y0359169D01*
X0029780Y0360591D01*
X0028691Y0361680D01*
X0027269Y0362268D01*
X0025730Y0362268D01*
X0024309Y0361680D01*
X0023220Y0360591D01*
X0022631Y0359169D01*
X0022631Y0357630D01*
X0023220Y0356209D01*
X0024309Y0355120D01*
X0025730Y0354531D01*
X0027269Y0354531D01*
X0028691Y0355120D01*
X0029097Y0355526D02*
X0167726Y0355526D01*
X0168325Y0356125D02*
X0029696Y0356125D01*
X0029993Y0356723D02*
X0176123Y0356723D01*
X0176192Y0356792D02*
X0174908Y0355508D01*
X0174908Y0353692D01*
X0176192Y0352408D01*
X0178008Y0352408D01*
X0179292Y0353692D01*
X0179292Y0355508D01*
X0178008Y0356792D01*
X0176192Y0356792D01*
X0175525Y0356125D02*
X0170275Y0356125D01*
X0170874Y0355526D02*
X0174926Y0355526D01*
X0174908Y0354928D02*
X0171472Y0354928D01*
X0171492Y0354329D02*
X0174908Y0354329D01*
X0174908Y0353731D02*
X0171492Y0353731D01*
X0171492Y0353132D02*
X0175468Y0353132D01*
X0176066Y0352534D02*
X0170934Y0352534D01*
X0170335Y0351935D02*
X0246702Y0351935D01*
X0245921Y0351337D02*
X0088917Y0351337D01*
X0088917Y0350738D02*
X0233138Y0350738D01*
X0233192Y0350792D02*
X0231908Y0349508D01*
X0231908Y0347692D01*
X0233192Y0346408D01*
X0235008Y0346408D01*
X0236292Y0347692D01*
X0236292Y0349508D01*
X0235008Y0350792D01*
X0233192Y0350792D01*
X0232539Y0350140D02*
X0197861Y0350140D01*
X0197808Y0350192D02*
X0195992Y0350192D01*
X0194708Y0348908D01*
X0194708Y0347092D01*
X0195992Y0345808D01*
X0197808Y0345808D01*
X0199092Y0347092D01*
X0199092Y0348908D01*
X0197808Y0350192D01*
X0198459Y0349541D02*
X0231941Y0349541D01*
X0231908Y0348943D02*
X0199058Y0348943D01*
X0199092Y0348344D02*
X0231908Y0348344D01*
X0231908Y0347745D02*
X0199092Y0347745D01*
X0199092Y0347147D02*
X0232453Y0347147D01*
X0233051Y0346548D02*
X0198549Y0346548D01*
X0197950Y0345950D02*
X0245635Y0345950D01*
X0245187Y0346548D02*
X0235149Y0346548D01*
X0235747Y0347147D02*
X0244939Y0347147D01*
X0244700Y0347745D02*
X0236292Y0347745D01*
X0236292Y0348344D02*
X0244700Y0348344D01*
X0244700Y0348943D02*
X0236292Y0348943D01*
X0236259Y0349541D02*
X0244810Y0349541D01*
X0245058Y0350140D02*
X0235661Y0350140D01*
X0235062Y0350738D02*
X0245323Y0350738D01*
X0247033Y0354928D02*
X0203328Y0354928D01*
X0203892Y0355492D02*
X0202608Y0354208D01*
X0200792Y0354208D01*
X0199508Y0355492D01*
X0199508Y0357308D01*
X0200792Y0358592D01*
X0202608Y0358592D01*
X0203892Y0357308D01*
X0203892Y0355492D01*
X0203892Y0355526D02*
X0246058Y0355526D01*
X0246391Y0355194D02*
X0247824Y0354600D01*
X0249376Y0354600D01*
X0250809Y0355194D01*
X0251906Y0356291D01*
X0252500Y0357724D01*
X0252500Y0359276D01*
X0251906Y0360709D01*
X0250809Y0361806D01*
X0249376Y0362400D01*
X0247824Y0362400D01*
X0246391Y0361806D01*
X0245294Y0360709D01*
X0244700Y0359276D01*
X0244700Y0357724D01*
X0245294Y0356291D01*
X0246391Y0355194D01*
X0245460Y0356125D02*
X0203892Y0356125D01*
X0203892Y0356723D02*
X0213277Y0356723D01*
X0213392Y0356608D02*
X0215208Y0356608D01*
X0216492Y0357892D01*
X0216492Y0359708D01*
X0215208Y0360992D01*
X0213392Y0360992D01*
X0212108Y0359708D01*
X0212108Y0357892D01*
X0213392Y0356608D01*
X0212678Y0357322D02*
X0203878Y0357322D01*
X0203280Y0357920D02*
X0212108Y0357920D01*
X0212108Y0358519D02*
X0202681Y0358519D01*
X0200719Y0358519D02*
X0030368Y0358519D01*
X0030368Y0359117D02*
X0212108Y0359117D01*
X0212116Y0359716D02*
X0116591Y0359716D01*
X0116383Y0359508D02*
X0117667Y0360792D01*
X0117667Y0362608D01*
X0116383Y0363892D01*
X0114567Y0363892D01*
X0113283Y0362608D01*
X0113283Y0360792D01*
X0114567Y0359508D01*
X0116383Y0359508D01*
X0117189Y0360314D02*
X0212714Y0360314D01*
X0213313Y0360913D02*
X0117667Y0360913D01*
X0117667Y0361511D02*
X0187489Y0361511D01*
X0187592Y0361408D02*
X0189408Y0361408D01*
X0190692Y0362692D01*
X0190692Y0364508D01*
X0189408Y0365792D01*
X0187592Y0365792D01*
X0186308Y0364508D01*
X0186308Y0362692D01*
X0187592Y0361408D01*
X0186890Y0362110D02*
X0117667Y0362110D01*
X0117567Y0362708D02*
X0186308Y0362708D01*
X0186308Y0363307D02*
X0116968Y0363307D01*
X0113982Y0363307D02*
X0078917Y0363307D01*
X0078917Y0363905D02*
X0167095Y0363905D01*
X0167192Y0363808D02*
X0169008Y0363808D01*
X0170292Y0365092D01*
X0170292Y0366908D01*
X0169008Y0368192D01*
X0167192Y0368192D01*
X0165908Y0366908D01*
X0165908Y0365092D01*
X0167192Y0363808D01*
X0166496Y0364504D02*
X0078896Y0364504D01*
X0078917Y0364483D02*
X0077633Y0365767D01*
X0075817Y0365767D01*
X0074533Y0364483D01*
X0074533Y0362667D01*
X0075817Y0361383D01*
X0077633Y0361383D01*
X0078917Y0362667D01*
X0078917Y0364483D01*
X0078298Y0365102D02*
X0165908Y0365102D01*
X0165908Y0365701D02*
X0077699Y0365701D01*
X0075751Y0365701D02*
X0066951Y0365701D01*
X0067042Y0365792D02*
X0065758Y0364508D01*
X0063942Y0364508D01*
X0062658Y0365792D01*
X0062658Y0367608D01*
X0063942Y0368892D01*
X0065758Y0368892D01*
X0067042Y0367608D01*
X0067042Y0365792D01*
X0067042Y0366299D02*
X0165908Y0366299D01*
X0165908Y0366898D02*
X0067042Y0366898D01*
X0067042Y0367496D02*
X0166496Y0367496D01*
X0167095Y0368095D02*
X0066555Y0368095D01*
X0065957Y0368693D02*
X0296800Y0368693D01*
X0296800Y0368095D02*
X0169105Y0368095D01*
X0169704Y0367496D02*
X0296800Y0367496D01*
X0296800Y0366898D02*
X0170292Y0366898D01*
X0170292Y0366299D02*
X0296800Y0366299D01*
X0296800Y0365701D02*
X0189499Y0365701D01*
X0190098Y0365102D02*
X0296800Y0365102D01*
X0296800Y0364504D02*
X0224296Y0364504D01*
X0224208Y0364592D02*
X0222392Y0364592D01*
X0221108Y0363308D01*
X0221108Y0361492D01*
X0222392Y0360208D01*
X0224208Y0360208D01*
X0225492Y0361492D01*
X0225492Y0363308D01*
X0224208Y0364592D01*
X0224895Y0363905D02*
X0296800Y0363905D01*
X0296800Y0363307D02*
X0225492Y0363307D01*
X0225492Y0362708D02*
X0296800Y0362708D01*
X0296800Y0362110D02*
X0250076Y0362110D01*
X0251104Y0361511D02*
X0296800Y0361511D01*
X0296800Y0360913D02*
X0251703Y0360913D01*
X0252070Y0360314D02*
X0296800Y0360314D01*
X0296800Y0359716D02*
X0252318Y0359716D01*
X0252500Y0359117D02*
X0296800Y0359117D01*
X0296800Y0358519D02*
X0252500Y0358519D01*
X0252500Y0357920D02*
X0296800Y0357920D01*
X0296800Y0357322D02*
X0252333Y0357322D01*
X0252085Y0356723D02*
X0296800Y0356723D01*
X0296800Y0356125D02*
X0251740Y0356125D01*
X0251142Y0355526D02*
X0296800Y0355526D01*
X0296800Y0354928D02*
X0250167Y0354928D01*
X0250498Y0351935D02*
X0296800Y0351935D01*
X0296800Y0351337D02*
X0251279Y0351337D01*
X0251877Y0350738D02*
X0296800Y0350738D01*
X0296800Y0350140D02*
X0252142Y0350140D01*
X0252390Y0349541D02*
X0296800Y0349541D01*
X0296800Y0348943D02*
X0252500Y0348943D01*
X0252500Y0348344D02*
X0296800Y0348344D01*
X0296800Y0347745D02*
X0252500Y0347745D01*
X0252261Y0347147D02*
X0296800Y0347147D01*
X0296800Y0346548D02*
X0252013Y0346548D01*
X0251565Y0345950D02*
X0296800Y0345950D01*
X0296800Y0345351D02*
X0250967Y0345351D01*
X0249745Y0344753D02*
X0296800Y0344753D01*
X0296800Y0344154D02*
X0005400Y0344154D01*
X0005400Y0343556D02*
X0296800Y0343556D01*
X0296800Y0342957D02*
X0005400Y0342957D01*
X0005400Y0342359D02*
X0172559Y0342359D01*
X0171960Y0341760D02*
X0005400Y0341760D01*
X0005400Y0341162D02*
X0171362Y0341162D01*
X0171308Y0340563D02*
X0005400Y0340563D01*
X0005400Y0339965D02*
X0171308Y0339965D01*
X0174441Y0342359D02*
X0296800Y0342359D01*
X0296800Y0352534D02*
X0178134Y0352534D01*
X0178732Y0353132D02*
X0296800Y0353132D01*
X0296800Y0353731D02*
X0179292Y0353731D01*
X0179292Y0354329D02*
X0200671Y0354329D01*
X0200072Y0354928D02*
X0179292Y0354928D01*
X0179274Y0355526D02*
X0199508Y0355526D01*
X0199508Y0356125D02*
X0178675Y0356125D01*
X0178077Y0356723D02*
X0199508Y0356723D01*
X0199522Y0357322D02*
X0030241Y0357322D01*
X0030368Y0357920D02*
X0200120Y0357920D01*
X0202729Y0354329D02*
X0296800Y0354329D01*
X0296800Y0369292D02*
X0005400Y0369292D01*
X0005400Y0369890D02*
X0173109Y0369890D01*
X0173192Y0369808D02*
X0175008Y0369808D01*
X0176292Y0371092D01*
X0176292Y0372908D01*
X0175008Y0374192D01*
X0173192Y0374192D01*
X0171908Y0372908D01*
X0171908Y0371092D01*
X0173192Y0369808D01*
X0172511Y0370489D02*
X0005400Y0370489D01*
X0005400Y0371087D02*
X0171912Y0371087D01*
X0171908Y0371686D02*
X0005400Y0371686D01*
X0005400Y0372284D02*
X0171908Y0372284D01*
X0171908Y0372883D02*
X0005400Y0372883D01*
X0005400Y0373481D02*
X0172481Y0373481D01*
X0173080Y0374080D02*
X0088455Y0374080D01*
X0088258Y0373883D02*
X0089542Y0375167D01*
X0089542Y0376983D01*
X0088258Y0378267D01*
X0086442Y0378267D01*
X0085158Y0376983D01*
X0085158Y0375167D01*
X0086442Y0373883D01*
X0088258Y0373883D01*
X0089054Y0374679D02*
X0210278Y0374679D01*
X0209708Y0374108D02*
X0209708Y0372292D01*
X0210992Y0371008D01*
X0212808Y0371008D01*
X0214092Y0372292D01*
X0214092Y0374108D01*
X0212808Y0375392D01*
X0210992Y0375392D01*
X0209708Y0374108D01*
X0209708Y0374080D02*
X0200320Y0374080D01*
X0200208Y0374192D02*
X0198392Y0374192D01*
X0197108Y0372908D01*
X0197108Y0371092D01*
X0198392Y0369808D01*
X0200208Y0369808D01*
X0201492Y0371092D01*
X0201492Y0372908D01*
X0200208Y0374192D01*
X0200919Y0373481D02*
X0209708Y0373481D01*
X0209708Y0372883D02*
X0201492Y0372883D01*
X0201492Y0372284D02*
X0209715Y0372284D01*
X0210314Y0371686D02*
X0201492Y0371686D01*
X0201488Y0371087D02*
X0210912Y0371087D01*
X0212888Y0371087D02*
X0296800Y0371087D01*
X0296800Y0370489D02*
X0200889Y0370489D01*
X0200291Y0369890D02*
X0296800Y0369890D01*
X0296800Y0371686D02*
X0213486Y0371686D01*
X0214085Y0372284D02*
X0296800Y0372284D01*
X0296800Y0372883D02*
X0214092Y0372883D01*
X0214092Y0373481D02*
X0296800Y0373481D01*
X0296800Y0374080D02*
X0214092Y0374080D01*
X0213522Y0374679D02*
X0296800Y0374679D01*
X0296800Y0375277D02*
X0212923Y0375277D01*
X0210877Y0375277D02*
X0089542Y0375277D01*
X0089542Y0375876D02*
X0296800Y0375876D01*
X0296800Y0376474D02*
X0089542Y0376474D01*
X0089453Y0377073D02*
X0296800Y0377073D01*
X0296800Y0377671D02*
X0088854Y0377671D01*
X0085846Y0377671D02*
X0067046Y0377671D01*
X0066448Y0377073D02*
X0085247Y0377073D01*
X0085158Y0376474D02*
X0005400Y0376474D01*
X0005400Y0375876D02*
X0085158Y0375876D01*
X0085158Y0375277D02*
X0005400Y0375277D01*
X0005400Y0374679D02*
X0085646Y0374679D01*
X0086245Y0374080D02*
X0005400Y0374080D01*
X0005400Y0377073D02*
X0064502Y0377073D01*
X0064567Y0377008D02*
X0066383Y0377008D01*
X0067667Y0378292D01*
X0067667Y0380108D01*
X0066383Y0381392D01*
X0064567Y0381392D01*
X0063283Y0380108D01*
X0063283Y0378292D01*
X0064567Y0377008D01*
X0063904Y0377671D02*
X0005400Y0377671D01*
X0005400Y0378270D02*
X0063305Y0378270D01*
X0063283Y0378868D02*
X0005400Y0378868D01*
X0005400Y0379467D02*
X0063283Y0379467D01*
X0063283Y0380065D02*
X0005400Y0380065D01*
X0005400Y0380664D02*
X0063838Y0380664D01*
X0064437Y0381262D02*
X0005400Y0381262D01*
X0005400Y0381861D02*
X0296800Y0381861D01*
X0296800Y0382459D02*
X0005400Y0382459D01*
X0005400Y0383058D02*
X0296800Y0383058D01*
X0296800Y0383656D02*
X0005400Y0383656D01*
X0005400Y0384255D02*
X0296800Y0384255D01*
X0296800Y0384853D02*
X0005400Y0384853D01*
X0005400Y0385452D02*
X0296800Y0385452D01*
X0296800Y0386050D02*
X0005400Y0386050D01*
X0005400Y0386649D02*
X0296800Y0386649D01*
X0296800Y0387247D02*
X0005400Y0387247D01*
X0005400Y0387846D02*
X0296800Y0387846D01*
X0296800Y0388444D02*
X0005400Y0388444D01*
X0005400Y0389043D02*
X0296800Y0389043D01*
X0296800Y0389641D02*
X0005400Y0389641D01*
X0005400Y0390240D02*
X0296800Y0390240D01*
X0296800Y0390838D02*
X0005400Y0390838D01*
X0005400Y0391437D02*
X0296800Y0391437D01*
X0296800Y0392035D02*
X0005400Y0392035D01*
X0005400Y0392634D02*
X0296800Y0392634D01*
X0296800Y0393232D02*
X0005400Y0393232D01*
X0005400Y0393831D02*
X0296800Y0393831D01*
X0296800Y0394429D02*
X0005400Y0394429D01*
X0005400Y0395028D02*
X0296800Y0395028D01*
X0296800Y0395626D02*
X0005400Y0395626D01*
X0005400Y0396225D02*
X0296800Y0396225D01*
X0296800Y0396823D02*
X0005400Y0396823D01*
X0005400Y0397422D02*
X0296800Y0397422D01*
X0296800Y0398020D02*
X0005400Y0398020D01*
X0005400Y0398619D02*
X0296800Y0398619D01*
X0296800Y0399217D02*
X0005400Y0399217D01*
X0005400Y0399816D02*
X0296800Y0399816D01*
X0296800Y0381262D02*
X0066513Y0381262D01*
X0067112Y0380664D02*
X0296800Y0380664D01*
X0296800Y0380065D02*
X0067667Y0380065D01*
X0067667Y0379467D02*
X0296800Y0379467D01*
X0296800Y0378868D02*
X0067667Y0378868D01*
X0067645Y0378270D02*
X0296800Y0378270D01*
X0271222Y0338768D02*
X0182617Y0338768D01*
X0182617Y0338169D02*
X0270185Y0338169D01*
X0269303Y0337571D02*
X0182096Y0337571D01*
X0181497Y0336972D02*
X0268705Y0336972D01*
X0266485Y0324404D02*
X0178122Y0324404D01*
X0178720Y0323805D02*
X0266831Y0323805D01*
X0267176Y0323207D02*
X0178867Y0323207D01*
X0178867Y0322608D02*
X0267525Y0322608D01*
X0268123Y0322010D02*
X0178867Y0322010D01*
X0178436Y0321411D02*
X0268722Y0321411D01*
X0269320Y0320812D02*
X0177838Y0320812D01*
X0178565Y0319615D02*
X0074856Y0319615D01*
X0074968Y0319017D02*
X0178233Y0319017D01*
X0178233Y0318418D02*
X0074968Y0318418D01*
X0074968Y0317820D02*
X0178233Y0317820D01*
X0178478Y0317221D02*
X0074727Y0317221D01*
X0074479Y0316623D02*
X0179077Y0316623D01*
X0179164Y0320214D02*
X0074608Y0320214D01*
X0074333Y0320812D02*
X0175512Y0320812D01*
X0174914Y0321411D02*
X0073735Y0321411D01*
X0072917Y0322010D02*
X0174483Y0322010D01*
X0181686Y0320214D02*
X0270214Y0320214D01*
X0271251Y0319615D02*
X0182285Y0319615D01*
X0182617Y0319017D02*
X0272665Y0319017D01*
X0296800Y0285500D02*
X0089150Y0285500D01*
X0089542Y0284902D02*
X0296800Y0284902D01*
X0296800Y0284303D02*
X0089542Y0284303D01*
X0089542Y0283705D02*
X0296800Y0283705D01*
X0296800Y0283106D02*
X0213294Y0283106D01*
X0212808Y0283592D02*
X0210992Y0283592D01*
X0209708Y0282308D01*
X0209708Y0280492D01*
X0210992Y0279208D01*
X0212808Y0279208D01*
X0214092Y0280492D01*
X0214092Y0282308D01*
X0212808Y0283592D01*
X0213892Y0282508D02*
X0296800Y0282508D01*
X0296800Y0281909D02*
X0214092Y0281909D01*
X0214092Y0281311D02*
X0296800Y0281311D01*
X0296800Y0280712D02*
X0214092Y0280712D01*
X0213714Y0280114D02*
X0296800Y0280114D01*
X0296800Y0279515D02*
X0213115Y0279515D01*
X0210685Y0279515D02*
X0201492Y0279515D01*
X0201492Y0279292D02*
X0200208Y0278008D01*
X0198392Y0278008D01*
X0197108Y0279292D01*
X0197108Y0281108D01*
X0198392Y0282392D01*
X0200208Y0282392D01*
X0201492Y0281108D01*
X0201492Y0279292D01*
X0201117Y0278917D02*
X0296800Y0278917D01*
X0296800Y0278318D02*
X0200518Y0278318D01*
X0201492Y0280114D02*
X0210086Y0280114D01*
X0209708Y0280712D02*
X0201492Y0280712D01*
X0201289Y0281311D02*
X0209708Y0281311D01*
X0209708Y0281909D02*
X0200691Y0281909D01*
X0197909Y0281909D02*
X0192291Y0281909D01*
X0191808Y0282392D02*
X0189992Y0282392D01*
X0188708Y0281108D01*
X0188708Y0279292D01*
X0189992Y0278008D01*
X0191808Y0278008D01*
X0193092Y0279292D01*
X0193092Y0281108D01*
X0191808Y0282392D01*
X0192889Y0281311D02*
X0197311Y0281311D01*
X0197108Y0280712D02*
X0193092Y0280712D01*
X0193092Y0280114D02*
X0197108Y0280114D01*
X0197108Y0279515D02*
X0193092Y0279515D01*
X0192717Y0278917D02*
X0197483Y0278917D01*
X0198082Y0278318D02*
X0192118Y0278318D01*
X0189682Y0278318D02*
X0174718Y0278318D01*
X0175317Y0278917D02*
X0189083Y0278917D01*
X0188708Y0279515D02*
X0175692Y0279515D01*
X0175692Y0280114D02*
X0188708Y0280114D01*
X0188708Y0280712D02*
X0175692Y0280712D01*
X0175489Y0281311D02*
X0188911Y0281311D01*
X0189509Y0281909D02*
X0174891Y0281909D01*
X0171308Y0279515D02*
X0028856Y0279515D01*
X0029454Y0278917D02*
X0171683Y0278917D01*
X0172282Y0278318D02*
X0029893Y0278318D01*
X0030141Y0277720D02*
X0296800Y0277720D01*
X0296800Y0277121D02*
X0030368Y0277121D01*
X0030368Y0276523D02*
X0064073Y0276523D01*
X0063474Y0275924D02*
X0030368Y0275924D01*
X0030242Y0275326D02*
X0063283Y0275326D01*
X0063283Y0274727D02*
X0029994Y0274727D01*
X0029699Y0274129D02*
X0063283Y0274129D01*
X0063670Y0273530D02*
X0029101Y0273530D01*
X0028235Y0272932D02*
X0064268Y0272932D01*
X0066877Y0276523D02*
X0296800Y0276523D01*
X0296800Y0273530D02*
X0189870Y0273530D01*
X0190469Y0272932D02*
X0296800Y0272932D01*
X0296800Y0272333D02*
X0190692Y0272333D01*
X0190692Y0271735D02*
X0224334Y0271735D01*
X0224792Y0272192D02*
X0223508Y0270908D01*
X0223508Y0269092D01*
X0224792Y0267808D01*
X0226608Y0267808D01*
X0227892Y0269092D01*
X0227892Y0270908D01*
X0226608Y0272192D01*
X0224792Y0272192D01*
X0223736Y0271136D02*
X0190692Y0271136D01*
X0190338Y0270538D02*
X0223508Y0270538D01*
X0223508Y0269939D02*
X0189739Y0269939D01*
X0187261Y0269939D02*
X0117667Y0269939D01*
X0117667Y0269341D02*
X0223508Y0269341D01*
X0223858Y0268742D02*
X0117492Y0268742D01*
X0116894Y0268143D02*
X0214743Y0268143D01*
X0213908Y0266348D02*
X0203052Y0266348D01*
X0203651Y0265749D02*
X0213908Y0265749D01*
X0214249Y0265151D02*
X0203892Y0265151D01*
X0203892Y0264552D02*
X0214847Y0264552D01*
X0217353Y0264552D02*
X0245227Y0264552D01*
X0245294Y0264391D02*
X0246391Y0263294D01*
X0247824Y0262700D01*
X0249376Y0262700D01*
X0250809Y0263294D01*
X0251906Y0264391D01*
X0252500Y0265824D01*
X0252500Y0267376D01*
X0251906Y0268809D01*
X0250809Y0269906D01*
X0249376Y0270500D01*
X0247824Y0270500D01*
X0246391Y0269906D01*
X0245294Y0268809D01*
X0244700Y0267376D01*
X0244700Y0265824D01*
X0245294Y0264391D01*
X0245731Y0263954D02*
X0203892Y0263954D01*
X0203556Y0263355D02*
X0246329Y0263355D01*
X0247687Y0262757D02*
X0202957Y0262757D01*
X0217457Y0268143D02*
X0224456Y0268143D01*
X0226944Y0268143D02*
X0245018Y0268143D01*
X0244770Y0267545D02*
X0218055Y0267545D01*
X0218292Y0266946D02*
X0244700Y0266946D01*
X0244700Y0266348D02*
X0218292Y0266348D01*
X0218292Y0265749D02*
X0244731Y0265749D01*
X0244979Y0265151D02*
X0217951Y0265151D01*
X0227542Y0268742D02*
X0245266Y0268742D01*
X0245825Y0269341D02*
X0227892Y0269341D01*
X0227892Y0269939D02*
X0246470Y0269939D01*
X0250730Y0269939D02*
X0296800Y0269939D01*
X0296800Y0269341D02*
X0251375Y0269341D01*
X0251934Y0268742D02*
X0296800Y0268742D01*
X0296800Y0268143D02*
X0252182Y0268143D01*
X0252430Y0267545D02*
X0296800Y0267545D01*
X0296800Y0266946D02*
X0252500Y0266946D01*
X0252500Y0266348D02*
X0296800Y0266348D01*
X0296800Y0265749D02*
X0252469Y0265749D01*
X0252221Y0265151D02*
X0296800Y0265151D01*
X0296800Y0264552D02*
X0251973Y0264552D01*
X0251469Y0263954D02*
X0296800Y0263954D01*
X0296800Y0263355D02*
X0250871Y0263355D01*
X0249513Y0262757D02*
X0296800Y0262757D01*
X0296800Y0262158D02*
X0178692Y0262158D01*
X0178360Y0261560D02*
X0296800Y0261560D01*
X0296800Y0260961D02*
X0177761Y0260961D01*
X0175238Y0260961D02*
X0171492Y0260961D01*
X0171492Y0261560D02*
X0174640Y0261560D01*
X0174308Y0262158D02*
X0171492Y0262158D01*
X0171243Y0262757D02*
X0174308Y0262757D01*
X0174308Y0263355D02*
X0170645Y0263355D01*
X0171163Y0260363D02*
X0247493Y0260363D01*
X0246249Y0259764D02*
X0170564Y0259764D01*
X0168036Y0259764D02*
X0088292Y0259764D01*
X0088292Y0259166D02*
X0245650Y0259166D01*
X0249707Y0260363D02*
X0296800Y0260363D01*
X0296800Y0259764D02*
X0250951Y0259764D01*
X0251550Y0259166D02*
X0296800Y0259166D01*
X0296800Y0258567D02*
X0252006Y0258567D01*
X0252254Y0257969D02*
X0296800Y0257969D01*
X0296800Y0257370D02*
X0252500Y0257370D01*
X0252500Y0256772D02*
X0296800Y0256772D01*
X0296800Y0256173D02*
X0252500Y0256173D01*
X0252397Y0255575D02*
X0296800Y0255575D01*
X0296800Y0254976D02*
X0252149Y0254976D01*
X0251893Y0254378D02*
X0296800Y0254378D01*
X0296800Y0253779D02*
X0251295Y0253779D01*
X0250536Y0253181D02*
X0296800Y0253181D01*
X0296800Y0244203D02*
X0005400Y0244203D01*
X0005400Y0243605D02*
X0296800Y0243605D01*
X0296800Y0243006D02*
X0005400Y0243006D01*
X0005400Y0242408D02*
X0296800Y0242408D01*
X0296800Y0241809D02*
X0028379Y0241809D01*
X0029160Y0241210D02*
X0296800Y0241210D01*
X0296800Y0240612D02*
X0029759Y0240612D01*
X0030019Y0240013D02*
X0296800Y0240013D01*
X0296800Y0239415D02*
X0030267Y0239415D01*
X0030368Y0238816D02*
X0296800Y0238816D01*
X0296800Y0238218D02*
X0030368Y0238218D01*
X0030364Y0237619D02*
X0296800Y0237619D01*
X0296800Y0237021D02*
X0030116Y0237021D01*
X0025500Y0234627D02*
X0005400Y0234627D01*
X0005400Y0235225D02*
X0024204Y0235225D01*
X0023605Y0235824D02*
X0005400Y0235824D01*
X0005400Y0236422D02*
X0023132Y0236422D01*
X0022884Y0237021D02*
X0005400Y0237021D01*
X0005400Y0237619D02*
X0022636Y0237619D01*
X0022631Y0238218D02*
X0005400Y0238218D01*
X0005400Y0238816D02*
X0022631Y0238816D01*
X0022733Y0239415D02*
X0005400Y0239415D01*
X0005400Y0240013D02*
X0022981Y0240013D01*
X0023241Y0240612D02*
X0005400Y0240612D01*
X0005400Y0241210D02*
X0023840Y0241210D01*
X0024621Y0241809D02*
X0005400Y0241809D01*
X0005400Y0231634D02*
X0024263Y0231634D01*
X0023665Y0231036D02*
X0005400Y0231036D01*
X0005400Y0230437D02*
X0023157Y0230437D01*
X0022909Y0229839D02*
X0005400Y0229839D01*
X0005400Y0229240D02*
X0022661Y0229240D01*
X0022631Y0228642D02*
X0005400Y0228642D01*
X0005400Y0228043D02*
X0022631Y0228043D01*
X0022708Y0227445D02*
X0005400Y0227445D01*
X0005400Y0226846D02*
X0022956Y0226846D01*
X0023204Y0226248D02*
X0005400Y0226248D01*
X0005400Y0225649D02*
X0023780Y0225649D01*
X0024477Y0225051D02*
X0005400Y0225051D01*
X0005400Y0217270D02*
X0023899Y0217270D01*
X0023301Y0216672D02*
X0005400Y0216672D01*
X0005400Y0216073D02*
X0023006Y0216073D01*
X0022758Y0215474D02*
X0005400Y0215474D01*
X0005400Y0214876D02*
X0022631Y0214876D01*
X0022631Y0214277D02*
X0005400Y0214277D01*
X0005400Y0213679D02*
X0022631Y0213679D01*
X0022859Y0213080D02*
X0005400Y0213080D01*
X0005400Y0212482D02*
X0023107Y0212482D01*
X0023546Y0211883D02*
X0005400Y0211883D01*
X0005400Y0211285D02*
X0024144Y0211285D01*
X0025357Y0210686D02*
X0005400Y0210686D01*
X0005400Y0186147D02*
X0296800Y0186147D01*
X0296800Y0185549D02*
X0005400Y0185549D01*
X0005400Y0184950D02*
X0064375Y0184950D01*
X0063777Y0184352D02*
X0005400Y0184352D01*
X0005400Y0183753D02*
X0024487Y0183753D01*
X0023784Y0183155D02*
X0005400Y0183155D01*
X0005400Y0182556D02*
X0023206Y0182556D01*
X0022958Y0181958D02*
X0005400Y0181958D01*
X0005400Y0181359D02*
X0022710Y0181359D01*
X0022631Y0180761D02*
X0005400Y0180761D01*
X0005400Y0180162D02*
X0022631Y0180162D01*
X0022659Y0179564D02*
X0005400Y0179564D01*
X0005400Y0178965D02*
X0022907Y0178965D01*
X0023155Y0178367D02*
X0005400Y0178367D01*
X0005400Y0177768D02*
X0023661Y0177768D01*
X0024259Y0177170D02*
X0005400Y0177170D01*
X0028513Y0183753D02*
X0063283Y0183753D01*
X0063283Y0183155D02*
X0029216Y0183155D01*
X0029794Y0182556D02*
X0063283Y0182556D01*
X0063367Y0181958D02*
X0030042Y0181958D01*
X0030290Y0181359D02*
X0063966Y0181359D01*
X0064564Y0180761D02*
X0030368Y0180761D01*
X0030368Y0190936D02*
X0086889Y0190936D01*
X0086291Y0191534D02*
X0030217Y0191534D01*
X0029970Y0192133D02*
X0085783Y0192133D01*
X0085783Y0192731D02*
X0029640Y0192731D01*
X0029041Y0193330D02*
X0064495Y0193330D01*
X0063897Y0193928D02*
X0028091Y0193928D01*
X0066455Y0193330D02*
X0085783Y0193330D01*
X0085853Y0193928D02*
X0067053Y0193928D01*
X0067652Y0194527D02*
X0086451Y0194527D01*
X0087050Y0195125D02*
X0067667Y0195125D01*
X0088037Y0260363D02*
X0167437Y0260363D01*
X0167108Y0260961D02*
X0087439Y0260961D01*
X0088758Y0282508D02*
X0209908Y0282508D01*
X0210506Y0283106D02*
X0089356Y0283106D01*
X0117264Y0271136D02*
X0186308Y0271136D01*
X0186662Y0270538D02*
X0117667Y0270538D01*
X0087719Y0348344D02*
X0186908Y0348344D01*
X0186942Y0348943D02*
X0088318Y0348943D01*
X0088916Y0349541D02*
X0187541Y0349541D01*
X0188139Y0350140D02*
X0088917Y0350140D01*
X0088340Y0351935D02*
X0168265Y0351935D01*
X0167666Y0352534D02*
X0087742Y0352534D01*
X0078360Y0362110D02*
X0113283Y0362110D01*
X0113283Y0361511D02*
X0077761Y0361511D01*
X0078917Y0362708D02*
X0113383Y0362708D01*
X0113283Y0360913D02*
X0029458Y0360913D01*
X0029894Y0360314D02*
X0113761Y0360314D01*
X0114359Y0359716D02*
X0030142Y0359716D01*
X0028860Y0361511D02*
X0075689Y0361511D01*
X0075090Y0362110D02*
X0027653Y0362110D01*
X0025347Y0362110D02*
X0005400Y0362110D01*
X0005400Y0362708D02*
X0074533Y0362708D01*
X0074533Y0363307D02*
X0005400Y0363307D01*
X0005400Y0363905D02*
X0074533Y0363905D01*
X0074554Y0364504D02*
X0005400Y0364504D01*
X0005400Y0365102D02*
X0063348Y0365102D01*
X0062749Y0365701D02*
X0005400Y0365701D01*
X0005400Y0366299D02*
X0062658Y0366299D01*
X0062658Y0366898D02*
X0005400Y0366898D01*
X0005400Y0367496D02*
X0062658Y0367496D01*
X0063145Y0368095D02*
X0005400Y0368095D01*
X0005400Y0368693D02*
X0063743Y0368693D01*
X0066352Y0365102D02*
X0075152Y0365102D01*
X0024774Y0354928D02*
X0005400Y0354928D01*
X0005400Y0355526D02*
X0023903Y0355526D01*
X0023304Y0356125D02*
X0005400Y0356125D01*
X0005400Y0356723D02*
X0023007Y0356723D01*
X0022759Y0357322D02*
X0005400Y0357322D01*
X0005400Y0357920D02*
X0022631Y0357920D01*
X0022631Y0358519D02*
X0005400Y0358519D01*
X0005400Y0359117D02*
X0022631Y0359117D01*
X0022858Y0359716D02*
X0005400Y0359716D01*
X0005400Y0360314D02*
X0023106Y0360314D01*
X0023542Y0360913D02*
X0005400Y0360913D01*
X0005400Y0361511D02*
X0024140Y0361511D01*
X0024926Y0351935D02*
X0005400Y0351935D01*
X0005400Y0351337D02*
X0023966Y0351337D01*
X0023367Y0350738D02*
X0005400Y0350738D01*
X0005400Y0350140D02*
X0023033Y0350140D01*
X0022785Y0349541D02*
X0005400Y0349541D01*
X0005400Y0348943D02*
X0022631Y0348943D01*
X0022631Y0348344D02*
X0005400Y0348344D01*
X0005400Y0347745D02*
X0022631Y0347745D01*
X0022832Y0347147D02*
X0005400Y0347147D01*
X0005400Y0346548D02*
X0023080Y0346548D01*
X0023479Y0345950D02*
X0005400Y0345950D01*
X0005400Y0345351D02*
X0024078Y0345351D01*
X0025196Y0344753D02*
X0005400Y0344753D01*
X0005400Y0339366D02*
X0022603Y0339366D01*
X0021222Y0338768D02*
X0005400Y0338768D01*
X0005400Y0338169D02*
X0020185Y0338169D01*
X0019303Y0337571D02*
X0005400Y0337571D01*
X0005400Y0336972D02*
X0018705Y0336972D01*
X0018106Y0336374D02*
X0005400Y0336374D01*
X0005400Y0335775D02*
X0017512Y0335775D01*
X0017167Y0335177D02*
X0005400Y0335177D01*
X0005400Y0334578D02*
X0016821Y0334578D01*
X0016475Y0333980D02*
X0005400Y0333980D01*
X0005400Y0333381D02*
X0016130Y0333381D01*
X0015957Y0332783D02*
X0005400Y0332783D01*
X0005400Y0332184D02*
X0015796Y0332184D01*
X0015636Y0331586D02*
X0005400Y0331586D01*
X0005400Y0330987D02*
X0015476Y0330987D01*
X0015375Y0330389D02*
X0005400Y0330389D01*
X0005400Y0329790D02*
X0015375Y0329790D01*
X0015375Y0329192D02*
X0005400Y0329192D01*
X0005400Y0328593D02*
X0015375Y0328593D01*
X0015375Y0327995D02*
X0005400Y0327995D01*
X0005400Y0327396D02*
X0015480Y0327396D01*
X0015640Y0326798D02*
X0005400Y0326798D01*
X0005400Y0326199D02*
X0015801Y0326199D01*
X0015961Y0325601D02*
X0005400Y0325601D01*
X0005400Y0325002D02*
X0016140Y0325002D01*
X0016485Y0324404D02*
X0005400Y0324404D01*
X0005400Y0323805D02*
X0016831Y0323805D01*
X0017176Y0323207D02*
X0005400Y0323207D01*
X0005400Y0322608D02*
X0017525Y0322608D01*
X0018123Y0322010D02*
X0005400Y0322010D01*
X0005400Y0321411D02*
X0018722Y0321411D01*
X0019320Y0320812D02*
X0005400Y0320812D01*
X0005400Y0320214D02*
X0020214Y0320214D01*
X0021251Y0319615D02*
X0005400Y0319615D01*
X0005400Y0319017D02*
X0022665Y0319017D01*
X0005400Y0295675D02*
X0176500Y0295675D01*
X0176358Y0295077D02*
X0005400Y0295077D01*
X0005400Y0294478D02*
X0176358Y0294478D01*
X0176358Y0293879D02*
X0005400Y0293879D01*
X0005400Y0293281D02*
X0176794Y0293281D01*
X0177392Y0292682D02*
X0005400Y0292682D01*
X0029894Y0130486D02*
X0188811Y0130486D01*
X0188212Y0129887D02*
X0029458Y0129887D01*
X0028860Y0129289D02*
X0187614Y0129289D01*
X0187608Y0128690D02*
X0027653Y0128690D01*
X0028027Y0089787D02*
X0063813Y0089787D01*
X0064411Y0089189D02*
X0030249Y0089189D01*
X0072169Y0046694D02*
X0173858Y0046694D01*
X0173954Y0046096D02*
X0073425Y0046096D01*
X0074024Y0045497D02*
X0174553Y0045497D01*
X0178874Y0044899D02*
X0074480Y0044899D01*
X0171019Y0077218D02*
X0175981Y0077218D01*
X0175383Y0077817D02*
X0171492Y0077817D01*
X0171492Y0078415D02*
X0174908Y0078415D01*
X0174908Y0079014D02*
X0171492Y0079014D01*
X0171388Y0079612D02*
X0174908Y0079612D01*
X0175011Y0080211D02*
X0170789Y0080211D01*
X0191975Y0094575D02*
X0198225Y0094575D01*
X0197626Y0095174D02*
X0192574Y0095174D01*
X0193092Y0095772D02*
X0197108Y0095772D01*
X0197108Y0096371D02*
X0193092Y0096371D01*
X0193092Y0096969D02*
X0197108Y0096969D01*
X0197168Y0097568D02*
X0193032Y0097568D01*
X0192434Y0098166D02*
X0197766Y0098166D01*
X0198365Y0098765D02*
X0191835Y0098765D01*
X0200235Y0098765D02*
X0209765Y0098765D01*
X0209708Y0098166D02*
X0200834Y0098166D01*
X0201432Y0097568D02*
X0209708Y0097568D01*
X0209708Y0096969D02*
X0201492Y0096969D01*
X0201492Y0096371D02*
X0210229Y0096371D01*
X0210828Y0095772D02*
X0201492Y0095772D01*
X0191888Y0140062D02*
X0178713Y0140062D01*
X0178115Y0140661D02*
X0191289Y0140661D01*
X0191117Y0218467D02*
X0251782Y0218467D01*
X0252258Y0219066D02*
X0191716Y0219066D01*
X0191992Y0219664D02*
X0252856Y0219664D01*
X0253455Y0220263D02*
X0191992Y0220263D01*
X0191992Y0220861D02*
X0254337Y0220861D01*
X0255782Y0221460D02*
X0191691Y0221460D01*
X0227892Y0270538D02*
X0296800Y0270538D01*
X0296800Y0271136D02*
X0227664Y0271136D01*
X0227066Y0271735D02*
X0296800Y0271735D01*
X0296800Y0224452D02*
X0266586Y0224452D01*
X0267688Y0223854D02*
X0296800Y0223854D01*
X0296800Y0223255D02*
X0268395Y0223255D01*
X0268904Y0222657D02*
X0296800Y0222657D01*
X0296800Y0222058D02*
X0269281Y0222058D01*
X0269561Y0221460D02*
X0296800Y0221460D01*
X0296800Y0220861D02*
X0269755Y0220861D01*
X0269857Y0220263D02*
X0296800Y0220263D01*
X0265000Y0223854D02*
X0264400Y0223854D01*
X0264400Y0224452D02*
X0265000Y0224452D01*
X0260362Y0207694D02*
X0259425Y0207694D01*
X0195850Y0345950D02*
X0190150Y0345950D01*
X0190749Y0346548D02*
X0195251Y0346548D01*
X0194708Y0347147D02*
X0191292Y0347147D01*
X0191292Y0347745D02*
X0194708Y0347745D01*
X0194708Y0348344D02*
X0191292Y0348344D01*
X0191258Y0348943D02*
X0194742Y0348943D01*
X0195341Y0349541D02*
X0190659Y0349541D01*
X0190061Y0350140D02*
X0195939Y0350140D01*
X0189511Y0361511D02*
X0221108Y0361511D01*
X0221108Y0362110D02*
X0190110Y0362110D01*
X0190692Y0362708D02*
X0221108Y0362708D01*
X0221108Y0363307D02*
X0190692Y0363307D01*
X0190692Y0363905D02*
X0221705Y0363905D01*
X0222304Y0364504D02*
X0190692Y0364504D01*
X0187501Y0365701D02*
X0170292Y0365701D01*
X0170292Y0365102D02*
X0186902Y0365102D01*
X0186308Y0364504D02*
X0169704Y0364504D01*
X0169105Y0363905D02*
X0186308Y0363905D01*
X0189992Y0369808D02*
X0191808Y0369808D01*
X0193092Y0371092D01*
X0193092Y0372908D01*
X0191808Y0374192D01*
X0189992Y0374192D01*
X0188708Y0372908D01*
X0188708Y0371092D01*
X0189992Y0369808D01*
X0189909Y0369890D02*
X0175091Y0369890D01*
X0175689Y0370489D02*
X0189311Y0370489D01*
X0188712Y0371087D02*
X0176288Y0371087D01*
X0176292Y0371686D02*
X0188708Y0371686D01*
X0188708Y0372284D02*
X0176292Y0372284D01*
X0176292Y0372883D02*
X0188708Y0372883D01*
X0189281Y0373481D02*
X0175719Y0373481D01*
X0175120Y0374080D02*
X0189880Y0374080D01*
X0191920Y0374080D02*
X0198280Y0374080D01*
X0197681Y0373481D02*
X0192519Y0373481D01*
X0193092Y0372883D02*
X0197108Y0372883D01*
X0197108Y0372284D02*
X0193092Y0372284D01*
X0193092Y0371686D02*
X0197108Y0371686D01*
X0197112Y0371087D02*
X0193088Y0371087D01*
X0192489Y0370489D02*
X0197711Y0370489D01*
X0198309Y0369890D02*
X0191891Y0369890D01*
X0215287Y0360913D02*
X0221687Y0360913D01*
X0222286Y0360314D02*
X0215886Y0360314D01*
X0216484Y0359716D02*
X0244882Y0359716D01*
X0244700Y0359117D02*
X0216492Y0359117D01*
X0216492Y0358519D02*
X0244700Y0358519D01*
X0244700Y0357920D02*
X0216492Y0357920D01*
X0215922Y0357322D02*
X0244867Y0357322D01*
X0245115Y0356723D02*
X0215323Y0356723D01*
X0224314Y0360314D02*
X0245130Y0360314D01*
X0245497Y0360913D02*
X0224913Y0360913D01*
X0225492Y0361511D02*
X0246096Y0361511D01*
X0247124Y0362110D02*
X0225492Y0362110D01*
M02*
