G75*
%MOIN*%
%OFA0B0*%
%FSLAX25Y25*%
%IPPOS*%
%LPD*%
%AMOC8*
5,1,8,0,0,1.08239X$1,22.5*
%
%ADD10C,0.00000*%
%ADD11C,0.00600*%
%ADD12C,0.00400*%
%ADD13C,0.00500*%
%ADD14C,0.01000*%
%ADD15C,0.00700*%
%ADD16C,0.00197*%
%ADD17C,0.00300*%
%ADD18C,0.00800*%
%ADD19C,0.00200*%
D10*
X0001100Y0004200D02*
X0001100Y0404200D01*
X0301100Y0404200D01*
X0301100Y0004200D01*
X0001100Y0004200D01*
X0019675Y0079200D02*
X0019677Y0079360D01*
X0019683Y0079520D01*
X0019693Y0079680D01*
X0019707Y0079840D01*
X0019725Y0079999D01*
X0019747Y0080158D01*
X0019773Y0080316D01*
X0019802Y0080473D01*
X0019836Y0080630D01*
X0019874Y0080785D01*
X0019915Y0080940D01*
X0019960Y0081094D01*
X0020010Y0081246D01*
X0020062Y0081397D01*
X0020119Y0081547D01*
X0020180Y0081696D01*
X0020244Y0081843D01*
X0020311Y0081988D01*
X0020383Y0082131D01*
X0020457Y0082273D01*
X0020536Y0082413D01*
X0020618Y0082550D01*
X0020703Y0082686D01*
X0020791Y0082819D01*
X0020883Y0082951D01*
X0020978Y0083079D01*
X0021077Y0083206D01*
X0021178Y0083330D01*
X0021283Y0083451D01*
X0021390Y0083570D01*
X0021501Y0083686D01*
X0021614Y0083799D01*
X0021730Y0083910D01*
X0021849Y0084017D01*
X0021970Y0084122D01*
X0022094Y0084223D01*
X0022221Y0084322D01*
X0022349Y0084417D01*
X0022481Y0084509D01*
X0022614Y0084597D01*
X0022750Y0084682D01*
X0022888Y0084764D01*
X0023027Y0084843D01*
X0023169Y0084917D01*
X0023312Y0084989D01*
X0023457Y0085056D01*
X0023604Y0085120D01*
X0023753Y0085181D01*
X0023903Y0085238D01*
X0024054Y0085290D01*
X0024206Y0085340D01*
X0024360Y0085385D01*
X0024515Y0085426D01*
X0024670Y0085464D01*
X0024827Y0085498D01*
X0024984Y0085527D01*
X0025142Y0085553D01*
X0025301Y0085575D01*
X0025460Y0085593D01*
X0025620Y0085607D01*
X0025780Y0085617D01*
X0025940Y0085623D01*
X0026100Y0085625D01*
X0026260Y0085623D01*
X0026420Y0085617D01*
X0026580Y0085607D01*
X0026740Y0085593D01*
X0026899Y0085575D01*
X0027058Y0085553D01*
X0027216Y0085527D01*
X0027373Y0085498D01*
X0027530Y0085464D01*
X0027685Y0085426D01*
X0027840Y0085385D01*
X0027994Y0085340D01*
X0028146Y0085290D01*
X0028297Y0085238D01*
X0028447Y0085181D01*
X0028596Y0085120D01*
X0028743Y0085056D01*
X0028888Y0084989D01*
X0029031Y0084917D01*
X0029173Y0084843D01*
X0029313Y0084764D01*
X0029450Y0084682D01*
X0029586Y0084597D01*
X0029719Y0084509D01*
X0029851Y0084417D01*
X0029979Y0084322D01*
X0030106Y0084223D01*
X0030230Y0084122D01*
X0030351Y0084017D01*
X0030470Y0083910D01*
X0030586Y0083799D01*
X0030699Y0083686D01*
X0030810Y0083570D01*
X0030917Y0083451D01*
X0031022Y0083330D01*
X0031123Y0083206D01*
X0031222Y0083079D01*
X0031317Y0082951D01*
X0031409Y0082819D01*
X0031497Y0082686D01*
X0031582Y0082550D01*
X0031664Y0082412D01*
X0031743Y0082273D01*
X0031817Y0082131D01*
X0031889Y0081988D01*
X0031956Y0081843D01*
X0032020Y0081696D01*
X0032081Y0081547D01*
X0032138Y0081397D01*
X0032190Y0081246D01*
X0032240Y0081094D01*
X0032285Y0080940D01*
X0032326Y0080785D01*
X0032364Y0080630D01*
X0032398Y0080473D01*
X0032427Y0080316D01*
X0032453Y0080158D01*
X0032475Y0079999D01*
X0032493Y0079840D01*
X0032507Y0079680D01*
X0032517Y0079520D01*
X0032523Y0079360D01*
X0032525Y0079200D01*
X0032523Y0079040D01*
X0032517Y0078880D01*
X0032507Y0078720D01*
X0032493Y0078560D01*
X0032475Y0078401D01*
X0032453Y0078242D01*
X0032427Y0078084D01*
X0032398Y0077927D01*
X0032364Y0077770D01*
X0032326Y0077615D01*
X0032285Y0077460D01*
X0032240Y0077306D01*
X0032190Y0077154D01*
X0032138Y0077003D01*
X0032081Y0076853D01*
X0032020Y0076704D01*
X0031956Y0076557D01*
X0031889Y0076412D01*
X0031817Y0076269D01*
X0031743Y0076127D01*
X0031664Y0075987D01*
X0031582Y0075850D01*
X0031497Y0075714D01*
X0031409Y0075581D01*
X0031317Y0075449D01*
X0031222Y0075321D01*
X0031123Y0075194D01*
X0031022Y0075070D01*
X0030917Y0074949D01*
X0030810Y0074830D01*
X0030699Y0074714D01*
X0030586Y0074601D01*
X0030470Y0074490D01*
X0030351Y0074383D01*
X0030230Y0074278D01*
X0030106Y0074177D01*
X0029979Y0074078D01*
X0029851Y0073983D01*
X0029719Y0073891D01*
X0029586Y0073803D01*
X0029450Y0073718D01*
X0029312Y0073636D01*
X0029173Y0073557D01*
X0029031Y0073483D01*
X0028888Y0073411D01*
X0028743Y0073344D01*
X0028596Y0073280D01*
X0028447Y0073219D01*
X0028297Y0073162D01*
X0028146Y0073110D01*
X0027994Y0073060D01*
X0027840Y0073015D01*
X0027685Y0072974D01*
X0027530Y0072936D01*
X0027373Y0072902D01*
X0027216Y0072873D01*
X0027058Y0072847D01*
X0026899Y0072825D01*
X0026740Y0072807D01*
X0026580Y0072793D01*
X0026420Y0072783D01*
X0026260Y0072777D01*
X0026100Y0072775D01*
X0025940Y0072777D01*
X0025780Y0072783D01*
X0025620Y0072793D01*
X0025460Y0072807D01*
X0025301Y0072825D01*
X0025142Y0072847D01*
X0024984Y0072873D01*
X0024827Y0072902D01*
X0024670Y0072936D01*
X0024515Y0072974D01*
X0024360Y0073015D01*
X0024206Y0073060D01*
X0024054Y0073110D01*
X0023903Y0073162D01*
X0023753Y0073219D01*
X0023604Y0073280D01*
X0023457Y0073344D01*
X0023312Y0073411D01*
X0023169Y0073483D01*
X0023027Y0073557D01*
X0022887Y0073636D01*
X0022750Y0073718D01*
X0022614Y0073803D01*
X0022481Y0073891D01*
X0022349Y0073983D01*
X0022221Y0074078D01*
X0022094Y0074177D01*
X0021970Y0074278D01*
X0021849Y0074383D01*
X0021730Y0074490D01*
X0021614Y0074601D01*
X0021501Y0074714D01*
X0021390Y0074830D01*
X0021283Y0074949D01*
X0021178Y0075070D01*
X0021077Y0075194D01*
X0020978Y0075321D01*
X0020883Y0075449D01*
X0020791Y0075581D01*
X0020703Y0075714D01*
X0020618Y0075850D01*
X0020536Y0075988D01*
X0020457Y0076127D01*
X0020383Y0076269D01*
X0020311Y0076412D01*
X0020244Y0076557D01*
X0020180Y0076704D01*
X0020119Y0076853D01*
X0020062Y0077003D01*
X0020010Y0077154D01*
X0019960Y0077306D01*
X0019915Y0077460D01*
X0019874Y0077615D01*
X0019836Y0077770D01*
X0019802Y0077927D01*
X0019773Y0078084D01*
X0019747Y0078242D01*
X0019725Y0078401D01*
X0019707Y0078560D01*
X0019693Y0078720D01*
X0019683Y0078880D01*
X0019677Y0079040D01*
X0019675Y0079200D01*
X0019675Y0329200D02*
X0019677Y0329360D01*
X0019683Y0329520D01*
X0019693Y0329680D01*
X0019707Y0329840D01*
X0019725Y0329999D01*
X0019747Y0330158D01*
X0019773Y0330316D01*
X0019802Y0330473D01*
X0019836Y0330630D01*
X0019874Y0330785D01*
X0019915Y0330940D01*
X0019960Y0331094D01*
X0020010Y0331246D01*
X0020062Y0331397D01*
X0020119Y0331547D01*
X0020180Y0331696D01*
X0020244Y0331843D01*
X0020311Y0331988D01*
X0020383Y0332131D01*
X0020457Y0332273D01*
X0020536Y0332413D01*
X0020618Y0332550D01*
X0020703Y0332686D01*
X0020791Y0332819D01*
X0020883Y0332951D01*
X0020978Y0333079D01*
X0021077Y0333206D01*
X0021178Y0333330D01*
X0021283Y0333451D01*
X0021390Y0333570D01*
X0021501Y0333686D01*
X0021614Y0333799D01*
X0021730Y0333910D01*
X0021849Y0334017D01*
X0021970Y0334122D01*
X0022094Y0334223D01*
X0022221Y0334322D01*
X0022349Y0334417D01*
X0022481Y0334509D01*
X0022614Y0334597D01*
X0022750Y0334682D01*
X0022888Y0334764D01*
X0023027Y0334843D01*
X0023169Y0334917D01*
X0023312Y0334989D01*
X0023457Y0335056D01*
X0023604Y0335120D01*
X0023753Y0335181D01*
X0023903Y0335238D01*
X0024054Y0335290D01*
X0024206Y0335340D01*
X0024360Y0335385D01*
X0024515Y0335426D01*
X0024670Y0335464D01*
X0024827Y0335498D01*
X0024984Y0335527D01*
X0025142Y0335553D01*
X0025301Y0335575D01*
X0025460Y0335593D01*
X0025620Y0335607D01*
X0025780Y0335617D01*
X0025940Y0335623D01*
X0026100Y0335625D01*
X0026260Y0335623D01*
X0026420Y0335617D01*
X0026580Y0335607D01*
X0026740Y0335593D01*
X0026899Y0335575D01*
X0027058Y0335553D01*
X0027216Y0335527D01*
X0027373Y0335498D01*
X0027530Y0335464D01*
X0027685Y0335426D01*
X0027840Y0335385D01*
X0027994Y0335340D01*
X0028146Y0335290D01*
X0028297Y0335238D01*
X0028447Y0335181D01*
X0028596Y0335120D01*
X0028743Y0335056D01*
X0028888Y0334989D01*
X0029031Y0334917D01*
X0029173Y0334843D01*
X0029313Y0334764D01*
X0029450Y0334682D01*
X0029586Y0334597D01*
X0029719Y0334509D01*
X0029851Y0334417D01*
X0029979Y0334322D01*
X0030106Y0334223D01*
X0030230Y0334122D01*
X0030351Y0334017D01*
X0030470Y0333910D01*
X0030586Y0333799D01*
X0030699Y0333686D01*
X0030810Y0333570D01*
X0030917Y0333451D01*
X0031022Y0333330D01*
X0031123Y0333206D01*
X0031222Y0333079D01*
X0031317Y0332951D01*
X0031409Y0332819D01*
X0031497Y0332686D01*
X0031582Y0332550D01*
X0031664Y0332412D01*
X0031743Y0332273D01*
X0031817Y0332131D01*
X0031889Y0331988D01*
X0031956Y0331843D01*
X0032020Y0331696D01*
X0032081Y0331547D01*
X0032138Y0331397D01*
X0032190Y0331246D01*
X0032240Y0331094D01*
X0032285Y0330940D01*
X0032326Y0330785D01*
X0032364Y0330630D01*
X0032398Y0330473D01*
X0032427Y0330316D01*
X0032453Y0330158D01*
X0032475Y0329999D01*
X0032493Y0329840D01*
X0032507Y0329680D01*
X0032517Y0329520D01*
X0032523Y0329360D01*
X0032525Y0329200D01*
X0032523Y0329040D01*
X0032517Y0328880D01*
X0032507Y0328720D01*
X0032493Y0328560D01*
X0032475Y0328401D01*
X0032453Y0328242D01*
X0032427Y0328084D01*
X0032398Y0327927D01*
X0032364Y0327770D01*
X0032326Y0327615D01*
X0032285Y0327460D01*
X0032240Y0327306D01*
X0032190Y0327154D01*
X0032138Y0327003D01*
X0032081Y0326853D01*
X0032020Y0326704D01*
X0031956Y0326557D01*
X0031889Y0326412D01*
X0031817Y0326269D01*
X0031743Y0326127D01*
X0031664Y0325987D01*
X0031582Y0325850D01*
X0031497Y0325714D01*
X0031409Y0325581D01*
X0031317Y0325449D01*
X0031222Y0325321D01*
X0031123Y0325194D01*
X0031022Y0325070D01*
X0030917Y0324949D01*
X0030810Y0324830D01*
X0030699Y0324714D01*
X0030586Y0324601D01*
X0030470Y0324490D01*
X0030351Y0324383D01*
X0030230Y0324278D01*
X0030106Y0324177D01*
X0029979Y0324078D01*
X0029851Y0323983D01*
X0029719Y0323891D01*
X0029586Y0323803D01*
X0029450Y0323718D01*
X0029312Y0323636D01*
X0029173Y0323557D01*
X0029031Y0323483D01*
X0028888Y0323411D01*
X0028743Y0323344D01*
X0028596Y0323280D01*
X0028447Y0323219D01*
X0028297Y0323162D01*
X0028146Y0323110D01*
X0027994Y0323060D01*
X0027840Y0323015D01*
X0027685Y0322974D01*
X0027530Y0322936D01*
X0027373Y0322902D01*
X0027216Y0322873D01*
X0027058Y0322847D01*
X0026899Y0322825D01*
X0026740Y0322807D01*
X0026580Y0322793D01*
X0026420Y0322783D01*
X0026260Y0322777D01*
X0026100Y0322775D01*
X0025940Y0322777D01*
X0025780Y0322783D01*
X0025620Y0322793D01*
X0025460Y0322807D01*
X0025301Y0322825D01*
X0025142Y0322847D01*
X0024984Y0322873D01*
X0024827Y0322902D01*
X0024670Y0322936D01*
X0024515Y0322974D01*
X0024360Y0323015D01*
X0024206Y0323060D01*
X0024054Y0323110D01*
X0023903Y0323162D01*
X0023753Y0323219D01*
X0023604Y0323280D01*
X0023457Y0323344D01*
X0023312Y0323411D01*
X0023169Y0323483D01*
X0023027Y0323557D01*
X0022887Y0323636D01*
X0022750Y0323718D01*
X0022614Y0323803D01*
X0022481Y0323891D01*
X0022349Y0323983D01*
X0022221Y0324078D01*
X0022094Y0324177D01*
X0021970Y0324278D01*
X0021849Y0324383D01*
X0021730Y0324490D01*
X0021614Y0324601D01*
X0021501Y0324714D01*
X0021390Y0324830D01*
X0021283Y0324949D01*
X0021178Y0325070D01*
X0021077Y0325194D01*
X0020978Y0325321D01*
X0020883Y0325449D01*
X0020791Y0325581D01*
X0020703Y0325714D01*
X0020618Y0325850D01*
X0020536Y0325988D01*
X0020457Y0326127D01*
X0020383Y0326269D01*
X0020311Y0326412D01*
X0020244Y0326557D01*
X0020180Y0326704D01*
X0020119Y0326853D01*
X0020062Y0327003D01*
X0020010Y0327154D01*
X0019960Y0327306D01*
X0019915Y0327460D01*
X0019874Y0327615D01*
X0019836Y0327770D01*
X0019802Y0327927D01*
X0019773Y0328084D01*
X0019747Y0328242D01*
X0019725Y0328401D01*
X0019707Y0328560D01*
X0019693Y0328720D01*
X0019683Y0328880D01*
X0019677Y0329040D01*
X0019675Y0329200D01*
X0255094Y0214679D02*
X0255096Y0214784D01*
X0255102Y0214889D01*
X0255112Y0214993D01*
X0255126Y0215097D01*
X0255144Y0215201D01*
X0255166Y0215303D01*
X0255191Y0215405D01*
X0255221Y0215506D01*
X0255254Y0215605D01*
X0255291Y0215703D01*
X0255332Y0215800D01*
X0255377Y0215895D01*
X0255425Y0215988D01*
X0255476Y0216080D01*
X0255532Y0216169D01*
X0255590Y0216256D01*
X0255652Y0216341D01*
X0255716Y0216424D01*
X0255784Y0216504D01*
X0255855Y0216581D01*
X0255929Y0216655D01*
X0256006Y0216727D01*
X0256085Y0216796D01*
X0256167Y0216861D01*
X0256251Y0216924D01*
X0256338Y0216983D01*
X0256427Y0217039D01*
X0256518Y0217092D01*
X0256611Y0217141D01*
X0256705Y0217186D01*
X0256801Y0217228D01*
X0256899Y0217266D01*
X0256998Y0217300D01*
X0257099Y0217331D01*
X0257200Y0217357D01*
X0257303Y0217380D01*
X0257406Y0217399D01*
X0257510Y0217414D01*
X0257614Y0217425D01*
X0257719Y0217432D01*
X0257824Y0217435D01*
X0257929Y0217434D01*
X0258034Y0217429D01*
X0258138Y0217420D01*
X0258242Y0217407D01*
X0258346Y0217390D01*
X0258449Y0217369D01*
X0258551Y0217344D01*
X0258652Y0217316D01*
X0258751Y0217283D01*
X0258850Y0217247D01*
X0258947Y0217207D01*
X0259042Y0217164D01*
X0259136Y0217116D01*
X0259228Y0217066D01*
X0259318Y0217012D01*
X0259406Y0216954D01*
X0259491Y0216893D01*
X0259574Y0216829D01*
X0259655Y0216762D01*
X0259733Y0216692D01*
X0259808Y0216618D01*
X0259880Y0216543D01*
X0259950Y0216464D01*
X0260016Y0216383D01*
X0260080Y0216299D01*
X0260140Y0216213D01*
X0260196Y0216125D01*
X0260250Y0216034D01*
X0260300Y0215942D01*
X0260346Y0215848D01*
X0260389Y0215752D01*
X0260428Y0215654D01*
X0260463Y0215556D01*
X0260494Y0215455D01*
X0260522Y0215354D01*
X0260546Y0215252D01*
X0260566Y0215149D01*
X0260582Y0215045D01*
X0260594Y0214941D01*
X0260602Y0214836D01*
X0260606Y0214731D01*
X0260606Y0214627D01*
X0260602Y0214522D01*
X0260594Y0214417D01*
X0260582Y0214313D01*
X0260566Y0214209D01*
X0260546Y0214106D01*
X0260522Y0214004D01*
X0260494Y0213903D01*
X0260463Y0213802D01*
X0260428Y0213704D01*
X0260389Y0213606D01*
X0260346Y0213510D01*
X0260300Y0213416D01*
X0260250Y0213324D01*
X0260196Y0213233D01*
X0260140Y0213145D01*
X0260080Y0213059D01*
X0260016Y0212975D01*
X0259950Y0212894D01*
X0259880Y0212815D01*
X0259808Y0212740D01*
X0259733Y0212666D01*
X0259655Y0212596D01*
X0259574Y0212529D01*
X0259491Y0212465D01*
X0259406Y0212404D01*
X0259318Y0212346D01*
X0259228Y0212292D01*
X0259136Y0212242D01*
X0259042Y0212194D01*
X0258947Y0212151D01*
X0258850Y0212111D01*
X0258751Y0212075D01*
X0258652Y0212042D01*
X0258551Y0212014D01*
X0258449Y0211989D01*
X0258346Y0211968D01*
X0258242Y0211951D01*
X0258138Y0211938D01*
X0258034Y0211929D01*
X0257929Y0211924D01*
X0257824Y0211923D01*
X0257719Y0211926D01*
X0257614Y0211933D01*
X0257510Y0211944D01*
X0257406Y0211959D01*
X0257303Y0211978D01*
X0257200Y0212001D01*
X0257099Y0212027D01*
X0256998Y0212058D01*
X0256899Y0212092D01*
X0256801Y0212130D01*
X0256705Y0212172D01*
X0256611Y0212217D01*
X0256518Y0212266D01*
X0256427Y0212319D01*
X0256338Y0212375D01*
X0256251Y0212434D01*
X0256167Y0212497D01*
X0256085Y0212562D01*
X0256006Y0212631D01*
X0255929Y0212703D01*
X0255855Y0212777D01*
X0255784Y0212854D01*
X0255716Y0212934D01*
X0255652Y0213017D01*
X0255590Y0213102D01*
X0255532Y0213189D01*
X0255476Y0213278D01*
X0255425Y0213370D01*
X0255377Y0213463D01*
X0255332Y0213558D01*
X0255291Y0213655D01*
X0255254Y0213753D01*
X0255221Y0213852D01*
X0255191Y0213953D01*
X0255166Y0214055D01*
X0255144Y0214157D01*
X0255126Y0214261D01*
X0255112Y0214365D01*
X0255102Y0214469D01*
X0255096Y0214574D01*
X0255094Y0214679D01*
X0269675Y0329200D02*
X0269677Y0329360D01*
X0269683Y0329520D01*
X0269693Y0329680D01*
X0269707Y0329840D01*
X0269725Y0329999D01*
X0269747Y0330158D01*
X0269773Y0330316D01*
X0269802Y0330473D01*
X0269836Y0330630D01*
X0269874Y0330785D01*
X0269915Y0330940D01*
X0269960Y0331094D01*
X0270010Y0331246D01*
X0270062Y0331397D01*
X0270119Y0331547D01*
X0270180Y0331696D01*
X0270244Y0331843D01*
X0270311Y0331988D01*
X0270383Y0332131D01*
X0270457Y0332273D01*
X0270536Y0332413D01*
X0270618Y0332550D01*
X0270703Y0332686D01*
X0270791Y0332819D01*
X0270883Y0332951D01*
X0270978Y0333079D01*
X0271077Y0333206D01*
X0271178Y0333330D01*
X0271283Y0333451D01*
X0271390Y0333570D01*
X0271501Y0333686D01*
X0271614Y0333799D01*
X0271730Y0333910D01*
X0271849Y0334017D01*
X0271970Y0334122D01*
X0272094Y0334223D01*
X0272221Y0334322D01*
X0272349Y0334417D01*
X0272481Y0334509D01*
X0272614Y0334597D01*
X0272750Y0334682D01*
X0272888Y0334764D01*
X0273027Y0334843D01*
X0273169Y0334917D01*
X0273312Y0334989D01*
X0273457Y0335056D01*
X0273604Y0335120D01*
X0273753Y0335181D01*
X0273903Y0335238D01*
X0274054Y0335290D01*
X0274206Y0335340D01*
X0274360Y0335385D01*
X0274515Y0335426D01*
X0274670Y0335464D01*
X0274827Y0335498D01*
X0274984Y0335527D01*
X0275142Y0335553D01*
X0275301Y0335575D01*
X0275460Y0335593D01*
X0275620Y0335607D01*
X0275780Y0335617D01*
X0275940Y0335623D01*
X0276100Y0335625D01*
X0276260Y0335623D01*
X0276420Y0335617D01*
X0276580Y0335607D01*
X0276740Y0335593D01*
X0276899Y0335575D01*
X0277058Y0335553D01*
X0277216Y0335527D01*
X0277373Y0335498D01*
X0277530Y0335464D01*
X0277685Y0335426D01*
X0277840Y0335385D01*
X0277994Y0335340D01*
X0278146Y0335290D01*
X0278297Y0335238D01*
X0278447Y0335181D01*
X0278596Y0335120D01*
X0278743Y0335056D01*
X0278888Y0334989D01*
X0279031Y0334917D01*
X0279173Y0334843D01*
X0279313Y0334764D01*
X0279450Y0334682D01*
X0279586Y0334597D01*
X0279719Y0334509D01*
X0279851Y0334417D01*
X0279979Y0334322D01*
X0280106Y0334223D01*
X0280230Y0334122D01*
X0280351Y0334017D01*
X0280470Y0333910D01*
X0280586Y0333799D01*
X0280699Y0333686D01*
X0280810Y0333570D01*
X0280917Y0333451D01*
X0281022Y0333330D01*
X0281123Y0333206D01*
X0281222Y0333079D01*
X0281317Y0332951D01*
X0281409Y0332819D01*
X0281497Y0332686D01*
X0281582Y0332550D01*
X0281664Y0332412D01*
X0281743Y0332273D01*
X0281817Y0332131D01*
X0281889Y0331988D01*
X0281956Y0331843D01*
X0282020Y0331696D01*
X0282081Y0331547D01*
X0282138Y0331397D01*
X0282190Y0331246D01*
X0282240Y0331094D01*
X0282285Y0330940D01*
X0282326Y0330785D01*
X0282364Y0330630D01*
X0282398Y0330473D01*
X0282427Y0330316D01*
X0282453Y0330158D01*
X0282475Y0329999D01*
X0282493Y0329840D01*
X0282507Y0329680D01*
X0282517Y0329520D01*
X0282523Y0329360D01*
X0282525Y0329200D01*
X0282523Y0329040D01*
X0282517Y0328880D01*
X0282507Y0328720D01*
X0282493Y0328560D01*
X0282475Y0328401D01*
X0282453Y0328242D01*
X0282427Y0328084D01*
X0282398Y0327927D01*
X0282364Y0327770D01*
X0282326Y0327615D01*
X0282285Y0327460D01*
X0282240Y0327306D01*
X0282190Y0327154D01*
X0282138Y0327003D01*
X0282081Y0326853D01*
X0282020Y0326704D01*
X0281956Y0326557D01*
X0281889Y0326412D01*
X0281817Y0326269D01*
X0281743Y0326127D01*
X0281664Y0325987D01*
X0281582Y0325850D01*
X0281497Y0325714D01*
X0281409Y0325581D01*
X0281317Y0325449D01*
X0281222Y0325321D01*
X0281123Y0325194D01*
X0281022Y0325070D01*
X0280917Y0324949D01*
X0280810Y0324830D01*
X0280699Y0324714D01*
X0280586Y0324601D01*
X0280470Y0324490D01*
X0280351Y0324383D01*
X0280230Y0324278D01*
X0280106Y0324177D01*
X0279979Y0324078D01*
X0279851Y0323983D01*
X0279719Y0323891D01*
X0279586Y0323803D01*
X0279450Y0323718D01*
X0279312Y0323636D01*
X0279173Y0323557D01*
X0279031Y0323483D01*
X0278888Y0323411D01*
X0278743Y0323344D01*
X0278596Y0323280D01*
X0278447Y0323219D01*
X0278297Y0323162D01*
X0278146Y0323110D01*
X0277994Y0323060D01*
X0277840Y0323015D01*
X0277685Y0322974D01*
X0277530Y0322936D01*
X0277373Y0322902D01*
X0277216Y0322873D01*
X0277058Y0322847D01*
X0276899Y0322825D01*
X0276740Y0322807D01*
X0276580Y0322793D01*
X0276420Y0322783D01*
X0276260Y0322777D01*
X0276100Y0322775D01*
X0275940Y0322777D01*
X0275780Y0322783D01*
X0275620Y0322793D01*
X0275460Y0322807D01*
X0275301Y0322825D01*
X0275142Y0322847D01*
X0274984Y0322873D01*
X0274827Y0322902D01*
X0274670Y0322936D01*
X0274515Y0322974D01*
X0274360Y0323015D01*
X0274206Y0323060D01*
X0274054Y0323110D01*
X0273903Y0323162D01*
X0273753Y0323219D01*
X0273604Y0323280D01*
X0273457Y0323344D01*
X0273312Y0323411D01*
X0273169Y0323483D01*
X0273027Y0323557D01*
X0272887Y0323636D01*
X0272750Y0323718D01*
X0272614Y0323803D01*
X0272481Y0323891D01*
X0272349Y0323983D01*
X0272221Y0324078D01*
X0272094Y0324177D01*
X0271970Y0324278D01*
X0271849Y0324383D01*
X0271730Y0324490D01*
X0271614Y0324601D01*
X0271501Y0324714D01*
X0271390Y0324830D01*
X0271283Y0324949D01*
X0271178Y0325070D01*
X0271077Y0325194D01*
X0270978Y0325321D01*
X0270883Y0325449D01*
X0270791Y0325581D01*
X0270703Y0325714D01*
X0270618Y0325850D01*
X0270536Y0325988D01*
X0270457Y0326127D01*
X0270383Y0326269D01*
X0270311Y0326412D01*
X0270244Y0326557D01*
X0270180Y0326704D01*
X0270119Y0326853D01*
X0270062Y0327003D01*
X0270010Y0327154D01*
X0269960Y0327306D01*
X0269915Y0327460D01*
X0269874Y0327615D01*
X0269836Y0327770D01*
X0269802Y0327927D01*
X0269773Y0328084D01*
X0269747Y0328242D01*
X0269725Y0328401D01*
X0269707Y0328560D01*
X0269693Y0328720D01*
X0269683Y0328880D01*
X0269677Y0329040D01*
X0269675Y0329200D01*
X0269675Y0079200D02*
X0269677Y0079360D01*
X0269683Y0079520D01*
X0269693Y0079680D01*
X0269707Y0079840D01*
X0269725Y0079999D01*
X0269747Y0080158D01*
X0269773Y0080316D01*
X0269802Y0080473D01*
X0269836Y0080630D01*
X0269874Y0080785D01*
X0269915Y0080940D01*
X0269960Y0081094D01*
X0270010Y0081246D01*
X0270062Y0081397D01*
X0270119Y0081547D01*
X0270180Y0081696D01*
X0270244Y0081843D01*
X0270311Y0081988D01*
X0270383Y0082131D01*
X0270457Y0082273D01*
X0270536Y0082413D01*
X0270618Y0082550D01*
X0270703Y0082686D01*
X0270791Y0082819D01*
X0270883Y0082951D01*
X0270978Y0083079D01*
X0271077Y0083206D01*
X0271178Y0083330D01*
X0271283Y0083451D01*
X0271390Y0083570D01*
X0271501Y0083686D01*
X0271614Y0083799D01*
X0271730Y0083910D01*
X0271849Y0084017D01*
X0271970Y0084122D01*
X0272094Y0084223D01*
X0272221Y0084322D01*
X0272349Y0084417D01*
X0272481Y0084509D01*
X0272614Y0084597D01*
X0272750Y0084682D01*
X0272888Y0084764D01*
X0273027Y0084843D01*
X0273169Y0084917D01*
X0273312Y0084989D01*
X0273457Y0085056D01*
X0273604Y0085120D01*
X0273753Y0085181D01*
X0273903Y0085238D01*
X0274054Y0085290D01*
X0274206Y0085340D01*
X0274360Y0085385D01*
X0274515Y0085426D01*
X0274670Y0085464D01*
X0274827Y0085498D01*
X0274984Y0085527D01*
X0275142Y0085553D01*
X0275301Y0085575D01*
X0275460Y0085593D01*
X0275620Y0085607D01*
X0275780Y0085617D01*
X0275940Y0085623D01*
X0276100Y0085625D01*
X0276260Y0085623D01*
X0276420Y0085617D01*
X0276580Y0085607D01*
X0276740Y0085593D01*
X0276899Y0085575D01*
X0277058Y0085553D01*
X0277216Y0085527D01*
X0277373Y0085498D01*
X0277530Y0085464D01*
X0277685Y0085426D01*
X0277840Y0085385D01*
X0277994Y0085340D01*
X0278146Y0085290D01*
X0278297Y0085238D01*
X0278447Y0085181D01*
X0278596Y0085120D01*
X0278743Y0085056D01*
X0278888Y0084989D01*
X0279031Y0084917D01*
X0279173Y0084843D01*
X0279313Y0084764D01*
X0279450Y0084682D01*
X0279586Y0084597D01*
X0279719Y0084509D01*
X0279851Y0084417D01*
X0279979Y0084322D01*
X0280106Y0084223D01*
X0280230Y0084122D01*
X0280351Y0084017D01*
X0280470Y0083910D01*
X0280586Y0083799D01*
X0280699Y0083686D01*
X0280810Y0083570D01*
X0280917Y0083451D01*
X0281022Y0083330D01*
X0281123Y0083206D01*
X0281222Y0083079D01*
X0281317Y0082951D01*
X0281409Y0082819D01*
X0281497Y0082686D01*
X0281582Y0082550D01*
X0281664Y0082412D01*
X0281743Y0082273D01*
X0281817Y0082131D01*
X0281889Y0081988D01*
X0281956Y0081843D01*
X0282020Y0081696D01*
X0282081Y0081547D01*
X0282138Y0081397D01*
X0282190Y0081246D01*
X0282240Y0081094D01*
X0282285Y0080940D01*
X0282326Y0080785D01*
X0282364Y0080630D01*
X0282398Y0080473D01*
X0282427Y0080316D01*
X0282453Y0080158D01*
X0282475Y0079999D01*
X0282493Y0079840D01*
X0282507Y0079680D01*
X0282517Y0079520D01*
X0282523Y0079360D01*
X0282525Y0079200D01*
X0282523Y0079040D01*
X0282517Y0078880D01*
X0282507Y0078720D01*
X0282493Y0078560D01*
X0282475Y0078401D01*
X0282453Y0078242D01*
X0282427Y0078084D01*
X0282398Y0077927D01*
X0282364Y0077770D01*
X0282326Y0077615D01*
X0282285Y0077460D01*
X0282240Y0077306D01*
X0282190Y0077154D01*
X0282138Y0077003D01*
X0282081Y0076853D01*
X0282020Y0076704D01*
X0281956Y0076557D01*
X0281889Y0076412D01*
X0281817Y0076269D01*
X0281743Y0076127D01*
X0281664Y0075987D01*
X0281582Y0075850D01*
X0281497Y0075714D01*
X0281409Y0075581D01*
X0281317Y0075449D01*
X0281222Y0075321D01*
X0281123Y0075194D01*
X0281022Y0075070D01*
X0280917Y0074949D01*
X0280810Y0074830D01*
X0280699Y0074714D01*
X0280586Y0074601D01*
X0280470Y0074490D01*
X0280351Y0074383D01*
X0280230Y0074278D01*
X0280106Y0074177D01*
X0279979Y0074078D01*
X0279851Y0073983D01*
X0279719Y0073891D01*
X0279586Y0073803D01*
X0279450Y0073718D01*
X0279312Y0073636D01*
X0279173Y0073557D01*
X0279031Y0073483D01*
X0278888Y0073411D01*
X0278743Y0073344D01*
X0278596Y0073280D01*
X0278447Y0073219D01*
X0278297Y0073162D01*
X0278146Y0073110D01*
X0277994Y0073060D01*
X0277840Y0073015D01*
X0277685Y0072974D01*
X0277530Y0072936D01*
X0277373Y0072902D01*
X0277216Y0072873D01*
X0277058Y0072847D01*
X0276899Y0072825D01*
X0276740Y0072807D01*
X0276580Y0072793D01*
X0276420Y0072783D01*
X0276260Y0072777D01*
X0276100Y0072775D01*
X0275940Y0072777D01*
X0275780Y0072783D01*
X0275620Y0072793D01*
X0275460Y0072807D01*
X0275301Y0072825D01*
X0275142Y0072847D01*
X0274984Y0072873D01*
X0274827Y0072902D01*
X0274670Y0072936D01*
X0274515Y0072974D01*
X0274360Y0073015D01*
X0274206Y0073060D01*
X0274054Y0073110D01*
X0273903Y0073162D01*
X0273753Y0073219D01*
X0273604Y0073280D01*
X0273457Y0073344D01*
X0273312Y0073411D01*
X0273169Y0073483D01*
X0273027Y0073557D01*
X0272887Y0073636D01*
X0272750Y0073718D01*
X0272614Y0073803D01*
X0272481Y0073891D01*
X0272349Y0073983D01*
X0272221Y0074078D01*
X0272094Y0074177D01*
X0271970Y0074278D01*
X0271849Y0074383D01*
X0271730Y0074490D01*
X0271614Y0074601D01*
X0271501Y0074714D01*
X0271390Y0074830D01*
X0271283Y0074949D01*
X0271178Y0075070D01*
X0271077Y0075194D01*
X0270978Y0075321D01*
X0270883Y0075449D01*
X0270791Y0075581D01*
X0270703Y0075714D01*
X0270618Y0075850D01*
X0270536Y0075988D01*
X0270457Y0076127D01*
X0270383Y0076269D01*
X0270311Y0076412D01*
X0270244Y0076557D01*
X0270180Y0076704D01*
X0270119Y0076853D01*
X0270062Y0077003D01*
X0270010Y0077154D01*
X0269960Y0077306D01*
X0269915Y0077460D01*
X0269874Y0077615D01*
X0269836Y0077770D01*
X0269802Y0077927D01*
X0269773Y0078084D01*
X0269747Y0078242D01*
X0269725Y0078401D01*
X0269707Y0078560D01*
X0269693Y0078720D01*
X0269683Y0078880D01*
X0269677Y0079040D01*
X0269675Y0079200D01*
D11*
X0269339Y0047500D02*
X0272894Y0047500D01*
X0271116Y0047500D02*
X0271116Y0041100D01*
X0274727Y0041100D02*
X0276860Y0047500D01*
X0278994Y0041100D01*
X0278460Y0042700D02*
X0275260Y0042700D01*
X0274566Y0037000D02*
X0274566Y0030600D01*
X0274566Y0033089D02*
X0278121Y0037000D01*
X0275988Y0034511D02*
X0278121Y0030600D01*
X0280499Y0026500D02*
X0280499Y0020100D01*
X0280499Y0022589D02*
X0284054Y0026500D01*
X0281921Y0024011D02*
X0284054Y0020100D01*
X0277939Y0020100D02*
X0275094Y0020100D01*
X0275094Y0026500D01*
X0272578Y0026500D02*
X0271156Y0026500D01*
X0271082Y0026498D01*
X0271007Y0026492D01*
X0270934Y0026482D01*
X0270860Y0026469D01*
X0270788Y0026452D01*
X0270717Y0026430D01*
X0270646Y0026406D01*
X0270578Y0026377D01*
X0270510Y0026345D01*
X0270445Y0026309D01*
X0270382Y0026271D01*
X0270320Y0026228D01*
X0270261Y0026183D01*
X0270204Y0026135D01*
X0270150Y0026084D01*
X0270099Y0026029D01*
X0270051Y0025973D01*
X0270006Y0025914D01*
X0269963Y0025852D01*
X0269925Y0025789D01*
X0269889Y0025724D01*
X0269857Y0025656D01*
X0269828Y0025588D01*
X0269804Y0025517D01*
X0269782Y0025446D01*
X0269765Y0025374D01*
X0269752Y0025300D01*
X0269742Y0025227D01*
X0269736Y0025152D01*
X0269734Y0025078D01*
X0269733Y0025078D02*
X0269733Y0021522D01*
X0269734Y0021522D02*
X0269736Y0021448D01*
X0269742Y0021373D01*
X0269752Y0021300D01*
X0269765Y0021226D01*
X0269782Y0021154D01*
X0269804Y0021083D01*
X0269828Y0021012D01*
X0269857Y0020944D01*
X0269889Y0020876D01*
X0269925Y0020811D01*
X0269963Y0020748D01*
X0270006Y0020686D01*
X0270051Y0020627D01*
X0270099Y0020570D01*
X0270150Y0020516D01*
X0270204Y0020465D01*
X0270261Y0020417D01*
X0270320Y0020372D01*
X0270382Y0020329D01*
X0270445Y0020291D01*
X0270510Y0020255D01*
X0270578Y0020223D01*
X0270646Y0020194D01*
X0270717Y0020170D01*
X0270788Y0020148D01*
X0270860Y0020131D01*
X0270934Y0020118D01*
X0271007Y0020108D01*
X0271082Y0020102D01*
X0271156Y0020100D01*
X0272578Y0020100D01*
X0266644Y0022767D02*
X0264689Y0023833D01*
X0265400Y0026500D02*
X0265501Y0026498D01*
X0265602Y0026492D01*
X0265702Y0026483D01*
X0265802Y0026469D01*
X0265902Y0026452D01*
X0266001Y0026432D01*
X0266098Y0026407D01*
X0266195Y0026379D01*
X0266291Y0026347D01*
X0266386Y0026311D01*
X0266479Y0026272D01*
X0266570Y0026230D01*
X0266660Y0026184D01*
X0266748Y0026134D01*
X0266834Y0026082D01*
X0266918Y0026026D01*
X0267000Y0025967D01*
X0264689Y0023834D02*
X0264625Y0023874D01*
X0264564Y0023917D01*
X0264505Y0023963D01*
X0264448Y0024012D01*
X0264394Y0024064D01*
X0264343Y0024118D01*
X0264295Y0024176D01*
X0264249Y0024235D01*
X0264207Y0024297D01*
X0264168Y0024362D01*
X0264133Y0024428D01*
X0264101Y0024495D01*
X0264072Y0024565D01*
X0264047Y0024635D01*
X0264026Y0024707D01*
X0264009Y0024780D01*
X0263995Y0024854D01*
X0263986Y0024928D01*
X0263980Y0025003D01*
X0263978Y0025078D01*
X0263980Y0025152D01*
X0263986Y0025227D01*
X0263996Y0025300D01*
X0264009Y0025374D01*
X0264026Y0025446D01*
X0264048Y0025517D01*
X0264072Y0025588D01*
X0264101Y0025656D01*
X0264133Y0025724D01*
X0264169Y0025789D01*
X0264207Y0025852D01*
X0264250Y0025914D01*
X0264295Y0025973D01*
X0264343Y0026030D01*
X0264394Y0026084D01*
X0264449Y0026135D01*
X0264505Y0026183D01*
X0264564Y0026228D01*
X0264626Y0026271D01*
X0264689Y0026309D01*
X0264754Y0026345D01*
X0264822Y0026377D01*
X0264890Y0026406D01*
X0264961Y0026430D01*
X0265032Y0026452D01*
X0265104Y0026469D01*
X0265178Y0026482D01*
X0265251Y0026492D01*
X0265326Y0026498D01*
X0265400Y0026500D01*
X0263800Y0020989D02*
X0263877Y0020914D01*
X0263957Y0020841D01*
X0264040Y0020772D01*
X0264125Y0020705D01*
X0264212Y0020642D01*
X0264301Y0020582D01*
X0264393Y0020525D01*
X0264486Y0020471D01*
X0264582Y0020421D01*
X0264679Y0020374D01*
X0264778Y0020331D01*
X0264878Y0020291D01*
X0264979Y0020255D01*
X0265082Y0020223D01*
X0265186Y0020194D01*
X0265291Y0020169D01*
X0265397Y0020148D01*
X0265503Y0020131D01*
X0265610Y0020117D01*
X0265718Y0020108D01*
X0265825Y0020102D01*
X0265933Y0020100D01*
X0266007Y0020102D01*
X0266082Y0020108D01*
X0266155Y0020118D01*
X0266229Y0020131D01*
X0266301Y0020148D01*
X0266372Y0020170D01*
X0266443Y0020194D01*
X0266511Y0020223D01*
X0266579Y0020255D01*
X0266644Y0020291D01*
X0266707Y0020329D01*
X0266769Y0020372D01*
X0266828Y0020417D01*
X0266885Y0020465D01*
X0266939Y0020516D01*
X0266990Y0020570D01*
X0267038Y0020627D01*
X0267083Y0020686D01*
X0267126Y0020748D01*
X0267164Y0020811D01*
X0267200Y0020876D01*
X0267232Y0020944D01*
X0267261Y0021012D01*
X0267285Y0021083D01*
X0267307Y0021154D01*
X0267324Y0021226D01*
X0267337Y0021300D01*
X0267347Y0021373D01*
X0267353Y0021448D01*
X0267355Y0021522D01*
X0267353Y0021597D01*
X0267347Y0021672D01*
X0267338Y0021746D01*
X0267324Y0021820D01*
X0267307Y0021893D01*
X0267286Y0021965D01*
X0267261Y0022035D01*
X0267232Y0022105D01*
X0267200Y0022172D01*
X0267165Y0022238D01*
X0267126Y0022303D01*
X0267084Y0022365D01*
X0267038Y0022424D01*
X0266990Y0022482D01*
X0266939Y0022536D01*
X0266885Y0022588D01*
X0266828Y0022637D01*
X0266769Y0022683D01*
X0266708Y0022726D01*
X0266644Y0022766D01*
X0266644Y0030600D02*
X0265222Y0030600D01*
X0265148Y0030602D01*
X0265073Y0030608D01*
X0265000Y0030618D01*
X0264926Y0030631D01*
X0264854Y0030648D01*
X0264783Y0030670D01*
X0264712Y0030694D01*
X0264644Y0030723D01*
X0264576Y0030755D01*
X0264511Y0030791D01*
X0264448Y0030829D01*
X0264386Y0030872D01*
X0264327Y0030917D01*
X0264270Y0030965D01*
X0264216Y0031016D01*
X0264165Y0031070D01*
X0264117Y0031127D01*
X0264072Y0031186D01*
X0264029Y0031248D01*
X0263991Y0031311D01*
X0263955Y0031376D01*
X0263923Y0031444D01*
X0263894Y0031512D01*
X0263870Y0031583D01*
X0263848Y0031654D01*
X0263831Y0031726D01*
X0263818Y0031800D01*
X0263808Y0031873D01*
X0263802Y0031948D01*
X0263800Y0032022D01*
X0263800Y0035578D01*
X0263802Y0035652D01*
X0263808Y0035727D01*
X0263818Y0035800D01*
X0263831Y0035874D01*
X0263848Y0035946D01*
X0263870Y0036017D01*
X0263894Y0036088D01*
X0263923Y0036156D01*
X0263955Y0036224D01*
X0263991Y0036289D01*
X0264029Y0036352D01*
X0264072Y0036414D01*
X0264117Y0036473D01*
X0264165Y0036529D01*
X0264216Y0036584D01*
X0264270Y0036635D01*
X0264327Y0036683D01*
X0264386Y0036728D01*
X0264448Y0036771D01*
X0264511Y0036809D01*
X0264576Y0036845D01*
X0264644Y0036877D01*
X0264712Y0036906D01*
X0264783Y0036930D01*
X0264854Y0036952D01*
X0264926Y0036969D01*
X0265000Y0036982D01*
X0265073Y0036992D01*
X0265148Y0036998D01*
X0265222Y0037000D01*
X0266644Y0037000D01*
X0269161Y0037000D02*
X0269161Y0030600D01*
X0272005Y0030600D01*
X0265933Y0041100D02*
X0266007Y0041102D01*
X0266082Y0041108D01*
X0266155Y0041118D01*
X0266229Y0041131D01*
X0266301Y0041148D01*
X0266372Y0041170D01*
X0266443Y0041194D01*
X0266511Y0041223D01*
X0266579Y0041255D01*
X0266644Y0041291D01*
X0266707Y0041329D01*
X0266769Y0041372D01*
X0266828Y0041417D01*
X0266885Y0041465D01*
X0266939Y0041516D01*
X0266990Y0041570D01*
X0267038Y0041627D01*
X0267083Y0041686D01*
X0267126Y0041748D01*
X0267164Y0041811D01*
X0267200Y0041876D01*
X0267232Y0041944D01*
X0267261Y0042012D01*
X0267285Y0042083D01*
X0267307Y0042154D01*
X0267324Y0042226D01*
X0267337Y0042300D01*
X0267347Y0042373D01*
X0267353Y0042448D01*
X0267355Y0042522D01*
X0266644Y0043767D02*
X0264689Y0044833D01*
X0265400Y0047500D02*
X0265501Y0047498D01*
X0265602Y0047492D01*
X0265702Y0047483D01*
X0265802Y0047469D01*
X0265902Y0047452D01*
X0266001Y0047432D01*
X0266098Y0047407D01*
X0266195Y0047379D01*
X0266291Y0047347D01*
X0266386Y0047311D01*
X0266479Y0047272D01*
X0266570Y0047230D01*
X0266660Y0047184D01*
X0266748Y0047134D01*
X0266834Y0047082D01*
X0266918Y0047026D01*
X0267000Y0046967D01*
X0264689Y0044834D02*
X0264625Y0044874D01*
X0264564Y0044917D01*
X0264505Y0044963D01*
X0264448Y0045012D01*
X0264394Y0045064D01*
X0264343Y0045118D01*
X0264295Y0045176D01*
X0264249Y0045235D01*
X0264207Y0045297D01*
X0264168Y0045362D01*
X0264133Y0045428D01*
X0264101Y0045495D01*
X0264072Y0045565D01*
X0264047Y0045635D01*
X0264026Y0045707D01*
X0264009Y0045780D01*
X0263995Y0045854D01*
X0263986Y0045928D01*
X0263980Y0046003D01*
X0263978Y0046078D01*
X0263980Y0046152D01*
X0263986Y0046227D01*
X0263996Y0046300D01*
X0264009Y0046374D01*
X0264026Y0046446D01*
X0264048Y0046517D01*
X0264072Y0046588D01*
X0264101Y0046656D01*
X0264133Y0046724D01*
X0264169Y0046789D01*
X0264207Y0046852D01*
X0264250Y0046914D01*
X0264295Y0046973D01*
X0264343Y0047030D01*
X0264394Y0047084D01*
X0264449Y0047135D01*
X0264505Y0047183D01*
X0264564Y0047228D01*
X0264626Y0047271D01*
X0264689Y0047309D01*
X0264754Y0047345D01*
X0264822Y0047377D01*
X0264890Y0047406D01*
X0264961Y0047430D01*
X0265032Y0047452D01*
X0265104Y0047469D01*
X0265178Y0047482D01*
X0265251Y0047492D01*
X0265326Y0047498D01*
X0265400Y0047500D01*
X0263800Y0041989D02*
X0263877Y0041914D01*
X0263957Y0041841D01*
X0264040Y0041772D01*
X0264125Y0041705D01*
X0264212Y0041642D01*
X0264301Y0041582D01*
X0264393Y0041525D01*
X0264486Y0041471D01*
X0264582Y0041421D01*
X0264679Y0041374D01*
X0264778Y0041331D01*
X0264878Y0041291D01*
X0264979Y0041255D01*
X0265082Y0041223D01*
X0265186Y0041194D01*
X0265291Y0041169D01*
X0265397Y0041148D01*
X0265503Y0041131D01*
X0265610Y0041117D01*
X0265718Y0041108D01*
X0265825Y0041102D01*
X0265933Y0041100D01*
X0267355Y0042522D02*
X0267353Y0042597D01*
X0267347Y0042672D01*
X0267338Y0042746D01*
X0267324Y0042820D01*
X0267307Y0042893D01*
X0267286Y0042965D01*
X0267261Y0043035D01*
X0267232Y0043105D01*
X0267200Y0043172D01*
X0267165Y0043238D01*
X0267126Y0043303D01*
X0267084Y0043365D01*
X0267038Y0043424D01*
X0266990Y0043482D01*
X0266939Y0043536D01*
X0266885Y0043588D01*
X0266828Y0043637D01*
X0266769Y0043683D01*
X0266708Y0043726D01*
X0266644Y0043766D01*
X0281478Y0043944D02*
X0283255Y0043944D01*
X0283611Y0043944D02*
X0285033Y0041100D01*
X0281478Y0041100D02*
X0281478Y0047500D01*
X0283255Y0047500D01*
X0283338Y0047498D01*
X0283421Y0047492D01*
X0283504Y0047482D01*
X0283587Y0047469D01*
X0283668Y0047451D01*
X0283749Y0047430D01*
X0283828Y0047405D01*
X0283906Y0047376D01*
X0283983Y0047344D01*
X0284058Y0047308D01*
X0284132Y0047269D01*
X0284203Y0047226D01*
X0284273Y0047180D01*
X0284340Y0047130D01*
X0284405Y0047078D01*
X0284467Y0047023D01*
X0284527Y0046964D01*
X0284584Y0046903D01*
X0284638Y0046840D01*
X0284689Y0046774D01*
X0284736Y0046705D01*
X0284781Y0046635D01*
X0284822Y0046562D01*
X0284859Y0046488D01*
X0284894Y0046412D01*
X0284924Y0046334D01*
X0284951Y0046256D01*
X0284974Y0046175D01*
X0284994Y0046094D01*
X0285009Y0046012D01*
X0285021Y0045930D01*
X0285029Y0045847D01*
X0285033Y0045764D01*
X0285033Y0045680D01*
X0285029Y0045597D01*
X0285021Y0045514D01*
X0285009Y0045432D01*
X0284994Y0045350D01*
X0284974Y0045269D01*
X0284951Y0045188D01*
X0284924Y0045110D01*
X0284894Y0045032D01*
X0284859Y0044956D01*
X0284822Y0044882D01*
X0284781Y0044809D01*
X0284736Y0044739D01*
X0284689Y0044670D01*
X0284638Y0044604D01*
X0284584Y0044541D01*
X0284527Y0044480D01*
X0284467Y0044421D01*
X0284405Y0044366D01*
X0284340Y0044314D01*
X0284273Y0044264D01*
X0284203Y0044218D01*
X0284132Y0044175D01*
X0284058Y0044136D01*
X0283983Y0044100D01*
X0283906Y0044068D01*
X0283828Y0044039D01*
X0283749Y0044014D01*
X0283668Y0043993D01*
X0283587Y0043975D01*
X0283504Y0043962D01*
X0283421Y0043952D01*
X0283338Y0043946D01*
X0283255Y0043944D01*
X0287185Y0047500D02*
X0290741Y0047500D01*
X0288963Y0047500D02*
X0288963Y0041100D01*
X0283060Y0161100D02*
X0283060Y0164478D01*
X0285194Y0167500D01*
X0283060Y0164478D02*
X0280927Y0167500D01*
X0278479Y0165722D02*
X0278479Y0162878D01*
X0278477Y0162796D01*
X0278471Y0162714D01*
X0278462Y0162632D01*
X0278449Y0162551D01*
X0278432Y0162471D01*
X0278411Y0162391D01*
X0278387Y0162313D01*
X0278359Y0162236D01*
X0278328Y0162160D01*
X0278293Y0162085D01*
X0278254Y0162013D01*
X0278213Y0161942D01*
X0278168Y0161873D01*
X0278120Y0161807D01*
X0278069Y0161742D01*
X0278015Y0161680D01*
X0277958Y0161621D01*
X0277899Y0161564D01*
X0277837Y0161510D01*
X0277772Y0161459D01*
X0277706Y0161411D01*
X0277637Y0161366D01*
X0277566Y0161325D01*
X0277494Y0161286D01*
X0277419Y0161251D01*
X0277343Y0161220D01*
X0277266Y0161192D01*
X0277188Y0161168D01*
X0277108Y0161147D01*
X0277028Y0161130D01*
X0276947Y0161117D01*
X0276865Y0161108D01*
X0276783Y0161102D01*
X0276701Y0161100D01*
X0274923Y0161100D01*
X0274923Y0167500D01*
X0276701Y0167500D01*
X0276783Y0167498D01*
X0276865Y0167492D01*
X0276947Y0167483D01*
X0277028Y0167470D01*
X0277108Y0167453D01*
X0277188Y0167432D01*
X0277266Y0167408D01*
X0277343Y0167380D01*
X0277419Y0167349D01*
X0277494Y0167314D01*
X0277566Y0167275D01*
X0277637Y0167234D01*
X0277706Y0167189D01*
X0277772Y0167141D01*
X0277837Y0167090D01*
X0277899Y0167036D01*
X0277958Y0166979D01*
X0278015Y0166920D01*
X0278069Y0166858D01*
X0278120Y0166793D01*
X0278168Y0166727D01*
X0278213Y0166658D01*
X0278254Y0166587D01*
X0278293Y0166515D01*
X0278328Y0166440D01*
X0278359Y0166364D01*
X0278387Y0166287D01*
X0278411Y0166209D01*
X0278432Y0166129D01*
X0278449Y0166049D01*
X0278462Y0165968D01*
X0278471Y0165886D01*
X0278477Y0165804D01*
X0278479Y0165722D01*
X0282445Y0171600D02*
X0282445Y0178000D01*
X0280667Y0178000D02*
X0284223Y0178000D01*
X0278274Y0178000D02*
X0278274Y0173378D01*
X0278272Y0173295D01*
X0278266Y0173212D01*
X0278256Y0173129D01*
X0278243Y0173046D01*
X0278225Y0172965D01*
X0278204Y0172884D01*
X0278179Y0172805D01*
X0278150Y0172727D01*
X0278118Y0172650D01*
X0278082Y0172575D01*
X0278043Y0172501D01*
X0278000Y0172430D01*
X0277954Y0172360D01*
X0277904Y0172293D01*
X0277852Y0172228D01*
X0277797Y0172166D01*
X0277738Y0172106D01*
X0277677Y0172049D01*
X0277614Y0171995D01*
X0277548Y0171944D01*
X0277479Y0171897D01*
X0277409Y0171852D01*
X0277336Y0171811D01*
X0277262Y0171774D01*
X0277186Y0171739D01*
X0277108Y0171709D01*
X0277030Y0171682D01*
X0276949Y0171659D01*
X0276868Y0171639D01*
X0276786Y0171624D01*
X0276704Y0171612D01*
X0276621Y0171604D01*
X0276538Y0171600D01*
X0276454Y0171600D01*
X0276371Y0171604D01*
X0276288Y0171612D01*
X0276206Y0171624D01*
X0276124Y0171639D01*
X0276043Y0171659D01*
X0275962Y0171682D01*
X0275884Y0171709D01*
X0275806Y0171739D01*
X0275730Y0171774D01*
X0275656Y0171811D01*
X0275583Y0171852D01*
X0275513Y0171897D01*
X0275444Y0171944D01*
X0275378Y0171995D01*
X0275315Y0172049D01*
X0275254Y0172106D01*
X0275195Y0172166D01*
X0275140Y0172228D01*
X0275088Y0172293D01*
X0275038Y0172360D01*
X0274992Y0172430D01*
X0274949Y0172501D01*
X0274910Y0172575D01*
X0274874Y0172650D01*
X0274842Y0172727D01*
X0274813Y0172805D01*
X0274788Y0172884D01*
X0274767Y0172965D01*
X0274749Y0173046D01*
X0274736Y0173129D01*
X0274726Y0173212D01*
X0274720Y0173295D01*
X0274718Y0173378D01*
X0274718Y0178000D01*
X0271915Y0176222D02*
X0271915Y0173378D01*
X0271913Y0173295D01*
X0271907Y0173212D01*
X0271897Y0173129D01*
X0271884Y0173046D01*
X0271866Y0172965D01*
X0271845Y0172884D01*
X0271820Y0172805D01*
X0271791Y0172727D01*
X0271759Y0172650D01*
X0271723Y0172575D01*
X0271684Y0172501D01*
X0271641Y0172430D01*
X0271595Y0172360D01*
X0271545Y0172293D01*
X0271493Y0172228D01*
X0271438Y0172166D01*
X0271379Y0172106D01*
X0271318Y0172049D01*
X0271255Y0171995D01*
X0271189Y0171944D01*
X0271120Y0171897D01*
X0271050Y0171852D01*
X0270977Y0171811D01*
X0270903Y0171774D01*
X0270827Y0171739D01*
X0270749Y0171709D01*
X0270671Y0171682D01*
X0270590Y0171659D01*
X0270509Y0171639D01*
X0270427Y0171624D01*
X0270345Y0171612D01*
X0270262Y0171604D01*
X0270179Y0171600D01*
X0270095Y0171600D01*
X0270012Y0171604D01*
X0269929Y0171612D01*
X0269847Y0171624D01*
X0269765Y0171639D01*
X0269684Y0171659D01*
X0269603Y0171682D01*
X0269525Y0171709D01*
X0269447Y0171739D01*
X0269371Y0171774D01*
X0269297Y0171811D01*
X0269224Y0171852D01*
X0269154Y0171897D01*
X0269085Y0171944D01*
X0269019Y0171995D01*
X0268956Y0172049D01*
X0268895Y0172106D01*
X0268836Y0172166D01*
X0268781Y0172228D01*
X0268729Y0172293D01*
X0268679Y0172360D01*
X0268633Y0172430D01*
X0268590Y0172501D01*
X0268551Y0172575D01*
X0268515Y0172650D01*
X0268483Y0172727D01*
X0268454Y0172805D01*
X0268429Y0172884D01*
X0268408Y0172965D01*
X0268390Y0173046D01*
X0268377Y0173129D01*
X0268367Y0173212D01*
X0268361Y0173295D01*
X0268359Y0173378D01*
X0268359Y0176222D01*
X0268361Y0176305D01*
X0268367Y0176388D01*
X0268377Y0176471D01*
X0268390Y0176554D01*
X0268408Y0176635D01*
X0268429Y0176716D01*
X0268454Y0176795D01*
X0268483Y0176873D01*
X0268515Y0176950D01*
X0268551Y0177025D01*
X0268590Y0177099D01*
X0268633Y0177170D01*
X0268679Y0177240D01*
X0268729Y0177307D01*
X0268781Y0177372D01*
X0268836Y0177434D01*
X0268895Y0177494D01*
X0268956Y0177551D01*
X0269019Y0177605D01*
X0269085Y0177656D01*
X0269154Y0177703D01*
X0269224Y0177748D01*
X0269297Y0177789D01*
X0269371Y0177826D01*
X0269447Y0177861D01*
X0269525Y0177891D01*
X0269603Y0177918D01*
X0269684Y0177941D01*
X0269765Y0177961D01*
X0269847Y0177976D01*
X0269929Y0177988D01*
X0270012Y0177996D01*
X0270095Y0178000D01*
X0270179Y0178000D01*
X0270262Y0177996D01*
X0270345Y0177988D01*
X0270427Y0177976D01*
X0270509Y0177961D01*
X0270590Y0177941D01*
X0270671Y0177918D01*
X0270749Y0177891D01*
X0270827Y0177861D01*
X0270903Y0177826D01*
X0270977Y0177789D01*
X0271050Y0177748D01*
X0271120Y0177703D01*
X0271189Y0177656D01*
X0271255Y0177605D01*
X0271318Y0177551D01*
X0271379Y0177494D01*
X0271438Y0177434D01*
X0271493Y0177372D01*
X0271545Y0177307D01*
X0271595Y0177240D01*
X0271641Y0177170D01*
X0271684Y0177099D01*
X0271723Y0177025D01*
X0271759Y0176950D01*
X0271791Y0176873D01*
X0271820Y0176795D01*
X0271845Y0176716D01*
X0271866Y0176635D01*
X0271884Y0176554D01*
X0271897Y0176471D01*
X0271907Y0176388D01*
X0271913Y0176305D01*
X0271915Y0176222D01*
X0270137Y0182100D02*
X0268359Y0182100D01*
X0270137Y0182100D02*
X0270220Y0182102D01*
X0270303Y0182108D01*
X0270386Y0182118D01*
X0270469Y0182131D01*
X0270550Y0182149D01*
X0270631Y0182170D01*
X0270710Y0182195D01*
X0270788Y0182224D01*
X0270865Y0182256D01*
X0270940Y0182292D01*
X0271014Y0182331D01*
X0271085Y0182374D01*
X0271155Y0182420D01*
X0271222Y0182470D01*
X0271287Y0182522D01*
X0271349Y0182577D01*
X0271409Y0182636D01*
X0271466Y0182697D01*
X0271520Y0182760D01*
X0271571Y0182826D01*
X0271618Y0182895D01*
X0271663Y0182965D01*
X0271704Y0183038D01*
X0271741Y0183112D01*
X0271776Y0183188D01*
X0271806Y0183266D01*
X0271833Y0183344D01*
X0271856Y0183425D01*
X0271876Y0183506D01*
X0271891Y0183588D01*
X0271903Y0183670D01*
X0271911Y0183753D01*
X0271915Y0183836D01*
X0271915Y0183920D01*
X0271911Y0184003D01*
X0271903Y0184086D01*
X0271891Y0184168D01*
X0271876Y0184250D01*
X0271856Y0184331D01*
X0271833Y0184412D01*
X0271806Y0184490D01*
X0271776Y0184568D01*
X0271741Y0184644D01*
X0271704Y0184718D01*
X0271663Y0184791D01*
X0271618Y0184861D01*
X0271571Y0184930D01*
X0271520Y0184996D01*
X0271466Y0185059D01*
X0271409Y0185120D01*
X0271349Y0185179D01*
X0271287Y0185234D01*
X0271222Y0185286D01*
X0271155Y0185336D01*
X0271085Y0185382D01*
X0271014Y0185425D01*
X0270940Y0185464D01*
X0270865Y0185500D01*
X0270788Y0185532D01*
X0270710Y0185561D01*
X0270631Y0185586D01*
X0270550Y0185607D01*
X0270469Y0185625D01*
X0270386Y0185638D01*
X0270303Y0185648D01*
X0270220Y0185654D01*
X0270137Y0185656D01*
X0270492Y0185656D02*
X0269070Y0185656D01*
X0270492Y0185656D02*
X0270566Y0185658D01*
X0270641Y0185664D01*
X0270714Y0185674D01*
X0270788Y0185687D01*
X0270860Y0185704D01*
X0270931Y0185726D01*
X0271002Y0185750D01*
X0271070Y0185779D01*
X0271138Y0185811D01*
X0271203Y0185847D01*
X0271266Y0185885D01*
X0271328Y0185928D01*
X0271387Y0185973D01*
X0271444Y0186021D01*
X0271498Y0186072D01*
X0271549Y0186126D01*
X0271597Y0186183D01*
X0271642Y0186242D01*
X0271685Y0186304D01*
X0271723Y0186367D01*
X0271759Y0186432D01*
X0271791Y0186500D01*
X0271820Y0186568D01*
X0271844Y0186639D01*
X0271866Y0186710D01*
X0271883Y0186782D01*
X0271896Y0186856D01*
X0271906Y0186929D01*
X0271912Y0187004D01*
X0271914Y0187078D01*
X0271912Y0187152D01*
X0271906Y0187227D01*
X0271896Y0187300D01*
X0271883Y0187374D01*
X0271866Y0187446D01*
X0271844Y0187517D01*
X0271820Y0187588D01*
X0271791Y0187656D01*
X0271759Y0187724D01*
X0271723Y0187789D01*
X0271685Y0187852D01*
X0271642Y0187914D01*
X0271597Y0187973D01*
X0271549Y0188030D01*
X0271498Y0188084D01*
X0271444Y0188135D01*
X0271387Y0188183D01*
X0271328Y0188228D01*
X0271266Y0188271D01*
X0271203Y0188309D01*
X0271138Y0188345D01*
X0271070Y0188377D01*
X0271002Y0188406D01*
X0270931Y0188430D01*
X0270860Y0188452D01*
X0270788Y0188469D01*
X0270714Y0188482D01*
X0270641Y0188492D01*
X0270566Y0188498D01*
X0270492Y0188500D01*
X0268359Y0188500D01*
X0265556Y0188500D02*
X0265556Y0182100D01*
X0265556Y0185656D02*
X0262000Y0185656D01*
X0262000Y0188500D02*
X0262000Y0182100D01*
X0262000Y0178000D02*
X0263778Y0178000D01*
X0263860Y0177998D01*
X0263942Y0177992D01*
X0264024Y0177983D01*
X0264105Y0177970D01*
X0264185Y0177953D01*
X0264265Y0177932D01*
X0264343Y0177908D01*
X0264420Y0177880D01*
X0264496Y0177849D01*
X0264571Y0177814D01*
X0264643Y0177775D01*
X0264714Y0177734D01*
X0264783Y0177689D01*
X0264849Y0177641D01*
X0264914Y0177590D01*
X0264976Y0177536D01*
X0265035Y0177479D01*
X0265092Y0177420D01*
X0265146Y0177358D01*
X0265197Y0177293D01*
X0265245Y0177227D01*
X0265290Y0177158D01*
X0265331Y0177087D01*
X0265370Y0177015D01*
X0265405Y0176940D01*
X0265436Y0176864D01*
X0265464Y0176787D01*
X0265488Y0176709D01*
X0265509Y0176629D01*
X0265526Y0176549D01*
X0265539Y0176468D01*
X0265548Y0176386D01*
X0265554Y0176304D01*
X0265556Y0176222D01*
X0265556Y0173378D01*
X0265554Y0173296D01*
X0265548Y0173214D01*
X0265539Y0173132D01*
X0265526Y0173051D01*
X0265509Y0172971D01*
X0265488Y0172891D01*
X0265464Y0172813D01*
X0265436Y0172736D01*
X0265405Y0172660D01*
X0265370Y0172585D01*
X0265331Y0172513D01*
X0265290Y0172442D01*
X0265245Y0172373D01*
X0265197Y0172307D01*
X0265146Y0172242D01*
X0265092Y0172180D01*
X0265035Y0172121D01*
X0264976Y0172064D01*
X0264914Y0172010D01*
X0264849Y0171959D01*
X0264783Y0171911D01*
X0264714Y0171866D01*
X0264643Y0171825D01*
X0264571Y0171786D01*
X0264496Y0171751D01*
X0264420Y0171720D01*
X0264343Y0171692D01*
X0264265Y0171668D01*
X0264185Y0171647D01*
X0264105Y0171630D01*
X0264024Y0171617D01*
X0263942Y0171608D01*
X0263860Y0171602D01*
X0263778Y0171600D01*
X0262000Y0171600D01*
X0262000Y0178000D01*
X0262000Y0167500D02*
X0263778Y0167500D01*
X0263860Y0167498D01*
X0263942Y0167492D01*
X0264024Y0167483D01*
X0264105Y0167470D01*
X0264185Y0167453D01*
X0264265Y0167432D01*
X0264343Y0167408D01*
X0264420Y0167380D01*
X0264496Y0167349D01*
X0264571Y0167314D01*
X0264643Y0167275D01*
X0264714Y0167234D01*
X0264783Y0167189D01*
X0264849Y0167141D01*
X0264914Y0167090D01*
X0264976Y0167036D01*
X0265035Y0166979D01*
X0265092Y0166920D01*
X0265146Y0166858D01*
X0265197Y0166793D01*
X0265245Y0166727D01*
X0265290Y0166658D01*
X0265331Y0166587D01*
X0265370Y0166515D01*
X0265405Y0166440D01*
X0265436Y0166364D01*
X0265464Y0166287D01*
X0265488Y0166209D01*
X0265509Y0166129D01*
X0265526Y0166049D01*
X0265539Y0165968D01*
X0265548Y0165886D01*
X0265554Y0165804D01*
X0265556Y0165722D01*
X0265556Y0162878D01*
X0265554Y0162796D01*
X0265548Y0162714D01*
X0265539Y0162632D01*
X0265526Y0162551D01*
X0265509Y0162471D01*
X0265488Y0162391D01*
X0265464Y0162313D01*
X0265436Y0162236D01*
X0265405Y0162160D01*
X0265370Y0162085D01*
X0265331Y0162013D01*
X0265290Y0161942D01*
X0265245Y0161873D01*
X0265197Y0161807D01*
X0265146Y0161742D01*
X0265092Y0161680D01*
X0265035Y0161621D01*
X0264976Y0161564D01*
X0264914Y0161510D01*
X0264849Y0161459D01*
X0264783Y0161411D01*
X0264714Y0161366D01*
X0264643Y0161325D01*
X0264571Y0161286D01*
X0264496Y0161251D01*
X0264420Y0161220D01*
X0264343Y0161192D01*
X0264265Y0161168D01*
X0264185Y0161147D01*
X0264105Y0161130D01*
X0264024Y0161117D01*
X0263942Y0161108D01*
X0263860Y0161102D01*
X0263778Y0161100D01*
X0262000Y0161100D01*
X0262000Y0167500D01*
X0268600Y0167500D02*
X0268600Y0161100D01*
X0268600Y0163944D02*
X0270378Y0163944D01*
X0270734Y0163944D02*
X0272156Y0161100D01*
X0270378Y0163944D02*
X0270461Y0163946D01*
X0270544Y0163952D01*
X0270627Y0163962D01*
X0270710Y0163975D01*
X0270791Y0163993D01*
X0270872Y0164014D01*
X0270951Y0164039D01*
X0271029Y0164068D01*
X0271106Y0164100D01*
X0271181Y0164136D01*
X0271255Y0164175D01*
X0271326Y0164218D01*
X0271396Y0164264D01*
X0271463Y0164314D01*
X0271528Y0164366D01*
X0271590Y0164421D01*
X0271650Y0164480D01*
X0271707Y0164541D01*
X0271761Y0164604D01*
X0271812Y0164670D01*
X0271859Y0164739D01*
X0271904Y0164809D01*
X0271945Y0164882D01*
X0271982Y0164956D01*
X0272017Y0165032D01*
X0272047Y0165110D01*
X0272074Y0165188D01*
X0272097Y0165269D01*
X0272117Y0165350D01*
X0272132Y0165432D01*
X0272144Y0165514D01*
X0272152Y0165597D01*
X0272156Y0165680D01*
X0272156Y0165764D01*
X0272152Y0165847D01*
X0272144Y0165930D01*
X0272132Y0166012D01*
X0272117Y0166094D01*
X0272097Y0166175D01*
X0272074Y0166256D01*
X0272047Y0166334D01*
X0272017Y0166412D01*
X0271982Y0166488D01*
X0271945Y0166562D01*
X0271904Y0166635D01*
X0271859Y0166705D01*
X0271812Y0166774D01*
X0271761Y0166840D01*
X0271707Y0166903D01*
X0271650Y0166964D01*
X0271590Y0167023D01*
X0271528Y0167078D01*
X0271463Y0167130D01*
X0271396Y0167180D01*
X0271326Y0167226D01*
X0271255Y0167269D01*
X0271181Y0167308D01*
X0271106Y0167344D01*
X0271029Y0167376D01*
X0270951Y0167405D01*
X0270872Y0167430D01*
X0270791Y0167451D01*
X0270710Y0167469D01*
X0270627Y0167482D01*
X0270544Y0167492D01*
X0270461Y0167498D01*
X0270378Y0167500D01*
X0268600Y0167500D01*
X0274543Y0199915D02*
X0254857Y0199915D01*
X0254857Y0229443D01*
X0274543Y0229443D01*
X0274543Y0199915D01*
X0277222Y0207300D02*
X0279356Y0207300D01*
X0279356Y0210856D01*
X0278289Y0210856D01*
X0275800Y0212278D02*
X0275802Y0212352D01*
X0275808Y0212427D01*
X0275818Y0212500D01*
X0275831Y0212574D01*
X0275848Y0212646D01*
X0275870Y0212717D01*
X0275894Y0212788D01*
X0275923Y0212856D01*
X0275955Y0212924D01*
X0275991Y0212989D01*
X0276029Y0213052D01*
X0276072Y0213114D01*
X0276117Y0213173D01*
X0276165Y0213229D01*
X0276216Y0213284D01*
X0276270Y0213335D01*
X0276327Y0213383D01*
X0276386Y0213428D01*
X0276448Y0213471D01*
X0276511Y0213509D01*
X0276576Y0213545D01*
X0276644Y0213577D01*
X0276712Y0213606D01*
X0276783Y0213630D01*
X0276854Y0213652D01*
X0276926Y0213669D01*
X0277000Y0213682D01*
X0277073Y0213692D01*
X0277148Y0213698D01*
X0277222Y0213700D01*
X0279356Y0213700D01*
X0282364Y0213700D02*
X0282364Y0207300D01*
X0285920Y0207300D02*
X0282364Y0213700D01*
X0285920Y0213700D02*
X0285920Y0207300D01*
X0288929Y0207300D02*
X0288929Y0213700D01*
X0290706Y0213700D01*
X0290788Y0213698D01*
X0290870Y0213692D01*
X0290952Y0213683D01*
X0291033Y0213670D01*
X0291113Y0213653D01*
X0291193Y0213632D01*
X0291271Y0213608D01*
X0291348Y0213580D01*
X0291424Y0213549D01*
X0291499Y0213514D01*
X0291571Y0213475D01*
X0291642Y0213434D01*
X0291711Y0213389D01*
X0291777Y0213341D01*
X0291842Y0213290D01*
X0291904Y0213236D01*
X0291963Y0213179D01*
X0292020Y0213120D01*
X0292074Y0213058D01*
X0292125Y0212993D01*
X0292173Y0212927D01*
X0292218Y0212858D01*
X0292259Y0212787D01*
X0292298Y0212715D01*
X0292333Y0212640D01*
X0292364Y0212564D01*
X0292392Y0212487D01*
X0292416Y0212409D01*
X0292437Y0212329D01*
X0292454Y0212249D01*
X0292467Y0212168D01*
X0292476Y0212086D01*
X0292482Y0212004D01*
X0292484Y0211922D01*
X0292484Y0209078D01*
X0292482Y0208996D01*
X0292476Y0208914D01*
X0292467Y0208832D01*
X0292454Y0208751D01*
X0292437Y0208671D01*
X0292416Y0208591D01*
X0292392Y0208513D01*
X0292364Y0208436D01*
X0292333Y0208360D01*
X0292298Y0208285D01*
X0292259Y0208213D01*
X0292218Y0208142D01*
X0292173Y0208073D01*
X0292125Y0208007D01*
X0292074Y0207942D01*
X0292020Y0207880D01*
X0291963Y0207821D01*
X0291904Y0207764D01*
X0291842Y0207710D01*
X0291777Y0207659D01*
X0291711Y0207611D01*
X0291642Y0207566D01*
X0291571Y0207525D01*
X0291499Y0207486D01*
X0291424Y0207451D01*
X0291348Y0207420D01*
X0291271Y0207392D01*
X0291193Y0207368D01*
X0291113Y0207347D01*
X0291033Y0207330D01*
X0290952Y0207317D01*
X0290870Y0207308D01*
X0290788Y0207302D01*
X0290706Y0207300D01*
X0288929Y0207300D01*
X0288108Y0217800D02*
X0289886Y0217800D01*
X0289969Y0217802D01*
X0290052Y0217808D01*
X0290135Y0217818D01*
X0290218Y0217831D01*
X0290299Y0217849D01*
X0290380Y0217870D01*
X0290459Y0217895D01*
X0290537Y0217924D01*
X0290614Y0217956D01*
X0290689Y0217992D01*
X0290763Y0218031D01*
X0290834Y0218074D01*
X0290904Y0218120D01*
X0290971Y0218170D01*
X0291036Y0218222D01*
X0291098Y0218277D01*
X0291158Y0218336D01*
X0291215Y0218397D01*
X0291269Y0218460D01*
X0291320Y0218526D01*
X0291367Y0218595D01*
X0291412Y0218665D01*
X0291453Y0218738D01*
X0291490Y0218812D01*
X0291525Y0218888D01*
X0291555Y0218966D01*
X0291582Y0219044D01*
X0291605Y0219125D01*
X0291625Y0219206D01*
X0291640Y0219288D01*
X0291652Y0219370D01*
X0291660Y0219453D01*
X0291664Y0219536D01*
X0291664Y0219620D01*
X0291660Y0219703D01*
X0291652Y0219786D01*
X0291640Y0219868D01*
X0291625Y0219950D01*
X0291605Y0220031D01*
X0291582Y0220112D01*
X0291555Y0220190D01*
X0291525Y0220268D01*
X0291490Y0220344D01*
X0291453Y0220418D01*
X0291412Y0220491D01*
X0291367Y0220561D01*
X0291320Y0220630D01*
X0291269Y0220696D01*
X0291215Y0220759D01*
X0291158Y0220820D01*
X0291098Y0220879D01*
X0291036Y0220934D01*
X0290971Y0220986D01*
X0290904Y0221036D01*
X0290834Y0221082D01*
X0290763Y0221125D01*
X0290689Y0221164D01*
X0290614Y0221200D01*
X0290537Y0221232D01*
X0290459Y0221261D01*
X0290380Y0221286D01*
X0290299Y0221307D01*
X0290218Y0221325D01*
X0290135Y0221338D01*
X0290052Y0221348D01*
X0289969Y0221354D01*
X0289886Y0221356D01*
X0290241Y0221356D02*
X0288819Y0221356D01*
X0290241Y0221356D02*
X0290315Y0221358D01*
X0290390Y0221364D01*
X0290463Y0221374D01*
X0290537Y0221387D01*
X0290609Y0221404D01*
X0290680Y0221426D01*
X0290751Y0221450D01*
X0290819Y0221479D01*
X0290887Y0221511D01*
X0290952Y0221547D01*
X0291015Y0221585D01*
X0291077Y0221628D01*
X0291136Y0221673D01*
X0291193Y0221721D01*
X0291247Y0221772D01*
X0291298Y0221826D01*
X0291346Y0221883D01*
X0291391Y0221942D01*
X0291434Y0222004D01*
X0291472Y0222067D01*
X0291508Y0222132D01*
X0291540Y0222200D01*
X0291569Y0222268D01*
X0291593Y0222339D01*
X0291615Y0222410D01*
X0291632Y0222482D01*
X0291645Y0222556D01*
X0291655Y0222629D01*
X0291661Y0222704D01*
X0291663Y0222778D01*
X0291661Y0222852D01*
X0291655Y0222927D01*
X0291645Y0223000D01*
X0291632Y0223074D01*
X0291615Y0223146D01*
X0291593Y0223217D01*
X0291569Y0223288D01*
X0291540Y0223356D01*
X0291508Y0223424D01*
X0291472Y0223489D01*
X0291434Y0223552D01*
X0291391Y0223614D01*
X0291346Y0223673D01*
X0291298Y0223730D01*
X0291247Y0223784D01*
X0291193Y0223835D01*
X0291136Y0223883D01*
X0291077Y0223928D01*
X0291015Y0223971D01*
X0290952Y0224009D01*
X0290887Y0224045D01*
X0290819Y0224077D01*
X0290751Y0224106D01*
X0290680Y0224130D01*
X0290609Y0224152D01*
X0290537Y0224169D01*
X0290463Y0224182D01*
X0290390Y0224192D01*
X0290315Y0224198D01*
X0290241Y0224200D01*
X0288108Y0224200D01*
X0285865Y0224200D02*
X0283732Y0217800D01*
X0281598Y0224200D01*
X0277933Y0224200D02*
X0275800Y0224200D01*
X0277933Y0224200D02*
X0278007Y0224198D01*
X0278082Y0224192D01*
X0278155Y0224182D01*
X0278229Y0224169D01*
X0278301Y0224152D01*
X0278372Y0224130D01*
X0278443Y0224106D01*
X0278511Y0224077D01*
X0278579Y0224045D01*
X0278644Y0224009D01*
X0278707Y0223971D01*
X0278769Y0223928D01*
X0278828Y0223883D01*
X0278885Y0223835D01*
X0278939Y0223784D01*
X0278990Y0223730D01*
X0279038Y0223673D01*
X0279083Y0223614D01*
X0279126Y0223552D01*
X0279164Y0223489D01*
X0279200Y0223424D01*
X0279232Y0223356D01*
X0279261Y0223288D01*
X0279285Y0223217D01*
X0279307Y0223146D01*
X0279324Y0223074D01*
X0279337Y0223000D01*
X0279347Y0222927D01*
X0279353Y0222852D01*
X0279355Y0222778D01*
X0279353Y0222704D01*
X0279347Y0222629D01*
X0279337Y0222556D01*
X0279324Y0222482D01*
X0279307Y0222410D01*
X0279285Y0222339D01*
X0279261Y0222268D01*
X0279232Y0222200D01*
X0279200Y0222132D01*
X0279164Y0222067D01*
X0279126Y0222004D01*
X0279083Y0221942D01*
X0279038Y0221883D01*
X0278990Y0221826D01*
X0278939Y0221772D01*
X0278885Y0221721D01*
X0278828Y0221673D01*
X0278769Y0221628D01*
X0278707Y0221585D01*
X0278644Y0221547D01*
X0278579Y0221511D01*
X0278511Y0221479D01*
X0278443Y0221450D01*
X0278372Y0221426D01*
X0278301Y0221404D01*
X0278229Y0221387D01*
X0278155Y0221374D01*
X0278082Y0221364D01*
X0278007Y0221358D01*
X0277933Y0221356D01*
X0276511Y0221356D01*
X0277578Y0221356D02*
X0277661Y0221354D01*
X0277744Y0221348D01*
X0277827Y0221338D01*
X0277910Y0221325D01*
X0277991Y0221307D01*
X0278072Y0221286D01*
X0278151Y0221261D01*
X0278229Y0221232D01*
X0278306Y0221200D01*
X0278381Y0221164D01*
X0278455Y0221125D01*
X0278526Y0221082D01*
X0278596Y0221036D01*
X0278663Y0220986D01*
X0278728Y0220934D01*
X0278790Y0220879D01*
X0278850Y0220820D01*
X0278907Y0220759D01*
X0278961Y0220696D01*
X0279012Y0220630D01*
X0279059Y0220561D01*
X0279104Y0220491D01*
X0279145Y0220418D01*
X0279182Y0220344D01*
X0279217Y0220268D01*
X0279247Y0220190D01*
X0279274Y0220112D01*
X0279297Y0220031D01*
X0279317Y0219950D01*
X0279332Y0219868D01*
X0279344Y0219786D01*
X0279352Y0219703D01*
X0279356Y0219620D01*
X0279356Y0219536D01*
X0279352Y0219453D01*
X0279344Y0219370D01*
X0279332Y0219288D01*
X0279317Y0219206D01*
X0279297Y0219125D01*
X0279274Y0219044D01*
X0279247Y0218966D01*
X0279217Y0218888D01*
X0279182Y0218812D01*
X0279145Y0218738D01*
X0279104Y0218665D01*
X0279059Y0218595D01*
X0279012Y0218526D01*
X0278961Y0218460D01*
X0278907Y0218397D01*
X0278850Y0218336D01*
X0278790Y0218277D01*
X0278728Y0218222D01*
X0278663Y0218170D01*
X0278596Y0218120D01*
X0278526Y0218074D01*
X0278455Y0218031D01*
X0278381Y0217992D01*
X0278306Y0217956D01*
X0278229Y0217924D01*
X0278151Y0217895D01*
X0278072Y0217870D01*
X0277991Y0217849D01*
X0277910Y0217831D01*
X0277827Y0217818D01*
X0277744Y0217808D01*
X0277661Y0217802D01*
X0277578Y0217800D01*
X0275800Y0217800D01*
X0275800Y0212278D02*
X0275800Y0208722D01*
X0275802Y0208648D01*
X0275808Y0208573D01*
X0275818Y0208500D01*
X0275831Y0208426D01*
X0275848Y0208354D01*
X0275870Y0208283D01*
X0275894Y0208212D01*
X0275923Y0208144D01*
X0275955Y0208076D01*
X0275991Y0208011D01*
X0276029Y0207948D01*
X0276072Y0207886D01*
X0276117Y0207827D01*
X0276165Y0207770D01*
X0276216Y0207716D01*
X0276270Y0207665D01*
X0276327Y0207617D01*
X0276386Y0207572D01*
X0276448Y0207529D01*
X0276511Y0207491D01*
X0276576Y0207455D01*
X0276644Y0207423D01*
X0276712Y0207394D01*
X0276783Y0207370D01*
X0276854Y0207348D01*
X0276926Y0207331D01*
X0277000Y0207318D01*
X0277073Y0207308D01*
X0277148Y0207302D01*
X0277222Y0207300D01*
X0248684Y0207878D02*
X0248684Y0210722D01*
X0248682Y0210804D01*
X0248676Y0210886D01*
X0248667Y0210968D01*
X0248654Y0211049D01*
X0248637Y0211129D01*
X0248616Y0211209D01*
X0248592Y0211287D01*
X0248564Y0211364D01*
X0248533Y0211440D01*
X0248498Y0211515D01*
X0248459Y0211587D01*
X0248418Y0211658D01*
X0248373Y0211727D01*
X0248325Y0211793D01*
X0248274Y0211858D01*
X0248220Y0211920D01*
X0248163Y0211979D01*
X0248104Y0212036D01*
X0248042Y0212090D01*
X0247977Y0212141D01*
X0247911Y0212189D01*
X0247842Y0212234D01*
X0247771Y0212275D01*
X0247699Y0212314D01*
X0247624Y0212349D01*
X0247548Y0212380D01*
X0247471Y0212408D01*
X0247393Y0212432D01*
X0247313Y0212453D01*
X0247233Y0212470D01*
X0247152Y0212483D01*
X0247070Y0212492D01*
X0246988Y0212498D01*
X0246906Y0212500D01*
X0245129Y0212500D01*
X0245129Y0206100D01*
X0246906Y0206100D01*
X0246988Y0206102D01*
X0247070Y0206108D01*
X0247152Y0206117D01*
X0247233Y0206130D01*
X0247313Y0206147D01*
X0247393Y0206168D01*
X0247471Y0206192D01*
X0247548Y0206220D01*
X0247624Y0206251D01*
X0247699Y0206286D01*
X0247771Y0206325D01*
X0247842Y0206366D01*
X0247911Y0206411D01*
X0247977Y0206459D01*
X0248042Y0206510D01*
X0248104Y0206564D01*
X0248163Y0206621D01*
X0248220Y0206680D01*
X0248274Y0206742D01*
X0248325Y0206807D01*
X0248373Y0206873D01*
X0248418Y0206942D01*
X0248459Y0207013D01*
X0248498Y0207085D01*
X0248533Y0207160D01*
X0248564Y0207236D01*
X0248592Y0207313D01*
X0248616Y0207391D01*
X0248637Y0207471D01*
X0248654Y0207551D01*
X0248667Y0207632D01*
X0248676Y0207714D01*
X0248682Y0207796D01*
X0248684Y0207878D01*
X0242120Y0206100D02*
X0242120Y0212500D01*
X0244308Y0216600D02*
X0246086Y0216600D01*
X0246169Y0216602D01*
X0246252Y0216608D01*
X0246335Y0216618D01*
X0246418Y0216631D01*
X0246499Y0216649D01*
X0246580Y0216670D01*
X0246659Y0216695D01*
X0246737Y0216724D01*
X0246814Y0216756D01*
X0246889Y0216792D01*
X0246963Y0216831D01*
X0247034Y0216874D01*
X0247104Y0216920D01*
X0247171Y0216970D01*
X0247236Y0217022D01*
X0247298Y0217077D01*
X0247358Y0217136D01*
X0247415Y0217197D01*
X0247469Y0217260D01*
X0247520Y0217326D01*
X0247567Y0217395D01*
X0247612Y0217465D01*
X0247653Y0217538D01*
X0247690Y0217612D01*
X0247725Y0217688D01*
X0247755Y0217766D01*
X0247782Y0217844D01*
X0247805Y0217925D01*
X0247825Y0218006D01*
X0247840Y0218088D01*
X0247852Y0218170D01*
X0247860Y0218253D01*
X0247864Y0218336D01*
X0247864Y0218420D01*
X0247860Y0218503D01*
X0247852Y0218586D01*
X0247840Y0218668D01*
X0247825Y0218750D01*
X0247805Y0218831D01*
X0247782Y0218912D01*
X0247755Y0218990D01*
X0247725Y0219068D01*
X0247690Y0219144D01*
X0247653Y0219218D01*
X0247612Y0219291D01*
X0247567Y0219361D01*
X0247520Y0219430D01*
X0247469Y0219496D01*
X0247415Y0219559D01*
X0247358Y0219620D01*
X0247298Y0219679D01*
X0247236Y0219734D01*
X0247171Y0219786D01*
X0247104Y0219836D01*
X0247034Y0219882D01*
X0246963Y0219925D01*
X0246889Y0219964D01*
X0246814Y0220000D01*
X0246737Y0220032D01*
X0246659Y0220061D01*
X0246580Y0220086D01*
X0246499Y0220107D01*
X0246418Y0220125D01*
X0246335Y0220138D01*
X0246252Y0220148D01*
X0246169Y0220154D01*
X0246086Y0220156D01*
X0246441Y0220156D02*
X0245019Y0220156D01*
X0246441Y0220156D02*
X0246515Y0220158D01*
X0246590Y0220164D01*
X0246663Y0220174D01*
X0246737Y0220187D01*
X0246809Y0220204D01*
X0246880Y0220226D01*
X0246951Y0220250D01*
X0247019Y0220279D01*
X0247087Y0220311D01*
X0247152Y0220347D01*
X0247215Y0220385D01*
X0247277Y0220428D01*
X0247336Y0220473D01*
X0247393Y0220521D01*
X0247447Y0220572D01*
X0247498Y0220626D01*
X0247546Y0220683D01*
X0247591Y0220742D01*
X0247634Y0220804D01*
X0247672Y0220867D01*
X0247708Y0220932D01*
X0247740Y0221000D01*
X0247769Y0221068D01*
X0247793Y0221139D01*
X0247815Y0221210D01*
X0247832Y0221282D01*
X0247845Y0221356D01*
X0247855Y0221429D01*
X0247861Y0221504D01*
X0247863Y0221578D01*
X0247861Y0221652D01*
X0247855Y0221727D01*
X0247845Y0221800D01*
X0247832Y0221874D01*
X0247815Y0221946D01*
X0247793Y0222017D01*
X0247769Y0222088D01*
X0247740Y0222156D01*
X0247708Y0222224D01*
X0247672Y0222289D01*
X0247634Y0222352D01*
X0247591Y0222414D01*
X0247546Y0222473D01*
X0247498Y0222530D01*
X0247447Y0222584D01*
X0247393Y0222635D01*
X0247336Y0222683D01*
X0247277Y0222728D01*
X0247215Y0222771D01*
X0247152Y0222809D01*
X0247087Y0222845D01*
X0247019Y0222877D01*
X0246951Y0222906D01*
X0246880Y0222930D01*
X0246809Y0222952D01*
X0246737Y0222969D01*
X0246663Y0222982D01*
X0246590Y0222992D01*
X0246515Y0222998D01*
X0246441Y0223000D01*
X0244308Y0223000D01*
X0242065Y0223000D02*
X0239932Y0216600D01*
X0237798Y0223000D01*
X0234133Y0223000D02*
X0232000Y0223000D01*
X0234133Y0223000D02*
X0234207Y0222998D01*
X0234282Y0222992D01*
X0234355Y0222982D01*
X0234429Y0222969D01*
X0234501Y0222952D01*
X0234572Y0222930D01*
X0234643Y0222906D01*
X0234711Y0222877D01*
X0234779Y0222845D01*
X0234844Y0222809D01*
X0234907Y0222771D01*
X0234969Y0222728D01*
X0235028Y0222683D01*
X0235085Y0222635D01*
X0235139Y0222584D01*
X0235190Y0222530D01*
X0235238Y0222473D01*
X0235283Y0222414D01*
X0235326Y0222352D01*
X0235364Y0222289D01*
X0235400Y0222224D01*
X0235432Y0222156D01*
X0235461Y0222088D01*
X0235485Y0222017D01*
X0235507Y0221946D01*
X0235524Y0221874D01*
X0235537Y0221800D01*
X0235547Y0221727D01*
X0235553Y0221652D01*
X0235555Y0221578D01*
X0235553Y0221504D01*
X0235547Y0221429D01*
X0235537Y0221356D01*
X0235524Y0221282D01*
X0235507Y0221210D01*
X0235485Y0221139D01*
X0235461Y0221068D01*
X0235432Y0221000D01*
X0235400Y0220932D01*
X0235364Y0220867D01*
X0235326Y0220804D01*
X0235283Y0220742D01*
X0235238Y0220683D01*
X0235190Y0220626D01*
X0235139Y0220572D01*
X0235085Y0220521D01*
X0235028Y0220473D01*
X0234969Y0220428D01*
X0234907Y0220385D01*
X0234844Y0220347D01*
X0234779Y0220311D01*
X0234711Y0220279D01*
X0234643Y0220250D01*
X0234572Y0220226D01*
X0234501Y0220204D01*
X0234429Y0220187D01*
X0234355Y0220174D01*
X0234282Y0220164D01*
X0234207Y0220158D01*
X0234133Y0220156D01*
X0232711Y0220156D01*
X0233778Y0220156D02*
X0233861Y0220154D01*
X0233944Y0220148D01*
X0234027Y0220138D01*
X0234110Y0220125D01*
X0234191Y0220107D01*
X0234272Y0220086D01*
X0234351Y0220061D01*
X0234429Y0220032D01*
X0234506Y0220000D01*
X0234581Y0219964D01*
X0234655Y0219925D01*
X0234726Y0219882D01*
X0234796Y0219836D01*
X0234863Y0219786D01*
X0234928Y0219734D01*
X0234990Y0219679D01*
X0235050Y0219620D01*
X0235107Y0219559D01*
X0235161Y0219496D01*
X0235212Y0219430D01*
X0235259Y0219361D01*
X0235304Y0219291D01*
X0235345Y0219218D01*
X0235382Y0219144D01*
X0235417Y0219068D01*
X0235447Y0218990D01*
X0235474Y0218912D01*
X0235497Y0218831D01*
X0235517Y0218750D01*
X0235532Y0218668D01*
X0235544Y0218586D01*
X0235552Y0218503D01*
X0235556Y0218420D01*
X0235556Y0218336D01*
X0235552Y0218253D01*
X0235544Y0218170D01*
X0235532Y0218088D01*
X0235517Y0218006D01*
X0235497Y0217925D01*
X0235474Y0217844D01*
X0235447Y0217766D01*
X0235417Y0217688D01*
X0235382Y0217612D01*
X0235345Y0217538D01*
X0235304Y0217465D01*
X0235259Y0217395D01*
X0235212Y0217326D01*
X0235161Y0217260D01*
X0235107Y0217197D01*
X0235050Y0217136D01*
X0234990Y0217077D01*
X0234928Y0217022D01*
X0234863Y0216970D01*
X0234796Y0216920D01*
X0234726Y0216874D01*
X0234655Y0216831D01*
X0234581Y0216792D01*
X0234506Y0216756D01*
X0234429Y0216724D01*
X0234351Y0216695D01*
X0234272Y0216670D01*
X0234191Y0216649D01*
X0234110Y0216631D01*
X0234027Y0216618D01*
X0233944Y0216608D01*
X0233861Y0216602D01*
X0233778Y0216600D01*
X0232000Y0216600D01*
X0233422Y0212500D02*
X0235556Y0212500D01*
X0233422Y0212500D02*
X0233348Y0212498D01*
X0233273Y0212492D01*
X0233200Y0212482D01*
X0233126Y0212469D01*
X0233054Y0212452D01*
X0232983Y0212430D01*
X0232912Y0212406D01*
X0232844Y0212377D01*
X0232776Y0212345D01*
X0232711Y0212309D01*
X0232648Y0212271D01*
X0232586Y0212228D01*
X0232527Y0212183D01*
X0232470Y0212135D01*
X0232416Y0212084D01*
X0232365Y0212029D01*
X0232317Y0211973D01*
X0232272Y0211914D01*
X0232229Y0211852D01*
X0232191Y0211789D01*
X0232155Y0211724D01*
X0232123Y0211656D01*
X0232094Y0211588D01*
X0232070Y0211517D01*
X0232048Y0211446D01*
X0232031Y0211374D01*
X0232018Y0211300D01*
X0232008Y0211227D01*
X0232002Y0211152D01*
X0232000Y0211078D01*
X0232000Y0207522D01*
X0232002Y0207448D01*
X0232008Y0207373D01*
X0232018Y0207300D01*
X0232031Y0207226D01*
X0232048Y0207154D01*
X0232070Y0207083D01*
X0232094Y0207012D01*
X0232123Y0206944D01*
X0232155Y0206876D01*
X0232191Y0206811D01*
X0232229Y0206748D01*
X0232272Y0206686D01*
X0232317Y0206627D01*
X0232365Y0206570D01*
X0232416Y0206516D01*
X0232470Y0206465D01*
X0232527Y0206417D01*
X0232586Y0206372D01*
X0232648Y0206329D01*
X0232711Y0206291D01*
X0232776Y0206255D01*
X0232844Y0206223D01*
X0232912Y0206194D01*
X0232983Y0206170D01*
X0233054Y0206148D01*
X0233126Y0206131D01*
X0233200Y0206118D01*
X0233273Y0206108D01*
X0233348Y0206102D01*
X0233422Y0206100D01*
X0235556Y0206100D01*
X0235556Y0209656D01*
X0234489Y0209656D01*
X0238564Y0212500D02*
X0238564Y0206100D01*
X0242120Y0206100D02*
X0238564Y0212500D01*
X0262000Y0252900D02*
X0263778Y0252900D01*
X0263860Y0252902D01*
X0263942Y0252908D01*
X0264024Y0252917D01*
X0264105Y0252930D01*
X0264185Y0252947D01*
X0264265Y0252968D01*
X0264343Y0252992D01*
X0264420Y0253020D01*
X0264496Y0253051D01*
X0264571Y0253086D01*
X0264643Y0253125D01*
X0264714Y0253166D01*
X0264783Y0253211D01*
X0264849Y0253259D01*
X0264914Y0253310D01*
X0264976Y0253364D01*
X0265035Y0253421D01*
X0265092Y0253480D01*
X0265146Y0253542D01*
X0265197Y0253607D01*
X0265245Y0253673D01*
X0265290Y0253742D01*
X0265331Y0253813D01*
X0265370Y0253885D01*
X0265405Y0253960D01*
X0265436Y0254036D01*
X0265464Y0254113D01*
X0265488Y0254191D01*
X0265509Y0254271D01*
X0265526Y0254351D01*
X0265539Y0254432D01*
X0265548Y0254514D01*
X0265554Y0254596D01*
X0265556Y0254678D01*
X0265556Y0257522D01*
X0265554Y0257604D01*
X0265548Y0257686D01*
X0265539Y0257768D01*
X0265526Y0257849D01*
X0265509Y0257929D01*
X0265488Y0258009D01*
X0265464Y0258087D01*
X0265436Y0258164D01*
X0265405Y0258240D01*
X0265370Y0258315D01*
X0265331Y0258387D01*
X0265290Y0258458D01*
X0265245Y0258527D01*
X0265197Y0258593D01*
X0265146Y0258658D01*
X0265092Y0258720D01*
X0265035Y0258779D01*
X0264976Y0258836D01*
X0264914Y0258890D01*
X0264849Y0258941D01*
X0264783Y0258989D01*
X0264714Y0259034D01*
X0264643Y0259075D01*
X0264571Y0259114D01*
X0264496Y0259149D01*
X0264420Y0259180D01*
X0264343Y0259208D01*
X0264265Y0259232D01*
X0264185Y0259253D01*
X0264105Y0259270D01*
X0264024Y0259283D01*
X0263942Y0259292D01*
X0263860Y0259298D01*
X0263778Y0259300D01*
X0262000Y0259300D01*
X0262000Y0252900D01*
X0268600Y0252900D02*
X0268600Y0259300D01*
X0270378Y0259300D01*
X0270461Y0259298D01*
X0270544Y0259292D01*
X0270627Y0259282D01*
X0270710Y0259269D01*
X0270791Y0259251D01*
X0270872Y0259230D01*
X0270951Y0259205D01*
X0271029Y0259176D01*
X0271106Y0259144D01*
X0271181Y0259108D01*
X0271255Y0259069D01*
X0271326Y0259026D01*
X0271396Y0258980D01*
X0271463Y0258930D01*
X0271528Y0258878D01*
X0271590Y0258823D01*
X0271650Y0258764D01*
X0271707Y0258703D01*
X0271761Y0258640D01*
X0271812Y0258574D01*
X0271859Y0258505D01*
X0271904Y0258435D01*
X0271945Y0258362D01*
X0271982Y0258288D01*
X0272017Y0258212D01*
X0272047Y0258134D01*
X0272074Y0258056D01*
X0272097Y0257975D01*
X0272117Y0257894D01*
X0272132Y0257812D01*
X0272144Y0257730D01*
X0272152Y0257647D01*
X0272156Y0257564D01*
X0272156Y0257480D01*
X0272152Y0257397D01*
X0272144Y0257314D01*
X0272132Y0257232D01*
X0272117Y0257150D01*
X0272097Y0257069D01*
X0272074Y0256988D01*
X0272047Y0256910D01*
X0272017Y0256832D01*
X0271982Y0256756D01*
X0271945Y0256682D01*
X0271904Y0256609D01*
X0271859Y0256539D01*
X0271812Y0256470D01*
X0271761Y0256404D01*
X0271707Y0256341D01*
X0271650Y0256280D01*
X0271590Y0256221D01*
X0271528Y0256166D01*
X0271463Y0256114D01*
X0271396Y0256064D01*
X0271326Y0256018D01*
X0271255Y0255975D01*
X0271181Y0255936D01*
X0271106Y0255900D01*
X0271029Y0255868D01*
X0270951Y0255839D01*
X0270872Y0255814D01*
X0270791Y0255793D01*
X0270710Y0255775D01*
X0270627Y0255762D01*
X0270544Y0255752D01*
X0270461Y0255746D01*
X0270378Y0255744D01*
X0268600Y0255744D01*
X0270734Y0255744D02*
X0272156Y0252900D01*
X0274923Y0252900D02*
X0274923Y0259300D01*
X0276701Y0259300D01*
X0276783Y0259298D01*
X0276865Y0259292D01*
X0276947Y0259283D01*
X0277028Y0259270D01*
X0277108Y0259253D01*
X0277188Y0259232D01*
X0277266Y0259208D01*
X0277343Y0259180D01*
X0277419Y0259149D01*
X0277494Y0259114D01*
X0277566Y0259075D01*
X0277637Y0259034D01*
X0277706Y0258989D01*
X0277772Y0258941D01*
X0277837Y0258890D01*
X0277899Y0258836D01*
X0277958Y0258779D01*
X0278015Y0258720D01*
X0278069Y0258658D01*
X0278120Y0258593D01*
X0278168Y0258527D01*
X0278213Y0258458D01*
X0278254Y0258387D01*
X0278293Y0258315D01*
X0278328Y0258240D01*
X0278359Y0258164D01*
X0278387Y0258087D01*
X0278411Y0258009D01*
X0278432Y0257929D01*
X0278449Y0257849D01*
X0278462Y0257768D01*
X0278471Y0257686D01*
X0278477Y0257604D01*
X0278479Y0257522D01*
X0278479Y0254678D01*
X0278477Y0254596D01*
X0278471Y0254514D01*
X0278462Y0254432D01*
X0278449Y0254351D01*
X0278432Y0254271D01*
X0278411Y0254191D01*
X0278387Y0254113D01*
X0278359Y0254036D01*
X0278328Y0253960D01*
X0278293Y0253885D01*
X0278254Y0253813D01*
X0278213Y0253742D01*
X0278168Y0253673D01*
X0278120Y0253607D01*
X0278069Y0253542D01*
X0278015Y0253480D01*
X0277958Y0253421D01*
X0277899Y0253364D01*
X0277837Y0253310D01*
X0277772Y0253259D01*
X0277706Y0253211D01*
X0277637Y0253166D01*
X0277566Y0253125D01*
X0277494Y0253086D01*
X0277419Y0253051D01*
X0277343Y0253020D01*
X0277266Y0252992D01*
X0277188Y0252968D01*
X0277108Y0252947D01*
X0277028Y0252930D01*
X0276947Y0252917D01*
X0276865Y0252908D01*
X0276783Y0252902D01*
X0276701Y0252900D01*
X0274923Y0252900D01*
X0280927Y0259300D02*
X0283060Y0256278D01*
X0283060Y0252900D01*
X0283060Y0256278D02*
X0285194Y0259300D01*
X0282445Y0263400D02*
X0282445Y0269800D01*
X0280667Y0269800D02*
X0284223Y0269800D01*
X0278274Y0269800D02*
X0278274Y0265178D01*
X0278272Y0265095D01*
X0278266Y0265012D01*
X0278256Y0264929D01*
X0278243Y0264846D01*
X0278225Y0264765D01*
X0278204Y0264684D01*
X0278179Y0264605D01*
X0278150Y0264527D01*
X0278118Y0264450D01*
X0278082Y0264375D01*
X0278043Y0264301D01*
X0278000Y0264230D01*
X0277954Y0264160D01*
X0277904Y0264093D01*
X0277852Y0264028D01*
X0277797Y0263966D01*
X0277738Y0263906D01*
X0277677Y0263849D01*
X0277614Y0263795D01*
X0277548Y0263744D01*
X0277479Y0263697D01*
X0277409Y0263652D01*
X0277336Y0263611D01*
X0277262Y0263574D01*
X0277186Y0263539D01*
X0277108Y0263509D01*
X0277030Y0263482D01*
X0276949Y0263459D01*
X0276868Y0263439D01*
X0276786Y0263424D01*
X0276704Y0263412D01*
X0276621Y0263404D01*
X0276538Y0263400D01*
X0276454Y0263400D01*
X0276371Y0263404D01*
X0276288Y0263412D01*
X0276206Y0263424D01*
X0276124Y0263439D01*
X0276043Y0263459D01*
X0275962Y0263482D01*
X0275884Y0263509D01*
X0275806Y0263539D01*
X0275730Y0263574D01*
X0275656Y0263611D01*
X0275583Y0263652D01*
X0275513Y0263697D01*
X0275444Y0263744D01*
X0275378Y0263795D01*
X0275315Y0263849D01*
X0275254Y0263906D01*
X0275195Y0263966D01*
X0275140Y0264028D01*
X0275088Y0264093D01*
X0275038Y0264160D01*
X0274992Y0264230D01*
X0274949Y0264301D01*
X0274910Y0264375D01*
X0274874Y0264450D01*
X0274842Y0264527D01*
X0274813Y0264605D01*
X0274788Y0264684D01*
X0274767Y0264765D01*
X0274749Y0264846D01*
X0274736Y0264929D01*
X0274726Y0265012D01*
X0274720Y0265095D01*
X0274718Y0265178D01*
X0274718Y0269800D01*
X0271915Y0268022D02*
X0271915Y0265178D01*
X0271913Y0265095D01*
X0271907Y0265012D01*
X0271897Y0264929D01*
X0271884Y0264846D01*
X0271866Y0264765D01*
X0271845Y0264684D01*
X0271820Y0264605D01*
X0271791Y0264527D01*
X0271759Y0264450D01*
X0271723Y0264375D01*
X0271684Y0264301D01*
X0271641Y0264230D01*
X0271595Y0264160D01*
X0271545Y0264093D01*
X0271493Y0264028D01*
X0271438Y0263966D01*
X0271379Y0263906D01*
X0271318Y0263849D01*
X0271255Y0263795D01*
X0271189Y0263744D01*
X0271120Y0263697D01*
X0271050Y0263652D01*
X0270977Y0263611D01*
X0270903Y0263574D01*
X0270827Y0263539D01*
X0270749Y0263509D01*
X0270671Y0263482D01*
X0270590Y0263459D01*
X0270509Y0263439D01*
X0270427Y0263424D01*
X0270345Y0263412D01*
X0270262Y0263404D01*
X0270179Y0263400D01*
X0270095Y0263400D01*
X0270012Y0263404D01*
X0269929Y0263412D01*
X0269847Y0263424D01*
X0269765Y0263439D01*
X0269684Y0263459D01*
X0269603Y0263482D01*
X0269525Y0263509D01*
X0269447Y0263539D01*
X0269371Y0263574D01*
X0269297Y0263611D01*
X0269224Y0263652D01*
X0269154Y0263697D01*
X0269085Y0263744D01*
X0269019Y0263795D01*
X0268956Y0263849D01*
X0268895Y0263906D01*
X0268836Y0263966D01*
X0268781Y0264028D01*
X0268729Y0264093D01*
X0268679Y0264160D01*
X0268633Y0264230D01*
X0268590Y0264301D01*
X0268551Y0264375D01*
X0268515Y0264450D01*
X0268483Y0264527D01*
X0268454Y0264605D01*
X0268429Y0264684D01*
X0268408Y0264765D01*
X0268390Y0264846D01*
X0268377Y0264929D01*
X0268367Y0265012D01*
X0268361Y0265095D01*
X0268359Y0265178D01*
X0268359Y0268022D01*
X0268361Y0268105D01*
X0268367Y0268188D01*
X0268377Y0268271D01*
X0268390Y0268354D01*
X0268408Y0268435D01*
X0268429Y0268516D01*
X0268454Y0268595D01*
X0268483Y0268673D01*
X0268515Y0268750D01*
X0268551Y0268825D01*
X0268590Y0268899D01*
X0268633Y0268970D01*
X0268679Y0269040D01*
X0268729Y0269107D01*
X0268781Y0269172D01*
X0268836Y0269234D01*
X0268895Y0269294D01*
X0268956Y0269351D01*
X0269019Y0269405D01*
X0269085Y0269456D01*
X0269154Y0269503D01*
X0269224Y0269548D01*
X0269297Y0269589D01*
X0269371Y0269626D01*
X0269447Y0269661D01*
X0269525Y0269691D01*
X0269603Y0269718D01*
X0269684Y0269741D01*
X0269765Y0269761D01*
X0269847Y0269776D01*
X0269929Y0269788D01*
X0270012Y0269796D01*
X0270095Y0269800D01*
X0270179Y0269800D01*
X0270262Y0269796D01*
X0270345Y0269788D01*
X0270427Y0269776D01*
X0270509Y0269761D01*
X0270590Y0269741D01*
X0270671Y0269718D01*
X0270749Y0269691D01*
X0270827Y0269661D01*
X0270903Y0269626D01*
X0270977Y0269589D01*
X0271050Y0269548D01*
X0271120Y0269503D01*
X0271189Y0269456D01*
X0271255Y0269405D01*
X0271318Y0269351D01*
X0271379Y0269294D01*
X0271438Y0269234D01*
X0271493Y0269172D01*
X0271545Y0269107D01*
X0271595Y0269040D01*
X0271641Y0268970D01*
X0271684Y0268899D01*
X0271723Y0268825D01*
X0271759Y0268750D01*
X0271791Y0268673D01*
X0271820Y0268595D01*
X0271845Y0268516D01*
X0271866Y0268435D01*
X0271884Y0268354D01*
X0271897Y0268271D01*
X0271907Y0268188D01*
X0271913Y0268105D01*
X0271915Y0268022D01*
X0271915Y0273900D02*
X0268359Y0273900D01*
X0271381Y0277456D01*
X0270315Y0280300D02*
X0270226Y0280298D01*
X0270137Y0280292D01*
X0270048Y0280283D01*
X0269960Y0280269D01*
X0269873Y0280252D01*
X0269786Y0280231D01*
X0269700Y0280206D01*
X0269616Y0280178D01*
X0269533Y0280145D01*
X0269451Y0280110D01*
X0269371Y0280070D01*
X0269293Y0280028D01*
X0269216Y0279982D01*
X0269142Y0279933D01*
X0269070Y0279880D01*
X0269000Y0279825D01*
X0268933Y0279766D01*
X0268868Y0279705D01*
X0268806Y0279641D01*
X0268747Y0279574D01*
X0268691Y0279505D01*
X0268638Y0279433D01*
X0268588Y0279359D01*
X0268541Y0279283D01*
X0268498Y0279206D01*
X0268458Y0279126D01*
X0268421Y0279045D01*
X0268388Y0278962D01*
X0268359Y0278877D01*
X0271382Y0277455D02*
X0271439Y0277513D01*
X0271495Y0277574D01*
X0271547Y0277637D01*
X0271596Y0277702D01*
X0271642Y0277770D01*
X0271684Y0277840D01*
X0271724Y0277912D01*
X0271759Y0277985D01*
X0271792Y0278061D01*
X0271820Y0278137D01*
X0271845Y0278215D01*
X0271866Y0278294D01*
X0271884Y0278374D01*
X0271897Y0278455D01*
X0271907Y0278536D01*
X0271913Y0278618D01*
X0271915Y0278700D01*
X0271913Y0278779D01*
X0271907Y0278857D01*
X0271898Y0278935D01*
X0271884Y0279012D01*
X0271867Y0279089D01*
X0271846Y0279164D01*
X0271821Y0279239D01*
X0271793Y0279312D01*
X0271761Y0279384D01*
X0271726Y0279454D01*
X0271687Y0279523D01*
X0271645Y0279589D01*
X0271600Y0279653D01*
X0271552Y0279715D01*
X0271501Y0279774D01*
X0271446Y0279831D01*
X0271389Y0279886D01*
X0271330Y0279937D01*
X0271268Y0279985D01*
X0271204Y0280030D01*
X0271138Y0280072D01*
X0271069Y0280111D01*
X0270999Y0280146D01*
X0270927Y0280178D01*
X0270854Y0280206D01*
X0270779Y0280231D01*
X0270704Y0280252D01*
X0270627Y0280269D01*
X0270550Y0280283D01*
X0270472Y0280292D01*
X0270394Y0280298D01*
X0270315Y0280300D01*
X0265556Y0280300D02*
X0265556Y0273900D01*
X0265556Y0277456D02*
X0262000Y0277456D01*
X0262000Y0280300D02*
X0262000Y0273900D01*
X0262000Y0269800D02*
X0263778Y0269800D01*
X0263860Y0269798D01*
X0263942Y0269792D01*
X0264024Y0269783D01*
X0264105Y0269770D01*
X0264185Y0269753D01*
X0264265Y0269732D01*
X0264343Y0269708D01*
X0264420Y0269680D01*
X0264496Y0269649D01*
X0264571Y0269614D01*
X0264643Y0269575D01*
X0264714Y0269534D01*
X0264783Y0269489D01*
X0264849Y0269441D01*
X0264914Y0269390D01*
X0264976Y0269336D01*
X0265035Y0269279D01*
X0265092Y0269220D01*
X0265146Y0269158D01*
X0265197Y0269093D01*
X0265245Y0269027D01*
X0265290Y0268958D01*
X0265331Y0268887D01*
X0265370Y0268815D01*
X0265405Y0268740D01*
X0265436Y0268664D01*
X0265464Y0268587D01*
X0265488Y0268509D01*
X0265509Y0268429D01*
X0265526Y0268349D01*
X0265539Y0268268D01*
X0265548Y0268186D01*
X0265554Y0268104D01*
X0265556Y0268022D01*
X0265556Y0265178D01*
X0265554Y0265096D01*
X0265548Y0265014D01*
X0265539Y0264932D01*
X0265526Y0264851D01*
X0265509Y0264771D01*
X0265488Y0264691D01*
X0265464Y0264613D01*
X0265436Y0264536D01*
X0265405Y0264460D01*
X0265370Y0264385D01*
X0265331Y0264313D01*
X0265290Y0264242D01*
X0265245Y0264173D01*
X0265197Y0264107D01*
X0265146Y0264042D01*
X0265092Y0263980D01*
X0265035Y0263921D01*
X0264976Y0263864D01*
X0264914Y0263810D01*
X0264849Y0263759D01*
X0264783Y0263711D01*
X0264714Y0263666D01*
X0264643Y0263625D01*
X0264571Y0263586D01*
X0264496Y0263551D01*
X0264420Y0263520D01*
X0264343Y0263492D01*
X0264265Y0263468D01*
X0264185Y0263447D01*
X0264105Y0263430D01*
X0264024Y0263417D01*
X0263942Y0263408D01*
X0263860Y0263402D01*
X0263778Y0263400D01*
X0262000Y0263400D01*
X0262000Y0269800D01*
X0262000Y0344700D02*
X0263778Y0344700D01*
X0263860Y0344702D01*
X0263942Y0344708D01*
X0264024Y0344717D01*
X0264105Y0344730D01*
X0264185Y0344747D01*
X0264265Y0344768D01*
X0264343Y0344792D01*
X0264420Y0344820D01*
X0264496Y0344851D01*
X0264571Y0344886D01*
X0264643Y0344925D01*
X0264714Y0344966D01*
X0264783Y0345011D01*
X0264849Y0345059D01*
X0264914Y0345110D01*
X0264976Y0345164D01*
X0265035Y0345221D01*
X0265092Y0345280D01*
X0265146Y0345342D01*
X0265197Y0345407D01*
X0265245Y0345473D01*
X0265290Y0345542D01*
X0265331Y0345613D01*
X0265370Y0345685D01*
X0265405Y0345760D01*
X0265436Y0345836D01*
X0265464Y0345913D01*
X0265488Y0345991D01*
X0265509Y0346071D01*
X0265526Y0346151D01*
X0265539Y0346232D01*
X0265548Y0346314D01*
X0265554Y0346396D01*
X0265556Y0346478D01*
X0265556Y0349322D01*
X0265554Y0349404D01*
X0265548Y0349486D01*
X0265539Y0349568D01*
X0265526Y0349649D01*
X0265509Y0349729D01*
X0265488Y0349809D01*
X0265464Y0349887D01*
X0265436Y0349964D01*
X0265405Y0350040D01*
X0265370Y0350115D01*
X0265331Y0350187D01*
X0265290Y0350258D01*
X0265245Y0350327D01*
X0265197Y0350393D01*
X0265146Y0350458D01*
X0265092Y0350520D01*
X0265035Y0350579D01*
X0264976Y0350636D01*
X0264914Y0350690D01*
X0264849Y0350741D01*
X0264783Y0350789D01*
X0264714Y0350834D01*
X0264643Y0350875D01*
X0264571Y0350914D01*
X0264496Y0350949D01*
X0264420Y0350980D01*
X0264343Y0351008D01*
X0264265Y0351032D01*
X0264185Y0351053D01*
X0264105Y0351070D01*
X0264024Y0351083D01*
X0263942Y0351092D01*
X0263860Y0351098D01*
X0263778Y0351100D01*
X0262000Y0351100D01*
X0262000Y0344700D01*
X0268600Y0344700D02*
X0268600Y0351100D01*
X0270378Y0351100D01*
X0270461Y0351098D01*
X0270544Y0351092D01*
X0270627Y0351082D01*
X0270710Y0351069D01*
X0270791Y0351051D01*
X0270872Y0351030D01*
X0270951Y0351005D01*
X0271029Y0350976D01*
X0271106Y0350944D01*
X0271181Y0350908D01*
X0271255Y0350869D01*
X0271326Y0350826D01*
X0271396Y0350780D01*
X0271463Y0350730D01*
X0271528Y0350678D01*
X0271590Y0350623D01*
X0271650Y0350564D01*
X0271707Y0350503D01*
X0271761Y0350440D01*
X0271812Y0350374D01*
X0271859Y0350305D01*
X0271904Y0350235D01*
X0271945Y0350162D01*
X0271982Y0350088D01*
X0272017Y0350012D01*
X0272047Y0349934D01*
X0272074Y0349856D01*
X0272097Y0349775D01*
X0272117Y0349694D01*
X0272132Y0349612D01*
X0272144Y0349530D01*
X0272152Y0349447D01*
X0272156Y0349364D01*
X0272156Y0349280D01*
X0272152Y0349197D01*
X0272144Y0349114D01*
X0272132Y0349032D01*
X0272117Y0348950D01*
X0272097Y0348869D01*
X0272074Y0348788D01*
X0272047Y0348710D01*
X0272017Y0348632D01*
X0271982Y0348556D01*
X0271945Y0348482D01*
X0271904Y0348409D01*
X0271859Y0348339D01*
X0271812Y0348270D01*
X0271761Y0348204D01*
X0271707Y0348141D01*
X0271650Y0348080D01*
X0271590Y0348021D01*
X0271528Y0347966D01*
X0271463Y0347914D01*
X0271396Y0347864D01*
X0271326Y0347818D01*
X0271255Y0347775D01*
X0271181Y0347736D01*
X0271106Y0347700D01*
X0271029Y0347668D01*
X0270951Y0347639D01*
X0270872Y0347614D01*
X0270791Y0347593D01*
X0270710Y0347575D01*
X0270627Y0347562D01*
X0270544Y0347552D01*
X0270461Y0347546D01*
X0270378Y0347544D01*
X0268600Y0347544D01*
X0270734Y0347544D02*
X0272156Y0344700D01*
X0274923Y0344700D02*
X0276701Y0344700D01*
X0274923Y0344700D02*
X0274923Y0351100D01*
X0276701Y0351100D01*
X0276783Y0351098D01*
X0276865Y0351092D01*
X0276947Y0351083D01*
X0277028Y0351070D01*
X0277108Y0351053D01*
X0277188Y0351032D01*
X0277266Y0351008D01*
X0277343Y0350980D01*
X0277419Y0350949D01*
X0277494Y0350914D01*
X0277566Y0350875D01*
X0277637Y0350834D01*
X0277706Y0350789D01*
X0277772Y0350741D01*
X0277837Y0350690D01*
X0277899Y0350636D01*
X0277958Y0350579D01*
X0278015Y0350520D01*
X0278069Y0350458D01*
X0278120Y0350393D01*
X0278168Y0350327D01*
X0278213Y0350258D01*
X0278254Y0350187D01*
X0278293Y0350115D01*
X0278328Y0350040D01*
X0278359Y0349964D01*
X0278387Y0349887D01*
X0278411Y0349809D01*
X0278432Y0349729D01*
X0278449Y0349649D01*
X0278462Y0349568D01*
X0278471Y0349486D01*
X0278477Y0349404D01*
X0278479Y0349322D01*
X0278479Y0346478D01*
X0278477Y0346396D01*
X0278471Y0346314D01*
X0278462Y0346232D01*
X0278449Y0346151D01*
X0278432Y0346071D01*
X0278411Y0345991D01*
X0278387Y0345913D01*
X0278359Y0345836D01*
X0278328Y0345760D01*
X0278293Y0345685D01*
X0278254Y0345613D01*
X0278213Y0345542D01*
X0278168Y0345473D01*
X0278120Y0345407D01*
X0278069Y0345342D01*
X0278015Y0345280D01*
X0277958Y0345221D01*
X0277899Y0345164D01*
X0277837Y0345110D01*
X0277772Y0345059D01*
X0277706Y0345011D01*
X0277637Y0344966D01*
X0277566Y0344925D01*
X0277494Y0344886D01*
X0277419Y0344851D01*
X0277343Y0344820D01*
X0277266Y0344792D01*
X0277188Y0344768D01*
X0277108Y0344747D01*
X0277028Y0344730D01*
X0276947Y0344717D01*
X0276865Y0344708D01*
X0276783Y0344702D01*
X0276701Y0344700D01*
X0283060Y0344700D02*
X0283060Y0348078D01*
X0285194Y0351100D01*
X0283060Y0348078D02*
X0280927Y0351100D01*
X0282445Y0355200D02*
X0282445Y0361600D01*
X0280667Y0361600D02*
X0284223Y0361600D01*
X0278274Y0361600D02*
X0278274Y0356978D01*
X0278272Y0356895D01*
X0278266Y0356812D01*
X0278256Y0356729D01*
X0278243Y0356646D01*
X0278225Y0356565D01*
X0278204Y0356484D01*
X0278179Y0356405D01*
X0278150Y0356327D01*
X0278118Y0356250D01*
X0278082Y0356175D01*
X0278043Y0356101D01*
X0278000Y0356030D01*
X0277954Y0355960D01*
X0277904Y0355893D01*
X0277852Y0355828D01*
X0277797Y0355766D01*
X0277738Y0355706D01*
X0277677Y0355649D01*
X0277614Y0355595D01*
X0277548Y0355544D01*
X0277479Y0355497D01*
X0277409Y0355452D01*
X0277336Y0355411D01*
X0277262Y0355374D01*
X0277186Y0355339D01*
X0277108Y0355309D01*
X0277030Y0355282D01*
X0276949Y0355259D01*
X0276868Y0355239D01*
X0276786Y0355224D01*
X0276704Y0355212D01*
X0276621Y0355204D01*
X0276538Y0355200D01*
X0276454Y0355200D01*
X0276371Y0355204D01*
X0276288Y0355212D01*
X0276206Y0355224D01*
X0276124Y0355239D01*
X0276043Y0355259D01*
X0275962Y0355282D01*
X0275884Y0355309D01*
X0275806Y0355339D01*
X0275730Y0355374D01*
X0275656Y0355411D01*
X0275583Y0355452D01*
X0275513Y0355497D01*
X0275444Y0355544D01*
X0275378Y0355595D01*
X0275315Y0355649D01*
X0275254Y0355706D01*
X0275195Y0355766D01*
X0275140Y0355828D01*
X0275088Y0355893D01*
X0275038Y0355960D01*
X0274992Y0356030D01*
X0274949Y0356101D01*
X0274910Y0356175D01*
X0274874Y0356250D01*
X0274842Y0356327D01*
X0274813Y0356405D01*
X0274788Y0356484D01*
X0274767Y0356565D01*
X0274749Y0356646D01*
X0274736Y0356729D01*
X0274726Y0356812D01*
X0274720Y0356895D01*
X0274718Y0356978D01*
X0274718Y0361600D01*
X0271915Y0359822D02*
X0271915Y0356978D01*
X0271913Y0356895D01*
X0271907Y0356812D01*
X0271897Y0356729D01*
X0271884Y0356646D01*
X0271866Y0356565D01*
X0271845Y0356484D01*
X0271820Y0356405D01*
X0271791Y0356327D01*
X0271759Y0356250D01*
X0271723Y0356175D01*
X0271684Y0356101D01*
X0271641Y0356030D01*
X0271595Y0355960D01*
X0271545Y0355893D01*
X0271493Y0355828D01*
X0271438Y0355766D01*
X0271379Y0355706D01*
X0271318Y0355649D01*
X0271255Y0355595D01*
X0271189Y0355544D01*
X0271120Y0355497D01*
X0271050Y0355452D01*
X0270977Y0355411D01*
X0270903Y0355374D01*
X0270827Y0355339D01*
X0270749Y0355309D01*
X0270671Y0355282D01*
X0270590Y0355259D01*
X0270509Y0355239D01*
X0270427Y0355224D01*
X0270345Y0355212D01*
X0270262Y0355204D01*
X0270179Y0355200D01*
X0270095Y0355200D01*
X0270012Y0355204D01*
X0269929Y0355212D01*
X0269847Y0355224D01*
X0269765Y0355239D01*
X0269684Y0355259D01*
X0269603Y0355282D01*
X0269525Y0355309D01*
X0269447Y0355339D01*
X0269371Y0355374D01*
X0269297Y0355411D01*
X0269224Y0355452D01*
X0269154Y0355497D01*
X0269085Y0355544D01*
X0269019Y0355595D01*
X0268956Y0355649D01*
X0268895Y0355706D01*
X0268836Y0355766D01*
X0268781Y0355828D01*
X0268729Y0355893D01*
X0268679Y0355960D01*
X0268633Y0356030D01*
X0268590Y0356101D01*
X0268551Y0356175D01*
X0268515Y0356250D01*
X0268483Y0356327D01*
X0268454Y0356405D01*
X0268429Y0356484D01*
X0268408Y0356565D01*
X0268390Y0356646D01*
X0268377Y0356729D01*
X0268367Y0356812D01*
X0268361Y0356895D01*
X0268359Y0356978D01*
X0268359Y0359822D01*
X0268361Y0359905D01*
X0268367Y0359988D01*
X0268377Y0360071D01*
X0268390Y0360154D01*
X0268408Y0360235D01*
X0268429Y0360316D01*
X0268454Y0360395D01*
X0268483Y0360473D01*
X0268515Y0360550D01*
X0268551Y0360625D01*
X0268590Y0360699D01*
X0268633Y0360770D01*
X0268679Y0360840D01*
X0268729Y0360907D01*
X0268781Y0360972D01*
X0268836Y0361034D01*
X0268895Y0361094D01*
X0268956Y0361151D01*
X0269019Y0361205D01*
X0269085Y0361256D01*
X0269154Y0361303D01*
X0269224Y0361348D01*
X0269297Y0361389D01*
X0269371Y0361426D01*
X0269447Y0361461D01*
X0269525Y0361491D01*
X0269603Y0361518D01*
X0269684Y0361541D01*
X0269765Y0361561D01*
X0269847Y0361576D01*
X0269929Y0361588D01*
X0270012Y0361596D01*
X0270095Y0361600D01*
X0270179Y0361600D01*
X0270262Y0361596D01*
X0270345Y0361588D01*
X0270427Y0361576D01*
X0270509Y0361561D01*
X0270590Y0361541D01*
X0270671Y0361518D01*
X0270749Y0361491D01*
X0270827Y0361461D01*
X0270903Y0361426D01*
X0270977Y0361389D01*
X0271050Y0361348D01*
X0271120Y0361303D01*
X0271189Y0361256D01*
X0271255Y0361205D01*
X0271318Y0361151D01*
X0271379Y0361094D01*
X0271438Y0361034D01*
X0271493Y0360972D01*
X0271545Y0360907D01*
X0271595Y0360840D01*
X0271641Y0360770D01*
X0271684Y0360699D01*
X0271723Y0360625D01*
X0271759Y0360550D01*
X0271791Y0360473D01*
X0271820Y0360395D01*
X0271845Y0360316D01*
X0271866Y0360235D01*
X0271884Y0360154D01*
X0271897Y0360071D01*
X0271907Y0359988D01*
X0271913Y0359905D01*
X0271915Y0359822D01*
X0271915Y0365700D02*
X0268359Y0365700D01*
X0270137Y0365700D02*
X0270137Y0372100D01*
X0268359Y0370678D01*
X0265556Y0372100D02*
X0265556Y0365700D01*
X0265556Y0369256D02*
X0262000Y0369256D01*
X0262000Y0372100D02*
X0262000Y0365700D01*
X0262000Y0361600D02*
X0263778Y0361600D01*
X0263860Y0361598D01*
X0263942Y0361592D01*
X0264024Y0361583D01*
X0264105Y0361570D01*
X0264185Y0361553D01*
X0264265Y0361532D01*
X0264343Y0361508D01*
X0264420Y0361480D01*
X0264496Y0361449D01*
X0264571Y0361414D01*
X0264643Y0361375D01*
X0264714Y0361334D01*
X0264783Y0361289D01*
X0264849Y0361241D01*
X0264914Y0361190D01*
X0264976Y0361136D01*
X0265035Y0361079D01*
X0265092Y0361020D01*
X0265146Y0360958D01*
X0265197Y0360893D01*
X0265245Y0360827D01*
X0265290Y0360758D01*
X0265331Y0360687D01*
X0265370Y0360615D01*
X0265405Y0360540D01*
X0265436Y0360464D01*
X0265464Y0360387D01*
X0265488Y0360309D01*
X0265509Y0360229D01*
X0265526Y0360149D01*
X0265539Y0360068D01*
X0265548Y0359986D01*
X0265554Y0359904D01*
X0265556Y0359822D01*
X0265556Y0356978D01*
X0265554Y0356896D01*
X0265548Y0356814D01*
X0265539Y0356732D01*
X0265526Y0356651D01*
X0265509Y0356571D01*
X0265488Y0356491D01*
X0265464Y0356413D01*
X0265436Y0356336D01*
X0265405Y0356260D01*
X0265370Y0356185D01*
X0265331Y0356113D01*
X0265290Y0356042D01*
X0265245Y0355973D01*
X0265197Y0355907D01*
X0265146Y0355842D01*
X0265092Y0355780D01*
X0265035Y0355721D01*
X0264976Y0355664D01*
X0264914Y0355610D01*
X0264849Y0355559D01*
X0264783Y0355511D01*
X0264714Y0355466D01*
X0264643Y0355425D01*
X0264571Y0355386D01*
X0264496Y0355351D01*
X0264420Y0355320D01*
X0264343Y0355292D01*
X0264265Y0355268D01*
X0264185Y0355247D01*
X0264105Y0355230D01*
X0264024Y0355217D01*
X0263942Y0355208D01*
X0263860Y0355202D01*
X0263778Y0355200D01*
X0262000Y0355200D01*
X0262000Y0361600D01*
X0054400Y0329383D02*
X0051200Y0329383D01*
X0051136Y0329381D01*
X0051071Y0329375D01*
X0051008Y0329366D01*
X0050945Y0329352D01*
X0050883Y0329335D01*
X0050822Y0329314D01*
X0050762Y0329289D01*
X0050704Y0329261D01*
X0050648Y0329229D01*
X0050594Y0329194D01*
X0050542Y0329156D01*
X0050492Y0329115D01*
X0050446Y0329070D01*
X0050401Y0329024D01*
X0050360Y0328974D01*
X0050322Y0328922D01*
X0050287Y0328868D01*
X0050255Y0328812D01*
X0050227Y0328754D01*
X0050202Y0328694D01*
X0050181Y0328633D01*
X0050164Y0328571D01*
X0050150Y0328508D01*
X0050141Y0328445D01*
X0050135Y0328380D01*
X0050133Y0328316D01*
X0050133Y0326538D01*
X0054400Y0326538D01*
X0054400Y0323953D02*
X0054400Y0322531D01*
X0054400Y0323242D02*
X0048000Y0323242D01*
X0048000Y0322531D02*
X0048000Y0323953D01*
X0048000Y0315037D02*
X0054400Y0315037D01*
X0054400Y0313259D02*
X0054400Y0316815D01*
X0049422Y0313259D02*
X0048000Y0315037D01*
X0048000Y0310456D02*
X0054400Y0310456D01*
X0050844Y0310456D02*
X0050844Y0306900D01*
X0048000Y0306900D02*
X0054400Y0306900D01*
X0054400Y0237583D02*
X0051200Y0237583D01*
X0051136Y0237581D01*
X0051071Y0237575D01*
X0051008Y0237566D01*
X0050945Y0237552D01*
X0050883Y0237535D01*
X0050822Y0237514D01*
X0050762Y0237489D01*
X0050704Y0237461D01*
X0050648Y0237429D01*
X0050594Y0237394D01*
X0050542Y0237356D01*
X0050492Y0237315D01*
X0050446Y0237270D01*
X0050401Y0237224D01*
X0050360Y0237174D01*
X0050322Y0237122D01*
X0050287Y0237068D01*
X0050255Y0237012D01*
X0050227Y0236954D01*
X0050202Y0236894D01*
X0050181Y0236833D01*
X0050164Y0236771D01*
X0050150Y0236708D01*
X0050141Y0236645D01*
X0050135Y0236580D01*
X0050133Y0236516D01*
X0050133Y0234738D01*
X0054400Y0234738D01*
X0054400Y0232153D02*
X0054400Y0230731D01*
X0054400Y0231442D02*
X0048000Y0231442D01*
X0048000Y0230731D02*
X0048000Y0232153D01*
X0050844Y0224481D02*
X0054400Y0221459D01*
X0054400Y0225015D01*
X0049423Y0221459D02*
X0049338Y0221488D01*
X0049255Y0221521D01*
X0049174Y0221558D01*
X0049094Y0221598D01*
X0049017Y0221641D01*
X0048941Y0221688D01*
X0048867Y0221738D01*
X0048795Y0221791D01*
X0048726Y0221847D01*
X0048659Y0221906D01*
X0048595Y0221968D01*
X0048534Y0222033D01*
X0048475Y0222100D01*
X0048420Y0222170D01*
X0048367Y0222242D01*
X0048318Y0222316D01*
X0048272Y0222393D01*
X0048230Y0222471D01*
X0048190Y0222551D01*
X0048155Y0222633D01*
X0048122Y0222716D01*
X0048094Y0222800D01*
X0048069Y0222886D01*
X0048048Y0222973D01*
X0048031Y0223060D01*
X0048017Y0223148D01*
X0048008Y0223237D01*
X0048002Y0223326D01*
X0048000Y0223415D01*
X0048002Y0223494D01*
X0048008Y0223572D01*
X0048017Y0223650D01*
X0048031Y0223727D01*
X0048048Y0223804D01*
X0048069Y0223879D01*
X0048094Y0223954D01*
X0048122Y0224027D01*
X0048154Y0224099D01*
X0048189Y0224169D01*
X0048228Y0224238D01*
X0048270Y0224304D01*
X0048315Y0224368D01*
X0048363Y0224430D01*
X0048414Y0224489D01*
X0048469Y0224546D01*
X0048526Y0224601D01*
X0048585Y0224652D01*
X0048647Y0224700D01*
X0048711Y0224745D01*
X0048777Y0224787D01*
X0048846Y0224826D01*
X0048916Y0224861D01*
X0048988Y0224893D01*
X0049061Y0224921D01*
X0049136Y0224946D01*
X0049211Y0224967D01*
X0049288Y0224984D01*
X0049365Y0224998D01*
X0049443Y0225007D01*
X0049521Y0225013D01*
X0049600Y0225015D01*
X0049682Y0225013D01*
X0049764Y0225007D01*
X0049845Y0224997D01*
X0049926Y0224984D01*
X0050006Y0224966D01*
X0050085Y0224945D01*
X0050163Y0224920D01*
X0050239Y0224892D01*
X0050315Y0224859D01*
X0050388Y0224824D01*
X0050460Y0224784D01*
X0050530Y0224742D01*
X0050598Y0224696D01*
X0050663Y0224647D01*
X0050726Y0224595D01*
X0050787Y0224539D01*
X0050845Y0224482D01*
X0050844Y0218656D02*
X0050844Y0215100D01*
X0048000Y0215100D02*
X0054400Y0215100D01*
X0054400Y0218656D02*
X0048000Y0218656D01*
X0051200Y0145783D02*
X0054400Y0145783D01*
X0054400Y0142938D02*
X0050133Y0142938D01*
X0050133Y0144716D01*
X0050135Y0144780D01*
X0050141Y0144845D01*
X0050150Y0144908D01*
X0050164Y0144971D01*
X0050181Y0145033D01*
X0050202Y0145094D01*
X0050227Y0145154D01*
X0050255Y0145212D01*
X0050287Y0145268D01*
X0050322Y0145322D01*
X0050360Y0145374D01*
X0050401Y0145424D01*
X0050446Y0145470D01*
X0050492Y0145515D01*
X0050542Y0145556D01*
X0050594Y0145594D01*
X0050648Y0145629D01*
X0050704Y0145661D01*
X0050762Y0145689D01*
X0050822Y0145714D01*
X0050883Y0145735D01*
X0050945Y0145752D01*
X0051008Y0145766D01*
X0051071Y0145775D01*
X0051136Y0145781D01*
X0051200Y0145783D01*
X0048000Y0140353D02*
X0048000Y0138931D01*
X0048000Y0139642D02*
X0054400Y0139642D01*
X0054400Y0138931D02*
X0054400Y0140353D01*
X0054400Y0131437D02*
X0054400Y0129659D01*
X0054400Y0131437D02*
X0054398Y0131520D01*
X0054392Y0131603D01*
X0054382Y0131686D01*
X0054369Y0131769D01*
X0054351Y0131850D01*
X0054330Y0131931D01*
X0054305Y0132010D01*
X0054276Y0132088D01*
X0054244Y0132165D01*
X0054208Y0132240D01*
X0054169Y0132314D01*
X0054126Y0132385D01*
X0054080Y0132455D01*
X0054030Y0132522D01*
X0053978Y0132587D01*
X0053923Y0132649D01*
X0053864Y0132709D01*
X0053803Y0132766D01*
X0053740Y0132820D01*
X0053674Y0132871D01*
X0053605Y0132918D01*
X0053535Y0132963D01*
X0053462Y0133004D01*
X0053388Y0133041D01*
X0053312Y0133076D01*
X0053234Y0133106D01*
X0053156Y0133133D01*
X0053075Y0133156D01*
X0052994Y0133176D01*
X0052912Y0133191D01*
X0052830Y0133203D01*
X0052747Y0133211D01*
X0052664Y0133215D01*
X0052580Y0133215D01*
X0052497Y0133211D01*
X0052414Y0133203D01*
X0052332Y0133191D01*
X0052250Y0133176D01*
X0052169Y0133156D01*
X0052088Y0133133D01*
X0052010Y0133106D01*
X0051932Y0133076D01*
X0051856Y0133041D01*
X0051782Y0133004D01*
X0051709Y0132963D01*
X0051639Y0132918D01*
X0051570Y0132871D01*
X0051504Y0132820D01*
X0051441Y0132766D01*
X0051380Y0132709D01*
X0051321Y0132649D01*
X0051266Y0132587D01*
X0051214Y0132522D01*
X0051164Y0132455D01*
X0051118Y0132385D01*
X0051075Y0132314D01*
X0051036Y0132240D01*
X0051000Y0132165D01*
X0050968Y0132088D01*
X0050939Y0132010D01*
X0050914Y0131931D01*
X0050893Y0131850D01*
X0050875Y0131769D01*
X0050862Y0131686D01*
X0050852Y0131603D01*
X0050846Y0131520D01*
X0050844Y0131437D01*
X0050844Y0131792D02*
X0050844Y0130370D01*
X0050844Y0131792D02*
X0050842Y0131866D01*
X0050836Y0131941D01*
X0050826Y0132014D01*
X0050813Y0132088D01*
X0050796Y0132160D01*
X0050774Y0132231D01*
X0050750Y0132302D01*
X0050721Y0132370D01*
X0050689Y0132438D01*
X0050653Y0132503D01*
X0050615Y0132566D01*
X0050572Y0132628D01*
X0050527Y0132687D01*
X0050479Y0132744D01*
X0050428Y0132798D01*
X0050374Y0132849D01*
X0050317Y0132897D01*
X0050258Y0132942D01*
X0050196Y0132985D01*
X0050133Y0133023D01*
X0050068Y0133059D01*
X0050000Y0133091D01*
X0049932Y0133120D01*
X0049861Y0133144D01*
X0049790Y0133166D01*
X0049718Y0133183D01*
X0049644Y0133196D01*
X0049571Y0133206D01*
X0049496Y0133212D01*
X0049422Y0133214D01*
X0049348Y0133212D01*
X0049273Y0133206D01*
X0049200Y0133196D01*
X0049126Y0133183D01*
X0049054Y0133166D01*
X0048983Y0133144D01*
X0048912Y0133120D01*
X0048844Y0133091D01*
X0048776Y0133059D01*
X0048711Y0133023D01*
X0048648Y0132985D01*
X0048586Y0132942D01*
X0048527Y0132897D01*
X0048470Y0132849D01*
X0048416Y0132798D01*
X0048365Y0132744D01*
X0048317Y0132687D01*
X0048272Y0132628D01*
X0048229Y0132566D01*
X0048191Y0132503D01*
X0048155Y0132438D01*
X0048123Y0132370D01*
X0048094Y0132302D01*
X0048070Y0132231D01*
X0048048Y0132160D01*
X0048031Y0132088D01*
X0048018Y0132014D01*
X0048008Y0131941D01*
X0048002Y0131866D01*
X0048000Y0131792D01*
X0048000Y0129659D01*
X0048000Y0126856D02*
X0054400Y0126856D01*
X0050844Y0126856D02*
X0050844Y0123300D01*
X0048000Y0123300D02*
X0054400Y0123300D01*
X0054400Y0053983D02*
X0051200Y0053983D01*
X0051136Y0053981D01*
X0051071Y0053975D01*
X0051008Y0053966D01*
X0050945Y0053952D01*
X0050883Y0053935D01*
X0050822Y0053914D01*
X0050762Y0053889D01*
X0050704Y0053861D01*
X0050648Y0053829D01*
X0050594Y0053794D01*
X0050542Y0053756D01*
X0050492Y0053715D01*
X0050446Y0053670D01*
X0050401Y0053624D01*
X0050360Y0053574D01*
X0050322Y0053522D01*
X0050287Y0053468D01*
X0050255Y0053412D01*
X0050227Y0053354D01*
X0050202Y0053294D01*
X0050181Y0053233D01*
X0050164Y0053171D01*
X0050150Y0053108D01*
X0050141Y0053045D01*
X0050135Y0052980D01*
X0050133Y0052916D01*
X0050133Y0051138D01*
X0054400Y0051138D01*
X0054400Y0048553D02*
X0054400Y0047131D01*
X0054400Y0047842D02*
X0048000Y0047842D01*
X0048000Y0047131D02*
X0048000Y0048553D01*
X0052978Y0041415D02*
X0052978Y0037859D01*
X0048000Y0039281D01*
X0048000Y0035056D02*
X0054400Y0035056D01*
X0050844Y0035056D02*
X0050844Y0031500D01*
X0048000Y0031500D02*
X0054400Y0031500D01*
X0054400Y0040348D02*
X0051556Y0040348D01*
D12*
X0057097Y0025200D02*
X0057097Y0020867D01*
X0057099Y0020810D01*
X0057104Y0020754D01*
X0057114Y0020698D01*
X0057127Y0020643D01*
X0057143Y0020588D01*
X0057163Y0020535D01*
X0057186Y0020484D01*
X0057213Y0020433D01*
X0057243Y0020385D01*
X0057276Y0020339D01*
X0057312Y0020295D01*
X0057351Y0020254D01*
X0057392Y0020215D01*
X0057436Y0020179D01*
X0057482Y0020146D01*
X0057531Y0020116D01*
X0057581Y0020089D01*
X0057632Y0020066D01*
X0057685Y0020046D01*
X0057740Y0020030D01*
X0057795Y0020017D01*
X0057851Y0020007D01*
X0057907Y0020002D01*
X0057964Y0020000D01*
X0058252Y0020000D01*
X0060133Y0020867D02*
X0060133Y0022311D01*
X0060133Y0021733D02*
X0062444Y0021733D01*
X0062444Y0022311D01*
X0062442Y0022378D01*
X0062436Y0022445D01*
X0062426Y0022512D01*
X0062413Y0022578D01*
X0062395Y0022643D01*
X0062374Y0022706D01*
X0062349Y0022769D01*
X0062321Y0022830D01*
X0062289Y0022889D01*
X0062254Y0022946D01*
X0062215Y0023001D01*
X0062174Y0023054D01*
X0062129Y0023104D01*
X0062081Y0023152D01*
X0062031Y0023197D01*
X0061978Y0023238D01*
X0061923Y0023277D01*
X0061866Y0023312D01*
X0061807Y0023344D01*
X0061746Y0023372D01*
X0061683Y0023397D01*
X0061620Y0023418D01*
X0061555Y0023436D01*
X0061489Y0023449D01*
X0061422Y0023459D01*
X0061355Y0023465D01*
X0061288Y0023467D01*
X0061221Y0023465D01*
X0061154Y0023459D01*
X0061087Y0023449D01*
X0061021Y0023436D01*
X0060956Y0023418D01*
X0060893Y0023397D01*
X0060830Y0023372D01*
X0060769Y0023344D01*
X0060710Y0023312D01*
X0060653Y0023277D01*
X0060598Y0023238D01*
X0060545Y0023197D01*
X0060495Y0023152D01*
X0060447Y0023104D01*
X0060402Y0023054D01*
X0060361Y0023001D01*
X0060322Y0022946D01*
X0060287Y0022889D01*
X0060255Y0022830D01*
X0060227Y0022769D01*
X0060202Y0022706D01*
X0060181Y0022643D01*
X0060163Y0022578D01*
X0060150Y0022512D01*
X0060140Y0022445D01*
X0060134Y0022378D01*
X0060132Y0022311D01*
X0060132Y0020867D02*
X0060134Y0020810D01*
X0060139Y0020754D01*
X0060149Y0020698D01*
X0060162Y0020643D01*
X0060178Y0020588D01*
X0060198Y0020535D01*
X0060221Y0020484D01*
X0060248Y0020434D01*
X0060278Y0020385D01*
X0060311Y0020339D01*
X0060347Y0020295D01*
X0060386Y0020254D01*
X0060427Y0020215D01*
X0060471Y0020179D01*
X0060517Y0020146D01*
X0060566Y0020116D01*
X0060616Y0020089D01*
X0060667Y0020066D01*
X0060720Y0020046D01*
X0060775Y0020030D01*
X0060830Y0020017D01*
X0060886Y0020007D01*
X0060942Y0020002D01*
X0060999Y0020000D01*
X0062444Y0020000D01*
X0064697Y0020000D02*
X0064697Y0023467D01*
X0066430Y0023467D01*
X0066430Y0022889D01*
X0070963Y0022311D02*
X0072407Y0022311D01*
X0072696Y0022311D02*
X0073852Y0020000D01*
X0075925Y0021156D02*
X0075925Y0022311D01*
X0075924Y0022311D02*
X0075926Y0022378D01*
X0075932Y0022445D01*
X0075942Y0022512D01*
X0075955Y0022578D01*
X0075973Y0022643D01*
X0075994Y0022706D01*
X0076019Y0022769D01*
X0076047Y0022830D01*
X0076079Y0022889D01*
X0076114Y0022946D01*
X0076153Y0023001D01*
X0076194Y0023054D01*
X0076239Y0023104D01*
X0076287Y0023152D01*
X0076337Y0023197D01*
X0076390Y0023238D01*
X0076445Y0023277D01*
X0076502Y0023312D01*
X0076561Y0023344D01*
X0076622Y0023372D01*
X0076685Y0023397D01*
X0076748Y0023418D01*
X0076813Y0023436D01*
X0076879Y0023449D01*
X0076946Y0023459D01*
X0077013Y0023465D01*
X0077080Y0023467D01*
X0077147Y0023465D01*
X0077214Y0023459D01*
X0077281Y0023449D01*
X0077347Y0023436D01*
X0077412Y0023418D01*
X0077475Y0023397D01*
X0077538Y0023372D01*
X0077599Y0023344D01*
X0077658Y0023312D01*
X0077715Y0023277D01*
X0077770Y0023238D01*
X0077823Y0023197D01*
X0077873Y0023152D01*
X0077921Y0023104D01*
X0077966Y0023054D01*
X0078007Y0023001D01*
X0078046Y0022946D01*
X0078081Y0022889D01*
X0078113Y0022830D01*
X0078141Y0022769D01*
X0078166Y0022706D01*
X0078187Y0022643D01*
X0078205Y0022578D01*
X0078218Y0022512D01*
X0078228Y0022445D01*
X0078234Y0022378D01*
X0078236Y0022311D01*
X0078236Y0021156D01*
X0078234Y0021089D01*
X0078228Y0021022D01*
X0078218Y0020955D01*
X0078205Y0020889D01*
X0078187Y0020824D01*
X0078166Y0020761D01*
X0078141Y0020698D01*
X0078113Y0020637D01*
X0078081Y0020578D01*
X0078046Y0020521D01*
X0078007Y0020466D01*
X0077966Y0020413D01*
X0077921Y0020363D01*
X0077873Y0020315D01*
X0077823Y0020270D01*
X0077770Y0020229D01*
X0077715Y0020190D01*
X0077658Y0020155D01*
X0077599Y0020123D01*
X0077538Y0020095D01*
X0077475Y0020070D01*
X0077412Y0020049D01*
X0077347Y0020031D01*
X0077281Y0020018D01*
X0077214Y0020008D01*
X0077147Y0020002D01*
X0077080Y0020000D01*
X0077013Y0020002D01*
X0076946Y0020008D01*
X0076879Y0020018D01*
X0076813Y0020031D01*
X0076748Y0020049D01*
X0076685Y0020070D01*
X0076622Y0020095D01*
X0076561Y0020123D01*
X0076502Y0020155D01*
X0076445Y0020190D01*
X0076390Y0020229D01*
X0076337Y0020270D01*
X0076287Y0020315D01*
X0076239Y0020363D01*
X0076194Y0020413D01*
X0076153Y0020466D01*
X0076114Y0020521D01*
X0076079Y0020578D01*
X0076047Y0020637D01*
X0076019Y0020698D01*
X0075994Y0020761D01*
X0075973Y0020824D01*
X0075955Y0020889D01*
X0075942Y0020955D01*
X0075932Y0021022D01*
X0075926Y0021089D01*
X0075924Y0021156D01*
X0080485Y0020000D02*
X0081930Y0020000D01*
X0081987Y0020002D01*
X0082043Y0020007D01*
X0082099Y0020017D01*
X0082154Y0020030D01*
X0082209Y0020046D01*
X0082262Y0020066D01*
X0082313Y0020089D01*
X0082363Y0020116D01*
X0082412Y0020146D01*
X0082458Y0020179D01*
X0082502Y0020215D01*
X0082543Y0020254D01*
X0082582Y0020295D01*
X0082618Y0020339D01*
X0082651Y0020385D01*
X0082681Y0020433D01*
X0082708Y0020484D01*
X0082731Y0020535D01*
X0082751Y0020588D01*
X0082767Y0020643D01*
X0082780Y0020698D01*
X0082790Y0020754D01*
X0082795Y0020810D01*
X0082797Y0020867D01*
X0082796Y0020867D02*
X0082796Y0022600D01*
X0082797Y0022600D02*
X0082795Y0022657D01*
X0082790Y0022713D01*
X0082780Y0022769D01*
X0082767Y0022824D01*
X0082751Y0022879D01*
X0082731Y0022932D01*
X0082708Y0022983D01*
X0082681Y0023034D01*
X0082651Y0023082D01*
X0082618Y0023128D01*
X0082582Y0023172D01*
X0082543Y0023213D01*
X0082502Y0023252D01*
X0082458Y0023288D01*
X0082412Y0023321D01*
X0082364Y0023351D01*
X0082313Y0023378D01*
X0082262Y0023401D01*
X0082209Y0023421D01*
X0082154Y0023437D01*
X0082099Y0023450D01*
X0082043Y0023460D01*
X0081987Y0023465D01*
X0081930Y0023467D01*
X0080485Y0023467D01*
X0080485Y0025200D02*
X0080485Y0020000D01*
X0080814Y0016800D02*
X0081103Y0016800D01*
X0081103Y0016511D01*
X0080814Y0016511D01*
X0080814Y0016800D01*
X0080958Y0015067D02*
X0080958Y0011600D01*
X0079098Y0011600D02*
X0078809Y0011600D01*
X0078752Y0011602D01*
X0078696Y0011607D01*
X0078640Y0011617D01*
X0078585Y0011630D01*
X0078530Y0011646D01*
X0078477Y0011666D01*
X0078426Y0011689D01*
X0078376Y0011716D01*
X0078327Y0011746D01*
X0078281Y0011779D01*
X0078237Y0011815D01*
X0078196Y0011854D01*
X0078157Y0011895D01*
X0078121Y0011939D01*
X0078088Y0011985D01*
X0078058Y0012033D01*
X0078031Y0012084D01*
X0078008Y0012135D01*
X0077988Y0012188D01*
X0077972Y0012243D01*
X0077959Y0012298D01*
X0077949Y0012354D01*
X0077944Y0012410D01*
X0077942Y0012467D01*
X0077943Y0012467D02*
X0077943Y0016800D01*
X0077365Y0015067D02*
X0079098Y0015067D01*
X0075730Y0013911D02*
X0075730Y0012756D01*
X0075728Y0012689D01*
X0075722Y0012622D01*
X0075712Y0012555D01*
X0075699Y0012489D01*
X0075681Y0012424D01*
X0075660Y0012361D01*
X0075635Y0012298D01*
X0075607Y0012237D01*
X0075575Y0012178D01*
X0075540Y0012121D01*
X0075501Y0012066D01*
X0075460Y0012013D01*
X0075415Y0011963D01*
X0075367Y0011915D01*
X0075317Y0011870D01*
X0075264Y0011829D01*
X0075209Y0011790D01*
X0075152Y0011755D01*
X0075093Y0011723D01*
X0075032Y0011695D01*
X0074969Y0011670D01*
X0074906Y0011649D01*
X0074841Y0011631D01*
X0074775Y0011618D01*
X0074708Y0011608D01*
X0074641Y0011602D01*
X0074574Y0011600D01*
X0074507Y0011602D01*
X0074440Y0011608D01*
X0074373Y0011618D01*
X0074307Y0011631D01*
X0074242Y0011649D01*
X0074179Y0011670D01*
X0074116Y0011695D01*
X0074055Y0011723D01*
X0073996Y0011755D01*
X0073939Y0011790D01*
X0073884Y0011829D01*
X0073831Y0011870D01*
X0073781Y0011915D01*
X0073733Y0011963D01*
X0073688Y0012013D01*
X0073647Y0012066D01*
X0073608Y0012121D01*
X0073573Y0012178D01*
X0073541Y0012237D01*
X0073513Y0012298D01*
X0073488Y0012361D01*
X0073467Y0012424D01*
X0073449Y0012489D01*
X0073436Y0012555D01*
X0073426Y0012622D01*
X0073420Y0012689D01*
X0073418Y0012756D01*
X0073419Y0012756D02*
X0073419Y0013911D01*
X0073418Y0013911D02*
X0073420Y0013978D01*
X0073426Y0014045D01*
X0073436Y0014112D01*
X0073449Y0014178D01*
X0073467Y0014243D01*
X0073488Y0014306D01*
X0073513Y0014369D01*
X0073541Y0014430D01*
X0073573Y0014489D01*
X0073608Y0014546D01*
X0073647Y0014601D01*
X0073688Y0014654D01*
X0073733Y0014704D01*
X0073781Y0014752D01*
X0073831Y0014797D01*
X0073884Y0014838D01*
X0073939Y0014877D01*
X0073996Y0014912D01*
X0074055Y0014944D01*
X0074116Y0014972D01*
X0074179Y0014997D01*
X0074242Y0015018D01*
X0074307Y0015036D01*
X0074373Y0015049D01*
X0074440Y0015059D01*
X0074507Y0015065D01*
X0074574Y0015067D01*
X0074641Y0015065D01*
X0074708Y0015059D01*
X0074775Y0015049D01*
X0074841Y0015036D01*
X0074906Y0015018D01*
X0074969Y0014997D01*
X0075032Y0014972D01*
X0075093Y0014944D01*
X0075152Y0014912D01*
X0075209Y0014877D01*
X0075264Y0014838D01*
X0075317Y0014797D01*
X0075367Y0014752D01*
X0075415Y0014704D01*
X0075460Y0014654D01*
X0075501Y0014601D01*
X0075540Y0014546D01*
X0075575Y0014489D01*
X0075607Y0014430D01*
X0075635Y0014369D01*
X0075660Y0014306D01*
X0075681Y0014243D01*
X0075699Y0014178D01*
X0075712Y0014112D01*
X0075722Y0014045D01*
X0075728Y0013978D01*
X0075730Y0013911D01*
X0071100Y0014200D02*
X0071100Y0011600D01*
X0069366Y0011600D02*
X0069366Y0015067D01*
X0070233Y0015067D02*
X0067633Y0015067D01*
X0067633Y0011600D01*
X0065314Y0012756D02*
X0065314Y0013911D01*
X0065312Y0013978D01*
X0065306Y0014045D01*
X0065296Y0014112D01*
X0065283Y0014178D01*
X0065265Y0014243D01*
X0065244Y0014306D01*
X0065219Y0014369D01*
X0065191Y0014430D01*
X0065159Y0014489D01*
X0065124Y0014546D01*
X0065085Y0014601D01*
X0065044Y0014654D01*
X0064999Y0014704D01*
X0064951Y0014752D01*
X0064901Y0014797D01*
X0064848Y0014838D01*
X0064793Y0014877D01*
X0064736Y0014912D01*
X0064677Y0014944D01*
X0064616Y0014972D01*
X0064553Y0014997D01*
X0064490Y0015018D01*
X0064425Y0015036D01*
X0064359Y0015049D01*
X0064292Y0015059D01*
X0064225Y0015065D01*
X0064158Y0015067D01*
X0064091Y0015065D01*
X0064024Y0015059D01*
X0063957Y0015049D01*
X0063891Y0015036D01*
X0063826Y0015018D01*
X0063763Y0014997D01*
X0063700Y0014972D01*
X0063639Y0014944D01*
X0063580Y0014912D01*
X0063523Y0014877D01*
X0063468Y0014838D01*
X0063415Y0014797D01*
X0063365Y0014752D01*
X0063317Y0014704D01*
X0063272Y0014654D01*
X0063231Y0014601D01*
X0063192Y0014546D01*
X0063157Y0014489D01*
X0063125Y0014430D01*
X0063097Y0014369D01*
X0063072Y0014306D01*
X0063051Y0014243D01*
X0063033Y0014178D01*
X0063020Y0014112D01*
X0063010Y0014045D01*
X0063004Y0013978D01*
X0063002Y0013911D01*
X0063003Y0013911D02*
X0063003Y0012756D01*
X0063002Y0012756D02*
X0063004Y0012689D01*
X0063010Y0012622D01*
X0063020Y0012555D01*
X0063033Y0012489D01*
X0063051Y0012424D01*
X0063072Y0012361D01*
X0063097Y0012298D01*
X0063125Y0012237D01*
X0063157Y0012178D01*
X0063192Y0012121D01*
X0063231Y0012066D01*
X0063272Y0012013D01*
X0063317Y0011963D01*
X0063365Y0011915D01*
X0063415Y0011870D01*
X0063468Y0011829D01*
X0063523Y0011790D01*
X0063580Y0011755D01*
X0063639Y0011723D01*
X0063700Y0011695D01*
X0063763Y0011670D01*
X0063826Y0011649D01*
X0063891Y0011631D01*
X0063957Y0011618D01*
X0064024Y0011608D01*
X0064091Y0011602D01*
X0064158Y0011600D01*
X0064225Y0011602D01*
X0064292Y0011608D01*
X0064359Y0011618D01*
X0064425Y0011631D01*
X0064490Y0011649D01*
X0064553Y0011670D01*
X0064616Y0011695D01*
X0064677Y0011723D01*
X0064736Y0011755D01*
X0064793Y0011790D01*
X0064848Y0011829D01*
X0064901Y0011870D01*
X0064951Y0011915D01*
X0064999Y0011963D01*
X0065044Y0012013D01*
X0065085Y0012066D01*
X0065124Y0012121D01*
X0065159Y0012178D01*
X0065191Y0012237D01*
X0065219Y0012298D01*
X0065244Y0012361D01*
X0065265Y0012424D01*
X0065283Y0012489D01*
X0065296Y0012555D01*
X0065306Y0012622D01*
X0065312Y0012689D01*
X0065314Y0012756D01*
X0061122Y0011600D02*
X0060833Y0011600D01*
X0060776Y0011602D01*
X0060720Y0011607D01*
X0060664Y0011617D01*
X0060609Y0011630D01*
X0060554Y0011646D01*
X0060501Y0011666D01*
X0060450Y0011689D01*
X0060400Y0011716D01*
X0060351Y0011746D01*
X0060305Y0011779D01*
X0060261Y0011815D01*
X0060220Y0011854D01*
X0060181Y0011895D01*
X0060145Y0011939D01*
X0060112Y0011985D01*
X0060082Y0012033D01*
X0060055Y0012084D01*
X0060032Y0012135D01*
X0060012Y0012188D01*
X0059996Y0012243D01*
X0059983Y0012298D01*
X0059973Y0012354D01*
X0059968Y0012410D01*
X0059966Y0012467D01*
X0059967Y0012467D02*
X0059967Y0016800D01*
X0059389Y0015067D02*
X0061122Y0015067D01*
X0057586Y0015067D02*
X0057586Y0011600D01*
X0056141Y0011600D01*
X0056084Y0011602D01*
X0056028Y0011607D01*
X0055972Y0011617D01*
X0055917Y0011630D01*
X0055862Y0011646D01*
X0055809Y0011666D01*
X0055758Y0011689D01*
X0055708Y0011716D01*
X0055659Y0011746D01*
X0055613Y0011779D01*
X0055569Y0011815D01*
X0055528Y0011854D01*
X0055489Y0011895D01*
X0055453Y0011939D01*
X0055420Y0011985D01*
X0055390Y0012034D01*
X0055363Y0012084D01*
X0055340Y0012135D01*
X0055320Y0012188D01*
X0055304Y0012243D01*
X0055291Y0012298D01*
X0055281Y0012354D01*
X0055276Y0012410D01*
X0055274Y0012467D01*
X0055275Y0012467D02*
X0055275Y0015067D01*
X0052858Y0012900D02*
X0050258Y0012900D01*
X0049825Y0011600D02*
X0051558Y0016800D01*
X0053292Y0011600D01*
X0045780Y0014489D02*
X0045780Y0015067D01*
X0044046Y0015067D01*
X0044046Y0011600D01*
X0041794Y0012756D02*
X0041794Y0013911D01*
X0041792Y0013978D01*
X0041786Y0014045D01*
X0041776Y0014112D01*
X0041763Y0014178D01*
X0041745Y0014243D01*
X0041724Y0014306D01*
X0041699Y0014369D01*
X0041671Y0014430D01*
X0041639Y0014489D01*
X0041604Y0014546D01*
X0041565Y0014601D01*
X0041524Y0014654D01*
X0041479Y0014704D01*
X0041431Y0014752D01*
X0041381Y0014797D01*
X0041328Y0014838D01*
X0041273Y0014877D01*
X0041216Y0014912D01*
X0041157Y0014944D01*
X0041096Y0014972D01*
X0041033Y0014997D01*
X0040970Y0015018D01*
X0040905Y0015036D01*
X0040839Y0015049D01*
X0040772Y0015059D01*
X0040705Y0015065D01*
X0040638Y0015067D01*
X0040571Y0015065D01*
X0040504Y0015059D01*
X0040437Y0015049D01*
X0040371Y0015036D01*
X0040306Y0015018D01*
X0040243Y0014997D01*
X0040180Y0014972D01*
X0040119Y0014944D01*
X0040060Y0014912D01*
X0040003Y0014877D01*
X0039948Y0014838D01*
X0039895Y0014797D01*
X0039845Y0014752D01*
X0039797Y0014704D01*
X0039752Y0014654D01*
X0039711Y0014601D01*
X0039672Y0014546D01*
X0039637Y0014489D01*
X0039605Y0014430D01*
X0039577Y0014369D01*
X0039552Y0014306D01*
X0039531Y0014243D01*
X0039513Y0014178D01*
X0039500Y0014112D01*
X0039490Y0014045D01*
X0039484Y0013978D01*
X0039482Y0013911D01*
X0039483Y0013911D02*
X0039483Y0012756D01*
X0039482Y0012756D02*
X0039484Y0012689D01*
X0039490Y0012622D01*
X0039500Y0012555D01*
X0039513Y0012489D01*
X0039531Y0012424D01*
X0039552Y0012361D01*
X0039577Y0012298D01*
X0039605Y0012237D01*
X0039637Y0012178D01*
X0039672Y0012121D01*
X0039711Y0012066D01*
X0039752Y0012013D01*
X0039797Y0011963D01*
X0039845Y0011915D01*
X0039895Y0011870D01*
X0039948Y0011829D01*
X0040003Y0011790D01*
X0040060Y0011755D01*
X0040119Y0011723D01*
X0040180Y0011695D01*
X0040243Y0011670D01*
X0040306Y0011649D01*
X0040371Y0011631D01*
X0040437Y0011618D01*
X0040504Y0011608D01*
X0040571Y0011602D01*
X0040638Y0011600D01*
X0040705Y0011602D01*
X0040772Y0011608D01*
X0040839Y0011618D01*
X0040905Y0011631D01*
X0040970Y0011649D01*
X0041033Y0011670D01*
X0041096Y0011695D01*
X0041157Y0011723D01*
X0041216Y0011755D01*
X0041273Y0011790D01*
X0041328Y0011829D01*
X0041381Y0011870D01*
X0041431Y0011915D01*
X0041479Y0011963D01*
X0041524Y0012013D01*
X0041565Y0012066D01*
X0041604Y0012121D01*
X0041639Y0012178D01*
X0041671Y0012237D01*
X0041699Y0012298D01*
X0041724Y0012361D01*
X0041745Y0012424D01*
X0041763Y0012489D01*
X0041776Y0012555D01*
X0041786Y0012622D01*
X0041792Y0012689D01*
X0041794Y0012756D01*
X0037650Y0014489D02*
X0035339Y0014489D01*
X0035339Y0016800D02*
X0035339Y0011600D01*
X0030828Y0014489D02*
X0030828Y0015067D01*
X0029094Y0015067D01*
X0029094Y0011600D01*
X0026842Y0011600D02*
X0025397Y0011600D01*
X0025340Y0011602D01*
X0025284Y0011607D01*
X0025228Y0011617D01*
X0025173Y0011630D01*
X0025118Y0011646D01*
X0025065Y0011666D01*
X0025014Y0011689D01*
X0024964Y0011716D01*
X0024915Y0011746D01*
X0024869Y0011779D01*
X0024825Y0011815D01*
X0024784Y0011854D01*
X0024745Y0011895D01*
X0024709Y0011939D01*
X0024676Y0011985D01*
X0024646Y0012034D01*
X0024619Y0012084D01*
X0024596Y0012135D01*
X0024576Y0012188D01*
X0024560Y0012243D01*
X0024547Y0012298D01*
X0024537Y0012354D01*
X0024532Y0012410D01*
X0024530Y0012467D01*
X0024531Y0012467D02*
X0024531Y0013911D01*
X0024531Y0013333D02*
X0026842Y0013333D01*
X0026842Y0013911D01*
X0026840Y0013978D01*
X0026834Y0014045D01*
X0026824Y0014112D01*
X0026811Y0014178D01*
X0026793Y0014243D01*
X0026772Y0014306D01*
X0026747Y0014369D01*
X0026719Y0014430D01*
X0026687Y0014489D01*
X0026652Y0014546D01*
X0026613Y0014601D01*
X0026572Y0014654D01*
X0026527Y0014704D01*
X0026479Y0014752D01*
X0026429Y0014797D01*
X0026376Y0014838D01*
X0026321Y0014877D01*
X0026264Y0014912D01*
X0026205Y0014944D01*
X0026144Y0014972D01*
X0026081Y0014997D01*
X0026018Y0015018D01*
X0025953Y0015036D01*
X0025887Y0015049D01*
X0025820Y0015059D01*
X0025753Y0015065D01*
X0025686Y0015067D01*
X0025619Y0015065D01*
X0025552Y0015059D01*
X0025485Y0015049D01*
X0025419Y0015036D01*
X0025354Y0015018D01*
X0025291Y0014997D01*
X0025228Y0014972D01*
X0025167Y0014944D01*
X0025108Y0014912D01*
X0025051Y0014877D01*
X0024996Y0014838D01*
X0024943Y0014797D01*
X0024893Y0014752D01*
X0024845Y0014704D01*
X0024800Y0014654D01*
X0024759Y0014601D01*
X0024720Y0014546D01*
X0024685Y0014489D01*
X0024653Y0014430D01*
X0024625Y0014369D01*
X0024600Y0014306D01*
X0024579Y0014243D01*
X0024561Y0014178D01*
X0024548Y0014112D01*
X0024538Y0014045D01*
X0024532Y0013978D01*
X0024530Y0013911D01*
X0022650Y0015067D02*
X0020917Y0015067D01*
X0021495Y0016800D02*
X0021495Y0012467D01*
X0021497Y0012410D01*
X0021502Y0012354D01*
X0021512Y0012298D01*
X0021525Y0012243D01*
X0021541Y0012188D01*
X0021561Y0012135D01*
X0021584Y0012084D01*
X0021611Y0012033D01*
X0021641Y0011985D01*
X0021674Y0011939D01*
X0021710Y0011895D01*
X0021749Y0011854D01*
X0021790Y0011815D01*
X0021834Y0011779D01*
X0021880Y0011746D01*
X0021929Y0011716D01*
X0021979Y0011689D01*
X0022030Y0011666D01*
X0022083Y0011646D01*
X0022138Y0011630D01*
X0022193Y0011617D01*
X0022249Y0011607D01*
X0022305Y0011602D01*
X0022362Y0011600D01*
X0022650Y0011600D01*
X0019114Y0011600D02*
X0019114Y0014200D01*
X0019112Y0014257D01*
X0019107Y0014313D01*
X0019097Y0014369D01*
X0019084Y0014424D01*
X0019068Y0014479D01*
X0019048Y0014532D01*
X0019025Y0014583D01*
X0018998Y0014634D01*
X0018968Y0014682D01*
X0018935Y0014728D01*
X0018899Y0014772D01*
X0018860Y0014813D01*
X0018819Y0014852D01*
X0018775Y0014888D01*
X0018729Y0014921D01*
X0018680Y0014951D01*
X0018630Y0014978D01*
X0018579Y0015001D01*
X0018526Y0015021D01*
X0018471Y0015037D01*
X0018416Y0015050D01*
X0018360Y0015060D01*
X0018304Y0015065D01*
X0018247Y0015067D01*
X0016803Y0015067D01*
X0016803Y0011600D01*
X0014578Y0011600D02*
X0013133Y0011600D01*
X0013076Y0011602D01*
X0013020Y0011607D01*
X0012964Y0011617D01*
X0012909Y0011630D01*
X0012854Y0011646D01*
X0012801Y0011666D01*
X0012750Y0011689D01*
X0012700Y0011716D01*
X0012651Y0011746D01*
X0012605Y0011779D01*
X0012561Y0011815D01*
X0012520Y0011854D01*
X0012481Y0011895D01*
X0012445Y0011939D01*
X0012412Y0011985D01*
X0012382Y0012034D01*
X0012355Y0012084D01*
X0012332Y0012135D01*
X0012312Y0012188D01*
X0012296Y0012243D01*
X0012283Y0012298D01*
X0012273Y0012354D01*
X0012268Y0012410D01*
X0012266Y0012467D01*
X0012267Y0012467D02*
X0012267Y0013911D01*
X0012267Y0013333D02*
X0014578Y0013333D01*
X0014578Y0013911D01*
X0014576Y0013978D01*
X0014570Y0014045D01*
X0014560Y0014112D01*
X0014547Y0014178D01*
X0014529Y0014243D01*
X0014508Y0014306D01*
X0014483Y0014369D01*
X0014455Y0014430D01*
X0014423Y0014489D01*
X0014388Y0014546D01*
X0014349Y0014601D01*
X0014308Y0014654D01*
X0014263Y0014704D01*
X0014215Y0014752D01*
X0014165Y0014797D01*
X0014112Y0014838D01*
X0014057Y0014877D01*
X0014000Y0014912D01*
X0013941Y0014944D01*
X0013880Y0014972D01*
X0013817Y0014997D01*
X0013754Y0015018D01*
X0013689Y0015036D01*
X0013623Y0015049D01*
X0013556Y0015059D01*
X0013489Y0015065D01*
X0013422Y0015067D01*
X0013355Y0015065D01*
X0013288Y0015059D01*
X0013221Y0015049D01*
X0013155Y0015036D01*
X0013090Y0015018D01*
X0013027Y0014997D01*
X0012964Y0014972D01*
X0012903Y0014944D01*
X0012844Y0014912D01*
X0012787Y0014877D01*
X0012732Y0014838D01*
X0012679Y0014797D01*
X0012629Y0014752D01*
X0012581Y0014704D01*
X0012536Y0014654D01*
X0012495Y0014601D01*
X0012456Y0014546D01*
X0012421Y0014489D01*
X0012389Y0014430D01*
X0012361Y0014369D01*
X0012336Y0014306D01*
X0012315Y0014243D01*
X0012297Y0014178D01*
X0012284Y0014112D01*
X0012274Y0014045D01*
X0012268Y0013978D01*
X0012266Y0013911D01*
X0010411Y0011600D02*
X0009256Y0011600D01*
X0009189Y0011602D01*
X0009122Y0011608D01*
X0009055Y0011618D01*
X0008989Y0011631D01*
X0008924Y0011649D01*
X0008861Y0011670D01*
X0008798Y0011695D01*
X0008737Y0011723D01*
X0008678Y0011755D01*
X0008621Y0011790D01*
X0008566Y0011829D01*
X0008513Y0011870D01*
X0008463Y0011915D01*
X0008415Y0011963D01*
X0008370Y0012013D01*
X0008329Y0012066D01*
X0008290Y0012121D01*
X0008255Y0012178D01*
X0008223Y0012237D01*
X0008195Y0012298D01*
X0008170Y0012361D01*
X0008149Y0012424D01*
X0008131Y0012489D01*
X0008118Y0012555D01*
X0008108Y0012622D01*
X0008102Y0012689D01*
X0008100Y0012756D01*
X0008100Y0015644D01*
X0008102Y0015711D01*
X0008108Y0015778D01*
X0008118Y0015845D01*
X0008131Y0015911D01*
X0008149Y0015976D01*
X0008170Y0016039D01*
X0008195Y0016102D01*
X0008223Y0016163D01*
X0008255Y0016222D01*
X0008290Y0016279D01*
X0008329Y0016334D01*
X0008370Y0016387D01*
X0008415Y0016437D01*
X0008463Y0016485D01*
X0008513Y0016530D01*
X0008566Y0016571D01*
X0008621Y0016610D01*
X0008678Y0016645D01*
X0008737Y0016677D01*
X0008798Y0016705D01*
X0008861Y0016730D01*
X0008924Y0016751D01*
X0008989Y0016769D01*
X0009055Y0016782D01*
X0009122Y0016792D01*
X0009189Y0016798D01*
X0009256Y0016800D01*
X0010411Y0016800D01*
X0009544Y0020000D02*
X0009544Y0025200D01*
X0008100Y0025200D02*
X0010989Y0025200D01*
X0012925Y0025200D02*
X0012925Y0020000D01*
X0015236Y0020000D02*
X0015236Y0022600D01*
X0015234Y0022657D01*
X0015229Y0022713D01*
X0015219Y0022769D01*
X0015206Y0022824D01*
X0015190Y0022879D01*
X0015170Y0022932D01*
X0015147Y0022983D01*
X0015120Y0023034D01*
X0015090Y0023082D01*
X0015057Y0023128D01*
X0015021Y0023172D01*
X0014982Y0023213D01*
X0014941Y0023252D01*
X0014897Y0023288D01*
X0014851Y0023321D01*
X0014802Y0023351D01*
X0014752Y0023378D01*
X0014701Y0023401D01*
X0014648Y0023421D01*
X0014593Y0023437D01*
X0014538Y0023450D01*
X0014482Y0023460D01*
X0014426Y0023465D01*
X0014369Y0023467D01*
X0012925Y0023467D01*
X0017461Y0022311D02*
X0017461Y0020867D01*
X0017461Y0021733D02*
X0019772Y0021733D01*
X0019772Y0022311D01*
X0019770Y0022378D01*
X0019764Y0022445D01*
X0019754Y0022512D01*
X0019741Y0022578D01*
X0019723Y0022643D01*
X0019702Y0022706D01*
X0019677Y0022769D01*
X0019649Y0022830D01*
X0019617Y0022889D01*
X0019582Y0022946D01*
X0019543Y0023001D01*
X0019502Y0023054D01*
X0019457Y0023104D01*
X0019409Y0023152D01*
X0019359Y0023197D01*
X0019306Y0023238D01*
X0019251Y0023277D01*
X0019194Y0023312D01*
X0019135Y0023344D01*
X0019074Y0023372D01*
X0019011Y0023397D01*
X0018948Y0023418D01*
X0018883Y0023436D01*
X0018817Y0023449D01*
X0018750Y0023459D01*
X0018683Y0023465D01*
X0018616Y0023467D01*
X0018549Y0023465D01*
X0018482Y0023459D01*
X0018415Y0023449D01*
X0018349Y0023436D01*
X0018284Y0023418D01*
X0018221Y0023397D01*
X0018158Y0023372D01*
X0018097Y0023344D01*
X0018038Y0023312D01*
X0017981Y0023277D01*
X0017926Y0023238D01*
X0017873Y0023197D01*
X0017823Y0023152D01*
X0017775Y0023104D01*
X0017730Y0023054D01*
X0017689Y0023001D01*
X0017650Y0022946D01*
X0017615Y0022889D01*
X0017583Y0022830D01*
X0017555Y0022769D01*
X0017530Y0022706D01*
X0017509Y0022643D01*
X0017491Y0022578D01*
X0017478Y0022512D01*
X0017468Y0022445D01*
X0017462Y0022378D01*
X0017460Y0022311D01*
X0017461Y0020867D02*
X0017463Y0020810D01*
X0017468Y0020754D01*
X0017478Y0020698D01*
X0017491Y0020643D01*
X0017507Y0020588D01*
X0017527Y0020535D01*
X0017550Y0020484D01*
X0017577Y0020434D01*
X0017607Y0020385D01*
X0017640Y0020339D01*
X0017676Y0020295D01*
X0017715Y0020254D01*
X0017756Y0020215D01*
X0017800Y0020179D01*
X0017846Y0020146D01*
X0017895Y0020116D01*
X0017945Y0020089D01*
X0017996Y0020066D01*
X0018049Y0020046D01*
X0018104Y0020030D01*
X0018159Y0020017D01*
X0018215Y0020007D01*
X0018271Y0020002D01*
X0018328Y0020000D01*
X0019772Y0020000D01*
X0024732Y0021444D02*
X0024732Y0025200D01*
X0027621Y0025200D02*
X0027621Y0021444D01*
X0027620Y0021444D02*
X0027618Y0021368D01*
X0027612Y0021293D01*
X0027602Y0021218D01*
X0027588Y0021144D01*
X0027571Y0021070D01*
X0027549Y0020998D01*
X0027524Y0020927D01*
X0027495Y0020857D01*
X0027463Y0020788D01*
X0027427Y0020722D01*
X0027387Y0020658D01*
X0027344Y0020595D01*
X0027298Y0020535D01*
X0027249Y0020478D01*
X0027197Y0020423D01*
X0027142Y0020371D01*
X0027085Y0020322D01*
X0027025Y0020276D01*
X0026962Y0020233D01*
X0026898Y0020193D01*
X0026832Y0020157D01*
X0026763Y0020125D01*
X0026693Y0020096D01*
X0026622Y0020071D01*
X0026550Y0020049D01*
X0026476Y0020032D01*
X0026402Y0020018D01*
X0026327Y0020008D01*
X0026252Y0020002D01*
X0026176Y0020000D01*
X0026100Y0020002D01*
X0026025Y0020008D01*
X0025950Y0020018D01*
X0025876Y0020032D01*
X0025802Y0020049D01*
X0025730Y0020071D01*
X0025659Y0020096D01*
X0025589Y0020125D01*
X0025520Y0020157D01*
X0025454Y0020193D01*
X0025390Y0020233D01*
X0025327Y0020276D01*
X0025267Y0020322D01*
X0025210Y0020371D01*
X0025155Y0020423D01*
X0025103Y0020478D01*
X0025054Y0020535D01*
X0025008Y0020595D01*
X0024965Y0020658D01*
X0024925Y0020722D01*
X0024889Y0020788D01*
X0024857Y0020857D01*
X0024828Y0020927D01*
X0024803Y0020998D01*
X0024781Y0021070D01*
X0024764Y0021144D01*
X0024750Y0021218D01*
X0024740Y0021293D01*
X0024734Y0021368D01*
X0024732Y0021444D01*
X0030061Y0020000D02*
X0030061Y0023467D01*
X0031505Y0023467D01*
X0031562Y0023465D01*
X0031618Y0023460D01*
X0031674Y0023450D01*
X0031729Y0023437D01*
X0031784Y0023421D01*
X0031837Y0023401D01*
X0031888Y0023378D01*
X0031938Y0023351D01*
X0031987Y0023321D01*
X0032033Y0023288D01*
X0032077Y0023252D01*
X0032118Y0023213D01*
X0032157Y0023172D01*
X0032193Y0023128D01*
X0032226Y0023082D01*
X0032256Y0023034D01*
X0032283Y0022983D01*
X0032306Y0022932D01*
X0032326Y0022879D01*
X0032342Y0022824D01*
X0032355Y0022769D01*
X0032365Y0022713D01*
X0032370Y0022657D01*
X0032372Y0022600D01*
X0032372Y0020000D01*
X0034572Y0020867D02*
X0034572Y0022600D01*
X0034574Y0022657D01*
X0034579Y0022713D01*
X0034589Y0022769D01*
X0034602Y0022824D01*
X0034618Y0022879D01*
X0034638Y0022932D01*
X0034661Y0022983D01*
X0034688Y0023034D01*
X0034718Y0023082D01*
X0034751Y0023128D01*
X0034787Y0023172D01*
X0034826Y0023213D01*
X0034867Y0023252D01*
X0034911Y0023288D01*
X0034957Y0023321D01*
X0035006Y0023351D01*
X0035056Y0023378D01*
X0035107Y0023401D01*
X0035160Y0023421D01*
X0035215Y0023437D01*
X0035270Y0023450D01*
X0035326Y0023460D01*
X0035382Y0023465D01*
X0035439Y0023467D01*
X0036883Y0023467D01*
X0036883Y0025200D02*
X0036883Y0020000D01*
X0035439Y0020000D01*
X0035382Y0020002D01*
X0035326Y0020007D01*
X0035270Y0020017D01*
X0035215Y0020030D01*
X0035160Y0020046D01*
X0035107Y0020066D01*
X0035056Y0020089D01*
X0035006Y0020116D01*
X0034957Y0020146D01*
X0034911Y0020179D01*
X0034867Y0020215D01*
X0034826Y0020254D01*
X0034787Y0020295D01*
X0034751Y0020339D01*
X0034718Y0020385D01*
X0034688Y0020434D01*
X0034661Y0020484D01*
X0034638Y0020535D01*
X0034618Y0020588D01*
X0034602Y0020643D01*
X0034589Y0020698D01*
X0034579Y0020754D01*
X0034574Y0020810D01*
X0034572Y0020867D01*
X0035339Y0016800D02*
X0037650Y0016800D01*
X0040000Y0020000D02*
X0041444Y0020000D01*
X0040000Y0020000D02*
X0039943Y0020002D01*
X0039887Y0020007D01*
X0039831Y0020017D01*
X0039776Y0020030D01*
X0039721Y0020046D01*
X0039668Y0020066D01*
X0039617Y0020089D01*
X0039567Y0020116D01*
X0039518Y0020146D01*
X0039472Y0020179D01*
X0039428Y0020215D01*
X0039387Y0020254D01*
X0039348Y0020295D01*
X0039312Y0020339D01*
X0039279Y0020385D01*
X0039249Y0020434D01*
X0039222Y0020484D01*
X0039199Y0020535D01*
X0039179Y0020588D01*
X0039163Y0020643D01*
X0039150Y0020698D01*
X0039140Y0020754D01*
X0039135Y0020810D01*
X0039133Y0020867D01*
X0039133Y0022311D01*
X0039133Y0021733D02*
X0041444Y0021733D01*
X0041444Y0022311D01*
X0041442Y0022378D01*
X0041436Y0022445D01*
X0041426Y0022512D01*
X0041413Y0022578D01*
X0041395Y0022643D01*
X0041374Y0022706D01*
X0041349Y0022769D01*
X0041321Y0022830D01*
X0041289Y0022889D01*
X0041254Y0022946D01*
X0041215Y0023001D01*
X0041174Y0023054D01*
X0041129Y0023104D01*
X0041081Y0023152D01*
X0041031Y0023197D01*
X0040978Y0023238D01*
X0040923Y0023277D01*
X0040866Y0023312D01*
X0040807Y0023344D01*
X0040746Y0023372D01*
X0040683Y0023397D01*
X0040620Y0023418D01*
X0040555Y0023436D01*
X0040489Y0023449D01*
X0040422Y0023459D01*
X0040355Y0023465D01*
X0040288Y0023467D01*
X0040221Y0023465D01*
X0040154Y0023459D01*
X0040087Y0023449D01*
X0040021Y0023436D01*
X0039956Y0023418D01*
X0039893Y0023397D01*
X0039830Y0023372D01*
X0039769Y0023344D01*
X0039710Y0023312D01*
X0039653Y0023277D01*
X0039598Y0023238D01*
X0039545Y0023197D01*
X0039495Y0023152D01*
X0039447Y0023104D01*
X0039402Y0023054D01*
X0039361Y0023001D01*
X0039322Y0022946D01*
X0039287Y0022889D01*
X0039255Y0022830D01*
X0039227Y0022769D01*
X0039202Y0022706D01*
X0039181Y0022643D01*
X0039163Y0022578D01*
X0039150Y0022512D01*
X0039140Y0022445D01*
X0039134Y0022378D01*
X0039132Y0022311D01*
X0043697Y0023467D02*
X0043697Y0020000D01*
X0045430Y0022889D02*
X0045430Y0023467D01*
X0043697Y0023467D01*
X0046955Y0023467D02*
X0047822Y0020000D01*
X0048688Y0022311D01*
X0049555Y0020000D01*
X0050422Y0023467D01*
X0052669Y0023467D02*
X0053825Y0023467D01*
X0053882Y0023465D01*
X0053938Y0023460D01*
X0053994Y0023450D01*
X0054049Y0023437D01*
X0054104Y0023421D01*
X0054157Y0023401D01*
X0054208Y0023378D01*
X0054259Y0023351D01*
X0054307Y0023321D01*
X0054353Y0023288D01*
X0054397Y0023252D01*
X0054438Y0023213D01*
X0054477Y0023172D01*
X0054513Y0023128D01*
X0054546Y0023082D01*
X0054576Y0023034D01*
X0054603Y0022983D01*
X0054626Y0022932D01*
X0054646Y0022879D01*
X0054662Y0022824D01*
X0054675Y0022769D01*
X0054685Y0022713D01*
X0054690Y0022657D01*
X0054692Y0022600D01*
X0054691Y0022600D02*
X0054691Y0020000D01*
X0053391Y0020000D01*
X0053329Y0020002D01*
X0053267Y0020008D01*
X0053205Y0020017D01*
X0053144Y0020031D01*
X0053085Y0020048D01*
X0053026Y0020068D01*
X0052968Y0020093D01*
X0052913Y0020120D01*
X0052859Y0020151D01*
X0052807Y0020186D01*
X0052757Y0020223D01*
X0052710Y0020264D01*
X0052665Y0020307D01*
X0052623Y0020353D01*
X0052584Y0020402D01*
X0052548Y0020453D01*
X0052515Y0020506D01*
X0052486Y0020560D01*
X0052460Y0020617D01*
X0052437Y0020675D01*
X0052419Y0020734D01*
X0052403Y0020795D01*
X0052392Y0020856D01*
X0052384Y0020918D01*
X0052380Y0020980D01*
X0052380Y0021042D01*
X0052384Y0021104D01*
X0052392Y0021166D01*
X0052403Y0021227D01*
X0052419Y0021288D01*
X0052437Y0021347D01*
X0052460Y0021405D01*
X0052486Y0021462D01*
X0052515Y0021517D01*
X0052548Y0021569D01*
X0052584Y0021620D01*
X0052623Y0021669D01*
X0052665Y0021715D01*
X0052710Y0021758D01*
X0052757Y0021799D01*
X0052807Y0021836D01*
X0052859Y0021871D01*
X0052913Y0021902D01*
X0052968Y0021929D01*
X0053026Y0021954D01*
X0053085Y0021974D01*
X0053144Y0021991D01*
X0053205Y0022005D01*
X0053267Y0022014D01*
X0053329Y0022020D01*
X0053391Y0022022D01*
X0054691Y0022022D01*
X0056519Y0023467D02*
X0058252Y0023467D01*
X0070963Y0025200D02*
X0070963Y0020000D01*
X0072407Y0022312D02*
X0072483Y0022314D01*
X0072558Y0022320D01*
X0072633Y0022330D01*
X0072707Y0022344D01*
X0072781Y0022361D01*
X0072853Y0022383D01*
X0072924Y0022408D01*
X0072994Y0022437D01*
X0073063Y0022469D01*
X0073129Y0022505D01*
X0073193Y0022545D01*
X0073256Y0022588D01*
X0073316Y0022634D01*
X0073373Y0022683D01*
X0073428Y0022735D01*
X0073480Y0022790D01*
X0073529Y0022847D01*
X0073575Y0022907D01*
X0073618Y0022970D01*
X0073658Y0023034D01*
X0073694Y0023100D01*
X0073726Y0023169D01*
X0073755Y0023239D01*
X0073780Y0023310D01*
X0073802Y0023382D01*
X0073819Y0023456D01*
X0073833Y0023530D01*
X0073843Y0023605D01*
X0073849Y0023680D01*
X0073851Y0023756D01*
X0073849Y0023832D01*
X0073843Y0023907D01*
X0073833Y0023982D01*
X0073819Y0024056D01*
X0073802Y0024130D01*
X0073780Y0024202D01*
X0073755Y0024273D01*
X0073726Y0024343D01*
X0073694Y0024412D01*
X0073658Y0024478D01*
X0073618Y0024542D01*
X0073575Y0024605D01*
X0073529Y0024665D01*
X0073480Y0024722D01*
X0073428Y0024777D01*
X0073373Y0024829D01*
X0073316Y0024878D01*
X0073256Y0024924D01*
X0073193Y0024967D01*
X0073129Y0025007D01*
X0073063Y0025043D01*
X0072994Y0025075D01*
X0072924Y0025104D01*
X0072853Y0025129D01*
X0072781Y0025151D01*
X0072707Y0025168D01*
X0072633Y0025182D01*
X0072558Y0025192D01*
X0072483Y0025198D01*
X0072407Y0025200D01*
X0070963Y0025200D01*
X0070233Y0015067D02*
X0070290Y0015065D01*
X0070346Y0015060D01*
X0070402Y0015050D01*
X0070457Y0015037D01*
X0070512Y0015021D01*
X0070565Y0015001D01*
X0070616Y0014978D01*
X0070667Y0014951D01*
X0070715Y0014921D01*
X0070761Y0014888D01*
X0070805Y0014852D01*
X0070846Y0014813D01*
X0070885Y0014772D01*
X0070921Y0014728D01*
X0070954Y0014682D01*
X0070984Y0014634D01*
X0071011Y0014583D01*
X0071034Y0014532D01*
X0071054Y0014479D01*
X0071070Y0014424D01*
X0071083Y0014369D01*
X0071093Y0014313D01*
X0071098Y0014257D01*
X0071100Y0014200D01*
X0083000Y0014200D02*
X0083000Y0012467D01*
X0083002Y0012410D01*
X0083007Y0012354D01*
X0083017Y0012298D01*
X0083030Y0012243D01*
X0083046Y0012188D01*
X0083066Y0012135D01*
X0083089Y0012084D01*
X0083116Y0012034D01*
X0083146Y0011985D01*
X0083179Y0011939D01*
X0083215Y0011895D01*
X0083254Y0011854D01*
X0083295Y0011815D01*
X0083339Y0011779D01*
X0083385Y0011746D01*
X0083434Y0011716D01*
X0083484Y0011689D01*
X0083535Y0011666D01*
X0083588Y0011646D01*
X0083643Y0011630D01*
X0083698Y0011617D01*
X0083754Y0011607D01*
X0083810Y0011602D01*
X0083867Y0011600D01*
X0085022Y0011600D01*
X0086859Y0012467D02*
X0086859Y0013911D01*
X0086859Y0013333D02*
X0089170Y0013333D01*
X0089170Y0013911D01*
X0089168Y0013978D01*
X0089162Y0014045D01*
X0089152Y0014112D01*
X0089139Y0014178D01*
X0089121Y0014243D01*
X0089100Y0014306D01*
X0089075Y0014369D01*
X0089047Y0014430D01*
X0089015Y0014489D01*
X0088980Y0014546D01*
X0088941Y0014601D01*
X0088900Y0014654D01*
X0088855Y0014704D01*
X0088807Y0014752D01*
X0088757Y0014797D01*
X0088704Y0014838D01*
X0088649Y0014877D01*
X0088592Y0014912D01*
X0088533Y0014944D01*
X0088472Y0014972D01*
X0088409Y0014997D01*
X0088346Y0015018D01*
X0088281Y0015036D01*
X0088215Y0015049D01*
X0088148Y0015059D01*
X0088081Y0015065D01*
X0088014Y0015067D01*
X0087947Y0015065D01*
X0087880Y0015059D01*
X0087813Y0015049D01*
X0087747Y0015036D01*
X0087682Y0015018D01*
X0087619Y0014997D01*
X0087556Y0014972D01*
X0087495Y0014944D01*
X0087436Y0014912D01*
X0087379Y0014877D01*
X0087324Y0014838D01*
X0087271Y0014797D01*
X0087221Y0014752D01*
X0087173Y0014704D01*
X0087128Y0014654D01*
X0087087Y0014601D01*
X0087048Y0014546D01*
X0087013Y0014489D01*
X0086981Y0014430D01*
X0086953Y0014369D01*
X0086928Y0014306D01*
X0086907Y0014243D01*
X0086889Y0014178D01*
X0086876Y0014112D01*
X0086866Y0014045D01*
X0086860Y0013978D01*
X0086858Y0013911D01*
X0086858Y0012467D02*
X0086860Y0012410D01*
X0086865Y0012354D01*
X0086875Y0012298D01*
X0086888Y0012243D01*
X0086904Y0012188D01*
X0086924Y0012135D01*
X0086947Y0012084D01*
X0086974Y0012034D01*
X0087004Y0011985D01*
X0087037Y0011939D01*
X0087073Y0011895D01*
X0087112Y0011854D01*
X0087153Y0011815D01*
X0087197Y0011779D01*
X0087243Y0011746D01*
X0087292Y0011716D01*
X0087342Y0011689D01*
X0087393Y0011666D01*
X0087446Y0011646D01*
X0087501Y0011630D01*
X0087556Y0011617D01*
X0087612Y0011607D01*
X0087668Y0011602D01*
X0087725Y0011600D01*
X0089170Y0011600D01*
X0085022Y0015067D02*
X0083867Y0015067D01*
X0083810Y0015065D01*
X0083754Y0015060D01*
X0083698Y0015050D01*
X0083643Y0015037D01*
X0083588Y0015021D01*
X0083535Y0015001D01*
X0083484Y0014978D01*
X0083434Y0014951D01*
X0083385Y0014921D01*
X0083339Y0014888D01*
X0083295Y0014852D01*
X0083254Y0014813D01*
X0083215Y0014772D01*
X0083179Y0014728D01*
X0083146Y0014682D01*
X0083116Y0014634D01*
X0083089Y0014583D01*
X0083066Y0014532D01*
X0083046Y0014479D01*
X0083030Y0014424D01*
X0083017Y0014369D01*
X0083007Y0014313D01*
X0083002Y0014257D01*
X0083000Y0014200D01*
X0084829Y0021156D02*
X0084829Y0022311D01*
X0084828Y0022311D02*
X0084830Y0022378D01*
X0084836Y0022445D01*
X0084846Y0022512D01*
X0084859Y0022578D01*
X0084877Y0022643D01*
X0084898Y0022706D01*
X0084923Y0022769D01*
X0084951Y0022830D01*
X0084983Y0022889D01*
X0085018Y0022946D01*
X0085057Y0023001D01*
X0085098Y0023054D01*
X0085143Y0023104D01*
X0085191Y0023152D01*
X0085241Y0023197D01*
X0085294Y0023238D01*
X0085349Y0023277D01*
X0085406Y0023312D01*
X0085465Y0023344D01*
X0085526Y0023372D01*
X0085589Y0023397D01*
X0085652Y0023418D01*
X0085717Y0023436D01*
X0085783Y0023449D01*
X0085850Y0023459D01*
X0085917Y0023465D01*
X0085984Y0023467D01*
X0086051Y0023465D01*
X0086118Y0023459D01*
X0086185Y0023449D01*
X0086251Y0023436D01*
X0086316Y0023418D01*
X0086379Y0023397D01*
X0086442Y0023372D01*
X0086503Y0023344D01*
X0086562Y0023312D01*
X0086619Y0023277D01*
X0086674Y0023238D01*
X0086727Y0023197D01*
X0086777Y0023152D01*
X0086825Y0023104D01*
X0086870Y0023054D01*
X0086911Y0023001D01*
X0086950Y0022946D01*
X0086985Y0022889D01*
X0087017Y0022830D01*
X0087045Y0022769D01*
X0087070Y0022706D01*
X0087091Y0022643D01*
X0087109Y0022578D01*
X0087122Y0022512D01*
X0087132Y0022445D01*
X0087138Y0022378D01*
X0087140Y0022311D01*
X0087140Y0021156D01*
X0087138Y0021089D01*
X0087132Y0021022D01*
X0087122Y0020955D01*
X0087109Y0020889D01*
X0087091Y0020824D01*
X0087070Y0020761D01*
X0087045Y0020698D01*
X0087017Y0020637D01*
X0086985Y0020578D01*
X0086950Y0020521D01*
X0086911Y0020466D01*
X0086870Y0020413D01*
X0086825Y0020363D01*
X0086777Y0020315D01*
X0086727Y0020270D01*
X0086674Y0020229D01*
X0086619Y0020190D01*
X0086562Y0020155D01*
X0086503Y0020123D01*
X0086442Y0020095D01*
X0086379Y0020070D01*
X0086316Y0020049D01*
X0086251Y0020031D01*
X0086185Y0020018D01*
X0086118Y0020008D01*
X0086051Y0020002D01*
X0085984Y0020000D01*
X0085917Y0020002D01*
X0085850Y0020008D01*
X0085783Y0020018D01*
X0085717Y0020031D01*
X0085652Y0020049D01*
X0085589Y0020070D01*
X0085526Y0020095D01*
X0085465Y0020123D01*
X0085406Y0020155D01*
X0085349Y0020190D01*
X0085294Y0020229D01*
X0085241Y0020270D01*
X0085191Y0020315D01*
X0085143Y0020363D01*
X0085098Y0020413D01*
X0085057Y0020466D01*
X0085018Y0020521D01*
X0084983Y0020578D01*
X0084951Y0020637D01*
X0084923Y0020698D01*
X0084898Y0020761D01*
X0084877Y0020824D01*
X0084859Y0020889D01*
X0084846Y0020955D01*
X0084836Y0021022D01*
X0084830Y0021089D01*
X0084828Y0021156D01*
X0089353Y0020867D02*
X0089353Y0025200D01*
X0088775Y0023467D02*
X0090508Y0023467D01*
X0092368Y0023467D02*
X0092368Y0020000D01*
X0090508Y0020000D02*
X0090220Y0020000D01*
X0090163Y0020002D01*
X0090107Y0020007D01*
X0090051Y0020017D01*
X0089996Y0020030D01*
X0089941Y0020046D01*
X0089888Y0020066D01*
X0089837Y0020089D01*
X0089787Y0020116D01*
X0089738Y0020146D01*
X0089692Y0020179D01*
X0089648Y0020215D01*
X0089607Y0020254D01*
X0089568Y0020295D01*
X0089532Y0020339D01*
X0089499Y0020385D01*
X0089469Y0020433D01*
X0089442Y0020484D01*
X0089419Y0020535D01*
X0089399Y0020588D01*
X0089383Y0020643D01*
X0089370Y0020698D01*
X0089360Y0020754D01*
X0089355Y0020810D01*
X0089353Y0020867D01*
X0092224Y0024911D02*
X0092513Y0024911D01*
X0092513Y0025200D01*
X0092224Y0025200D01*
X0092224Y0024911D01*
X0094410Y0022600D02*
X0094410Y0020867D01*
X0094412Y0020810D01*
X0094417Y0020754D01*
X0094427Y0020698D01*
X0094440Y0020643D01*
X0094456Y0020588D01*
X0094476Y0020535D01*
X0094499Y0020484D01*
X0094526Y0020434D01*
X0094556Y0020385D01*
X0094589Y0020339D01*
X0094625Y0020295D01*
X0094664Y0020254D01*
X0094705Y0020215D01*
X0094749Y0020179D01*
X0094795Y0020146D01*
X0094844Y0020116D01*
X0094894Y0020089D01*
X0094945Y0020066D01*
X0094998Y0020046D01*
X0095053Y0020030D01*
X0095108Y0020017D01*
X0095164Y0020007D01*
X0095220Y0020002D01*
X0095277Y0020000D01*
X0096433Y0020000D01*
X0098991Y0023467D02*
X0099103Y0023463D01*
X0099214Y0023456D01*
X0099325Y0023445D01*
X0099436Y0023430D01*
X0099546Y0023411D01*
X0099656Y0023389D01*
X0099764Y0023363D01*
X0099872Y0023333D01*
X0099979Y0023300D01*
X0100084Y0023263D01*
X0100188Y0023222D01*
X0100291Y0023178D01*
X0098991Y0023467D02*
X0098937Y0023466D01*
X0098884Y0023461D01*
X0098832Y0023452D01*
X0098780Y0023440D01*
X0098729Y0023424D01*
X0098680Y0023404D01*
X0098632Y0023381D01*
X0098585Y0023355D01*
X0098541Y0023325D01*
X0098499Y0023292D01*
X0098459Y0023256D01*
X0098422Y0023218D01*
X0098388Y0023177D01*
X0098357Y0023134D01*
X0098329Y0023089D01*
X0098304Y0023041D01*
X0098283Y0022993D01*
X0098265Y0022942D01*
X0098251Y0022891D01*
X0098241Y0022839D01*
X0098234Y0022786D01*
X0098231Y0022733D01*
X0098232Y0022679D01*
X0098237Y0022626D01*
X0098245Y0022574D01*
X0098257Y0022522D01*
X0098273Y0022471D01*
X0098292Y0022421D01*
X0098315Y0022373D01*
X0098341Y0022327D01*
X0098371Y0022282D01*
X0098403Y0022240D01*
X0098439Y0022200D01*
X0098477Y0022163D01*
X0098518Y0022129D01*
X0098561Y0022097D01*
X0098606Y0022069D01*
X0098653Y0022044D01*
X0098702Y0022023D01*
X0098702Y0022022D02*
X0100147Y0021444D01*
X0100146Y0021444D02*
X0100195Y0021423D01*
X0100242Y0021398D01*
X0100287Y0021370D01*
X0100330Y0021338D01*
X0100371Y0021304D01*
X0100409Y0021267D01*
X0100445Y0021227D01*
X0100477Y0021185D01*
X0100507Y0021140D01*
X0100533Y0021094D01*
X0100556Y0021046D01*
X0100575Y0020996D01*
X0100591Y0020945D01*
X0100603Y0020893D01*
X0100611Y0020841D01*
X0100616Y0020788D01*
X0100617Y0020734D01*
X0100614Y0020681D01*
X0100607Y0020628D01*
X0100597Y0020576D01*
X0100583Y0020525D01*
X0100565Y0020474D01*
X0100544Y0020426D01*
X0100519Y0020378D01*
X0100491Y0020333D01*
X0100460Y0020290D01*
X0100426Y0020249D01*
X0100389Y0020211D01*
X0100349Y0020175D01*
X0100307Y0020142D01*
X0100263Y0020112D01*
X0100216Y0020086D01*
X0100168Y0020063D01*
X0100119Y0020043D01*
X0100068Y0020027D01*
X0100016Y0020015D01*
X0099964Y0020006D01*
X0099911Y0020001D01*
X0099857Y0020000D01*
X0096433Y0023467D02*
X0095277Y0023467D01*
X0095220Y0023465D01*
X0095164Y0023460D01*
X0095108Y0023450D01*
X0095053Y0023437D01*
X0094998Y0023421D01*
X0094945Y0023401D01*
X0094894Y0023378D01*
X0094844Y0023351D01*
X0094795Y0023321D01*
X0094749Y0023288D01*
X0094705Y0023252D01*
X0094664Y0023213D01*
X0094625Y0023172D01*
X0094589Y0023128D01*
X0094556Y0023082D01*
X0094526Y0023034D01*
X0094499Y0022983D01*
X0094476Y0022932D01*
X0094456Y0022879D01*
X0094440Y0022824D01*
X0094427Y0022769D01*
X0094417Y0022713D01*
X0094412Y0022657D01*
X0094410Y0022600D01*
X0094160Y0016800D02*
X0095605Y0016800D01*
X0095681Y0016798D01*
X0095756Y0016792D01*
X0095831Y0016782D01*
X0095905Y0016768D01*
X0095979Y0016751D01*
X0096051Y0016729D01*
X0096122Y0016704D01*
X0096192Y0016675D01*
X0096261Y0016643D01*
X0096327Y0016607D01*
X0096391Y0016567D01*
X0096454Y0016524D01*
X0096514Y0016478D01*
X0096571Y0016429D01*
X0096626Y0016377D01*
X0096678Y0016322D01*
X0096727Y0016265D01*
X0096773Y0016205D01*
X0096816Y0016142D01*
X0096856Y0016078D01*
X0096892Y0016012D01*
X0096924Y0015943D01*
X0096953Y0015873D01*
X0096978Y0015802D01*
X0097000Y0015730D01*
X0097017Y0015656D01*
X0097031Y0015582D01*
X0097041Y0015507D01*
X0097047Y0015432D01*
X0097049Y0015356D01*
X0097047Y0015280D01*
X0097041Y0015205D01*
X0097031Y0015130D01*
X0097017Y0015056D01*
X0097000Y0014982D01*
X0096978Y0014910D01*
X0096953Y0014839D01*
X0096924Y0014769D01*
X0096892Y0014700D01*
X0096856Y0014634D01*
X0096816Y0014570D01*
X0096773Y0014507D01*
X0096727Y0014447D01*
X0096678Y0014390D01*
X0096626Y0014335D01*
X0096571Y0014283D01*
X0096514Y0014234D01*
X0096454Y0014188D01*
X0096391Y0014145D01*
X0096327Y0014105D01*
X0096261Y0014069D01*
X0096192Y0014037D01*
X0096122Y0014008D01*
X0096051Y0013983D01*
X0095979Y0013961D01*
X0095905Y0013944D01*
X0095831Y0013930D01*
X0095756Y0013920D01*
X0095681Y0013914D01*
X0095605Y0013912D01*
X0095605Y0013911D02*
X0094160Y0013911D01*
X0095894Y0013911D02*
X0097049Y0011600D01*
X0099123Y0012467D02*
X0099123Y0013911D01*
X0099123Y0013333D02*
X0101434Y0013333D01*
X0101434Y0013911D01*
X0101432Y0013978D01*
X0101426Y0014045D01*
X0101416Y0014112D01*
X0101403Y0014178D01*
X0101385Y0014243D01*
X0101364Y0014306D01*
X0101339Y0014369D01*
X0101311Y0014430D01*
X0101279Y0014489D01*
X0101244Y0014546D01*
X0101205Y0014601D01*
X0101164Y0014654D01*
X0101119Y0014704D01*
X0101071Y0014752D01*
X0101021Y0014797D01*
X0100968Y0014838D01*
X0100913Y0014877D01*
X0100856Y0014912D01*
X0100797Y0014944D01*
X0100736Y0014972D01*
X0100673Y0014997D01*
X0100610Y0015018D01*
X0100545Y0015036D01*
X0100479Y0015049D01*
X0100412Y0015059D01*
X0100345Y0015065D01*
X0100278Y0015067D01*
X0100211Y0015065D01*
X0100144Y0015059D01*
X0100077Y0015049D01*
X0100011Y0015036D01*
X0099946Y0015018D01*
X0099883Y0014997D01*
X0099820Y0014972D01*
X0099759Y0014944D01*
X0099700Y0014912D01*
X0099643Y0014877D01*
X0099588Y0014838D01*
X0099535Y0014797D01*
X0099485Y0014752D01*
X0099437Y0014704D01*
X0099392Y0014654D01*
X0099351Y0014601D01*
X0099312Y0014546D01*
X0099277Y0014489D01*
X0099245Y0014430D01*
X0099217Y0014369D01*
X0099192Y0014306D01*
X0099171Y0014243D01*
X0099153Y0014178D01*
X0099140Y0014112D01*
X0099130Y0014045D01*
X0099124Y0013978D01*
X0099122Y0013911D01*
X0099122Y0012467D02*
X0099124Y0012410D01*
X0099129Y0012354D01*
X0099139Y0012298D01*
X0099152Y0012243D01*
X0099168Y0012188D01*
X0099188Y0012135D01*
X0099211Y0012084D01*
X0099238Y0012034D01*
X0099268Y0011985D01*
X0099301Y0011939D01*
X0099337Y0011895D01*
X0099376Y0011854D01*
X0099417Y0011815D01*
X0099461Y0011779D01*
X0099507Y0011746D01*
X0099556Y0011716D01*
X0099606Y0011689D01*
X0099657Y0011666D01*
X0099710Y0011646D01*
X0099765Y0011630D01*
X0099820Y0011617D01*
X0099876Y0011607D01*
X0099932Y0011602D01*
X0099989Y0011600D01*
X0101434Y0011600D01*
X0104213Y0015067D02*
X0104325Y0015063D01*
X0104436Y0015056D01*
X0104547Y0015045D01*
X0104658Y0015030D01*
X0104768Y0015011D01*
X0104878Y0014989D01*
X0104986Y0014963D01*
X0105094Y0014933D01*
X0105201Y0014900D01*
X0105306Y0014863D01*
X0105410Y0014822D01*
X0105513Y0014778D01*
X0104213Y0015067D02*
X0104159Y0015066D01*
X0104106Y0015061D01*
X0104054Y0015052D01*
X0104002Y0015040D01*
X0103951Y0015024D01*
X0103902Y0015004D01*
X0103854Y0014981D01*
X0103807Y0014955D01*
X0103763Y0014925D01*
X0103721Y0014892D01*
X0103681Y0014856D01*
X0103644Y0014818D01*
X0103610Y0014777D01*
X0103579Y0014734D01*
X0103551Y0014689D01*
X0103526Y0014641D01*
X0103505Y0014593D01*
X0103487Y0014542D01*
X0103473Y0014491D01*
X0103463Y0014439D01*
X0103456Y0014386D01*
X0103453Y0014333D01*
X0103454Y0014279D01*
X0103459Y0014226D01*
X0103467Y0014174D01*
X0103479Y0014122D01*
X0103495Y0014071D01*
X0103514Y0014021D01*
X0103537Y0013973D01*
X0103563Y0013927D01*
X0103593Y0013882D01*
X0103625Y0013840D01*
X0103661Y0013800D01*
X0103699Y0013763D01*
X0103740Y0013729D01*
X0103783Y0013697D01*
X0103828Y0013669D01*
X0103875Y0013644D01*
X0103924Y0013623D01*
X0103924Y0013622D02*
X0105368Y0013044D01*
X0105417Y0013023D01*
X0105464Y0012998D01*
X0105509Y0012970D01*
X0105552Y0012938D01*
X0105593Y0012904D01*
X0105631Y0012867D01*
X0105667Y0012827D01*
X0105699Y0012785D01*
X0105729Y0012740D01*
X0105755Y0012694D01*
X0105778Y0012646D01*
X0105797Y0012596D01*
X0105813Y0012545D01*
X0105825Y0012493D01*
X0105833Y0012441D01*
X0105838Y0012388D01*
X0105839Y0012334D01*
X0105836Y0012281D01*
X0105829Y0012228D01*
X0105819Y0012176D01*
X0105805Y0012125D01*
X0105787Y0012074D01*
X0105766Y0012026D01*
X0105741Y0011978D01*
X0105713Y0011933D01*
X0105682Y0011890D01*
X0105648Y0011849D01*
X0105611Y0011811D01*
X0105571Y0011775D01*
X0105529Y0011742D01*
X0105485Y0011712D01*
X0105438Y0011686D01*
X0105390Y0011663D01*
X0105341Y0011643D01*
X0105290Y0011627D01*
X0105238Y0011615D01*
X0105186Y0011606D01*
X0105133Y0011601D01*
X0105079Y0011600D01*
X0107859Y0012467D02*
X0107859Y0013911D01*
X0107859Y0013333D02*
X0110170Y0013333D01*
X0110170Y0013911D01*
X0110168Y0013978D01*
X0110162Y0014045D01*
X0110152Y0014112D01*
X0110139Y0014178D01*
X0110121Y0014243D01*
X0110100Y0014306D01*
X0110075Y0014369D01*
X0110047Y0014430D01*
X0110015Y0014489D01*
X0109980Y0014546D01*
X0109941Y0014601D01*
X0109900Y0014654D01*
X0109855Y0014704D01*
X0109807Y0014752D01*
X0109757Y0014797D01*
X0109704Y0014838D01*
X0109649Y0014877D01*
X0109592Y0014912D01*
X0109533Y0014944D01*
X0109472Y0014972D01*
X0109409Y0014997D01*
X0109346Y0015018D01*
X0109281Y0015036D01*
X0109215Y0015049D01*
X0109148Y0015059D01*
X0109081Y0015065D01*
X0109014Y0015067D01*
X0108947Y0015065D01*
X0108880Y0015059D01*
X0108813Y0015049D01*
X0108747Y0015036D01*
X0108682Y0015018D01*
X0108619Y0014997D01*
X0108556Y0014972D01*
X0108495Y0014944D01*
X0108436Y0014912D01*
X0108379Y0014877D01*
X0108324Y0014838D01*
X0108271Y0014797D01*
X0108221Y0014752D01*
X0108173Y0014704D01*
X0108128Y0014654D01*
X0108087Y0014601D01*
X0108048Y0014546D01*
X0108013Y0014489D01*
X0107981Y0014430D01*
X0107953Y0014369D01*
X0107928Y0014306D01*
X0107907Y0014243D01*
X0107889Y0014178D01*
X0107876Y0014112D01*
X0107866Y0014045D01*
X0107860Y0013978D01*
X0107858Y0013911D01*
X0107858Y0012467D02*
X0107860Y0012410D01*
X0107865Y0012354D01*
X0107875Y0012298D01*
X0107888Y0012243D01*
X0107904Y0012188D01*
X0107924Y0012135D01*
X0107947Y0012084D01*
X0107974Y0012034D01*
X0108004Y0011985D01*
X0108037Y0011939D01*
X0108073Y0011895D01*
X0108112Y0011854D01*
X0108153Y0011815D01*
X0108197Y0011779D01*
X0108243Y0011746D01*
X0108292Y0011716D01*
X0108342Y0011689D01*
X0108393Y0011666D01*
X0108446Y0011646D01*
X0108501Y0011630D01*
X0108556Y0011617D01*
X0108612Y0011607D01*
X0108668Y0011602D01*
X0108725Y0011600D01*
X0110170Y0011600D01*
X0113213Y0011600D02*
X0114513Y0011600D01*
X0114513Y0014200D01*
X0114513Y0013622D02*
X0113213Y0013622D01*
X0114513Y0014200D02*
X0114511Y0014257D01*
X0114506Y0014313D01*
X0114496Y0014369D01*
X0114483Y0014424D01*
X0114467Y0014479D01*
X0114447Y0014532D01*
X0114424Y0014583D01*
X0114397Y0014634D01*
X0114367Y0014682D01*
X0114334Y0014728D01*
X0114298Y0014772D01*
X0114259Y0014813D01*
X0114218Y0014852D01*
X0114174Y0014888D01*
X0114128Y0014921D01*
X0114080Y0014951D01*
X0114029Y0014978D01*
X0113978Y0015001D01*
X0113925Y0015021D01*
X0113870Y0015037D01*
X0113815Y0015050D01*
X0113759Y0015060D01*
X0113703Y0015065D01*
X0113646Y0015067D01*
X0112491Y0015067D01*
X0113213Y0013622D02*
X0113151Y0013620D01*
X0113089Y0013614D01*
X0113027Y0013605D01*
X0112966Y0013591D01*
X0112907Y0013574D01*
X0112848Y0013554D01*
X0112790Y0013529D01*
X0112735Y0013502D01*
X0112681Y0013471D01*
X0112629Y0013436D01*
X0112579Y0013399D01*
X0112532Y0013358D01*
X0112487Y0013315D01*
X0112445Y0013269D01*
X0112406Y0013220D01*
X0112370Y0013169D01*
X0112337Y0013117D01*
X0112308Y0013062D01*
X0112282Y0013005D01*
X0112259Y0012947D01*
X0112241Y0012888D01*
X0112225Y0012827D01*
X0112214Y0012766D01*
X0112206Y0012704D01*
X0112202Y0012642D01*
X0112202Y0012580D01*
X0112206Y0012518D01*
X0112214Y0012456D01*
X0112225Y0012395D01*
X0112241Y0012334D01*
X0112259Y0012275D01*
X0112282Y0012217D01*
X0112308Y0012160D01*
X0112337Y0012106D01*
X0112370Y0012053D01*
X0112406Y0012002D01*
X0112445Y0011953D01*
X0112487Y0011907D01*
X0112532Y0011864D01*
X0112579Y0011823D01*
X0112629Y0011786D01*
X0112681Y0011751D01*
X0112735Y0011720D01*
X0112790Y0011693D01*
X0112848Y0011668D01*
X0112907Y0011648D01*
X0112966Y0011631D01*
X0113027Y0011617D01*
X0113089Y0011608D01*
X0113151Y0011602D01*
X0113213Y0011600D01*
X0116958Y0011600D02*
X0116958Y0015067D01*
X0118692Y0015067D01*
X0118692Y0014489D01*
X0120296Y0014200D02*
X0120296Y0012467D01*
X0120298Y0012410D01*
X0120303Y0012354D01*
X0120313Y0012298D01*
X0120326Y0012243D01*
X0120342Y0012188D01*
X0120362Y0012135D01*
X0120385Y0012084D01*
X0120412Y0012034D01*
X0120442Y0011985D01*
X0120475Y0011939D01*
X0120511Y0011895D01*
X0120550Y0011854D01*
X0120591Y0011815D01*
X0120635Y0011779D01*
X0120681Y0011746D01*
X0120730Y0011716D01*
X0120780Y0011689D01*
X0120831Y0011666D01*
X0120884Y0011646D01*
X0120939Y0011630D01*
X0120994Y0011617D01*
X0121050Y0011607D01*
X0121106Y0011602D01*
X0121163Y0011600D01*
X0122318Y0011600D01*
X0124323Y0011600D02*
X0124323Y0016800D01*
X0124323Y0015067D02*
X0125767Y0015067D01*
X0125824Y0015065D01*
X0125880Y0015060D01*
X0125936Y0015050D01*
X0125991Y0015037D01*
X0126046Y0015021D01*
X0126099Y0015001D01*
X0126150Y0014978D01*
X0126200Y0014951D01*
X0126249Y0014921D01*
X0126295Y0014888D01*
X0126339Y0014852D01*
X0126380Y0014813D01*
X0126419Y0014772D01*
X0126455Y0014728D01*
X0126488Y0014682D01*
X0126518Y0014634D01*
X0126545Y0014583D01*
X0126568Y0014532D01*
X0126588Y0014479D01*
X0126604Y0014424D01*
X0126617Y0014369D01*
X0126627Y0014313D01*
X0126632Y0014257D01*
X0126634Y0014200D01*
X0126634Y0011600D01*
X0122318Y0015067D02*
X0121163Y0015067D01*
X0121106Y0015065D01*
X0121050Y0015060D01*
X0120994Y0015050D01*
X0120939Y0015037D01*
X0120884Y0015021D01*
X0120831Y0015001D01*
X0120780Y0014978D01*
X0120730Y0014951D01*
X0120681Y0014921D01*
X0120635Y0014888D01*
X0120591Y0014852D01*
X0120550Y0014813D01*
X0120511Y0014772D01*
X0120475Y0014728D01*
X0120442Y0014682D01*
X0120412Y0014634D01*
X0120385Y0014583D01*
X0120362Y0014532D01*
X0120342Y0014479D01*
X0120326Y0014424D01*
X0120313Y0014369D01*
X0120303Y0014313D01*
X0120298Y0014257D01*
X0120296Y0014200D01*
X0120592Y0020000D02*
X0120592Y0023467D01*
X0121459Y0023467D02*
X0118859Y0023467D01*
X0118859Y0020000D01*
X0116347Y0020000D02*
X0116347Y0022600D01*
X0116347Y0022022D02*
X0115047Y0022022D01*
X0116348Y0022600D02*
X0116346Y0022657D01*
X0116341Y0022713D01*
X0116331Y0022769D01*
X0116318Y0022824D01*
X0116302Y0022879D01*
X0116282Y0022932D01*
X0116259Y0022983D01*
X0116232Y0023034D01*
X0116202Y0023082D01*
X0116169Y0023128D01*
X0116133Y0023172D01*
X0116094Y0023213D01*
X0116053Y0023252D01*
X0116009Y0023288D01*
X0115963Y0023321D01*
X0115915Y0023351D01*
X0115864Y0023378D01*
X0115813Y0023401D01*
X0115760Y0023421D01*
X0115705Y0023437D01*
X0115650Y0023450D01*
X0115594Y0023460D01*
X0115538Y0023465D01*
X0115481Y0023467D01*
X0114325Y0023467D01*
X0115047Y0022022D02*
X0114985Y0022020D01*
X0114923Y0022014D01*
X0114861Y0022005D01*
X0114800Y0021991D01*
X0114741Y0021974D01*
X0114682Y0021954D01*
X0114624Y0021929D01*
X0114569Y0021902D01*
X0114515Y0021871D01*
X0114463Y0021836D01*
X0114413Y0021799D01*
X0114366Y0021758D01*
X0114321Y0021715D01*
X0114279Y0021669D01*
X0114240Y0021620D01*
X0114204Y0021569D01*
X0114171Y0021517D01*
X0114142Y0021462D01*
X0114116Y0021405D01*
X0114093Y0021347D01*
X0114075Y0021288D01*
X0114059Y0021227D01*
X0114048Y0021166D01*
X0114040Y0021104D01*
X0114036Y0021042D01*
X0114036Y0020980D01*
X0114040Y0020918D01*
X0114048Y0020856D01*
X0114059Y0020795D01*
X0114075Y0020734D01*
X0114093Y0020675D01*
X0114116Y0020617D01*
X0114142Y0020560D01*
X0114171Y0020506D01*
X0114204Y0020453D01*
X0114240Y0020402D01*
X0114279Y0020353D01*
X0114321Y0020307D01*
X0114366Y0020264D01*
X0114413Y0020223D01*
X0114463Y0020186D01*
X0114515Y0020151D01*
X0114569Y0020120D01*
X0114624Y0020093D01*
X0114682Y0020068D01*
X0114741Y0020048D01*
X0114800Y0020031D01*
X0114861Y0020017D01*
X0114923Y0020008D01*
X0114985Y0020002D01*
X0115047Y0020000D01*
X0116347Y0020000D01*
X0112004Y0020000D02*
X0110559Y0020000D01*
X0110502Y0020002D01*
X0110446Y0020007D01*
X0110390Y0020017D01*
X0110335Y0020030D01*
X0110280Y0020046D01*
X0110227Y0020066D01*
X0110176Y0020089D01*
X0110126Y0020116D01*
X0110077Y0020146D01*
X0110031Y0020179D01*
X0109987Y0020215D01*
X0109946Y0020254D01*
X0109907Y0020295D01*
X0109871Y0020339D01*
X0109838Y0020385D01*
X0109808Y0020434D01*
X0109781Y0020484D01*
X0109758Y0020535D01*
X0109738Y0020588D01*
X0109722Y0020643D01*
X0109709Y0020698D01*
X0109699Y0020754D01*
X0109694Y0020810D01*
X0109692Y0020867D01*
X0109693Y0020867D02*
X0109693Y0022311D01*
X0109693Y0021733D02*
X0112004Y0021733D01*
X0112004Y0022311D01*
X0112002Y0022378D01*
X0111996Y0022445D01*
X0111986Y0022512D01*
X0111973Y0022578D01*
X0111955Y0022643D01*
X0111934Y0022706D01*
X0111909Y0022769D01*
X0111881Y0022830D01*
X0111849Y0022889D01*
X0111814Y0022946D01*
X0111775Y0023001D01*
X0111734Y0023054D01*
X0111689Y0023104D01*
X0111641Y0023152D01*
X0111591Y0023197D01*
X0111538Y0023238D01*
X0111483Y0023277D01*
X0111426Y0023312D01*
X0111367Y0023344D01*
X0111306Y0023372D01*
X0111243Y0023397D01*
X0111180Y0023418D01*
X0111115Y0023436D01*
X0111049Y0023449D01*
X0110982Y0023459D01*
X0110915Y0023465D01*
X0110848Y0023467D01*
X0110781Y0023465D01*
X0110714Y0023459D01*
X0110647Y0023449D01*
X0110581Y0023436D01*
X0110516Y0023418D01*
X0110453Y0023397D01*
X0110390Y0023372D01*
X0110329Y0023344D01*
X0110270Y0023312D01*
X0110213Y0023277D01*
X0110158Y0023238D01*
X0110105Y0023197D01*
X0110055Y0023152D01*
X0110007Y0023104D01*
X0109962Y0023054D01*
X0109921Y0023001D01*
X0109882Y0022946D01*
X0109847Y0022889D01*
X0109815Y0022830D01*
X0109787Y0022769D01*
X0109762Y0022706D01*
X0109741Y0022643D01*
X0109723Y0022578D01*
X0109710Y0022512D01*
X0109700Y0022445D01*
X0109694Y0022378D01*
X0109692Y0022311D01*
X0107925Y0025200D02*
X0105036Y0025200D01*
X0106480Y0025200D02*
X0106480Y0020000D01*
X0105080Y0011600D02*
X0104945Y0011603D01*
X0104810Y0011611D01*
X0104675Y0011622D01*
X0104541Y0011637D01*
X0104407Y0011656D01*
X0104273Y0011678D01*
X0104141Y0011704D01*
X0104009Y0011734D01*
X0103878Y0011767D01*
X0103748Y0011804D01*
X0103619Y0011844D01*
X0103491Y0011888D01*
X0094160Y0011600D02*
X0094160Y0016800D01*
X0098269Y0020288D02*
X0098397Y0020244D01*
X0098526Y0020204D01*
X0098656Y0020167D01*
X0098787Y0020134D01*
X0098919Y0020104D01*
X0099051Y0020078D01*
X0099185Y0020056D01*
X0099319Y0020037D01*
X0099453Y0020022D01*
X0099588Y0020011D01*
X0099723Y0020003D01*
X0099858Y0020000D01*
X0121459Y0023467D02*
X0121516Y0023465D01*
X0121572Y0023460D01*
X0121628Y0023450D01*
X0121683Y0023437D01*
X0121738Y0023421D01*
X0121791Y0023401D01*
X0121842Y0023378D01*
X0121893Y0023351D01*
X0121941Y0023321D01*
X0121987Y0023288D01*
X0122031Y0023252D01*
X0122072Y0023213D01*
X0122111Y0023172D01*
X0122147Y0023128D01*
X0122180Y0023082D01*
X0122210Y0023034D01*
X0122237Y0022983D01*
X0122260Y0022932D01*
X0122280Y0022879D01*
X0122296Y0022824D01*
X0122309Y0022769D01*
X0122319Y0022713D01*
X0122324Y0022657D01*
X0122326Y0022600D01*
X0122326Y0020000D01*
X0260700Y0090200D02*
X0260700Y0095400D01*
X0260700Y0093089D02*
X0263589Y0093089D01*
X0263589Y0095400D02*
X0263589Y0090200D01*
X0265908Y0091356D02*
X0268797Y0091356D01*
X0267930Y0092511D02*
X0267930Y0090200D01*
X0265908Y0091356D02*
X0267064Y0095400D01*
D13*
X0260100Y0083475D02*
X0260100Y0082475D01*
X0260100Y0083475D02*
X0258600Y0083475D01*
X0260100Y0078475D02*
X0260100Y0068475D01*
X0237100Y0068475D02*
X0237100Y0070975D01*
X0237100Y0075975D02*
X0237100Y0078475D01*
X0237100Y0085975D02*
X0237100Y0087475D01*
X0190277Y0124773D02*
X0178073Y0124773D01*
X0178073Y0136977D01*
X0190277Y0136977D01*
X0190277Y0124773D01*
X0237100Y0160325D02*
X0237100Y0162825D01*
X0237100Y0167825D02*
X0237100Y0170325D01*
X0237100Y0177825D02*
X0237100Y0179325D01*
X0258600Y0175325D02*
X0260100Y0175325D01*
X0260100Y0174325D01*
X0260100Y0170325D02*
X0260100Y0160325D01*
X0190277Y0216648D02*
X0178073Y0216648D01*
X0178073Y0228852D01*
X0190277Y0228852D01*
X0190277Y0216648D01*
X0237100Y0251600D02*
X0237100Y0254100D01*
X0237100Y0259100D02*
X0237100Y0261600D01*
X0237100Y0269100D02*
X0237100Y0270600D01*
X0258600Y0266600D02*
X0260100Y0266600D01*
X0260100Y0265600D01*
X0260100Y0261600D02*
X0260100Y0251600D01*
X0260100Y0343500D02*
X0260100Y0353500D01*
X0260100Y0357500D02*
X0260100Y0358500D01*
X0258600Y0358500D01*
X0237100Y0361000D02*
X0237100Y0362500D01*
X0237100Y0353500D02*
X0237100Y0351000D01*
X0237100Y0346000D02*
X0237100Y0343500D01*
X0190277Y0320727D02*
X0190277Y0308523D01*
X0178073Y0308523D01*
X0178073Y0320727D01*
X0190277Y0320727D01*
X0120318Y0349200D02*
X0108310Y0349200D01*
X0108310Y0366523D01*
X0120318Y0366523D01*
X0120318Y0349200D01*
X0078890Y0359638D02*
X0074560Y0359638D01*
X0074560Y0367512D02*
X0078890Y0367512D01*
X0078890Y0275637D02*
X0074560Y0275637D01*
X0074560Y0267763D02*
X0078890Y0267763D01*
X0108310Y0274648D02*
X0108310Y0257325D01*
X0120318Y0257325D01*
X0120318Y0274648D01*
X0108310Y0274648D01*
X0108310Y0182773D02*
X0108310Y0165450D01*
X0120318Y0165450D01*
X0120318Y0182773D01*
X0108310Y0182773D01*
X0078890Y0183762D02*
X0074560Y0183762D01*
X0074560Y0175888D02*
X0078890Y0175888D01*
X0078890Y0091887D02*
X0074560Y0091887D01*
X0074560Y0084013D02*
X0078890Y0084013D01*
X0108310Y0090898D02*
X0108310Y0073575D01*
X0120318Y0073575D01*
X0120318Y0090898D01*
X0108310Y0090898D01*
X0177448Y0045077D02*
X0177448Y0032873D01*
X0189652Y0032873D01*
X0189652Y0045077D01*
X0177448Y0045077D01*
D14*
X0236000Y0048600D02*
X0236000Y0018600D01*
X0253500Y0018600D01*
X0253500Y0048600D01*
X0261000Y0048600D01*
X0261000Y0018600D01*
X0253500Y0018600D01*
X0253500Y0048600D02*
X0236000Y0048600D01*
X0237100Y0068475D02*
X0237100Y0070975D01*
X0239600Y0070975D01*
X0239600Y0075975D01*
X0237100Y0075975D01*
X0237100Y0080975D01*
X0239600Y0080975D01*
X0239600Y0085975D01*
X0237100Y0085975D01*
X0237100Y0088475D01*
X0237100Y0078475D01*
X0237100Y0075975D02*
X0237100Y0070975D01*
X0237100Y0068475D02*
X0248600Y0068475D01*
X0260100Y0068475D01*
X0260100Y0073475D02*
X0256100Y0073475D01*
X0254100Y0074475D01*
X0254100Y0082475D01*
X0256100Y0083475D01*
X0256100Y0082475D01*
X0260100Y0082475D01*
X0260100Y0083475D02*
X0256100Y0083475D01*
X0256100Y0082475D02*
X0256100Y0074475D01*
X0260100Y0074475D01*
X0260100Y0078475D02*
X0260100Y0083475D01*
X0260100Y0088475D01*
X0248600Y0088475D01*
X0237100Y0088475D01*
X0256100Y0074475D02*
X0256100Y0073475D01*
X0260100Y0160325D02*
X0248600Y0160325D01*
X0237100Y0160325D01*
X0237100Y0162825D01*
X0239600Y0162825D01*
X0239600Y0167825D01*
X0237100Y0167825D01*
X0237100Y0172825D01*
X0239600Y0172825D01*
X0239600Y0177825D01*
X0237100Y0177825D01*
X0237100Y0180325D01*
X0237100Y0170325D01*
X0237100Y0167825D02*
X0237100Y0162825D01*
X0237100Y0180325D02*
X0248600Y0180325D01*
X0260100Y0180325D01*
X0260100Y0175325D01*
X0256100Y0175325D01*
X0254100Y0174325D01*
X0254100Y0166325D01*
X0256100Y0165325D01*
X0260100Y0165325D01*
X0260100Y0166325D02*
X0256100Y0166325D01*
X0256100Y0165325D01*
X0256100Y0166325D02*
X0256100Y0174325D01*
X0260100Y0174325D01*
X0260100Y0175325D02*
X0260100Y0170325D01*
X0256100Y0174325D02*
X0256100Y0175325D01*
X0260100Y0251600D02*
X0248600Y0251600D01*
X0237100Y0251600D01*
X0237100Y0254100D01*
X0239600Y0254100D01*
X0239600Y0259100D01*
X0237100Y0259100D01*
X0237100Y0264100D01*
X0239600Y0264100D01*
X0239600Y0269100D01*
X0237100Y0269100D01*
X0237100Y0271600D01*
X0237100Y0261600D01*
X0237100Y0259100D02*
X0237100Y0254100D01*
X0237100Y0271600D02*
X0248600Y0271600D01*
X0260100Y0271600D01*
X0260100Y0266600D01*
X0256100Y0266600D01*
X0254100Y0265600D01*
X0254100Y0257600D01*
X0256100Y0256600D01*
X0260100Y0256600D01*
X0260100Y0257600D02*
X0256100Y0257600D01*
X0256100Y0256600D01*
X0256100Y0257600D02*
X0256100Y0265600D01*
X0260100Y0265600D01*
X0260100Y0266600D02*
X0260100Y0261600D01*
X0256100Y0265600D02*
X0256100Y0266600D01*
X0260100Y0343500D02*
X0248600Y0343500D01*
X0237100Y0343500D01*
X0237100Y0346000D01*
X0239600Y0346000D01*
X0239600Y0351000D01*
X0237100Y0351000D01*
X0237100Y0356000D01*
X0239600Y0356000D01*
X0239600Y0361000D01*
X0237100Y0361000D01*
X0237100Y0363500D01*
X0237100Y0353500D01*
X0237100Y0351000D02*
X0237100Y0346000D01*
X0237100Y0363500D02*
X0248600Y0363500D01*
X0260100Y0363500D01*
X0260100Y0358500D01*
X0256100Y0358500D01*
X0254100Y0357500D01*
X0254100Y0349500D01*
X0256100Y0348500D01*
X0260100Y0348500D01*
X0260100Y0349500D02*
X0256100Y0349500D01*
X0256100Y0348500D01*
X0256100Y0349500D02*
X0256100Y0357500D01*
X0260100Y0357500D01*
X0260100Y0358500D02*
X0260100Y0353500D01*
X0256100Y0357500D02*
X0256100Y0358500D01*
X0076100Y0331075D02*
X0076100Y0313575D01*
X0056100Y0313575D01*
X0056100Y0331075D01*
X0076100Y0331075D01*
X0076100Y0313575D02*
X0076100Y0306075D01*
X0056100Y0306075D01*
X0056100Y0313575D01*
X0039000Y0315400D02*
X0039000Y0295400D01*
X0021500Y0295400D01*
X0021500Y0315400D01*
X0039000Y0315400D01*
X0021500Y0315400D02*
X0014000Y0315400D01*
X0014000Y0295400D01*
X0021500Y0295400D01*
X0021500Y0291400D02*
X0021500Y0271400D01*
X0014000Y0271400D01*
X0014000Y0291400D01*
X0021500Y0291400D01*
X0039000Y0291400D01*
X0039000Y0271400D01*
X0021500Y0271400D01*
X0021500Y0267400D02*
X0021500Y0247400D01*
X0014000Y0247400D01*
X0014000Y0267400D01*
X0021500Y0267400D01*
X0039000Y0267400D01*
X0039000Y0247400D01*
X0021500Y0247400D01*
X0021500Y0243400D02*
X0021500Y0223400D01*
X0014000Y0223400D01*
X0014000Y0243400D01*
X0021500Y0243400D01*
X0039000Y0243400D01*
X0039000Y0223400D01*
X0021500Y0223400D01*
X0021500Y0219400D02*
X0021500Y0199400D01*
X0014000Y0199400D01*
X0014000Y0219400D01*
X0021500Y0219400D01*
X0039000Y0219400D01*
X0039000Y0199400D01*
X0021500Y0199400D01*
X0021500Y0195400D02*
X0021500Y0175400D01*
X0014000Y0175400D01*
X0014000Y0195400D01*
X0021500Y0195400D01*
X0039000Y0195400D01*
X0039000Y0175400D01*
X0021500Y0175400D01*
X0021500Y0171400D02*
X0021500Y0151400D01*
X0014000Y0151400D01*
X0014000Y0171400D01*
X0021500Y0171400D01*
X0039000Y0171400D01*
X0039000Y0151400D01*
X0021500Y0151400D01*
X0021500Y0147400D02*
X0021500Y0127400D01*
X0014000Y0127400D01*
X0014000Y0147400D01*
X0021500Y0147400D01*
X0039000Y0147400D01*
X0039000Y0127400D01*
X0021500Y0127400D01*
X0021500Y0123400D02*
X0021500Y0103400D01*
X0014000Y0103400D01*
X0014000Y0123400D01*
X0021500Y0123400D01*
X0039000Y0123400D01*
X0039000Y0103400D01*
X0021500Y0103400D01*
X0056100Y0122302D02*
X0056100Y0129802D01*
X0076100Y0129802D01*
X0076100Y0122302D01*
X0056100Y0122302D01*
X0056100Y0129802D02*
X0056100Y0147302D01*
X0076100Y0147302D01*
X0076100Y0129802D01*
X0076100Y0055450D02*
X0056100Y0055450D01*
X0056100Y0037950D01*
X0076100Y0037950D01*
X0076100Y0030450D01*
X0056100Y0030450D01*
X0056100Y0037950D01*
X0076100Y0037950D02*
X0076100Y0055450D01*
X0076100Y0214200D02*
X0056100Y0214200D01*
X0056100Y0221700D01*
X0076100Y0221700D01*
X0076100Y0214200D01*
X0076100Y0221700D02*
X0076100Y0239200D01*
X0056100Y0239200D01*
X0056100Y0221700D01*
X0039000Y0343400D02*
X0021500Y0343400D01*
X0021500Y0363400D01*
X0039000Y0363400D01*
X0039000Y0343400D01*
X0021500Y0343400D02*
X0014000Y0343400D01*
X0014000Y0363400D01*
X0021500Y0363400D01*
D15*
X0247319Y0367756D02*
X0247386Y0367754D01*
X0247452Y0367748D01*
X0247518Y0367739D01*
X0247584Y0367725D01*
X0247648Y0367708D01*
X0247712Y0367687D01*
X0247774Y0367663D01*
X0247835Y0367635D01*
X0247893Y0367603D01*
X0247950Y0367568D01*
X0248005Y0367530D01*
X0248058Y0367489D01*
X0248108Y0367445D01*
X0248155Y0367398D01*
X0250544Y0365367D01*
X0250544Y0367756D01*
X0247200Y0365367D02*
X0247131Y0365391D01*
X0247064Y0365419D01*
X0246999Y0365450D01*
X0246935Y0365484D01*
X0246874Y0365522D01*
X0246814Y0365563D01*
X0246757Y0365607D01*
X0246702Y0365654D01*
X0246649Y0365704D01*
X0246599Y0365756D01*
X0246552Y0365811D01*
X0246508Y0365869D01*
X0246467Y0365928D01*
X0246429Y0365990D01*
X0246395Y0366054D01*
X0246364Y0366119D01*
X0246336Y0366186D01*
X0246312Y0366254D01*
X0246291Y0366323D01*
X0246274Y0366394D01*
X0246261Y0366465D01*
X0246252Y0366537D01*
X0246246Y0366609D01*
X0246244Y0366681D01*
X0246246Y0366744D01*
X0246251Y0366806D01*
X0246260Y0366868D01*
X0246273Y0366929D01*
X0246289Y0366989D01*
X0246309Y0367049D01*
X0246332Y0367107D01*
X0246358Y0367163D01*
X0246388Y0367219D01*
X0246421Y0367272D01*
X0246457Y0367323D01*
X0246496Y0367372D01*
X0246537Y0367419D01*
X0246581Y0367463D01*
X0246628Y0367504D01*
X0246677Y0367543D01*
X0246728Y0367579D01*
X0246782Y0367612D01*
X0246837Y0367642D01*
X0246893Y0367668D01*
X0246951Y0367691D01*
X0247011Y0367711D01*
X0247071Y0367727D01*
X0247132Y0367740D01*
X0247194Y0367749D01*
X0247256Y0367754D01*
X0247319Y0367756D01*
X0250844Y0340256D02*
X0250844Y0337867D01*
X0250844Y0339061D02*
X0246544Y0339061D01*
X0247500Y0337867D01*
X0250544Y0275856D02*
X0250544Y0273467D01*
X0248155Y0275498D01*
X0246244Y0274781D02*
X0246246Y0274709D01*
X0246252Y0274637D01*
X0246261Y0274565D01*
X0246274Y0274494D01*
X0246291Y0274423D01*
X0246312Y0274354D01*
X0246336Y0274286D01*
X0246364Y0274219D01*
X0246395Y0274154D01*
X0246429Y0274090D01*
X0246467Y0274028D01*
X0246508Y0273969D01*
X0246552Y0273911D01*
X0246599Y0273856D01*
X0246649Y0273804D01*
X0246702Y0273754D01*
X0246757Y0273707D01*
X0246814Y0273663D01*
X0246874Y0273622D01*
X0246935Y0273584D01*
X0246999Y0273550D01*
X0247064Y0273519D01*
X0247131Y0273491D01*
X0247200Y0273467D01*
X0248155Y0275498D02*
X0248108Y0275545D01*
X0248058Y0275589D01*
X0248005Y0275630D01*
X0247950Y0275668D01*
X0247893Y0275703D01*
X0247835Y0275735D01*
X0247774Y0275763D01*
X0247712Y0275787D01*
X0247648Y0275808D01*
X0247584Y0275825D01*
X0247518Y0275839D01*
X0247452Y0275848D01*
X0247386Y0275854D01*
X0247319Y0275856D01*
X0247256Y0275854D01*
X0247194Y0275849D01*
X0247132Y0275840D01*
X0247071Y0275827D01*
X0247011Y0275811D01*
X0246951Y0275791D01*
X0246893Y0275768D01*
X0246837Y0275742D01*
X0246782Y0275712D01*
X0246728Y0275679D01*
X0246677Y0275643D01*
X0246628Y0275604D01*
X0246581Y0275563D01*
X0246537Y0275519D01*
X0246496Y0275472D01*
X0246457Y0275423D01*
X0246421Y0275372D01*
X0246388Y0275319D01*
X0246358Y0275263D01*
X0246332Y0275207D01*
X0246309Y0275149D01*
X0246289Y0275089D01*
X0246273Y0275029D01*
X0246260Y0274968D01*
X0246251Y0274906D01*
X0246246Y0274844D01*
X0246244Y0274781D01*
X0250844Y0248356D02*
X0250844Y0245967D01*
X0250844Y0247161D02*
X0246544Y0247161D01*
X0247500Y0245967D01*
X0250544Y0184581D02*
X0250544Y0182192D01*
X0248155Y0184223D01*
X0246244Y0183506D02*
X0246246Y0183434D01*
X0246252Y0183362D01*
X0246261Y0183290D01*
X0246274Y0183219D01*
X0246291Y0183148D01*
X0246312Y0183079D01*
X0246336Y0183011D01*
X0246364Y0182944D01*
X0246395Y0182879D01*
X0246429Y0182815D01*
X0246467Y0182753D01*
X0246508Y0182694D01*
X0246552Y0182636D01*
X0246599Y0182581D01*
X0246649Y0182529D01*
X0246702Y0182479D01*
X0246757Y0182432D01*
X0246814Y0182388D01*
X0246874Y0182347D01*
X0246935Y0182309D01*
X0246999Y0182275D01*
X0247064Y0182244D01*
X0247131Y0182216D01*
X0247200Y0182192D01*
X0248155Y0184223D02*
X0248108Y0184270D01*
X0248058Y0184314D01*
X0248005Y0184355D01*
X0247950Y0184393D01*
X0247893Y0184428D01*
X0247835Y0184460D01*
X0247774Y0184488D01*
X0247712Y0184512D01*
X0247648Y0184533D01*
X0247584Y0184550D01*
X0247518Y0184564D01*
X0247452Y0184573D01*
X0247386Y0184579D01*
X0247319Y0184581D01*
X0247256Y0184579D01*
X0247194Y0184574D01*
X0247132Y0184565D01*
X0247071Y0184552D01*
X0247011Y0184536D01*
X0246951Y0184516D01*
X0246893Y0184493D01*
X0246837Y0184467D01*
X0246782Y0184437D01*
X0246728Y0184404D01*
X0246677Y0184368D01*
X0246628Y0184329D01*
X0246581Y0184288D01*
X0246537Y0184244D01*
X0246496Y0184197D01*
X0246457Y0184148D01*
X0246421Y0184097D01*
X0246388Y0184044D01*
X0246358Y0183988D01*
X0246332Y0183932D01*
X0246309Y0183874D01*
X0246289Y0183814D01*
X0246273Y0183754D01*
X0246260Y0183693D01*
X0246251Y0183631D01*
X0246246Y0183569D01*
X0246244Y0183506D01*
X0250844Y0157081D02*
X0250844Y0154692D01*
X0250844Y0155886D02*
X0246544Y0155886D01*
X0247500Y0154692D01*
X0250544Y0092731D02*
X0250544Y0090342D01*
X0248155Y0092373D01*
X0246244Y0091656D02*
X0246246Y0091584D01*
X0246252Y0091512D01*
X0246261Y0091440D01*
X0246274Y0091369D01*
X0246291Y0091298D01*
X0246312Y0091229D01*
X0246336Y0091161D01*
X0246364Y0091094D01*
X0246395Y0091029D01*
X0246429Y0090965D01*
X0246467Y0090903D01*
X0246508Y0090844D01*
X0246552Y0090786D01*
X0246599Y0090731D01*
X0246649Y0090679D01*
X0246702Y0090629D01*
X0246757Y0090582D01*
X0246814Y0090538D01*
X0246874Y0090497D01*
X0246935Y0090459D01*
X0246999Y0090425D01*
X0247064Y0090394D01*
X0247131Y0090366D01*
X0247200Y0090342D01*
X0248155Y0092373D02*
X0248108Y0092420D01*
X0248058Y0092464D01*
X0248005Y0092505D01*
X0247950Y0092543D01*
X0247893Y0092578D01*
X0247835Y0092610D01*
X0247774Y0092638D01*
X0247712Y0092662D01*
X0247648Y0092683D01*
X0247584Y0092700D01*
X0247518Y0092714D01*
X0247452Y0092723D01*
X0247386Y0092729D01*
X0247319Y0092731D01*
X0247256Y0092729D01*
X0247194Y0092724D01*
X0247132Y0092715D01*
X0247071Y0092702D01*
X0247011Y0092686D01*
X0246951Y0092666D01*
X0246893Y0092643D01*
X0246837Y0092617D01*
X0246782Y0092587D01*
X0246728Y0092554D01*
X0246677Y0092518D01*
X0246628Y0092479D01*
X0246581Y0092438D01*
X0246537Y0092394D01*
X0246496Y0092347D01*
X0246457Y0092298D01*
X0246421Y0092247D01*
X0246388Y0092194D01*
X0246358Y0092138D01*
X0246332Y0092082D01*
X0246309Y0092024D01*
X0246289Y0091964D01*
X0246273Y0091904D01*
X0246260Y0091843D01*
X0246251Y0091781D01*
X0246246Y0091719D01*
X0246244Y0091656D01*
X0250844Y0065231D02*
X0250844Y0062842D01*
X0250844Y0064036D02*
X0246544Y0064036D01*
X0247500Y0062842D01*
D16*
X0178825Y0034644D02*
X0178827Y0034683D01*
X0178833Y0034722D01*
X0178843Y0034760D01*
X0178856Y0034797D01*
X0178873Y0034832D01*
X0178893Y0034866D01*
X0178917Y0034897D01*
X0178944Y0034926D01*
X0178973Y0034952D01*
X0179005Y0034975D01*
X0179039Y0034995D01*
X0179075Y0035011D01*
X0179112Y0035023D01*
X0179151Y0035032D01*
X0179190Y0035037D01*
X0179229Y0035038D01*
X0179268Y0035035D01*
X0179307Y0035028D01*
X0179344Y0035017D01*
X0179381Y0035003D01*
X0179416Y0034985D01*
X0179449Y0034964D01*
X0179480Y0034939D01*
X0179508Y0034912D01*
X0179533Y0034882D01*
X0179555Y0034849D01*
X0179574Y0034815D01*
X0179589Y0034779D01*
X0179601Y0034741D01*
X0179609Y0034703D01*
X0179613Y0034664D01*
X0179613Y0034624D01*
X0179609Y0034585D01*
X0179601Y0034547D01*
X0179589Y0034509D01*
X0179574Y0034473D01*
X0179555Y0034439D01*
X0179533Y0034406D01*
X0179508Y0034376D01*
X0179480Y0034349D01*
X0179449Y0034324D01*
X0179416Y0034303D01*
X0179381Y0034285D01*
X0179344Y0034271D01*
X0179307Y0034260D01*
X0179268Y0034253D01*
X0179229Y0034250D01*
X0179190Y0034251D01*
X0179151Y0034256D01*
X0179112Y0034265D01*
X0179075Y0034277D01*
X0179039Y0034293D01*
X0179005Y0034313D01*
X0178973Y0034336D01*
X0178944Y0034362D01*
X0178917Y0034391D01*
X0178893Y0034422D01*
X0178873Y0034456D01*
X0178856Y0034491D01*
X0178843Y0034528D01*
X0178833Y0034566D01*
X0178827Y0034605D01*
X0178825Y0034644D01*
X0179450Y0126544D02*
X0179452Y0126583D01*
X0179458Y0126622D01*
X0179468Y0126660D01*
X0179481Y0126697D01*
X0179498Y0126732D01*
X0179518Y0126766D01*
X0179542Y0126797D01*
X0179569Y0126826D01*
X0179598Y0126852D01*
X0179630Y0126875D01*
X0179664Y0126895D01*
X0179700Y0126911D01*
X0179737Y0126923D01*
X0179776Y0126932D01*
X0179815Y0126937D01*
X0179854Y0126938D01*
X0179893Y0126935D01*
X0179932Y0126928D01*
X0179969Y0126917D01*
X0180006Y0126903D01*
X0180041Y0126885D01*
X0180074Y0126864D01*
X0180105Y0126839D01*
X0180133Y0126812D01*
X0180158Y0126782D01*
X0180180Y0126749D01*
X0180199Y0126715D01*
X0180214Y0126679D01*
X0180226Y0126641D01*
X0180234Y0126603D01*
X0180238Y0126564D01*
X0180238Y0126524D01*
X0180234Y0126485D01*
X0180226Y0126447D01*
X0180214Y0126409D01*
X0180199Y0126373D01*
X0180180Y0126339D01*
X0180158Y0126306D01*
X0180133Y0126276D01*
X0180105Y0126249D01*
X0180074Y0126224D01*
X0180041Y0126203D01*
X0180006Y0126185D01*
X0179969Y0126171D01*
X0179932Y0126160D01*
X0179893Y0126153D01*
X0179854Y0126150D01*
X0179815Y0126151D01*
X0179776Y0126156D01*
X0179737Y0126165D01*
X0179700Y0126177D01*
X0179664Y0126193D01*
X0179630Y0126213D01*
X0179598Y0126236D01*
X0179569Y0126262D01*
X0179542Y0126291D01*
X0179518Y0126322D01*
X0179498Y0126356D01*
X0179481Y0126391D01*
X0179468Y0126428D01*
X0179458Y0126466D01*
X0179452Y0126505D01*
X0179450Y0126544D01*
X0179450Y0218419D02*
X0179452Y0218458D01*
X0179458Y0218497D01*
X0179468Y0218535D01*
X0179481Y0218572D01*
X0179498Y0218607D01*
X0179518Y0218641D01*
X0179542Y0218672D01*
X0179569Y0218701D01*
X0179598Y0218727D01*
X0179630Y0218750D01*
X0179664Y0218770D01*
X0179700Y0218786D01*
X0179737Y0218798D01*
X0179776Y0218807D01*
X0179815Y0218812D01*
X0179854Y0218813D01*
X0179893Y0218810D01*
X0179932Y0218803D01*
X0179969Y0218792D01*
X0180006Y0218778D01*
X0180041Y0218760D01*
X0180074Y0218739D01*
X0180105Y0218714D01*
X0180133Y0218687D01*
X0180158Y0218657D01*
X0180180Y0218624D01*
X0180199Y0218590D01*
X0180214Y0218554D01*
X0180226Y0218516D01*
X0180234Y0218478D01*
X0180238Y0218439D01*
X0180238Y0218399D01*
X0180234Y0218360D01*
X0180226Y0218322D01*
X0180214Y0218284D01*
X0180199Y0218248D01*
X0180180Y0218214D01*
X0180158Y0218181D01*
X0180133Y0218151D01*
X0180105Y0218124D01*
X0180074Y0218099D01*
X0180041Y0218078D01*
X0180006Y0218060D01*
X0179969Y0218046D01*
X0179932Y0218035D01*
X0179893Y0218028D01*
X0179854Y0218025D01*
X0179815Y0218026D01*
X0179776Y0218031D01*
X0179737Y0218040D01*
X0179700Y0218052D01*
X0179664Y0218068D01*
X0179630Y0218088D01*
X0179598Y0218111D01*
X0179569Y0218137D01*
X0179542Y0218166D01*
X0179518Y0218197D01*
X0179498Y0218231D01*
X0179481Y0218266D01*
X0179468Y0218303D01*
X0179458Y0218341D01*
X0179452Y0218380D01*
X0179450Y0218419D01*
X0179450Y0310294D02*
X0179452Y0310333D01*
X0179458Y0310372D01*
X0179468Y0310410D01*
X0179481Y0310447D01*
X0179498Y0310482D01*
X0179518Y0310516D01*
X0179542Y0310547D01*
X0179569Y0310576D01*
X0179598Y0310602D01*
X0179630Y0310625D01*
X0179664Y0310645D01*
X0179700Y0310661D01*
X0179737Y0310673D01*
X0179776Y0310682D01*
X0179815Y0310687D01*
X0179854Y0310688D01*
X0179893Y0310685D01*
X0179932Y0310678D01*
X0179969Y0310667D01*
X0180006Y0310653D01*
X0180041Y0310635D01*
X0180074Y0310614D01*
X0180105Y0310589D01*
X0180133Y0310562D01*
X0180158Y0310532D01*
X0180180Y0310499D01*
X0180199Y0310465D01*
X0180214Y0310429D01*
X0180226Y0310391D01*
X0180234Y0310353D01*
X0180238Y0310314D01*
X0180238Y0310274D01*
X0180234Y0310235D01*
X0180226Y0310197D01*
X0180214Y0310159D01*
X0180199Y0310123D01*
X0180180Y0310089D01*
X0180158Y0310056D01*
X0180133Y0310026D01*
X0180105Y0309999D01*
X0180074Y0309974D01*
X0180041Y0309953D01*
X0180006Y0309935D01*
X0179969Y0309921D01*
X0179932Y0309910D01*
X0179893Y0309903D01*
X0179854Y0309900D01*
X0179815Y0309901D01*
X0179776Y0309906D01*
X0179737Y0309915D01*
X0179700Y0309927D01*
X0179664Y0309943D01*
X0179630Y0309963D01*
X0179598Y0309986D01*
X0179569Y0310012D01*
X0179542Y0310041D01*
X0179518Y0310072D01*
X0179498Y0310106D01*
X0179481Y0310141D01*
X0179468Y0310178D01*
X0179458Y0310216D01*
X0179452Y0310255D01*
X0179450Y0310294D01*
D17*
X0110414Y0353639D02*
X0110412Y0353605D01*
X0110407Y0353572D01*
X0110398Y0353540D01*
X0110386Y0353508D01*
X0110371Y0353478D01*
X0110353Y0353450D01*
X0110331Y0353424D01*
X0110307Y0353400D01*
X0110281Y0353378D01*
X0110253Y0353360D01*
X0110223Y0353345D01*
X0110191Y0353333D01*
X0110159Y0353324D01*
X0110126Y0353319D01*
X0110092Y0353317D01*
X0110092Y0353316D02*
X0110055Y0353318D01*
X0110018Y0353323D01*
X0109981Y0353331D01*
X0109946Y0353343D01*
X0109912Y0353359D01*
X0109879Y0353377D01*
X0109848Y0353398D01*
X0109820Y0353422D01*
X0109793Y0353448D01*
X0109770Y0353477D01*
X0109447Y0353639D02*
X0109413Y0353637D01*
X0109380Y0353632D01*
X0109347Y0353623D01*
X0109316Y0353611D01*
X0109286Y0353596D01*
X0109258Y0353578D01*
X0109232Y0353556D01*
X0109208Y0353532D01*
X0109186Y0353506D01*
X0109168Y0353478D01*
X0109153Y0353448D01*
X0109141Y0353417D01*
X0109132Y0353384D01*
X0109127Y0353351D01*
X0109125Y0353317D01*
X0109447Y0353639D02*
X0109484Y0353637D01*
X0109521Y0353632D01*
X0109558Y0353624D01*
X0109593Y0353612D01*
X0109627Y0353596D01*
X0109660Y0353578D01*
X0109691Y0353557D01*
X0109719Y0353533D01*
X0109746Y0353507D01*
X0109769Y0353478D01*
X0109770Y0261602D02*
X0109793Y0261573D01*
X0109820Y0261547D01*
X0109848Y0261523D01*
X0109879Y0261502D01*
X0109912Y0261484D01*
X0109946Y0261468D01*
X0109981Y0261456D01*
X0110018Y0261448D01*
X0110055Y0261443D01*
X0110092Y0261441D01*
X0110092Y0261442D02*
X0110126Y0261444D01*
X0110159Y0261449D01*
X0110191Y0261458D01*
X0110223Y0261470D01*
X0110253Y0261485D01*
X0110281Y0261503D01*
X0110307Y0261525D01*
X0110331Y0261549D01*
X0110353Y0261575D01*
X0110371Y0261603D01*
X0110386Y0261633D01*
X0110398Y0261665D01*
X0110407Y0261697D01*
X0110412Y0261730D01*
X0110414Y0261764D01*
X0109447Y0261764D02*
X0109413Y0261762D01*
X0109380Y0261757D01*
X0109347Y0261748D01*
X0109316Y0261736D01*
X0109286Y0261721D01*
X0109258Y0261703D01*
X0109232Y0261681D01*
X0109208Y0261657D01*
X0109186Y0261631D01*
X0109168Y0261603D01*
X0109153Y0261573D01*
X0109141Y0261542D01*
X0109132Y0261509D01*
X0109127Y0261476D01*
X0109125Y0261442D01*
X0109447Y0261764D02*
X0109484Y0261762D01*
X0109521Y0261757D01*
X0109558Y0261749D01*
X0109593Y0261737D01*
X0109627Y0261721D01*
X0109660Y0261703D01*
X0109691Y0261682D01*
X0109719Y0261658D01*
X0109746Y0261632D01*
X0109769Y0261603D01*
X0109770Y0169727D02*
X0109793Y0169698D01*
X0109820Y0169672D01*
X0109848Y0169648D01*
X0109879Y0169627D01*
X0109912Y0169609D01*
X0109946Y0169593D01*
X0109981Y0169581D01*
X0110018Y0169573D01*
X0110055Y0169568D01*
X0110092Y0169566D01*
X0110092Y0169567D02*
X0110126Y0169569D01*
X0110159Y0169574D01*
X0110191Y0169583D01*
X0110223Y0169595D01*
X0110253Y0169610D01*
X0110281Y0169628D01*
X0110307Y0169650D01*
X0110331Y0169674D01*
X0110353Y0169700D01*
X0110371Y0169728D01*
X0110386Y0169758D01*
X0110398Y0169790D01*
X0110407Y0169822D01*
X0110412Y0169855D01*
X0110414Y0169889D01*
X0109447Y0169889D02*
X0109413Y0169887D01*
X0109380Y0169882D01*
X0109347Y0169873D01*
X0109316Y0169861D01*
X0109286Y0169846D01*
X0109258Y0169828D01*
X0109232Y0169806D01*
X0109208Y0169782D01*
X0109186Y0169756D01*
X0109168Y0169728D01*
X0109153Y0169698D01*
X0109141Y0169667D01*
X0109132Y0169634D01*
X0109127Y0169601D01*
X0109125Y0169567D01*
X0109447Y0169889D02*
X0109484Y0169887D01*
X0109521Y0169882D01*
X0109558Y0169874D01*
X0109593Y0169862D01*
X0109627Y0169846D01*
X0109660Y0169828D01*
X0109691Y0169807D01*
X0109719Y0169783D01*
X0109746Y0169757D01*
X0109769Y0169728D01*
X0109770Y0077852D02*
X0109793Y0077823D01*
X0109820Y0077797D01*
X0109848Y0077773D01*
X0109879Y0077752D01*
X0109912Y0077734D01*
X0109946Y0077718D01*
X0109981Y0077706D01*
X0110018Y0077698D01*
X0110055Y0077693D01*
X0110092Y0077691D01*
X0110092Y0077692D02*
X0110126Y0077694D01*
X0110159Y0077699D01*
X0110191Y0077708D01*
X0110223Y0077720D01*
X0110253Y0077735D01*
X0110281Y0077753D01*
X0110307Y0077775D01*
X0110331Y0077799D01*
X0110353Y0077825D01*
X0110371Y0077853D01*
X0110386Y0077883D01*
X0110398Y0077915D01*
X0110407Y0077947D01*
X0110412Y0077980D01*
X0110414Y0078014D01*
X0109447Y0078014D02*
X0109413Y0078012D01*
X0109380Y0078007D01*
X0109347Y0077998D01*
X0109316Y0077986D01*
X0109286Y0077971D01*
X0109258Y0077953D01*
X0109232Y0077931D01*
X0109208Y0077907D01*
X0109186Y0077881D01*
X0109168Y0077853D01*
X0109153Y0077823D01*
X0109141Y0077792D01*
X0109132Y0077759D01*
X0109127Y0077726D01*
X0109125Y0077692D01*
X0109447Y0078014D02*
X0109484Y0078012D01*
X0109521Y0078007D01*
X0109558Y0077999D01*
X0109593Y0077987D01*
X0109627Y0077971D01*
X0109660Y0077953D01*
X0109691Y0077932D01*
X0109719Y0077908D01*
X0109746Y0077882D01*
X0109769Y0077853D01*
D18*
X0179700Y0088900D02*
X0183900Y0088900D01*
X0183900Y0090400D01*
X0184700Y0090400D01*
X0183900Y0071200D02*
X0183900Y0070400D01*
X0184700Y0070400D01*
X0203100Y0070400D02*
X0203900Y0070400D01*
X0203900Y0071200D01*
X0203900Y0089600D02*
X0203900Y0090400D01*
X0203100Y0090400D01*
X0203100Y0162200D02*
X0203900Y0162200D01*
X0203900Y0163000D01*
X0203900Y0181400D02*
X0203900Y0182200D01*
X0203100Y0182200D01*
X0184700Y0182200D02*
X0183900Y0182200D01*
X0183900Y0180700D01*
X0179700Y0180700D01*
X0183900Y0163000D02*
X0183900Y0162200D01*
X0184700Y0162200D01*
X0184700Y0254000D02*
X0183900Y0254000D01*
X0183900Y0254800D01*
X0183900Y0272500D02*
X0179700Y0272500D01*
X0183900Y0272500D02*
X0183900Y0274000D01*
X0184700Y0274000D01*
X0203100Y0274000D02*
X0203900Y0274000D01*
X0203900Y0273200D01*
X0203900Y0254800D02*
X0203900Y0254000D01*
X0203100Y0254000D01*
X0203100Y0345800D02*
X0203900Y0345800D01*
X0203900Y0346600D01*
X0203900Y0365000D02*
X0203900Y0365800D01*
X0203100Y0365800D01*
X0184700Y0365800D02*
X0183900Y0365800D01*
X0183900Y0364300D01*
X0179700Y0364300D01*
X0183900Y0346600D02*
X0183900Y0345800D01*
X0184700Y0345800D01*
D19*
X0186100Y0349456D02*
X0186100Y0352200D01*
X0188211Y0352200D02*
X0188211Y0349456D01*
X0188212Y0349456D02*
X0188210Y0349392D01*
X0188204Y0349329D01*
X0188195Y0349266D01*
X0188181Y0349203D01*
X0188164Y0349142D01*
X0188143Y0349082D01*
X0188119Y0349023D01*
X0188091Y0348965D01*
X0188060Y0348910D01*
X0188025Y0348856D01*
X0187987Y0348805D01*
X0187946Y0348756D01*
X0187903Y0348709D01*
X0187856Y0348666D01*
X0187807Y0348625D01*
X0187756Y0348587D01*
X0187702Y0348552D01*
X0187647Y0348521D01*
X0187589Y0348493D01*
X0187530Y0348469D01*
X0187470Y0348448D01*
X0187409Y0348431D01*
X0187346Y0348417D01*
X0187283Y0348408D01*
X0187220Y0348402D01*
X0187156Y0348400D01*
X0187092Y0348402D01*
X0187029Y0348408D01*
X0186966Y0348417D01*
X0186903Y0348431D01*
X0186842Y0348448D01*
X0186782Y0348469D01*
X0186723Y0348493D01*
X0186665Y0348521D01*
X0186610Y0348552D01*
X0186556Y0348587D01*
X0186505Y0348625D01*
X0186456Y0348666D01*
X0186409Y0348709D01*
X0186366Y0348756D01*
X0186325Y0348805D01*
X0186287Y0348856D01*
X0186252Y0348910D01*
X0186221Y0348965D01*
X0186193Y0349023D01*
X0186169Y0349082D01*
X0186148Y0349142D01*
X0186131Y0349203D01*
X0186117Y0349266D01*
X0186108Y0349329D01*
X0186102Y0349392D01*
X0186100Y0349456D01*
X0189820Y0348400D02*
X0191931Y0348400D01*
X0190876Y0348400D02*
X0190876Y0352200D01*
X0189820Y0351356D01*
X0188211Y0260400D02*
X0188211Y0257656D01*
X0188212Y0257656D02*
X0188210Y0257592D01*
X0188204Y0257529D01*
X0188195Y0257466D01*
X0188181Y0257403D01*
X0188164Y0257342D01*
X0188143Y0257282D01*
X0188119Y0257223D01*
X0188091Y0257165D01*
X0188060Y0257110D01*
X0188025Y0257056D01*
X0187987Y0257005D01*
X0187946Y0256956D01*
X0187903Y0256909D01*
X0187856Y0256866D01*
X0187807Y0256825D01*
X0187756Y0256787D01*
X0187702Y0256752D01*
X0187647Y0256721D01*
X0187589Y0256693D01*
X0187530Y0256669D01*
X0187470Y0256648D01*
X0187409Y0256631D01*
X0187346Y0256617D01*
X0187283Y0256608D01*
X0187220Y0256602D01*
X0187156Y0256600D01*
X0187092Y0256602D01*
X0187029Y0256608D01*
X0186966Y0256617D01*
X0186903Y0256631D01*
X0186842Y0256648D01*
X0186782Y0256669D01*
X0186723Y0256693D01*
X0186665Y0256721D01*
X0186610Y0256752D01*
X0186556Y0256787D01*
X0186505Y0256825D01*
X0186456Y0256866D01*
X0186409Y0256909D01*
X0186366Y0256956D01*
X0186325Y0257005D01*
X0186287Y0257056D01*
X0186252Y0257110D01*
X0186221Y0257165D01*
X0186193Y0257223D01*
X0186169Y0257282D01*
X0186148Y0257342D01*
X0186131Y0257403D01*
X0186117Y0257466D01*
X0186108Y0257529D01*
X0186102Y0257592D01*
X0186100Y0257656D01*
X0186100Y0260400D01*
X0189820Y0256600D02*
X0191931Y0256600D01*
X0189820Y0256600D02*
X0191614Y0258711D01*
X0190981Y0260400D02*
X0190914Y0260398D01*
X0190848Y0260393D01*
X0190782Y0260384D01*
X0190716Y0260371D01*
X0190652Y0260355D01*
X0190588Y0260335D01*
X0190525Y0260312D01*
X0190464Y0260285D01*
X0190405Y0260255D01*
X0190347Y0260222D01*
X0190291Y0260186D01*
X0190237Y0260147D01*
X0190185Y0260105D01*
X0190136Y0260060D01*
X0190089Y0260012D01*
X0190045Y0259962D01*
X0190003Y0259910D01*
X0189965Y0259855D01*
X0189930Y0259799D01*
X0189897Y0259740D01*
X0189868Y0259680D01*
X0189843Y0259619D01*
X0189820Y0259556D01*
X0191614Y0258711D02*
X0191656Y0258753D01*
X0191695Y0258797D01*
X0191731Y0258844D01*
X0191765Y0258892D01*
X0191796Y0258943D01*
X0191824Y0258995D01*
X0191849Y0259048D01*
X0191870Y0259103D01*
X0191889Y0259159D01*
X0191904Y0259216D01*
X0191916Y0259274D01*
X0191924Y0259332D01*
X0191929Y0259391D01*
X0191931Y0259450D01*
X0191929Y0259510D01*
X0191924Y0259569D01*
X0191914Y0259628D01*
X0191901Y0259686D01*
X0191885Y0259744D01*
X0191864Y0259800D01*
X0191841Y0259854D01*
X0191813Y0259908D01*
X0191783Y0259959D01*
X0191750Y0260008D01*
X0191713Y0260056D01*
X0191674Y0260100D01*
X0191631Y0260143D01*
X0191587Y0260182D01*
X0191539Y0260219D01*
X0191490Y0260252D01*
X0191439Y0260282D01*
X0191385Y0260310D01*
X0191331Y0260333D01*
X0191275Y0260354D01*
X0191217Y0260370D01*
X0191159Y0260383D01*
X0191100Y0260393D01*
X0191041Y0260398D01*
X0190981Y0260400D01*
X0191087Y0168600D02*
X0189820Y0168600D01*
X0191087Y0168600D02*
X0191143Y0168598D01*
X0191199Y0168592D01*
X0191255Y0168583D01*
X0191310Y0168570D01*
X0191364Y0168553D01*
X0191416Y0168533D01*
X0191468Y0168509D01*
X0191517Y0168482D01*
X0191565Y0168452D01*
X0191610Y0168418D01*
X0191653Y0168382D01*
X0191694Y0168343D01*
X0191732Y0168301D01*
X0191766Y0168257D01*
X0191798Y0168210D01*
X0191827Y0168162D01*
X0191853Y0168111D01*
X0191875Y0168059D01*
X0191893Y0168006D01*
X0191908Y0167952D01*
X0191919Y0167896D01*
X0191927Y0167840D01*
X0191931Y0167784D01*
X0191931Y0167728D01*
X0191927Y0167672D01*
X0191919Y0167616D01*
X0191908Y0167560D01*
X0191893Y0167506D01*
X0191875Y0167453D01*
X0191853Y0167401D01*
X0191827Y0167350D01*
X0191798Y0167302D01*
X0191766Y0167255D01*
X0191732Y0167211D01*
X0191694Y0167169D01*
X0191653Y0167130D01*
X0191610Y0167094D01*
X0191565Y0167060D01*
X0191517Y0167030D01*
X0191468Y0167003D01*
X0191416Y0166979D01*
X0191364Y0166959D01*
X0191310Y0166942D01*
X0191255Y0166929D01*
X0191199Y0166920D01*
X0191143Y0166914D01*
X0191087Y0166912D01*
X0191087Y0166911D02*
X0190242Y0166911D01*
X0190876Y0166912D02*
X0190940Y0166910D01*
X0191003Y0166904D01*
X0191066Y0166895D01*
X0191129Y0166881D01*
X0191190Y0166864D01*
X0191250Y0166843D01*
X0191309Y0166819D01*
X0191367Y0166791D01*
X0191422Y0166760D01*
X0191476Y0166725D01*
X0191527Y0166687D01*
X0191576Y0166646D01*
X0191623Y0166603D01*
X0191666Y0166556D01*
X0191707Y0166507D01*
X0191745Y0166456D01*
X0191780Y0166402D01*
X0191811Y0166347D01*
X0191839Y0166289D01*
X0191863Y0166230D01*
X0191884Y0166170D01*
X0191901Y0166109D01*
X0191915Y0166046D01*
X0191924Y0165983D01*
X0191930Y0165920D01*
X0191932Y0165856D01*
X0191930Y0165792D01*
X0191924Y0165729D01*
X0191915Y0165666D01*
X0191901Y0165603D01*
X0191884Y0165542D01*
X0191863Y0165482D01*
X0191839Y0165423D01*
X0191811Y0165365D01*
X0191780Y0165310D01*
X0191745Y0165256D01*
X0191707Y0165205D01*
X0191666Y0165156D01*
X0191623Y0165109D01*
X0191576Y0165066D01*
X0191527Y0165025D01*
X0191476Y0164987D01*
X0191422Y0164952D01*
X0191367Y0164921D01*
X0191309Y0164893D01*
X0191250Y0164869D01*
X0191190Y0164848D01*
X0191129Y0164831D01*
X0191066Y0164817D01*
X0191003Y0164808D01*
X0190940Y0164802D01*
X0190876Y0164800D01*
X0189820Y0164800D01*
X0188211Y0165856D02*
X0188211Y0168600D01*
X0186100Y0168600D02*
X0186100Y0165856D01*
X0186102Y0165792D01*
X0186108Y0165729D01*
X0186117Y0165666D01*
X0186131Y0165603D01*
X0186148Y0165542D01*
X0186169Y0165482D01*
X0186193Y0165423D01*
X0186221Y0165365D01*
X0186252Y0165310D01*
X0186287Y0165256D01*
X0186325Y0165205D01*
X0186366Y0165156D01*
X0186409Y0165109D01*
X0186456Y0165066D01*
X0186505Y0165025D01*
X0186556Y0164987D01*
X0186610Y0164952D01*
X0186665Y0164921D01*
X0186723Y0164893D01*
X0186782Y0164869D01*
X0186842Y0164848D01*
X0186903Y0164831D01*
X0186966Y0164817D01*
X0187029Y0164808D01*
X0187092Y0164802D01*
X0187156Y0164800D01*
X0187220Y0164802D01*
X0187283Y0164808D01*
X0187346Y0164817D01*
X0187409Y0164831D01*
X0187470Y0164848D01*
X0187530Y0164869D01*
X0187589Y0164893D01*
X0187647Y0164921D01*
X0187702Y0164952D01*
X0187756Y0164987D01*
X0187807Y0165025D01*
X0187856Y0165066D01*
X0187903Y0165109D01*
X0187946Y0165156D01*
X0187987Y0165205D01*
X0188025Y0165256D01*
X0188060Y0165310D01*
X0188091Y0165365D01*
X0188119Y0165423D01*
X0188143Y0165482D01*
X0188164Y0165542D01*
X0188181Y0165603D01*
X0188195Y0165666D01*
X0188204Y0165729D01*
X0188210Y0165792D01*
X0188212Y0165856D01*
X0188211Y0076800D02*
X0188211Y0074056D01*
X0188212Y0074056D02*
X0188210Y0073992D01*
X0188204Y0073929D01*
X0188195Y0073866D01*
X0188181Y0073803D01*
X0188164Y0073742D01*
X0188143Y0073682D01*
X0188119Y0073623D01*
X0188091Y0073565D01*
X0188060Y0073510D01*
X0188025Y0073456D01*
X0187987Y0073405D01*
X0187946Y0073356D01*
X0187903Y0073309D01*
X0187856Y0073266D01*
X0187807Y0073225D01*
X0187756Y0073187D01*
X0187702Y0073152D01*
X0187647Y0073121D01*
X0187589Y0073093D01*
X0187530Y0073069D01*
X0187470Y0073048D01*
X0187409Y0073031D01*
X0187346Y0073017D01*
X0187283Y0073008D01*
X0187220Y0073002D01*
X0187156Y0073000D01*
X0187092Y0073002D01*
X0187029Y0073008D01*
X0186966Y0073017D01*
X0186903Y0073031D01*
X0186842Y0073048D01*
X0186782Y0073069D01*
X0186723Y0073093D01*
X0186665Y0073121D01*
X0186610Y0073152D01*
X0186556Y0073187D01*
X0186505Y0073225D01*
X0186456Y0073266D01*
X0186409Y0073309D01*
X0186366Y0073356D01*
X0186325Y0073405D01*
X0186287Y0073456D01*
X0186252Y0073510D01*
X0186221Y0073565D01*
X0186193Y0073623D01*
X0186169Y0073682D01*
X0186148Y0073742D01*
X0186131Y0073803D01*
X0186117Y0073866D01*
X0186108Y0073929D01*
X0186102Y0073992D01*
X0186100Y0074056D01*
X0186100Y0076800D01*
X0190664Y0076800D02*
X0189820Y0073844D01*
X0191931Y0073844D01*
X0191298Y0074689D02*
X0191298Y0073000D01*
M02*
