%
M48
M72
T01C0.00984
T02C0.03937
T03C0.04000
T04C0.05197
T05C0.05512
T06C0.12850
%
T01
X65500Y91200
X65500Y104400
X76300Y88200
X80500Y93000
X87700Y100200
X79300Y109800
X85900Y75000
X115300Y78000
X115300Y86400
X168100Y90600
X174100Y96000
X186700Y96600
X190900Y96600
X195100Y96600
X199300Y96600
X196900Y88200
X192700Y88200
X189100Y88200
X186100Y77400
X189100Y72600
X196900Y72600
X201700Y81000
X216100Y82800
X225700Y86400
X235300Y72600
X211900Y97800
X189800Y128375
X180425Y134625
X176675Y139000
X179800Y155250
X173500Y156600
X169300Y169800
X176500Y171000
X186100Y169200
X189100Y164400
X196900Y164400
X201700Y172200
X196900Y180000
X192700Y180000
X189100Y180000
X190900Y188400
X195100Y188400
X199300Y188400
X186700Y188400
X177925Y202750
X174800Y210250
X167925Y210250
X180425Y226500
X176675Y230875
X179800Y247125
X173500Y248400
X169300Y261600
X176500Y262800
X186100Y261000
X189100Y256200
X196900Y256200
X201700Y264600
X196900Y271800
X192700Y271800
X188500Y271800
X186700Y280200
X190900Y280200
X195100Y280200
X199300Y280200
X211900Y281400
X216100Y266400
X225700Y270000
X235300Y256200
X192925Y234000
X189800Y220250
X174100Y188400
X168100Y182400
X192925Y142125
X174800Y118375
X167925Y118375
X177925Y110875
X177100Y79200
X169300Y78600
X173500Y64800
X179800Y63975
X176050Y47100
X179800Y42725
X189175Y37100
X192300Y50850
X174175Y26475
X167925Y26475
X177300Y18975
X235300Y163200
X225700Y178200
X216100Y174000
X211900Y190200
X168100Y274200
X173500Y280200
X178550Y294625
X174800Y302125
X168550Y302125
X180425Y318375
X176675Y322750
X180425Y339000
X173500Y340200
X169300Y354000
X177100Y354600
X186100Y352800
X189100Y348000
X196900Y348000
X201700Y356400
X197500Y363600
X192700Y363600
X188500Y363600
X186700Y372000
X190900Y372000
X195100Y372000
X199300Y372000
X211900Y373200
X214300Y358800
X223300Y362400
X234100Y348600
X196300Y328800
X189800Y312125
X168100Y366000
X174100Y372000
X115475Y361700
X115475Y354200
X86725Y350450
X76725Y363575
X80475Y368575
X87350Y376075
X79225Y384825
X65475Y379200
X64850Y366700
X79225Y292950
X87350Y284200
X80475Y276700
X76725Y271700
X86100Y259200
X65475Y274825
X65475Y287325
X115475Y269825
X115475Y262325
X79225Y201075
X87975Y192950
X80475Y184825
X76725Y179825
X86100Y167325
X65475Y182950
X65475Y195450
X115475Y177950
X115475Y170450
T02
X71100Y134802
X61100Y134802
X26500Y132400
X26500Y142400
X26500Y156400
X26500Y166400
X26500Y180400
X26500Y190400
X26500Y204400
X26500Y214400
X26500Y228400
X26500Y238400
X26500Y252400
X26500Y262400
X26500Y276400
X26500Y286400
X26500Y300400
X26500Y310400
X26500Y348400
X26500Y358400
X61100Y318575
X71100Y318575
X71100Y226700
X61100Y226700
X26500Y118400
X26500Y108400
X61100Y42950
X71100Y42950
X248500Y43600
X248500Y33600
X248500Y23600
T03
X248600Y73475
X248600Y83475
X248600Y165325
X248600Y175325
X248600Y256600
X248600Y266600
X248600Y348500
X248600Y358500
T04
X264700Y219600
X264700Y209757
T05
X257850Y214679
T06
X26100Y79200
X26100Y329200
X276100Y329200
X276100Y79200
M30
