G75*
%MOIN*%
%OFA0B0*%
%FSLAX25Y25*%
%IPPOS*%
%LPD*%
%AMOC8*
5,1,8,0,0,1.08239X$1,22.5*
%
%ADD10C,0.13650*%
%ADD11R,0.04737X0.05131*%
%ADD12R,0.05131X0.04737*%
%ADD13R,0.05052X0.04934*%
%ADD14C,0.06800*%
%ADD15C,0.06737*%
%ADD16C,0.08595*%
%ADD17C,0.06312*%
%ADD18C,0.03384*%
D10*
X0026100Y0079200D03*
X0026100Y0329200D03*
X0276100Y0329200D03*
X0276100Y0079200D03*
D11*
X0189750Y0168879D03*
X0189750Y0175571D03*
X0189750Y0260754D03*
X0189750Y0267446D03*
X0189750Y0352629D03*
X0189750Y0359321D03*
D12*
X0197254Y0359975D03*
X0203946Y0359975D03*
X0203946Y0268100D03*
X0197254Y0268100D03*
X0197254Y0176200D03*
X0203946Y0176200D03*
X0203946Y0084350D03*
X0197254Y0084350D03*
D13*
X0190300Y0083795D03*
X0190300Y0076905D03*
D14*
X0245600Y0073475D02*
X0251600Y0073475D01*
X0251600Y0083475D02*
X0245600Y0083475D01*
X0245600Y0165325D02*
X0251600Y0165325D01*
X0251600Y0175325D02*
X0245600Y0175325D01*
X0245600Y0256600D02*
X0251600Y0256600D01*
X0251600Y0266600D02*
X0245600Y0266600D01*
X0245600Y0348500D02*
X0251600Y0348500D01*
X0251600Y0358500D02*
X0245600Y0358500D01*
D15*
X0071100Y0321544D02*
X0071100Y0315606D01*
X0061100Y0315606D02*
X0061100Y0321544D01*
X0029469Y0310400D02*
X0023531Y0310400D01*
X0023531Y0300400D02*
X0029469Y0300400D01*
X0029469Y0286400D02*
X0023531Y0286400D01*
X0023531Y0276400D02*
X0029469Y0276400D01*
X0029469Y0262400D02*
X0023531Y0262400D01*
X0023531Y0252400D02*
X0029469Y0252400D01*
X0029469Y0238400D02*
X0023531Y0238400D01*
X0023531Y0228400D02*
X0029469Y0228400D01*
X0029469Y0214400D02*
X0023531Y0214400D01*
X0023531Y0204400D02*
X0029469Y0204400D01*
X0029469Y0190400D02*
X0023531Y0190400D01*
X0023531Y0180400D02*
X0029469Y0180400D01*
X0029469Y0166400D02*
X0023531Y0166400D01*
X0023531Y0156400D02*
X0029469Y0156400D01*
X0029469Y0142400D02*
X0023531Y0142400D01*
X0023531Y0132400D02*
X0029469Y0132400D01*
X0029469Y0118400D02*
X0023531Y0118400D01*
X0023531Y0108400D02*
X0029469Y0108400D01*
X0061100Y0131834D02*
X0061100Y0137771D01*
X0071100Y0137771D02*
X0071100Y0131834D01*
X0071100Y0045919D02*
X0071100Y0039981D01*
X0061100Y0039981D02*
X0061100Y0045919D01*
X0061100Y0223731D02*
X0061100Y0229669D01*
X0071100Y0229669D02*
X0071100Y0223731D01*
X0029469Y0348400D02*
X0023531Y0348400D01*
X0023531Y0358400D02*
X0029469Y0358400D01*
X0245531Y0043600D02*
X0251469Y0043600D01*
X0251469Y0033600D02*
X0245531Y0033600D01*
X0245531Y0023600D02*
X0251469Y0023600D01*
D16*
X0264700Y0209757D03*
X0264700Y0219600D03*
D17*
X0257850Y0214679D03*
D18*
X0235300Y0256200D03*
X0225700Y0270000D03*
X0216100Y0266400D03*
X0211900Y0281400D03*
X0201700Y0264600D03*
X0196900Y0271800D03*
X0192700Y0271800D03*
X0188500Y0271800D03*
X0186100Y0261000D03*
X0189100Y0256200D03*
X0196900Y0256200D03*
X0179800Y0247125D03*
X0173500Y0248400D03*
X0169300Y0261600D03*
X0176500Y0262800D03*
X0168100Y0274200D03*
X0173500Y0280200D03*
X0178550Y0294625D03*
X0174800Y0302125D03*
X0168550Y0302125D03*
X0180425Y0318375D03*
X0176675Y0322750D03*
X0180425Y0339000D03*
X0173500Y0340200D03*
X0169300Y0354000D03*
X0177100Y0354600D03*
X0186100Y0352800D03*
X0189100Y0348000D03*
X0196900Y0348000D03*
X0201700Y0356400D03*
X0197500Y0363600D03*
X0192700Y0363600D03*
X0188500Y0363600D03*
X0186700Y0372000D03*
X0190900Y0372000D03*
X0195100Y0372000D03*
X0199300Y0372000D03*
X0211900Y0373200D03*
X0214300Y0358800D03*
X0223300Y0362400D03*
X0234100Y0348600D03*
X0196300Y0328800D03*
X0189800Y0312125D03*
X0190900Y0280200D03*
X0195100Y0280200D03*
X0199300Y0280200D03*
X0186700Y0280200D03*
X0192925Y0234000D03*
X0189800Y0220250D03*
X0180425Y0226500D03*
X0176675Y0230875D03*
X0174800Y0210250D03*
X0167925Y0210250D03*
X0177925Y0202750D03*
X0174100Y0188400D03*
X0168100Y0182400D03*
X0169300Y0169800D03*
X0176500Y0171000D03*
X0186100Y0169200D03*
X0189100Y0164400D03*
X0196900Y0164400D03*
X0201700Y0172200D03*
X0196900Y0180000D03*
X0192700Y0180000D03*
X0189100Y0180000D03*
X0190900Y0188400D03*
X0195100Y0188400D03*
X0199300Y0188400D03*
X0186700Y0188400D03*
X0179800Y0155250D03*
X0173500Y0156600D03*
X0176675Y0139000D03*
X0180425Y0134625D03*
X0189800Y0128375D03*
X0192925Y0142125D03*
X0174800Y0118375D03*
X0167925Y0118375D03*
X0177925Y0110875D03*
X0174100Y0096000D03*
X0168100Y0090600D03*
X0169300Y0078600D03*
X0177100Y0079200D03*
X0186100Y0077400D03*
X0189100Y0072600D03*
X0196900Y0072600D03*
X0201700Y0081000D03*
X0196900Y0088200D03*
X0192700Y0088200D03*
X0189100Y0088200D03*
X0190900Y0096600D03*
X0195100Y0096600D03*
X0199300Y0096600D03*
X0186700Y0096600D03*
X0179800Y0063975D03*
X0173500Y0064800D03*
X0176050Y0047100D03*
X0179800Y0042725D03*
X0189175Y0037100D03*
X0192300Y0050850D03*
X0174175Y0026475D03*
X0167925Y0026475D03*
X0177300Y0018975D03*
X0216100Y0082800D03*
X0225700Y0086400D03*
X0235300Y0072600D03*
X0211900Y0097800D03*
X0235300Y0163200D03*
X0225700Y0178200D03*
X0216100Y0174000D03*
X0211900Y0190200D03*
X0115475Y0177950D03*
X0115475Y0170450D03*
X0087975Y0192950D03*
X0080475Y0184825D03*
X0076725Y0179825D03*
X0086100Y0167325D03*
X0065475Y0182950D03*
X0065475Y0195450D03*
X0079225Y0201075D03*
X0086100Y0259200D03*
X0076725Y0271700D03*
X0080475Y0276700D03*
X0087350Y0284200D03*
X0079225Y0292950D03*
X0065475Y0287325D03*
X0065475Y0274825D03*
X0115475Y0269825D03*
X0115475Y0262325D03*
X0086725Y0350450D03*
X0076725Y0363575D03*
X0080475Y0368575D03*
X0087350Y0376075D03*
X0079225Y0384825D03*
X0065475Y0379200D03*
X0064850Y0366700D03*
X0115475Y0361700D03*
X0115475Y0354200D03*
X0168100Y0366000D03*
X0174100Y0372000D03*
X0079300Y0109800D03*
X0087700Y0100200D03*
X0080500Y0093000D03*
X0076300Y0088200D03*
X0085900Y0075000D03*
X0065500Y0091200D03*
X0065500Y0104400D03*
X0115300Y0086400D03*
X0115300Y0078000D03*
M02*
